%TF.GenerationSoftware,Altium Limited,Altium Designer,23.1.1 (15)*%
G04 Layer_Physical_Order=2*
G04 Layer_Color=36540*
%FSLAX25Y25*%
%MOIN*%
%TF.SameCoordinates,FA324DF6-1FC1-44E6-B842-7DB02DEBFDBB*%
%TF.FilePolarity,Positive*%
%TF.FileFunction,Copper,L2,Inr,Signal*%
%TF.Part,Single*%
G01*
G75*
%TA.AperFunction,ComponentPad*%
%ADD17C,0.14488*%
%ADD18R,0.06299X0.06299*%
%ADD19C,0.06299*%
%ADD20R,0.06201X0.06201*%
%ADD21C,0.06201*%
%ADD22R,0.06102X0.06102*%
%ADD23C,0.06102*%
%ADD24R,0.07972X0.07972*%
%ADD25C,0.07972*%
%ADD26C,0.06496*%
%ADD27R,0.06496X0.06496*%
%ADD28R,0.06201X0.06201*%
%ADD29R,0.07244X0.07244*%
%ADD30C,0.07244*%
%ADD31R,0.06181X0.06181*%
%ADD32C,0.06181*%
%ADD33C,0.05610*%
%ADD34R,0.05610X0.05610*%
%ADD35R,0.07382X0.07382*%
%ADD36C,0.07382*%
%ADD37R,0.06181X0.06181*%
%TA.AperFunction,WasherPad*%
%ADD38C,0.25000*%
%TA.AperFunction,ViaPad*%
%ADD39C,0.02756*%
G36*
X-11020Y350009D02*
X-9200Y349256D01*
X-7562Y348161D01*
X-6169Y346768D01*
X-5075Y345130D01*
X-4321Y343311D01*
X-3937Y341379D01*
Y340394D01*
Y318898D01*
Y13937D01*
Y12952D01*
X-4321Y11020D01*
X-5075Y9200D01*
X-6169Y7562D01*
X-7562Y6169D01*
X-9200Y5075D01*
X-11020Y4321D01*
X-12952Y3937D01*
X-365001D01*
X-366933Y4321D01*
X-368753Y5075D01*
X-370390Y6169D01*
X-371783Y7562D01*
X-372878Y9200D01*
X-373632Y11020D01*
X-374016Y12952D01*
Y13937D01*
Y149774D01*
X-373516Y149981D01*
X-373274Y149739D01*
X-372478Y149409D01*
X-371617D01*
X-370821Y149739D01*
X-370212Y150348D01*
X-369882Y151144D01*
Y152006D01*
X-370212Y152801D01*
X-370821Y153410D01*
X-371617Y153740D01*
X-372478D01*
X-373274Y153410D01*
X-373516Y153169D01*
X-374016Y153376D01*
Y306603D01*
X-373516Y306937D01*
X-373090Y306761D01*
X-372228D01*
X-371432Y307090D01*
X-370823Y307699D01*
X-370494Y308495D01*
Y309357D01*
X-370823Y310153D01*
X-371432Y310762D01*
X-372228Y311091D01*
X-373090D01*
X-373516Y310915D01*
X-374016Y311249D01*
Y340394D01*
Y341379D01*
X-373632Y343311D01*
X-372878Y345130D01*
X-371783Y346768D01*
X-370390Y348161D01*
X-368753Y349256D01*
X-366933Y350009D01*
X-365001Y350394D01*
X-12952D01*
X-11020Y350009D01*
D02*
G37*
%LPC*%
G36*
X-174766Y345713D02*
X-175628D01*
X-176423Y345383D01*
X-177032Y344774D01*
X-177362Y343978D01*
Y343116D01*
X-177032Y342321D01*
X-176423Y341711D01*
X-175628Y341382D01*
X-174766D01*
X-173970Y341711D01*
X-173361Y342321D01*
X-173031Y343116D01*
Y343978D01*
X-173361Y344774D01*
X-173970Y345383D01*
X-174766Y345713D01*
D02*
G37*
G36*
X-161264Y342831D02*
X-164354D01*
Y339740D01*
X-161264D01*
Y342831D01*
D02*
G37*
G36*
X-166354D02*
X-169445D01*
Y339740D01*
X-166354D01*
Y342831D01*
D02*
G37*
G36*
X-194433D02*
X-197524D01*
Y339740D01*
X-194433D01*
Y342831D01*
D02*
G37*
G36*
X-199524D02*
X-202614D01*
Y339740D01*
X-199524D01*
Y342831D01*
D02*
G37*
G36*
X-243664Y342717D02*
X-244525D01*
X-245321Y342387D01*
X-245930Y341778D01*
X-246260Y340982D01*
Y340121D01*
X-245930Y339325D01*
X-245321Y338716D01*
X-244525Y338386D01*
X-243664D01*
X-242868Y338716D01*
X-242259Y339325D01*
X-241929Y340121D01*
Y340982D01*
X-242259Y341778D01*
X-242868Y342387D01*
X-243664Y342717D01*
D02*
G37*
G36*
X-332695Y340360D02*
X-333556D01*
X-334352Y340030D01*
X-334961Y339421D01*
X-335291Y338625D01*
Y337764D01*
X-334961Y336968D01*
X-334352Y336359D01*
X-333556Y336029D01*
X-332695D01*
X-331899Y336359D01*
X-331290Y336968D01*
X-330960Y337764D01*
Y338625D01*
X-331290Y339421D01*
X-331899Y340030D01*
X-332695Y340360D01*
D02*
G37*
G36*
X-39000Y338671D02*
Y336000D01*
X-36329D01*
X-36454Y336469D01*
X-36955Y337336D01*
X-37664Y338045D01*
X-38531Y338546D01*
X-39000Y338671D01*
D02*
G37*
G36*
X-49000D02*
Y336000D01*
X-46329D01*
X-46454Y336469D01*
X-46955Y337336D01*
X-47664Y338045D01*
X-48531Y338546D01*
X-49000Y338671D01*
D02*
G37*
G36*
X-41000D02*
X-41469Y338546D01*
X-42336Y338045D01*
X-43045Y337336D01*
X-43546Y336469D01*
X-43671Y336000D01*
X-41000D01*
Y338671D01*
D02*
G37*
G36*
X-51000D02*
X-51469Y338546D01*
X-52336Y338045D01*
X-53045Y337336D01*
X-53546Y336469D01*
X-53671Y336000D01*
X-51000D01*
Y338671D01*
D02*
G37*
G36*
X-161264Y337740D02*
X-164354D01*
Y334650D01*
X-161264D01*
Y337740D01*
D02*
G37*
G36*
X-166354D02*
X-169445D01*
Y334650D01*
X-166354D01*
Y337740D01*
D02*
G37*
G36*
X-194433Y337740D02*
X-197524D01*
Y334650D01*
X-194433D01*
Y337740D01*
D02*
G37*
G36*
X-199524D02*
X-202614D01*
Y334650D01*
X-199524D01*
Y337740D01*
D02*
G37*
G36*
X-220564Y336461D02*
X-221426D01*
X-222222Y336131D01*
X-222831Y335522D01*
X-223160Y334726D01*
Y333865D01*
X-222831Y333069D01*
X-222222Y332460D01*
X-221426Y332130D01*
X-220564D01*
X-219769Y332460D01*
X-219159Y333069D01*
X-218830Y333865D01*
Y334726D01*
X-219159Y335522D01*
X-219769Y336131D01*
X-220564Y336461D01*
D02*
G37*
G36*
X-46329Y334000D02*
X-49000D01*
Y331329D01*
X-48531Y331454D01*
X-47664Y331955D01*
X-46955Y332664D01*
X-46454Y333531D01*
X-46329Y334000D01*
D02*
G37*
G36*
X-36329D02*
X-39000D01*
Y331329D01*
X-38531Y331454D01*
X-37664Y331955D01*
X-36955Y332664D01*
X-36454Y333531D01*
X-36329Y334000D01*
D02*
G37*
G36*
X-41000D02*
X-43671D01*
X-43546Y333531D01*
X-43045Y332664D01*
X-42336Y331955D01*
X-41469Y331454D01*
X-41000Y331329D01*
Y334000D01*
D02*
G37*
G36*
X-51000D02*
X-53671D01*
X-53546Y333531D01*
X-53045Y332664D01*
X-52336Y331955D01*
X-51469Y331454D01*
X-51000Y331329D01*
Y334000D01*
D02*
G37*
G36*
X-334265Y332374D02*
X-335126D01*
X-335922Y332045D01*
X-336531Y331435D01*
X-336861Y330640D01*
Y329778D01*
X-336531Y328982D01*
X-335922Y328373D01*
X-335126Y328044D01*
X-334265D01*
X-333469Y328373D01*
X-332860Y328982D01*
X-332530Y329778D01*
Y330640D01*
X-332860Y331435D01*
X-333469Y332045D01*
X-334265Y332374D01*
D02*
G37*
G36*
X-49000Y328671D02*
Y326000D01*
X-46329D01*
X-46454Y326469D01*
X-46955Y327336D01*
X-47664Y328045D01*
X-48531Y328546D01*
X-49000Y328671D01*
D02*
G37*
G36*
X-51000D02*
X-51469Y328546D01*
X-52336Y328045D01*
X-53045Y327336D01*
X-53546Y326469D01*
X-53671Y326000D01*
X-51000D01*
Y328671D01*
D02*
G37*
G36*
X-65177Y333681D02*
X-66240D01*
X-67266Y333406D01*
X-68186Y332875D01*
X-68938Y332123D01*
X-69469Y331203D01*
X-69744Y330177D01*
Y329114D01*
X-69469Y328088D01*
X-68938Y327168D01*
X-68186Y326416D01*
X-67266Y325885D01*
X-66240Y325610D01*
X-65177D01*
X-64151Y325885D01*
X-63231Y326416D01*
X-62480Y327168D01*
X-61948Y328088D01*
X-61673Y329114D01*
Y330177D01*
X-61948Y331203D01*
X-62480Y332123D01*
X-63231Y332875D01*
X-64151Y333406D01*
X-65177Y333681D01*
D02*
G37*
G36*
X-75177D02*
X-76240D01*
X-77266Y333406D01*
X-78187Y332875D01*
X-78938Y332123D01*
X-79469Y331203D01*
X-79744Y330177D01*
Y329114D01*
X-79469Y328088D01*
X-78938Y327168D01*
X-78187Y326416D01*
X-77266Y325885D01*
X-76240Y325610D01*
X-75177D01*
X-74151Y325885D01*
X-73231Y326416D01*
X-72479Y327168D01*
X-71948Y328088D01*
X-71673Y329114D01*
Y330177D01*
X-71948Y331203D01*
X-72479Y332123D01*
X-73231Y332875D01*
X-74151Y333406D01*
X-75177Y333681D01*
D02*
G37*
G36*
X-85177D02*
X-86240D01*
X-87266Y333406D01*
X-88187Y332875D01*
X-88938Y332123D01*
X-89469Y331203D01*
X-89744Y330177D01*
Y329114D01*
X-89469Y328088D01*
X-88938Y327168D01*
X-88187Y326416D01*
X-87266Y325885D01*
X-86240Y325610D01*
X-85177D01*
X-84151Y325885D01*
X-83231Y326416D01*
X-82480Y327168D01*
X-81948Y328088D01*
X-81673Y329114D01*
Y330177D01*
X-81948Y331203D01*
X-82480Y332123D01*
X-83231Y332875D01*
X-84151Y333406D01*
X-85177Y333681D01*
D02*
G37*
G36*
X-91673D02*
X-99744D01*
Y325610D01*
X-91673D01*
Y333681D01*
D02*
G37*
G36*
X-164844Y332618D02*
X-165865D01*
X-166851Y332354D01*
X-167735Y331843D01*
X-168457Y331121D01*
X-168968Y330237D01*
X-169232Y329251D01*
Y328230D01*
X-168968Y327243D01*
X-168457Y326359D01*
X-167735Y325637D01*
X-166851Y325127D01*
X-165865Y324862D01*
X-164844D01*
X-163857Y325127D01*
X-162973Y325637D01*
X-162251Y326359D01*
X-161741Y327243D01*
X-161476Y328230D01*
Y329251D01*
X-161741Y330237D01*
X-162251Y331121D01*
X-162973Y331843D01*
X-163857Y332354D01*
X-164844Y332618D01*
D02*
G37*
G36*
X-198013D02*
X-199034D01*
X-200021Y332354D01*
X-200905Y331843D01*
X-201627Y331121D01*
X-202137Y330237D01*
X-202402Y329251D01*
Y328230D01*
X-202137Y327243D01*
X-201627Y326359D01*
X-200905Y325637D01*
X-200021Y325127D01*
X-199034Y324862D01*
X-198013D01*
X-197027Y325127D01*
X-196142Y325637D01*
X-195421Y326359D01*
X-194910Y327243D01*
X-194646Y328230D01*
Y329251D01*
X-194910Y330237D01*
X-195421Y331121D01*
X-196142Y331843D01*
X-197027Y332354D01*
X-198013Y332618D01*
D02*
G37*
G36*
X-18954Y348287D02*
X-21046D01*
X-23111Y347960D01*
X-25101Y347314D01*
X-26964Y346364D01*
X-28656Y345135D01*
X-30135Y343656D01*
X-31364Y341964D01*
X-32314Y340101D01*
X-32960Y338111D01*
X-33287Y336046D01*
Y333954D01*
X-32960Y331889D01*
X-32314Y329899D01*
X-31364Y328036D01*
X-30135Y326344D01*
X-28656Y324865D01*
X-26964Y323636D01*
X-25101Y322686D01*
X-23111Y322040D01*
X-21046Y321713D01*
X-18954D01*
X-16888Y322040D01*
X-14899Y322686D01*
X-13036Y323636D01*
X-11344Y324865D01*
X-9865Y326344D01*
X-8636Y328036D01*
X-7686Y329899D01*
X-7040Y331889D01*
X-6713Y333954D01*
Y336046D01*
X-7040Y338111D01*
X-7686Y340101D01*
X-8636Y341964D01*
X-9865Y343656D01*
X-11344Y345135D01*
X-13036Y346364D01*
X-14899Y347314D01*
X-16888Y347960D01*
X-18954Y348287D01*
D02*
G37*
G36*
X-39527Y328592D02*
X-40473D01*
X-41387Y328348D01*
X-42206Y327875D01*
X-42875Y327206D01*
X-43348Y326387D01*
X-43593Y325473D01*
Y324527D01*
X-43348Y323613D01*
X-42875Y322794D01*
X-42206Y322125D01*
X-41387Y321652D01*
X-40473Y321408D01*
X-39527D01*
X-38613Y321652D01*
X-37794Y322125D01*
X-37125Y322794D01*
X-36652Y323613D01*
X-36408Y324527D01*
Y325473D01*
X-36652Y326387D01*
X-37125Y327206D01*
X-37794Y327875D01*
X-38613Y328348D01*
X-39527Y328592D01*
D02*
G37*
G36*
X-46329Y324000D02*
X-49000D01*
Y321329D01*
X-48531Y321454D01*
X-47664Y321955D01*
X-46955Y322664D01*
X-46454Y323531D01*
X-46329Y324000D01*
D02*
G37*
G36*
X-51000D02*
X-53671D01*
X-53546Y323531D01*
X-53045Y322664D01*
X-52336Y321955D01*
X-51469Y321454D01*
X-51000Y321329D01*
Y324000D01*
D02*
G37*
G36*
X-260683Y326457D02*
X-261719D01*
X-262720Y326188D01*
X-263618Y325670D01*
X-264351Y324937D01*
X-264869Y324039D01*
X-265138Y323038D01*
Y322001D01*
X-264869Y321000D01*
X-264351Y320102D01*
X-263618Y319369D01*
X-262720Y318851D01*
X-261719Y318583D01*
X-260683D01*
X-259681Y318851D01*
X-258783Y319369D01*
X-258050Y320102D01*
X-257532Y321000D01*
X-257264Y322001D01*
Y323038D01*
X-257532Y324039D01*
X-258050Y324937D01*
X-258783Y325670D01*
X-259681Y326188D01*
X-260683Y326457D01*
D02*
G37*
G36*
X-271588D02*
X-272625D01*
X-273626Y326188D01*
X-274524Y325670D01*
X-275257Y324937D01*
X-275775Y324039D01*
X-276043Y323038D01*
Y322001D01*
X-275775Y321000D01*
X-275257Y320102D01*
X-274524Y319369D01*
X-273626Y318851D01*
X-272625Y318583D01*
X-271588D01*
X-270587Y318851D01*
X-269689Y319369D01*
X-268956Y320102D01*
X-268438Y321000D01*
X-268169Y322001D01*
Y323038D01*
X-268438Y324039D01*
X-268956Y324937D01*
X-269689Y325670D01*
X-270587Y326188D01*
X-271588Y326457D01*
D02*
G37*
G36*
X-282493D02*
X-283530D01*
X-284531Y326188D01*
X-285429Y325670D01*
X-286162Y324937D01*
X-286681Y324039D01*
X-286949Y323038D01*
Y322001D01*
X-286681Y321000D01*
X-286162Y320102D01*
X-285429Y319369D01*
X-284531Y318851D01*
X-283530Y318583D01*
X-282493D01*
X-281492Y318851D01*
X-280594Y319369D01*
X-279861Y320102D01*
X-279343Y321000D01*
X-279075Y322001D01*
Y323038D01*
X-279343Y324039D01*
X-279861Y324937D01*
X-280594Y325670D01*
X-281492Y326188D01*
X-282493Y326457D01*
D02*
G37*
G36*
X-293399D02*
X-294436D01*
X-295437Y326188D01*
X-296335Y325670D01*
X-297068Y324937D01*
X-297586Y324039D01*
X-297854Y323038D01*
Y322001D01*
X-297586Y321000D01*
X-297068Y320102D01*
X-296335Y319369D01*
X-295437Y318851D01*
X-294436Y318583D01*
X-293399D01*
X-292398Y318851D01*
X-291500Y319369D01*
X-290767Y320102D01*
X-290249Y321000D01*
X-289980Y322001D01*
Y323038D01*
X-290249Y324039D01*
X-290767Y324937D01*
X-291500Y325670D01*
X-292398Y326188D01*
X-293399Y326457D01*
D02*
G37*
G36*
X-227346Y325136D02*
Y317929D01*
X-220140D01*
X-220419Y319334D01*
X-221041Y320834D01*
X-221943Y322184D01*
X-223091Y323333D01*
X-224441Y324235D01*
X-225942Y324856D01*
X-227346Y325136D01*
D02*
G37*
G36*
X-325772D02*
Y317929D01*
X-318565D01*
X-318844Y319334D01*
X-319466Y320834D01*
X-320368Y322184D01*
X-321516Y323333D01*
X-322867Y324235D01*
X-324367Y324856D01*
X-325772Y325136D01*
D02*
G37*
G36*
X-327772D02*
X-329176Y324856D01*
X-330677Y324235D01*
X-332027Y323333D01*
X-333175Y322184D01*
X-334078Y320834D01*
X-334699Y319334D01*
X-334978Y317929D01*
X-327772D01*
Y325136D01*
D02*
G37*
G36*
X-229346D02*
X-230751Y324856D01*
X-232252Y324235D01*
X-233602Y323333D01*
X-234750Y322184D01*
X-235652Y320834D01*
X-236274Y319334D01*
X-236553Y317929D01*
X-229346D01*
Y325136D01*
D02*
G37*
G36*
X-29097Y321063D02*
X-29958D01*
X-30754Y320733D01*
X-31363Y320124D01*
X-31693Y319328D01*
Y318467D01*
X-31363Y317671D01*
X-30754Y317062D01*
X-29958Y316732D01*
X-29097D01*
X-28301Y317062D01*
X-27692Y317671D01*
X-27362Y318467D01*
Y319328D01*
X-27692Y320124D01*
X-28301Y320733D01*
X-29097Y321063D01*
D02*
G37*
G36*
X-188546D02*
X-189407D01*
X-190203Y320733D01*
X-190812Y320124D01*
X-191142Y319328D01*
Y318467D01*
X-190812Y317671D01*
X-190203Y317062D01*
X-189407Y316732D01*
X-188546D01*
X-187750Y317062D01*
X-187141Y317671D01*
X-186811Y318467D01*
Y319328D01*
X-187141Y320124D01*
X-187750Y320733D01*
X-188546Y321063D01*
D02*
G37*
G36*
X-164844Y322618D02*
X-165865D01*
X-166851Y322354D01*
X-167735Y321843D01*
X-168457Y321121D01*
X-168968Y320237D01*
X-169232Y319251D01*
Y318230D01*
X-168968Y317243D01*
X-168457Y316359D01*
X-167735Y315637D01*
X-166851Y315126D01*
X-165865Y314862D01*
X-164844D01*
X-163857Y315126D01*
X-162973Y315637D01*
X-162251Y316359D01*
X-161741Y317243D01*
X-161476Y318230D01*
Y319251D01*
X-161741Y320237D01*
X-162251Y321121D01*
X-162973Y321843D01*
X-163857Y322354D01*
X-164844Y322618D01*
D02*
G37*
G36*
X-198013D02*
X-199034D01*
X-200021Y322354D01*
X-200905Y321843D01*
X-201627Y321121D01*
X-202137Y320237D01*
X-202402Y319251D01*
Y318230D01*
X-202137Y317243D01*
X-201627Y316359D01*
X-200905Y315637D01*
X-200021Y315126D01*
X-199034Y314862D01*
X-198013D01*
X-197027Y315126D01*
X-196142Y315637D01*
X-195421Y316359D01*
X-194910Y317243D01*
X-194646Y318230D01*
Y319251D01*
X-194910Y320237D01*
X-195421Y321121D01*
X-196142Y321843D01*
X-197027Y322354D01*
X-198013Y322618D01*
D02*
G37*
G36*
X-254748Y315367D02*
Y312339D01*
X-251720D01*
X-251881Y312940D01*
X-252428Y313886D01*
X-253200Y314659D01*
X-254146Y315205D01*
X-254748Y315367D01*
D02*
G37*
G36*
X-256748Y315367D02*
X-257350Y315205D01*
X-258296Y314659D01*
X-259069Y313886D01*
X-259615Y312940D01*
X-259776Y312339D01*
X-256748D01*
Y315367D01*
D02*
G37*
G36*
X-356474Y338287D02*
X-358565D01*
X-360631Y337960D01*
X-362620Y337314D01*
X-364484Y336364D01*
X-366176Y335135D01*
X-367655Y333656D01*
X-368884Y331964D01*
X-369834Y330101D01*
X-370480Y328112D01*
X-370807Y326046D01*
Y323954D01*
X-370480Y321888D01*
X-369834Y319899D01*
X-368884Y318036D01*
X-367655Y316344D01*
X-366176Y314865D01*
X-364484Y313636D01*
X-362620Y312686D01*
X-360631Y312040D01*
X-358565Y311713D01*
X-356474D01*
X-354408Y312040D01*
X-352419Y312686D01*
X-350556Y313636D01*
X-348864Y314865D01*
X-347385Y316344D01*
X-346155Y318036D01*
X-345206Y319899D01*
X-344560Y321888D01*
X-344232Y323954D01*
Y326046D01*
X-344560Y328112D01*
X-345206Y330101D01*
X-346155Y331964D01*
X-347385Y333656D01*
X-348864Y335135D01*
X-350556Y336364D01*
X-352419Y337314D01*
X-354408Y337960D01*
X-356474Y338287D01*
D02*
G37*
G36*
X-39527Y318593D02*
X-40473D01*
X-41387Y318348D01*
X-42206Y317875D01*
X-42875Y317206D01*
X-43348Y316387D01*
X-43593Y315473D01*
Y314527D01*
X-43348Y313613D01*
X-42875Y312794D01*
X-42206Y312125D01*
X-41387Y311652D01*
X-40473Y311407D01*
X-39527D01*
X-38613Y311652D01*
X-37794Y312125D01*
X-37125Y312794D01*
X-36652Y313613D01*
X-36408Y314527D01*
Y315473D01*
X-36652Y316387D01*
X-37125Y317206D01*
X-37794Y317875D01*
X-38613Y318348D01*
X-39527Y318593D01*
D02*
G37*
G36*
X-49527D02*
X-50473D01*
X-51387Y318348D01*
X-52206Y317875D01*
X-52875Y317206D01*
X-53348Y316387D01*
X-53592Y315473D01*
Y314527D01*
X-53348Y313613D01*
X-52875Y312794D01*
X-52206Y312125D01*
X-51387Y311652D01*
X-50473Y311407D01*
X-49527D01*
X-48613Y311652D01*
X-47794Y312125D01*
X-47125Y312794D01*
X-46652Y313613D01*
X-46407Y314527D01*
Y315473D01*
X-46652Y316387D01*
X-47125Y317206D01*
X-47794Y317875D01*
X-48613Y318348D01*
X-49527Y318593D01*
D02*
G37*
G36*
X-67915Y316870D02*
X-68936D01*
X-69922Y316606D01*
X-70806Y316095D01*
X-71528Y315373D01*
X-72039Y314489D01*
X-72303Y313503D01*
Y312482D01*
X-72039Y311495D01*
X-71528Y310611D01*
X-70806Y309889D01*
X-69922Y309379D01*
X-68936Y309114D01*
X-67915D01*
X-66928Y309379D01*
X-66044Y309889D01*
X-65322Y310611D01*
X-64811Y311495D01*
X-64547Y312482D01*
Y313503D01*
X-64811Y314489D01*
X-65322Y315373D01*
X-66044Y316095D01*
X-66928Y316606D01*
X-67915Y316870D01*
D02*
G37*
G36*
X-77915D02*
X-78936D01*
X-79922Y316606D01*
X-80806Y316095D01*
X-81528Y315373D01*
X-82039Y314489D01*
X-82303Y313503D01*
Y312482D01*
X-82039Y311495D01*
X-81528Y310611D01*
X-80806Y309889D01*
X-79922Y309379D01*
X-78936Y309114D01*
X-77915D01*
X-76928Y309379D01*
X-76044Y309889D01*
X-75322Y310611D01*
X-74812Y311495D01*
X-74547Y312482D01*
Y313503D01*
X-74812Y314489D01*
X-75322Y315373D01*
X-76044Y316095D01*
X-76928Y316606D01*
X-77915Y316870D01*
D02*
G37*
G36*
X-87915D02*
X-88936D01*
X-89922Y316606D01*
X-90806Y316095D01*
X-91528Y315373D01*
X-92039Y314489D01*
X-92303Y313503D01*
Y312482D01*
X-92039Y311495D01*
X-91528Y310611D01*
X-90806Y309889D01*
X-89922Y309379D01*
X-88936Y309114D01*
X-87915D01*
X-86928Y309379D01*
X-86044Y309889D01*
X-85322Y310611D01*
X-84812Y311495D01*
X-84547Y312482D01*
Y313503D01*
X-84812Y314489D01*
X-85322Y315373D01*
X-86044Y316095D01*
X-86928Y316606D01*
X-87915Y316870D01*
D02*
G37*
G36*
X-97915D02*
X-98936D01*
X-99922Y316606D01*
X-100806Y316095D01*
X-101528Y315373D01*
X-102039Y314489D01*
X-102303Y313503D01*
Y312482D01*
X-102039Y311495D01*
X-101528Y310611D01*
X-100806Y309889D01*
X-99922Y309379D01*
X-98936Y309114D01*
X-97915D01*
X-96928Y309379D01*
X-96044Y309889D01*
X-95322Y310611D01*
X-94811Y311495D01*
X-94547Y312482D01*
Y313503D01*
X-94811Y314489D01*
X-95322Y315373D01*
X-96044Y316095D01*
X-96928Y316606D01*
X-97915Y316870D01*
D02*
G37*
G36*
X-107915D02*
X-108936D01*
X-109922Y316606D01*
X-110806Y316095D01*
X-111528Y315373D01*
X-112039Y314489D01*
X-112303Y313503D01*
Y312482D01*
X-112039Y311495D01*
X-111528Y310611D01*
X-110806Y309889D01*
X-109922Y309379D01*
X-108936Y309114D01*
X-107915D01*
X-106928Y309379D01*
X-106044Y309889D01*
X-105322Y310611D01*
X-104812Y311495D01*
X-104547Y312482D01*
Y313503D01*
X-104812Y314489D01*
X-105322Y315373D01*
X-106044Y316095D01*
X-106928Y316606D01*
X-107915Y316870D01*
D02*
G37*
G36*
X-117915D02*
X-118936D01*
X-119922Y316606D01*
X-120806Y316095D01*
X-121528Y315373D01*
X-122039Y314489D01*
X-122303Y313503D01*
Y312482D01*
X-122039Y311495D01*
X-121528Y310611D01*
X-120806Y309889D01*
X-119922Y309379D01*
X-118936Y309114D01*
X-117915D01*
X-116928Y309379D01*
X-116044Y309889D01*
X-115322Y310611D01*
X-114812Y311495D01*
X-114547Y312482D01*
Y313503D01*
X-114812Y314489D01*
X-115322Y315373D01*
X-116044Y316095D01*
X-116928Y316606D01*
X-117915Y316870D01*
D02*
G37*
G36*
X-127915D02*
X-128936D01*
X-129922Y316606D01*
X-130806Y316095D01*
X-131528Y315373D01*
X-132039Y314489D01*
X-132303Y313503D01*
Y312482D01*
X-132039Y311495D01*
X-131528Y310611D01*
X-130806Y309889D01*
X-129922Y309379D01*
X-128936Y309114D01*
X-127915D01*
X-126928Y309379D01*
X-126044Y309889D01*
X-125322Y310611D01*
X-124811Y311495D01*
X-124547Y312482D01*
Y313503D01*
X-124811Y314489D01*
X-125322Y315373D01*
X-126044Y316095D01*
X-126928Y316606D01*
X-127915Y316870D01*
D02*
G37*
G36*
X-134547D02*
X-142303D01*
Y309114D01*
X-134547D01*
Y316870D01*
D02*
G37*
G36*
X-182640Y313189D02*
X-183502D01*
X-184297Y312859D01*
X-184907Y312250D01*
X-185236Y311454D01*
Y310593D01*
X-184907Y309797D01*
X-184297Y309188D01*
X-183502Y308858D01*
X-182640D01*
X-181844Y309188D01*
X-181235Y309797D01*
X-180905Y310593D01*
Y311454D01*
X-181235Y312250D01*
X-181844Y312859D01*
X-182640Y313189D01*
D02*
G37*
G36*
X-327772Y315929D02*
X-334978D01*
X-334699Y314524D01*
X-334078Y313024D01*
X-333175Y311674D01*
X-332027Y310525D01*
X-330677Y309623D01*
X-329176Y309002D01*
X-327772Y308722D01*
Y315929D01*
D02*
G37*
G36*
X-229346D02*
X-236553D01*
X-236274Y314524D01*
X-235652Y313024D01*
X-234750Y311674D01*
X-233602Y310525D01*
X-232252Y309623D01*
X-230751Y309002D01*
X-229346Y308722D01*
Y315929D01*
D02*
G37*
G36*
X-220140D02*
X-227346D01*
Y308722D01*
X-225942Y309002D01*
X-224441Y309623D01*
X-223091Y310525D01*
X-221943Y311674D01*
X-221041Y313024D01*
X-220419Y314524D01*
X-220140Y315929D01*
D02*
G37*
G36*
X-318565D02*
X-325772D01*
Y308722D01*
X-324367Y309002D01*
X-322867Y309623D01*
X-321516Y310525D01*
X-320368Y311674D01*
X-319466Y313024D01*
X-318844Y314524D01*
X-318565Y315929D01*
D02*
G37*
G36*
X-266135Y315276D02*
X-267172D01*
X-268173Y315007D01*
X-269071Y314489D01*
X-269804Y313756D01*
X-270322Y312858D01*
X-270590Y311857D01*
Y310820D01*
X-270322Y309819D01*
X-269804Y308921D01*
X-269071Y308188D01*
X-268173Y307670D01*
X-267172Y307402D01*
X-266135D01*
X-265134Y307670D01*
X-264236Y308188D01*
X-263503Y308921D01*
X-262985Y309819D01*
X-262717Y310820D01*
Y311857D01*
X-262985Y312858D01*
X-263503Y313756D01*
X-264236Y314489D01*
X-265134Y315007D01*
X-266135Y315276D01*
D02*
G37*
G36*
X-277041D02*
X-278077D01*
X-279079Y315007D01*
X-279976Y314489D01*
X-280709Y313756D01*
X-281228Y312858D01*
X-281496Y311857D01*
Y310820D01*
X-281228Y309819D01*
X-280709Y308921D01*
X-279976Y308188D01*
X-279079Y307670D01*
X-278077Y307402D01*
X-277041D01*
X-276039Y307670D01*
X-275142Y308188D01*
X-274409Y308921D01*
X-273890Y309819D01*
X-273622Y310820D01*
Y311857D01*
X-273890Y312858D01*
X-274409Y313756D01*
X-275142Y314489D01*
X-276039Y315007D01*
X-277041Y315276D01*
D02*
G37*
G36*
X-287946D02*
X-288983D01*
X-289984Y315007D01*
X-290882Y314489D01*
X-291615Y313756D01*
X-292133Y312858D01*
X-292402Y311857D01*
Y310820D01*
X-292133Y309819D01*
X-291615Y308921D01*
X-290882Y308188D01*
X-289984Y307670D01*
X-288983Y307402D01*
X-287946D01*
X-286945Y307670D01*
X-286047Y308188D01*
X-285314Y308921D01*
X-284796Y309819D01*
X-284528Y310820D01*
Y311857D01*
X-284796Y312858D01*
X-285314Y313756D01*
X-286047Y314489D01*
X-286945Y315007D01*
X-287946Y315276D01*
D02*
G37*
G36*
X-295433D02*
X-303307D01*
Y307402D01*
X-295433D01*
Y315276D01*
D02*
G37*
G36*
X-256748Y310339D02*
X-259776D01*
X-259615Y309737D01*
X-259069Y308791D01*
X-258296Y308018D01*
X-257350Y307472D01*
X-256748Y307311D01*
Y310339D01*
D02*
G37*
G36*
X-251720D02*
X-254748D01*
Y307311D01*
X-254146Y307472D01*
X-253200Y308018D01*
X-252428Y308791D01*
X-251881Y309737D01*
X-251720Y310339D01*
D02*
G37*
G36*
X-64530Y307283D02*
X-65391D01*
X-66187Y306954D01*
X-66796Y306345D01*
X-67126Y305549D01*
Y304687D01*
X-66796Y303891D01*
X-66187Y303282D01*
X-65391Y302953D01*
X-64530D01*
X-63734Y303282D01*
X-63125Y303891D01*
X-62795Y304687D01*
Y305549D01*
X-63125Y306345D01*
X-63734Y306954D01*
X-64530Y307283D01*
D02*
G37*
G36*
X-143270D02*
X-144132D01*
X-144927Y306954D01*
X-145536Y306345D01*
X-145866Y305549D01*
Y304687D01*
X-145536Y303891D01*
X-144927Y303282D01*
X-144132Y302953D01*
X-143270D01*
X-142474Y303282D01*
X-141865Y303891D01*
X-141535Y304687D01*
Y305549D01*
X-141865Y306345D01*
X-142474Y306954D01*
X-143270Y307283D01*
D02*
G37*
G36*
X-351205Y305580D02*
Y302654D01*
X-348279D01*
X-348430Y303217D01*
X-348963Y304141D01*
X-349717Y304895D01*
X-350641Y305429D01*
X-351205Y305580D01*
D02*
G37*
G36*
X-353205Y305580D02*
X-353768Y305429D01*
X-354692Y304895D01*
X-355447Y304141D01*
X-355980Y303217D01*
X-356131Y302654D01*
X-353205D01*
Y305580D01*
D02*
G37*
G36*
X-39527Y308593D02*
X-40473D01*
X-41387Y308348D01*
X-42206Y307875D01*
X-42875Y307206D01*
X-43348Y306387D01*
X-43593Y305473D01*
Y304527D01*
X-43348Y303613D01*
X-42875Y302794D01*
X-42206Y302125D01*
X-41387Y301652D01*
X-40473Y301408D01*
X-39527D01*
X-38613Y301652D01*
X-37794Y302125D01*
X-37125Y302794D01*
X-36652Y303613D01*
X-36408Y304527D01*
Y305473D01*
X-36652Y306387D01*
X-37125Y307206D01*
X-37794Y307875D01*
X-38613Y308348D01*
X-39527Y308593D01*
D02*
G37*
G36*
X-49527D02*
X-50473D01*
X-51387Y308348D01*
X-52206Y307875D01*
X-52875Y307206D01*
X-53348Y306387D01*
X-53592Y305473D01*
Y304527D01*
X-53348Y303613D01*
X-52875Y302794D01*
X-52206Y302125D01*
X-51387Y301652D01*
X-50473Y301408D01*
X-49527D01*
X-48613Y301652D01*
X-47794Y302125D01*
X-47125Y302794D01*
X-46652Y303613D01*
X-46407Y304527D01*
Y305473D01*
X-46652Y306387D01*
X-47125Y307206D01*
X-47794Y307875D01*
X-48613Y308348D01*
X-49527Y308593D01*
D02*
G37*
G36*
X-333418Y304306D02*
X-334280D01*
X-335076Y303976D01*
X-335685Y303367D01*
X-336015Y302571D01*
Y301710D01*
X-335685Y300914D01*
X-335076Y300305D01*
X-334280Y299975D01*
X-333418D01*
X-332623Y300305D01*
X-332014Y300914D01*
X-331684Y301710D01*
Y302571D01*
X-332014Y303367D01*
X-332623Y303976D01*
X-333418Y304306D01*
D02*
G37*
G36*
X-88152Y303346D02*
X-89013D01*
X-89809Y303017D01*
X-90418Y302408D01*
X-90748Y301612D01*
Y300750D01*
X-90418Y299955D01*
X-89809Y299345D01*
X-89013Y299016D01*
X-88152D01*
X-87356Y299345D01*
X-86747Y299955D01*
X-86417Y300750D01*
Y301612D01*
X-86747Y302408D01*
X-87356Y303017D01*
X-88152Y303346D01*
D02*
G37*
G36*
X-181567D02*
X-182428D01*
X-183224Y303017D01*
X-183833Y302408D01*
X-184163Y301612D01*
Y300750D01*
X-183833Y299955D01*
X-183224Y299345D01*
X-182428Y299016D01*
X-181567D01*
X-180771Y299345D01*
X-180162Y299955D01*
X-179832Y300750D01*
Y301612D01*
X-180162Y302408D01*
X-180771Y303017D01*
X-181567Y303346D01*
D02*
G37*
G36*
X-361699Y305492D02*
X-362710D01*
X-363686Y305230D01*
X-364562Y304725D01*
X-365276Y304011D01*
X-365782Y303135D01*
X-366043Y302159D01*
Y301148D01*
X-365782Y300172D01*
X-365276Y299297D01*
X-364562Y298582D01*
X-363686Y298077D01*
X-362710Y297815D01*
X-361699D01*
X-360723Y298077D01*
X-359848Y298582D01*
X-359133Y299297D01*
X-358628Y300172D01*
X-358366Y301148D01*
Y302159D01*
X-358628Y303135D01*
X-359133Y304011D01*
X-359848Y304725D01*
X-360723Y305230D01*
X-361699Y305492D01*
D02*
G37*
G36*
X-353205Y300654D02*
X-356131D01*
X-355980Y300090D01*
X-355447Y299166D01*
X-354692Y298412D01*
X-353768Y297878D01*
X-353205Y297727D01*
Y300654D01*
D02*
G37*
G36*
X-348279D02*
X-351205D01*
Y297727D01*
X-350641Y297878D01*
X-349717Y298412D01*
X-348963Y299166D01*
X-348430Y300090D01*
X-348279Y300654D01*
D02*
G37*
G36*
X-99963Y299409D02*
X-100824D01*
X-101620Y299080D01*
X-102229Y298471D01*
X-102559Y297675D01*
Y296813D01*
X-102229Y296018D01*
X-101620Y295408D01*
X-100824Y295079D01*
X-99963D01*
X-99167Y295408D01*
X-98558Y296018D01*
X-98228Y296813D01*
Y297675D01*
X-98558Y298471D01*
X-99167Y299080D01*
X-99963Y299409D01*
D02*
G37*
G36*
X-39527Y298592D02*
X-40473D01*
X-41387Y298348D01*
X-42206Y297875D01*
X-42875Y297206D01*
X-43348Y296387D01*
X-43593Y295473D01*
Y294527D01*
X-43348Y293613D01*
X-42875Y292794D01*
X-42206Y292125D01*
X-41387Y291652D01*
X-40473Y291407D01*
X-39527D01*
X-38613Y291652D01*
X-37794Y292125D01*
X-37125Y292794D01*
X-36652Y293613D01*
X-36408Y294527D01*
Y295473D01*
X-36652Y296387D01*
X-37125Y297206D01*
X-37794Y297875D01*
X-38613Y298348D01*
X-39527Y298592D01*
D02*
G37*
G36*
X-49527D02*
X-50473D01*
X-51387Y298348D01*
X-52206Y297875D01*
X-52875Y297206D01*
X-53348Y296387D01*
X-53592Y295473D01*
Y294527D01*
X-53348Y293613D01*
X-52875Y292794D01*
X-52206Y292125D01*
X-51387Y291652D01*
X-50473Y291407D01*
X-49527D01*
X-48613Y291652D01*
X-47794Y292125D01*
X-47125Y292794D01*
X-46652Y293613D01*
X-46407Y294527D01*
Y295473D01*
X-46652Y296387D01*
X-47125Y297206D01*
X-47794Y297875D01*
X-48613Y298348D01*
X-49527Y298592D01*
D02*
G37*
G36*
X-351699Y295492D02*
X-352710D01*
X-353686Y295231D01*
X-354562Y294725D01*
X-355276Y294010D01*
X-355782Y293135D01*
X-356043Y292159D01*
Y291148D01*
X-355782Y290172D01*
X-355276Y289297D01*
X-354562Y288582D01*
X-353686Y288077D01*
X-352710Y287815D01*
X-351699D01*
X-350723Y288077D01*
X-349848Y288582D01*
X-349133Y289297D01*
X-348628Y290172D01*
X-348366Y291148D01*
Y292159D01*
X-348628Y293135D01*
X-349133Y294010D01*
X-349848Y294725D01*
X-350723Y295231D01*
X-351699Y295492D01*
D02*
G37*
G36*
X-361699D02*
X-362710D01*
X-363686Y295231D01*
X-364562Y294725D01*
X-365276Y294010D01*
X-365782Y293135D01*
X-366043Y292159D01*
Y291148D01*
X-365782Y290172D01*
X-365276Y289297D01*
X-364562Y288582D01*
X-363686Y288077D01*
X-362710Y287815D01*
X-361699D01*
X-360723Y288077D01*
X-359848Y288582D01*
X-359133Y289297D01*
X-358628Y290172D01*
X-358366Y291148D01*
Y292159D01*
X-358628Y293135D01*
X-359133Y294010D01*
X-359848Y294725D01*
X-360723Y295231D01*
X-361699Y295492D01*
D02*
G37*
G36*
X-315010Y293415D02*
X-322785D01*
Y285640D01*
X-315010D01*
Y293415D01*
D02*
G37*
G36*
X-39527Y288593D02*
X-40473D01*
X-41387Y288348D01*
X-42206Y287875D01*
X-42875Y287206D01*
X-43348Y286387D01*
X-43593Y285473D01*
Y284527D01*
X-43348Y283613D01*
X-42875Y282794D01*
X-42206Y282125D01*
X-41387Y281652D01*
X-40473Y281407D01*
X-39527D01*
X-38613Y281652D01*
X-37794Y282125D01*
X-37125Y282794D01*
X-36652Y283613D01*
X-36408Y284527D01*
Y285473D01*
X-36652Y286387D01*
X-37125Y287206D01*
X-37794Y287875D01*
X-38613Y288348D01*
X-39527Y288593D01*
D02*
G37*
G36*
X-49527D02*
X-50473D01*
X-51387Y288348D01*
X-52206Y287875D01*
X-52875Y287206D01*
X-53348Y286387D01*
X-53592Y285473D01*
Y284527D01*
X-53348Y283613D01*
X-52875Y282794D01*
X-52206Y282125D01*
X-51387Y281652D01*
X-50473Y281407D01*
X-49527D01*
X-48613Y281652D01*
X-47794Y282125D01*
X-47125Y282794D01*
X-46652Y283613D01*
X-46407Y284527D01*
Y285473D01*
X-46652Y286387D01*
X-47125Y287206D01*
X-47794Y287875D01*
X-48613Y288348D01*
X-49527Y288593D01*
D02*
G37*
G36*
X-351699Y285492D02*
X-352710D01*
X-353686Y285230D01*
X-354562Y284725D01*
X-355276Y284011D01*
X-355782Y283135D01*
X-356043Y282159D01*
Y281148D01*
X-355782Y280172D01*
X-355276Y279297D01*
X-354562Y278582D01*
X-353686Y278077D01*
X-352710Y277815D01*
X-351699D01*
X-350723Y278077D01*
X-349848Y278582D01*
X-349133Y279297D01*
X-348628Y280172D01*
X-348366Y281148D01*
Y282159D01*
X-348628Y283135D01*
X-349133Y284011D01*
X-349848Y284725D01*
X-350723Y285230D01*
X-351699Y285492D01*
D02*
G37*
G36*
X-361699D02*
X-362710D01*
X-363686Y285230D01*
X-364562Y284725D01*
X-365276Y284011D01*
X-365782Y283135D01*
X-366043Y282159D01*
Y281148D01*
X-365782Y280172D01*
X-365276Y279297D01*
X-364562Y278582D01*
X-363686Y278077D01*
X-362710Y277815D01*
X-361699D01*
X-360723Y278077D01*
X-359848Y278582D01*
X-359133Y279297D01*
X-358628Y280172D01*
X-358366Y281148D01*
Y282159D01*
X-358628Y283135D01*
X-359133Y284011D01*
X-359848Y284725D01*
X-360723Y285230D01*
X-361699Y285492D01*
D02*
G37*
G36*
X-309703Y281778D02*
X-310564D01*
X-311360Y281449D01*
X-311969Y280839D01*
X-312299Y280044D01*
Y279182D01*
X-311969Y278386D01*
X-311360Y277777D01*
X-310564Y277447D01*
X-309703D01*
X-308907Y277777D01*
X-308298Y278386D01*
X-307968Y279182D01*
Y280044D01*
X-308298Y280839D01*
X-308907Y281449D01*
X-309703Y281778D01*
D02*
G37*
G36*
X-318386Y283415D02*
X-319409D01*
X-320398Y283150D01*
X-321285Y282639D01*
X-322009Y281915D01*
X-322520Y281028D01*
X-322785Y280039D01*
Y279016D01*
X-322520Y278027D01*
X-322009Y277140D01*
X-321285Y276417D01*
X-320398Y275905D01*
X-319409Y275640D01*
X-318386D01*
X-317397Y275905D01*
X-316511Y276417D01*
X-315787Y277140D01*
X-315275Y278027D01*
X-315010Y279016D01*
Y280039D01*
X-315275Y281028D01*
X-315787Y281915D01*
X-316511Y282639D01*
X-317397Y283150D01*
X-318386Y283415D01*
D02*
G37*
G36*
X-129481Y276697D02*
X-130343D01*
X-131139Y276367D01*
X-131748Y275758D01*
X-132078Y274962D01*
Y274101D01*
X-131748Y273305D01*
X-131139Y272696D01*
X-130343Y272366D01*
X-129481D01*
X-128686Y272696D01*
X-128077Y273305D01*
X-127747Y274101D01*
Y274962D01*
X-128077Y275758D01*
X-128686Y276367D01*
X-129481Y276697D01*
D02*
G37*
G36*
X-265317Y275787D02*
X-266179D01*
X-266975Y275458D01*
X-267584Y274849D01*
X-267913Y274053D01*
Y273191D01*
X-267584Y272395D01*
X-266975Y271786D01*
X-266179Y271457D01*
X-265317D01*
X-264522Y271786D01*
X-263912Y272395D01*
X-263583Y273191D01*
Y274053D01*
X-263912Y274849D01*
X-264522Y275458D01*
X-265317Y275787D01*
D02*
G37*
G36*
X-39527Y278592D02*
X-40473D01*
X-41387Y278348D01*
X-42206Y277875D01*
X-42875Y277206D01*
X-43348Y276387D01*
X-43593Y275473D01*
Y274527D01*
X-43348Y273613D01*
X-42875Y272794D01*
X-42206Y272125D01*
X-41387Y271652D01*
X-40473Y271408D01*
X-39527D01*
X-38613Y271652D01*
X-37794Y272125D01*
X-37125Y272794D01*
X-36652Y273613D01*
X-36408Y274527D01*
Y275473D01*
X-36652Y276387D01*
X-37125Y277206D01*
X-37794Y277875D01*
X-38613Y278348D01*
X-39527Y278592D01*
D02*
G37*
G36*
X-49527D02*
X-50473D01*
X-51387Y278348D01*
X-52206Y277875D01*
X-52875Y277206D01*
X-53348Y276387D01*
X-53592Y275473D01*
Y274527D01*
X-53348Y273613D01*
X-52875Y272794D01*
X-52206Y272125D01*
X-51387Y271652D01*
X-50473Y271408D01*
X-49527D01*
X-48613Y271652D01*
X-47794Y272125D01*
X-47125Y272794D01*
X-46652Y273613D01*
X-46407Y274527D01*
Y275473D01*
X-46652Y276387D01*
X-47125Y277206D01*
X-47794Y277875D01*
X-48613Y278348D01*
X-49527Y278592D01*
D02*
G37*
G36*
X-226742Y273599D02*
X-227603D01*
X-228399Y273269D01*
X-229008Y272660D01*
X-229338Y271864D01*
Y271003D01*
X-229008Y270207D01*
X-228399Y269598D01*
X-227603Y269268D01*
X-226742D01*
X-225946Y269598D01*
X-225337Y270207D01*
X-225007Y271003D01*
Y271864D01*
X-225337Y272660D01*
X-225946Y273269D01*
X-226742Y273599D01*
D02*
G37*
G36*
X-351699Y275492D02*
X-352710D01*
X-353686Y275231D01*
X-354562Y274725D01*
X-355276Y274010D01*
X-355782Y273135D01*
X-356043Y272159D01*
Y271148D01*
X-355782Y270172D01*
X-355276Y269297D01*
X-354562Y268582D01*
X-353686Y268077D01*
X-352710Y267815D01*
X-351699D01*
X-350723Y268077D01*
X-349848Y268582D01*
X-349133Y269297D01*
X-348628Y270172D01*
X-348366Y271148D01*
Y272159D01*
X-348628Y273135D01*
X-349133Y274010D01*
X-349848Y274725D01*
X-350723Y275231D01*
X-351699Y275492D01*
D02*
G37*
G36*
X-361699D02*
X-362710D01*
X-363686Y275231D01*
X-364562Y274725D01*
X-365276Y274010D01*
X-365782Y273135D01*
X-366043Y272159D01*
Y271148D01*
X-365782Y270172D01*
X-365276Y269297D01*
X-364562Y268582D01*
X-363686Y268077D01*
X-362710Y267815D01*
X-361699D01*
X-360723Y268077D01*
X-359848Y268582D01*
X-359133Y269297D01*
X-358628Y270172D01*
X-358366Y271148D01*
Y272159D01*
X-358628Y273135D01*
X-359133Y274010D01*
X-359848Y274725D01*
X-360723Y275231D01*
X-361699Y275492D01*
D02*
G37*
G36*
X-342089Y271850D02*
X-342950D01*
X-343746Y271521D01*
X-344355Y270912D01*
X-344685Y270116D01*
Y269254D01*
X-344355Y268459D01*
X-343746Y267849D01*
X-342950Y267520D01*
X-342089D01*
X-341293Y267849D01*
X-340684Y268459D01*
X-340354Y269254D01*
Y270116D01*
X-340684Y270912D01*
X-341293Y271521D01*
X-342089Y271850D01*
D02*
G37*
G36*
X-247109Y270237D02*
X-247970D01*
X-248766Y269907D01*
X-249375Y269298D01*
X-249705Y268502D01*
Y267640D01*
X-249375Y266845D01*
X-248766Y266236D01*
X-247970Y265906D01*
X-247109D01*
X-246313Y266236D01*
X-245704Y266845D01*
X-245374Y267640D01*
Y268502D01*
X-245704Y269298D01*
X-246313Y269907D01*
X-247109Y270237D01*
D02*
G37*
G36*
X-318386Y273415D02*
X-319409D01*
X-320398Y273150D01*
X-321285Y272639D01*
X-322009Y271915D01*
X-322520Y271028D01*
X-322785Y270039D01*
Y269016D01*
X-322520Y268027D01*
X-322009Y267140D01*
X-321285Y266417D01*
X-320398Y265905D01*
X-319409Y265640D01*
X-318386D01*
X-317397Y265905D01*
X-316511Y266417D01*
X-315787Y267140D01*
X-315275Y268027D01*
X-315010Y269016D01*
Y270039D01*
X-315275Y271028D01*
X-315787Y271915D01*
X-316511Y272639D01*
X-317397Y273150D01*
X-318386Y273415D01*
D02*
G37*
G36*
X-351205Y265580D02*
Y262653D01*
X-348279D01*
X-348430Y263217D01*
X-348963Y264141D01*
X-349717Y264895D01*
X-350641Y265429D01*
X-351205Y265580D01*
D02*
G37*
G36*
X-353205Y265580D02*
X-353768Y265429D01*
X-354692Y264895D01*
X-355447Y264141D01*
X-355980Y263217D01*
X-356131Y262653D01*
X-353205D01*
Y265580D01*
D02*
G37*
G36*
X-39527Y268593D02*
X-40473D01*
X-41387Y268348D01*
X-42206Y267875D01*
X-42875Y267206D01*
X-43348Y266387D01*
X-43593Y265473D01*
Y264527D01*
X-43348Y263613D01*
X-42875Y262794D01*
X-42206Y262125D01*
X-41387Y261652D01*
X-40473Y261407D01*
X-39527D01*
X-38613Y261652D01*
X-37794Y262125D01*
X-37125Y262794D01*
X-36652Y263613D01*
X-36408Y264527D01*
Y265473D01*
X-36652Y266387D01*
X-37125Y267206D01*
X-37794Y267875D01*
X-38613Y268348D01*
X-39527Y268593D01*
D02*
G37*
G36*
X-49527D02*
X-50473D01*
X-51387Y268348D01*
X-52206Y267875D01*
X-52875Y267206D01*
X-53348Y266387D01*
X-53592Y265473D01*
Y264527D01*
X-53348Y263613D01*
X-52875Y262794D01*
X-52206Y262125D01*
X-51387Y261652D01*
X-50473Y261407D01*
X-49527D01*
X-48613Y261652D01*
X-47794Y262125D01*
X-47125Y262794D01*
X-46652Y263613D01*
X-46407Y264527D01*
Y265473D01*
X-46652Y266387D01*
X-47125Y267206D01*
X-47794Y267875D01*
X-48613Y268348D01*
X-49527Y268593D01*
D02*
G37*
G36*
X-317898Y263505D02*
Y260528D01*
X-314921D01*
X-315077Y261110D01*
X-315616Y262045D01*
X-316380Y262809D01*
X-317315Y263349D01*
X-317898Y263505D01*
D02*
G37*
G36*
X-319898D02*
X-320480Y263349D01*
X-321415Y262809D01*
X-322179Y262045D01*
X-322719Y261110D01*
X-322875Y260528D01*
X-319898D01*
Y263505D01*
D02*
G37*
G36*
X-342089Y263976D02*
X-342950D01*
X-343746Y263647D01*
X-344355Y263038D01*
X-344685Y262242D01*
Y261380D01*
X-344355Y260584D01*
X-343746Y259975D01*
X-342950Y259646D01*
X-342089D01*
X-341293Y259975D01*
X-340684Y260584D01*
X-340354Y261380D01*
Y262242D01*
X-340684Y263038D01*
X-341293Y263647D01*
X-342089Y263976D01*
D02*
G37*
G36*
X-361699Y265492D02*
X-362710D01*
X-363686Y265230D01*
X-364562Y264725D01*
X-365276Y264011D01*
X-365782Y263135D01*
X-366043Y262159D01*
Y261148D01*
X-365782Y260172D01*
X-365276Y259297D01*
X-364562Y258582D01*
X-363686Y258077D01*
X-362710Y257815D01*
X-361699D01*
X-360723Y258077D01*
X-359848Y258582D01*
X-359133Y259297D01*
X-358628Y260172D01*
X-358366Y261148D01*
Y262159D01*
X-358628Y263135D01*
X-359133Y264011D01*
X-359848Y264725D01*
X-360723Y265230D01*
X-361699Y265492D01*
D02*
G37*
G36*
X-353205Y260653D02*
X-356131D01*
X-355980Y260090D01*
X-355447Y259166D01*
X-354692Y258412D01*
X-353768Y257878D01*
X-353205Y257727D01*
Y260653D01*
D02*
G37*
G36*
X-348279D02*
X-351205D01*
Y257727D01*
X-350641Y257878D01*
X-349717Y258412D01*
X-348963Y259166D01*
X-348430Y260090D01*
X-348279Y260653D01*
D02*
G37*
G36*
X-300750Y262004D02*
X-301612D01*
X-302408Y261674D01*
X-303017Y261065D01*
X-303346Y260269D01*
Y259408D01*
X-303017Y258612D01*
X-302408Y258003D01*
X-301612Y257673D01*
X-300750D01*
X-299955Y258003D01*
X-299345Y258612D01*
X-299016Y259408D01*
Y260269D01*
X-299345Y261065D01*
X-299955Y261674D01*
X-300750Y262004D01*
D02*
G37*
G36*
X-314921Y258528D02*
X-317898D01*
Y255551D01*
X-317315Y255707D01*
X-316380Y256246D01*
X-315616Y257010D01*
X-315077Y257945D01*
X-314921Y258528D01*
D02*
G37*
G36*
X-319898D02*
X-322875D01*
X-322719Y257945D01*
X-322179Y257010D01*
X-321415Y256246D01*
X-320480Y255707D01*
X-319898Y255551D01*
Y258528D01*
D02*
G37*
G36*
X-39527Y258593D02*
X-40473D01*
X-41387Y258348D01*
X-42206Y257875D01*
X-42875Y257206D01*
X-43348Y256387D01*
X-43593Y255473D01*
Y254527D01*
X-43348Y253613D01*
X-42875Y252794D01*
X-42206Y252125D01*
X-41387Y251652D01*
X-40473Y251408D01*
X-39527D01*
X-38613Y251652D01*
X-37794Y252125D01*
X-37125Y252794D01*
X-36652Y253613D01*
X-36408Y254527D01*
Y255473D01*
X-36652Y256387D01*
X-37125Y257206D01*
X-37794Y257875D01*
X-38613Y258348D01*
X-39527Y258593D01*
D02*
G37*
G36*
X-49527D02*
X-50473D01*
X-51387Y258348D01*
X-52206Y257875D01*
X-52875Y257206D01*
X-53348Y256387D01*
X-53592Y255473D01*
Y254527D01*
X-53348Y253613D01*
X-52875Y252794D01*
X-52206Y252125D01*
X-51387Y251652D01*
X-50473Y251408D01*
X-49527D01*
X-48613Y251652D01*
X-47794Y252125D01*
X-47125Y252794D01*
X-46652Y253613D01*
X-46407Y254527D01*
Y255473D01*
X-46652Y256387D01*
X-47125Y257206D01*
X-47794Y257875D01*
X-48613Y258348D01*
X-49527Y258593D01*
D02*
G37*
G36*
X-342089Y254134D02*
X-342950D01*
X-343746Y253804D01*
X-344355Y253195D01*
X-344685Y252399D01*
Y251538D01*
X-344355Y250742D01*
X-343746Y250133D01*
X-342950Y249803D01*
X-342089D01*
X-341293Y250133D01*
X-340684Y250742D01*
X-340354Y251538D01*
Y252399D01*
X-340684Y253195D01*
X-341293Y253804D01*
X-342089Y254134D01*
D02*
G37*
G36*
X-100506Y252467D02*
X-101368D01*
X-102164Y252137D01*
X-102773Y251528D01*
X-103103Y250732D01*
Y249871D01*
X-102773Y249075D01*
X-102164Y248466D01*
X-101368Y248136D01*
X-100506D01*
X-99711Y248466D01*
X-99102Y249075D01*
X-98772Y249871D01*
Y250732D01*
X-99102Y251528D01*
X-99711Y252137D01*
X-100506Y252467D01*
D02*
G37*
G36*
X-90121Y252244D02*
X-90982D01*
X-91778Y251914D01*
X-92387Y251305D01*
X-92716Y250509D01*
Y249648D01*
X-92387Y248852D01*
X-91778Y248243D01*
X-90982Y247913D01*
X-90121D01*
X-89325Y248243D01*
X-88715Y248852D01*
X-88386Y249648D01*
Y250509D01*
X-88715Y251305D01*
X-89325Y251914D01*
X-90121Y252244D01*
D02*
G37*
G36*
X-78310Y252165D02*
X-79171D01*
X-79967Y251836D01*
X-80576Y251227D01*
X-80905Y250431D01*
Y249569D01*
X-80576Y248773D01*
X-79967Y248164D01*
X-79171Y247835D01*
X-78310D01*
X-77514Y248164D01*
X-76904Y248773D01*
X-76575Y249569D01*
Y250431D01*
X-76904Y251227D01*
X-77514Y251836D01*
X-78310Y252165D01*
D02*
G37*
G36*
X-351699Y255492D02*
X-352710D01*
X-353686Y255230D01*
X-354562Y254725D01*
X-355276Y254011D01*
X-355782Y253135D01*
X-356043Y252159D01*
Y251148D01*
X-355782Y250172D01*
X-355276Y249297D01*
X-354562Y248582D01*
X-353686Y248077D01*
X-352710Y247815D01*
X-351699D01*
X-350723Y248077D01*
X-349848Y248582D01*
X-349133Y249297D01*
X-348628Y250172D01*
X-348366Y251148D01*
Y252159D01*
X-348628Y253135D01*
X-349133Y254011D01*
X-349848Y254725D01*
X-350723Y255230D01*
X-351699Y255492D01*
D02*
G37*
G36*
X-361699D02*
X-362710D01*
X-363686Y255230D01*
X-364562Y254725D01*
X-365276Y254011D01*
X-365782Y253135D01*
X-366043Y252159D01*
Y251148D01*
X-365782Y250172D01*
X-365276Y249297D01*
X-364562Y248582D01*
X-363686Y248077D01*
X-362710Y247815D01*
X-361699D01*
X-360723Y248077D01*
X-359848Y248582D01*
X-359133Y249297D01*
X-358628Y250172D01*
X-358366Y251148D01*
Y252159D01*
X-358628Y253135D01*
X-359133Y254011D01*
X-359848Y254725D01*
X-360723Y255230D01*
X-361699Y255492D01*
D02*
G37*
G36*
X-196420Y250197D02*
X-197281D01*
X-198077Y249867D01*
X-198686Y249258D01*
X-199016Y248462D01*
Y247601D01*
X-198686Y246805D01*
X-198077Y246196D01*
X-197281Y245866D01*
X-196420D01*
X-195624Y246196D01*
X-195015Y246805D01*
X-194685Y247601D01*
Y248462D01*
X-195015Y249258D01*
X-195624Y249867D01*
X-196420Y250197D01*
D02*
G37*
G36*
X-273223Y250181D02*
X-274084D01*
X-274880Y249851D01*
X-275489Y249242D01*
X-275819Y248446D01*
Y247585D01*
X-275489Y246789D01*
X-274880Y246180D01*
X-274084Y245850D01*
X-273223D01*
X-272427Y246180D01*
X-271818Y246789D01*
X-271488Y247585D01*
Y248446D01*
X-271818Y249242D01*
X-272427Y249851D01*
X-273223Y250181D01*
D02*
G37*
G36*
X-70435Y248228D02*
X-71297D01*
X-72093Y247899D01*
X-72702Y247290D01*
X-73032Y246494D01*
Y245632D01*
X-72702Y244836D01*
X-72093Y244227D01*
X-71297Y243898D01*
X-70435D01*
X-69640Y244227D01*
X-69030Y244836D01*
X-68701Y245632D01*
Y246494D01*
X-69030Y247290D01*
X-69640Y247899D01*
X-70435Y248228D01*
D02*
G37*
G36*
X-348153Y245705D02*
X-351205D01*
Y242653D01*
X-348153D01*
Y245705D01*
D02*
G37*
G36*
X-353205D02*
X-356256D01*
Y242653D01*
X-353205D01*
Y245705D01*
D02*
G37*
G36*
X-92089Y246595D02*
X-92950D01*
X-93746Y246265D01*
X-94355Y245656D01*
X-94685Y244860D01*
Y243998D01*
X-94355Y243203D01*
X-93746Y242593D01*
X-92950Y242264D01*
X-92089D01*
X-91293Y242593D01*
X-90684Y243203D01*
X-90354Y243998D01*
Y244860D01*
X-90684Y245656D01*
X-91293Y246265D01*
X-92089Y246595D01*
D02*
G37*
G36*
X-188546Y250197D02*
X-189407D01*
X-190203Y249867D01*
X-190812Y249258D01*
X-191142Y248462D01*
Y247601D01*
X-190812Y246805D01*
X-190203Y246196D01*
X-189407Y245866D01*
X-188546D01*
X-187750Y246196D01*
X-187483Y245806D01*
X-187693Y245596D01*
X-187969Y245321D01*
X-188298Y244525D01*
Y243664D01*
X-187969Y242868D01*
X-187359Y242259D01*
X-186564Y241929D01*
X-185702D01*
X-184906Y242259D01*
X-184297Y242868D01*
X-183967Y243664D01*
Y244525D01*
X-184297Y245321D01*
X-184906Y245930D01*
X-185702Y246260D01*
X-186564D01*
X-187359Y245930D01*
X-187626Y246320D01*
X-187416Y246530D01*
X-187141Y246805D01*
X-186811Y247601D01*
Y248462D01*
X-187141Y249258D01*
X-187750Y249867D01*
X-188546Y250197D01*
D02*
G37*
G36*
X-210199Y246260D02*
X-211061D01*
X-211857Y245930D01*
X-212466Y245321D01*
X-212795Y244525D01*
Y243664D01*
X-212466Y242868D01*
X-211857Y242259D01*
X-211061Y241929D01*
X-210199D01*
X-209403Y242259D01*
X-208794Y242868D01*
X-208465Y243664D01*
Y244525D01*
X-208794Y245321D01*
X-209403Y245930D01*
X-210199Y246260D01*
D02*
G37*
G36*
X-223979D02*
X-224840D01*
X-225636Y245930D01*
X-226245Y245321D01*
X-226575Y244525D01*
Y243664D01*
X-226245Y242868D01*
X-225636Y242259D01*
X-224840Y241929D01*
X-223979D01*
X-223183Y242259D01*
X-222574Y242868D01*
X-222244Y243664D01*
Y244525D01*
X-222574Y245321D01*
X-223183Y245930D01*
X-223979Y246260D01*
D02*
G37*
G36*
X-235801D02*
X-236663D01*
X-237459Y245930D01*
X-238068Y245321D01*
X-238397Y244525D01*
Y243664D01*
X-238068Y242868D01*
X-237459Y242259D01*
X-236663Y241929D01*
X-235801D01*
X-235005Y242259D01*
X-234396Y242868D01*
X-234067Y243664D01*
Y244525D01*
X-234396Y245321D01*
X-235005Y245930D01*
X-235801Y246260D01*
D02*
G37*
G36*
X-247601D02*
X-248462D01*
X-249258Y245930D01*
X-249867Y245321D01*
X-250197Y244525D01*
Y243664D01*
X-249867Y242868D01*
X-249258Y242259D01*
X-248462Y241929D01*
X-247601D01*
X-246805Y242259D01*
X-246196Y242868D01*
X-245866Y243664D01*
Y244525D01*
X-246196Y245321D01*
X-246805Y245930D01*
X-247601Y246260D01*
D02*
G37*
G36*
X-39527Y248592D02*
X-40473D01*
X-41387Y248348D01*
X-42206Y247875D01*
X-42875Y247206D01*
X-43348Y246387D01*
X-43593Y245473D01*
Y244527D01*
X-43348Y243613D01*
X-42875Y242794D01*
X-42206Y242125D01*
X-41387Y241652D01*
X-40473Y241407D01*
X-39527D01*
X-38613Y241652D01*
X-37794Y242125D01*
X-37125Y242794D01*
X-36652Y243613D01*
X-36408Y244527D01*
Y245473D01*
X-36652Y246387D01*
X-37125Y247206D01*
X-37794Y247875D01*
X-38613Y248348D01*
X-39527Y248592D01*
D02*
G37*
G36*
X-49527D02*
X-50473D01*
X-51387Y248348D01*
X-52206Y247875D01*
X-52875Y247206D01*
X-53348Y246387D01*
X-53592Y245473D01*
Y244527D01*
X-53348Y243613D01*
X-52875Y242794D01*
X-52206Y242125D01*
X-51387Y241652D01*
X-50473Y241407D01*
X-49527D01*
X-48613Y241652D01*
X-47794Y242125D01*
X-47125Y242794D01*
X-46652Y243613D01*
X-46407Y244527D01*
Y245473D01*
X-46652Y246387D01*
X-47125Y247206D01*
X-47794Y247875D01*
X-48613Y248348D01*
X-49527Y248592D01*
D02*
G37*
G36*
X-202325Y244291D02*
X-203187D01*
X-203982Y243962D01*
X-204592Y243353D01*
X-204921Y242557D01*
Y241695D01*
X-204592Y240899D01*
X-203982Y240290D01*
X-203187Y239961D01*
X-202325D01*
X-201529Y240290D01*
X-200920Y240899D01*
X-200591Y241695D01*
Y242557D01*
X-200920Y243353D01*
X-201529Y243962D01*
X-202325Y244291D01*
D02*
G37*
G36*
X-304687D02*
X-305549D01*
X-306345Y243962D01*
X-306954Y243353D01*
X-307283Y242557D01*
Y241695D01*
X-306954Y240899D01*
X-306345Y240290D01*
X-305549Y239961D01*
X-304687D01*
X-303891Y240290D01*
X-303282Y240899D01*
X-302953Y241695D01*
Y242557D01*
X-303282Y243353D01*
X-303891Y243962D01*
X-304687Y244291D01*
D02*
G37*
G36*
X-145239Y243382D02*
X-146100D01*
X-146896Y243052D01*
X-147505Y242443D01*
X-147835Y241647D01*
Y240786D01*
X-147505Y239990D01*
X-146896Y239381D01*
X-146100Y239051D01*
X-145239D01*
X-144443Y239381D01*
X-143834Y239990D01*
X-143504Y240786D01*
Y241647D01*
X-143834Y242443D01*
X-144443Y243052D01*
X-145239Y243382D01*
D02*
G37*
G36*
X-239727Y242323D02*
X-240588D01*
X-241384Y241993D01*
X-241993Y241384D01*
X-242323Y240588D01*
Y239727D01*
X-241993Y238931D01*
X-241384Y238322D01*
X-240588Y237992D01*
X-239727D01*
X-238931Y238322D01*
X-238322Y238931D01*
X-237992Y239727D01*
Y240588D01*
X-238322Y241384D01*
X-238931Y241993D01*
X-239727Y242323D01*
D02*
G37*
G36*
X-361699Y245492D02*
X-362710D01*
X-363686Y245231D01*
X-364562Y244725D01*
X-365276Y244010D01*
X-365782Y243135D01*
X-366043Y242159D01*
Y241148D01*
X-365782Y240172D01*
X-365276Y239297D01*
X-364562Y238582D01*
X-363686Y238077D01*
X-362710Y237815D01*
X-361699D01*
X-360723Y238077D01*
X-359848Y238582D01*
X-359133Y239297D01*
X-358628Y240172D01*
X-358366Y241148D01*
Y242159D01*
X-358628Y243135D01*
X-359133Y244010D01*
X-359848Y244725D01*
X-360723Y245231D01*
X-361699Y245492D01*
D02*
G37*
G36*
X-32915Y242095D02*
X-33776D01*
X-34572Y241766D01*
X-35181Y241157D01*
X-35511Y240361D01*
Y239499D01*
X-35181Y238703D01*
X-34572Y238094D01*
X-33776Y237765D01*
X-32915D01*
X-32119Y238094D01*
X-31510Y238703D01*
X-31180Y239499D01*
Y240361D01*
X-31510Y241157D01*
X-32119Y241766D01*
X-32915Y242095D01*
D02*
G37*
G36*
X-348153Y240653D02*
X-351205D01*
Y237602D01*
X-348153D01*
Y240653D01*
D02*
G37*
G36*
X-353205D02*
X-356256D01*
Y237602D01*
X-353205D01*
Y240653D01*
D02*
G37*
G36*
X-119648Y240354D02*
X-120509D01*
X-121305Y240025D01*
X-121914Y239416D01*
X-122244Y238620D01*
Y237758D01*
X-121914Y236962D01*
X-121305Y236353D01*
X-120509Y236024D01*
X-119648D01*
X-118852Y236353D01*
X-118243Y236962D01*
X-117913Y237758D01*
Y238620D01*
X-118243Y239416D01*
X-118852Y240025D01*
X-119648Y240354D01*
D02*
G37*
G36*
X-166892D02*
X-167754D01*
X-168549Y240025D01*
X-169158Y239416D01*
X-169488Y238620D01*
Y237758D01*
X-169158Y236962D01*
X-168549Y236353D01*
X-167754Y236024D01*
X-166892D01*
X-166096Y236353D01*
X-165487Y236962D01*
X-165157Y237758D01*
Y238620D01*
X-165487Y239416D01*
X-166096Y240025D01*
X-166892Y240354D01*
D02*
G37*
G36*
X-101932Y239476D02*
X-102793D01*
X-103589Y239147D01*
X-104198Y238538D01*
X-104527Y237742D01*
Y236880D01*
X-104467Y236734D01*
X-104745Y236318D01*
X-104825D01*
X-105621Y235988D01*
X-106230Y235379D01*
X-106560Y234583D01*
Y233722D01*
X-106230Y232926D01*
X-105621Y232317D01*
X-104825Y231987D01*
X-103964D01*
X-103168Y232317D01*
X-102559Y232926D01*
X-102229Y233722D01*
Y234583D01*
X-102290Y234730D01*
X-102012Y235146D01*
X-101932D01*
X-101136Y235475D01*
X-100526Y236085D01*
X-100197Y236880D01*
Y237742D01*
X-100526Y238538D01*
X-101136Y239147D01*
X-101932Y239476D01*
D02*
G37*
G36*
X-39527Y238593D02*
X-40473D01*
X-41387Y238348D01*
X-42206Y237875D01*
X-42875Y237206D01*
X-43348Y236387D01*
X-43593Y235473D01*
Y234527D01*
X-43348Y233613D01*
X-42875Y232794D01*
X-42206Y232125D01*
X-41387Y231652D01*
X-40473Y231407D01*
X-39527D01*
X-38613Y231652D01*
X-37794Y232125D01*
X-37125Y232794D01*
X-36652Y233613D01*
X-36408Y234527D01*
Y235473D01*
X-36652Y236387D01*
X-37125Y237206D01*
X-37794Y237875D01*
X-38613Y238348D01*
X-39527Y238593D01*
D02*
G37*
G36*
X-49527D02*
X-50473D01*
X-51387Y238348D01*
X-52206Y237875D01*
X-52875Y237206D01*
X-53348Y236387D01*
X-53592Y235473D01*
Y234527D01*
X-53348Y233613D01*
X-52875Y232794D01*
X-52206Y232125D01*
X-51387Y231652D01*
X-50473Y231407D01*
X-49527D01*
X-48613Y231652D01*
X-47794Y232125D01*
X-47125Y232794D01*
X-46652Y233613D01*
X-46407Y234527D01*
Y235473D01*
X-46652Y236387D01*
X-47125Y237206D01*
X-47794Y237875D01*
X-48613Y238348D01*
X-49527Y238593D01*
D02*
G37*
G36*
X-173811Y235462D02*
X-174672D01*
X-175468Y235132D01*
X-176077Y234523D01*
X-176407Y233727D01*
Y232866D01*
X-176077Y232070D01*
X-175468Y231461D01*
X-174672Y231131D01*
X-173811D01*
X-173015Y231461D01*
X-172406Y232070D01*
X-172076Y232866D01*
Y233727D01*
X-172406Y234523D01*
X-173015Y235132D01*
X-173811Y235462D01*
D02*
G37*
G36*
X-96026Y232480D02*
X-96887D01*
X-97683Y232151D01*
X-98292Y231541D01*
X-98622Y230746D01*
Y229884D01*
X-98292Y229088D01*
X-97683Y228479D01*
X-96887Y228150D01*
X-96026D01*
X-95230Y228479D01*
X-94621Y229088D01*
X-94291Y229884D01*
Y230746D01*
X-94621Y231541D01*
X-95230Y232151D01*
X-96026Y232480D01*
D02*
G37*
G36*
X-367650Y230512D02*
X-368512D01*
X-369307Y230182D01*
X-369917Y229573D01*
X-370246Y228777D01*
Y227916D01*
X-369917Y227120D01*
X-369307Y226511D01*
X-368512Y226181D01*
X-367650D01*
X-366854Y226511D01*
X-366245Y227120D01*
X-365915Y227916D01*
Y228777D01*
X-366245Y229573D01*
X-366854Y230182D01*
X-367650Y230512D01*
D02*
G37*
G36*
X-74293Y233090D02*
X-75314D01*
X-76300Y232826D01*
X-77184Y232316D01*
X-77906Y231594D01*
X-78417Y230709D01*
X-78681Y229723D01*
Y228702D01*
X-78417Y227716D01*
X-77906Y226832D01*
X-77184Y226110D01*
X-76300Y225599D01*
X-75314Y225335D01*
X-74293D01*
X-73306Y225599D01*
X-72422Y226110D01*
X-71700Y226832D01*
X-71189Y227716D01*
X-70925Y228702D01*
Y229723D01*
X-71189Y230709D01*
X-71700Y231594D01*
X-72422Y232316D01*
X-73306Y232826D01*
X-74293Y233090D01*
D02*
G37*
G36*
X-84293D02*
X-85314D01*
X-86300Y232826D01*
X-87184Y232316D01*
X-87906Y231594D01*
X-88417Y230709D01*
X-88681Y229723D01*
Y228702D01*
X-88417Y227716D01*
X-87906Y226832D01*
X-87184Y226110D01*
X-86300Y225599D01*
X-85314Y225335D01*
X-84293D01*
X-83306Y225599D01*
X-82422Y226110D01*
X-81700Y226832D01*
X-81190Y227716D01*
X-80925Y228702D01*
Y229723D01*
X-81190Y230709D01*
X-81700Y231594D01*
X-82422Y232316D01*
X-83306Y232826D01*
X-84293Y233090D01*
D02*
G37*
G36*
X-314293D02*
X-315314D01*
X-316300Y232826D01*
X-317184Y232316D01*
X-317906Y231594D01*
X-318417Y230709D01*
X-318681Y229723D01*
Y228702D01*
X-318417Y227716D01*
X-317906Y226832D01*
X-317184Y226110D01*
X-316300Y225599D01*
X-315314Y225335D01*
X-314293D01*
X-313306Y225599D01*
X-312422Y226110D01*
X-311700Y226832D01*
X-311190Y227716D01*
X-310925Y228702D01*
Y229723D01*
X-311190Y230709D01*
X-311700Y231594D01*
X-312422Y232316D01*
X-313306Y232826D01*
X-314293Y233090D01*
D02*
G37*
G36*
X-324293D02*
X-325314D01*
X-326300Y232826D01*
X-327184Y232316D01*
X-327906Y231594D01*
X-328417Y230709D01*
X-328681Y229723D01*
Y228702D01*
X-328417Y227716D01*
X-327906Y226832D01*
X-327184Y226110D01*
X-326300Y225599D01*
X-325314Y225335D01*
X-324293D01*
X-323306Y225599D01*
X-322422Y226110D01*
X-321700Y226832D01*
X-321189Y227716D01*
X-320925Y228702D01*
Y229723D01*
X-321189Y230709D01*
X-321700Y231594D01*
X-322422Y232316D01*
X-323306Y232826D01*
X-324293Y233090D01*
D02*
G37*
G36*
X-340089Y226575D02*
X-340950D01*
X-341746Y226245D01*
X-342355Y225636D01*
X-342685Y224840D01*
Y223979D01*
X-342355Y223183D01*
X-341746Y222574D01*
X-340950Y222244D01*
X-340089D01*
X-339293Y222574D01*
X-338684Y223183D01*
X-338354Y223979D01*
Y224840D01*
X-338684Y225636D01*
X-339293Y226245D01*
X-340089Y226575D01*
D02*
G37*
G36*
X-39527Y228592D02*
X-40473D01*
X-41387Y228348D01*
X-42206Y227875D01*
X-42875Y227206D01*
X-43348Y226387D01*
X-43593Y225473D01*
Y224527D01*
X-43348Y223613D01*
X-42875Y222794D01*
X-42206Y222125D01*
X-41387Y221652D01*
X-40473Y221408D01*
X-39527D01*
X-38613Y221652D01*
X-37794Y222125D01*
X-37125Y222794D01*
X-36652Y223613D01*
X-36408Y224527D01*
Y225473D01*
X-36652Y226387D01*
X-37125Y227206D01*
X-37794Y227875D01*
X-38613Y228348D01*
X-39527Y228592D01*
D02*
G37*
G36*
X-49527D02*
X-50473D01*
X-51387Y228348D01*
X-52206Y227875D01*
X-52875Y227206D01*
X-53348Y226387D01*
X-53592Y225473D01*
Y224527D01*
X-53348Y223613D01*
X-52875Y222794D01*
X-52206Y222125D01*
X-51387Y221652D01*
X-50473Y221408D01*
X-49527D01*
X-48613Y221652D01*
X-47794Y222125D01*
X-47125Y222794D01*
X-46652Y223613D01*
X-46407Y224527D01*
Y225473D01*
X-46652Y226387D01*
X-47125Y227206D01*
X-47794Y227875D01*
X-48613Y228348D01*
X-49527Y228592D01*
D02*
G37*
G36*
X-351699Y228563D02*
X-352710D01*
X-353686Y228301D01*
X-354562Y227796D01*
X-355276Y227081D01*
X-355782Y226206D01*
X-356043Y225230D01*
Y224219D01*
X-355782Y223243D01*
X-355276Y222368D01*
X-354562Y221653D01*
X-353686Y221147D01*
X-352710Y220886D01*
X-351699D01*
X-350723Y221147D01*
X-349848Y221653D01*
X-349133Y222368D01*
X-348628Y223243D01*
X-348366Y224219D01*
Y225230D01*
X-348628Y226206D01*
X-349133Y227081D01*
X-349848Y227796D01*
X-350723Y228301D01*
X-351699Y228563D01*
D02*
G37*
G36*
X-361699D02*
X-362710D01*
X-363686Y228301D01*
X-364562Y227796D01*
X-365276Y227081D01*
X-365782Y226206D01*
X-366043Y225230D01*
Y224219D01*
X-365782Y223243D01*
X-365276Y222368D01*
X-364562Y221653D01*
X-363686Y221147D01*
X-362710Y220886D01*
X-361699D01*
X-360723Y221147D01*
X-359848Y221653D01*
X-359133Y222368D01*
X-358628Y223243D01*
X-358366Y224219D01*
Y225230D01*
X-358628Y226206D01*
X-359133Y227081D01*
X-359848Y227796D01*
X-360723Y228301D01*
X-361699Y228563D01*
D02*
G37*
G36*
X-74293Y223091D02*
X-75314D01*
X-76300Y222826D01*
X-77184Y222316D01*
X-77906Y221594D01*
X-78417Y220709D01*
X-78681Y219723D01*
Y218702D01*
X-78417Y217716D01*
X-77906Y216831D01*
X-77184Y216109D01*
X-76300Y215599D01*
X-75314Y215335D01*
X-74293D01*
X-73306Y215599D01*
X-72422Y216109D01*
X-71700Y216831D01*
X-71189Y217716D01*
X-70925Y218702D01*
Y219723D01*
X-71189Y220709D01*
X-71700Y221594D01*
X-72422Y222316D01*
X-73306Y222826D01*
X-74293Y223091D01*
D02*
G37*
G36*
X-84293D02*
X-85314D01*
X-86300Y222826D01*
X-87184Y222316D01*
X-87906Y221594D01*
X-88417Y220709D01*
X-88681Y219723D01*
Y218702D01*
X-88417Y217716D01*
X-87906Y216831D01*
X-87184Y216109D01*
X-86300Y215599D01*
X-85314Y215335D01*
X-84293D01*
X-83306Y215599D01*
X-82422Y216109D01*
X-81700Y216831D01*
X-81190Y217716D01*
X-80925Y218702D01*
Y219723D01*
X-81190Y220709D01*
X-81700Y221594D01*
X-82422Y222316D01*
X-83306Y222826D01*
X-84293Y223091D01*
D02*
G37*
G36*
X-314293D02*
X-315314D01*
X-316300Y222826D01*
X-317184Y222316D01*
X-317906Y221594D01*
X-318417Y220709D01*
X-318681Y219723D01*
Y218702D01*
X-318417Y217716D01*
X-317906Y216831D01*
X-317184Y216109D01*
X-316300Y215599D01*
X-315314Y215335D01*
X-314293D01*
X-313306Y215599D01*
X-312422Y216109D01*
X-311700Y216831D01*
X-311190Y217716D01*
X-310925Y218702D01*
Y219723D01*
X-311190Y220709D01*
X-311700Y221594D01*
X-312422Y222316D01*
X-313306Y222826D01*
X-314293Y223091D01*
D02*
G37*
G36*
X-324293D02*
X-325314D01*
X-326300Y222826D01*
X-327184Y222316D01*
X-327906Y221594D01*
X-328417Y220709D01*
X-328681Y219723D01*
Y218702D01*
X-328417Y217716D01*
X-327906Y216831D01*
X-327184Y216109D01*
X-326300Y215599D01*
X-325314Y215335D01*
X-324293D01*
X-323306Y215599D01*
X-322422Y216109D01*
X-321700Y216831D01*
X-321189Y217716D01*
X-320925Y218702D01*
Y219723D01*
X-321189Y220709D01*
X-321700Y221594D01*
X-322422Y222316D01*
X-323306Y222826D01*
X-324293Y223091D01*
D02*
G37*
G36*
X-103815Y219252D02*
X-104676D01*
X-105472Y218922D01*
X-106081Y218313D01*
X-106411Y217517D01*
Y216656D01*
X-106081Y215860D01*
X-105472Y215251D01*
X-104676Y214921D01*
X-103815D01*
X-103019Y215251D01*
X-102410Y215860D01*
X-102080Y216656D01*
Y217517D01*
X-102410Y218313D01*
X-103019Y218922D01*
X-103815Y219252D01*
D02*
G37*
G36*
X-62561Y218701D02*
X-63423D01*
X-64219Y218371D01*
X-64828Y217762D01*
X-65158Y216966D01*
Y216105D01*
X-64828Y215309D01*
X-64219Y214700D01*
X-63423Y214370D01*
X-62561D01*
X-61766Y214700D01*
X-61156Y215309D01*
X-60827Y216105D01*
Y216966D01*
X-61156Y217762D01*
X-61766Y218371D01*
X-62561Y218701D01*
D02*
G37*
G36*
X-340089D02*
X-340950D01*
X-341746Y218371D01*
X-342355Y217762D01*
X-342685Y216966D01*
Y216105D01*
X-342355Y215309D01*
X-341746Y214700D01*
X-340950Y214370D01*
X-340089D01*
X-339293Y214700D01*
X-338684Y215309D01*
X-338354Y216105D01*
Y216966D01*
X-338684Y217762D01*
X-339293Y218371D01*
X-340089Y218701D01*
D02*
G37*
G36*
X-39527Y218593D02*
X-40473D01*
X-41387Y218348D01*
X-42206Y217875D01*
X-42875Y217206D01*
X-43348Y216387D01*
X-43593Y215473D01*
Y214527D01*
X-43348Y213613D01*
X-42875Y212794D01*
X-42206Y212125D01*
X-41387Y211652D01*
X-40473Y211407D01*
X-39527D01*
X-38613Y211652D01*
X-37794Y212125D01*
X-37125Y212794D01*
X-36652Y213613D01*
X-36408Y214527D01*
Y215473D01*
X-36652Y216387D01*
X-37125Y217206D01*
X-37794Y217875D01*
X-38613Y218348D01*
X-39527Y218593D01*
D02*
G37*
G36*
X-49527D02*
X-50473D01*
X-51387Y218348D01*
X-52206Y217875D01*
X-52875Y217206D01*
X-53348Y216387D01*
X-53592Y215473D01*
Y214527D01*
X-53348Y213613D01*
X-52875Y212794D01*
X-52206Y212125D01*
X-51387Y211652D01*
X-50473Y211407D01*
X-49527D01*
X-48613Y211652D01*
X-47794Y212125D01*
X-47125Y212794D01*
X-46652Y213613D01*
X-46407Y214527D01*
Y215473D01*
X-46652Y216387D01*
X-47125Y217206D01*
X-47794Y217875D01*
X-48613Y218348D01*
X-49527Y218593D01*
D02*
G37*
G36*
X-351699Y218563D02*
X-352710D01*
X-353686Y218301D01*
X-354562Y217796D01*
X-355276Y217081D01*
X-355782Y216206D01*
X-356043Y215230D01*
Y214219D01*
X-355782Y213243D01*
X-355276Y212368D01*
X-354562Y211653D01*
X-353686Y211147D01*
X-352710Y210886D01*
X-351699D01*
X-350723Y211147D01*
X-349848Y211653D01*
X-349133Y212368D01*
X-348628Y213243D01*
X-348366Y214219D01*
Y215230D01*
X-348628Y216206D01*
X-349133Y217081D01*
X-349848Y217796D01*
X-350723Y218301D01*
X-351699Y218563D01*
D02*
G37*
G36*
X-361699D02*
X-362710D01*
X-363686Y218301D01*
X-364562Y217796D01*
X-365276Y217081D01*
X-365782Y216206D01*
X-366043Y215230D01*
Y214219D01*
X-365782Y213243D01*
X-365276Y212368D01*
X-364562Y211653D01*
X-363686Y211147D01*
X-362710Y210886D01*
X-361699D01*
X-360723Y211147D01*
X-359848Y211653D01*
X-359133Y212368D01*
X-358628Y213243D01*
X-358366Y214219D01*
Y215230D01*
X-358628Y216206D01*
X-359133Y217081D01*
X-359848Y217796D01*
X-360723Y218301D01*
X-361699Y218563D01*
D02*
G37*
G36*
X-56656Y210827D02*
X-57517D01*
X-58313Y210497D01*
X-58922Y209888D01*
X-59252Y209092D01*
Y208231D01*
X-58922Y207435D01*
X-58313Y206826D01*
X-57517Y206496D01*
X-56656D01*
X-55860Y206826D01*
X-55251Y207435D01*
X-54921Y208231D01*
Y209092D01*
X-55251Y209888D01*
X-55860Y210497D01*
X-56656Y210827D01*
D02*
G37*
G36*
X-210199D02*
X-211061D01*
X-211857Y210497D01*
X-212466Y209888D01*
X-212795Y209092D01*
Y208231D01*
X-212466Y207435D01*
X-211857Y206826D01*
X-211061Y206496D01*
X-210199D01*
X-209403Y206826D01*
X-208794Y207435D01*
X-208465Y208231D01*
Y209092D01*
X-208794Y209888D01*
X-209403Y210497D01*
X-210199Y210827D01*
D02*
G37*
G36*
X-238699Y214764D02*
X-239561D01*
X-240356Y214434D01*
X-240966Y213825D01*
X-241295Y213029D01*
Y212168D01*
X-240966Y211372D01*
X-240920Y211327D01*
X-241128Y210827D01*
X-241561D01*
X-242356Y210497D01*
X-242966Y209888D01*
X-243295Y209092D01*
Y208231D01*
X-242966Y207435D01*
X-242356Y206826D01*
X-241561Y206496D01*
X-240699D01*
X-239903Y206826D01*
X-239294Y207435D01*
X-238965Y208231D01*
Y209092D01*
X-239294Y209888D01*
X-239339Y209933D01*
X-239132Y210433D01*
X-238699D01*
X-237903Y210763D01*
X-237294Y211372D01*
X-236965Y212168D01*
Y213029D01*
X-237294Y213825D01*
X-237903Y214434D01*
X-238699Y214764D01*
D02*
G37*
G36*
X-351205Y208651D02*
Y205724D01*
X-348279D01*
X-348430Y206288D01*
X-348963Y207212D01*
X-349717Y207966D01*
X-350641Y208500D01*
X-351205Y208651D01*
D02*
G37*
G36*
X-353205D02*
X-353768Y208500D01*
X-354692Y207966D01*
X-355447Y207212D01*
X-355980Y206288D01*
X-356131Y205724D01*
X-353205D01*
Y208651D01*
D02*
G37*
G36*
X-74293Y213090D02*
X-75314D01*
X-76300Y212826D01*
X-77184Y212316D01*
X-77906Y211594D01*
X-78417Y210709D01*
X-78681Y209723D01*
Y208702D01*
X-78417Y207716D01*
X-77906Y206832D01*
X-77184Y206109D01*
X-76300Y205599D01*
X-75314Y205335D01*
X-74293D01*
X-73306Y205599D01*
X-72422Y206109D01*
X-71700Y206832D01*
X-71189Y207716D01*
X-70925Y208702D01*
Y209723D01*
X-71189Y210709D01*
X-71700Y211594D01*
X-72422Y212316D01*
X-73306Y212826D01*
X-74293Y213090D01*
D02*
G37*
G36*
X-84293D02*
X-85314D01*
X-86300Y212826D01*
X-87184Y212316D01*
X-87906Y211594D01*
X-88417Y210709D01*
X-88681Y209723D01*
Y208702D01*
X-88417Y207716D01*
X-87906Y206832D01*
X-87184Y206109D01*
X-86300Y205599D01*
X-85314Y205335D01*
X-84293D01*
X-83306Y205599D01*
X-82422Y206109D01*
X-81700Y206832D01*
X-81190Y207716D01*
X-80925Y208702D01*
Y209723D01*
X-81190Y210709D01*
X-81700Y211594D01*
X-82422Y212316D01*
X-83306Y212826D01*
X-84293Y213090D01*
D02*
G37*
G36*
X-314293D02*
X-315314D01*
X-316300Y212826D01*
X-317184Y212316D01*
X-317906Y211594D01*
X-318417Y210709D01*
X-318681Y209723D01*
Y208702D01*
X-318417Y207716D01*
X-317906Y206832D01*
X-317184Y206109D01*
X-316300Y205599D01*
X-315314Y205335D01*
X-314293D01*
X-313306Y205599D01*
X-312422Y206109D01*
X-311700Y206832D01*
X-311190Y207716D01*
X-310925Y208702D01*
Y209723D01*
X-311190Y210709D01*
X-311700Y211594D01*
X-312422Y212316D01*
X-313306Y212826D01*
X-314293Y213090D01*
D02*
G37*
G36*
X-324293D02*
X-325314D01*
X-326300Y212826D01*
X-327184Y212316D01*
X-327906Y211594D01*
X-328417Y210709D01*
X-328681Y209723D01*
Y208702D01*
X-328417Y207716D01*
X-327906Y206832D01*
X-327184Y206109D01*
X-326300Y205599D01*
X-325314Y205335D01*
X-324293D01*
X-323306Y205599D01*
X-322422Y206109D01*
X-321700Y206832D01*
X-321189Y207716D01*
X-320925Y208702D01*
Y209723D01*
X-321189Y210709D01*
X-321700Y211594D01*
X-322422Y212316D01*
X-323306Y212826D01*
X-324293Y213090D01*
D02*
G37*
G36*
X-223069Y206890D02*
X-223931D01*
X-224727Y206560D01*
X-225336Y205951D01*
X-225665Y205155D01*
Y204294D01*
X-225336Y203498D01*
X-224727Y202889D01*
X-223931Y202559D01*
X-223069D01*
X-222273Y202889D01*
X-221664Y203498D01*
X-221335Y204294D01*
Y205155D01*
X-221664Y205951D01*
X-222273Y206560D01*
X-223069Y206890D01*
D02*
G37*
G36*
X-39527Y208593D02*
X-40473D01*
X-41387Y208348D01*
X-42206Y207875D01*
X-42875Y207206D01*
X-43348Y206387D01*
X-43593Y205473D01*
Y204527D01*
X-43348Y203613D01*
X-42875Y202794D01*
X-42206Y202125D01*
X-41387Y201652D01*
X-40473Y201408D01*
X-39527D01*
X-38613Y201652D01*
X-37794Y202125D01*
X-37125Y202794D01*
X-36652Y203613D01*
X-36408Y204527D01*
Y205473D01*
X-36652Y206387D01*
X-37125Y207206D01*
X-37794Y207875D01*
X-38613Y208348D01*
X-39527Y208593D01*
D02*
G37*
G36*
X-49527D02*
X-50473D01*
X-51387Y208348D01*
X-52206Y207875D01*
X-52875Y207206D01*
X-53348Y206387D01*
X-53592Y205473D01*
Y204527D01*
X-53348Y203613D01*
X-52875Y202794D01*
X-52206Y202125D01*
X-51387Y201652D01*
X-50473Y201408D01*
X-49527D01*
X-48613Y201652D01*
X-47794Y202125D01*
X-47125Y202794D01*
X-46652Y203613D01*
X-46407Y204527D01*
Y205473D01*
X-46652Y206387D01*
X-47125Y207206D01*
X-47794Y207875D01*
X-48613Y208348D01*
X-49527Y208593D01*
D02*
G37*
G36*
X-366770Y210827D02*
X-367632D01*
X-368427Y210497D01*
X-369037Y209888D01*
X-369366Y209092D01*
Y208231D01*
X-369037Y207435D01*
X-368427Y206826D01*
X-367632Y206496D01*
X-366770D01*
X-366010Y206811D01*
X-365969Y206790D01*
X-365715Y206321D01*
X-365782Y206206D01*
X-366043Y205230D01*
Y204219D01*
X-365782Y203243D01*
X-365276Y202367D01*
X-364562Y201653D01*
X-363686Y201147D01*
X-362710Y200886D01*
X-361699D01*
X-360723Y201147D01*
X-359848Y201653D01*
X-359133Y202367D01*
X-358628Y203243D01*
X-358366Y204219D01*
Y205230D01*
X-358628Y206206D01*
X-359133Y207081D01*
X-359848Y207796D01*
X-360723Y208301D01*
X-361699Y208563D01*
X-362710D01*
X-363686Y208301D01*
X-364562Y207796D01*
X-364754Y207604D01*
X-365178Y207887D01*
X-365035Y208231D01*
Y209092D01*
X-365365Y209888D01*
X-365974Y210497D01*
X-366770Y210827D01*
D02*
G37*
G36*
X-353205Y203724D02*
X-356131D01*
X-355980Y203161D01*
X-355447Y202237D01*
X-354692Y201483D01*
X-353768Y200949D01*
X-353205Y200798D01*
Y203724D01*
D02*
G37*
G36*
X-348279D02*
X-351205D01*
Y200798D01*
X-350641Y200949D01*
X-349717Y201483D01*
X-348963Y202237D01*
X-348430Y203161D01*
X-348279Y203724D01*
D02*
G37*
G36*
X-245632Y202953D02*
X-246494D01*
X-247290Y202623D01*
X-247899Y202014D01*
X-248228Y201218D01*
Y200357D01*
X-247899Y199561D01*
X-247290Y198952D01*
X-246494Y198622D01*
X-245632D01*
X-244836Y198952D01*
X-244227Y199561D01*
X-243898Y200357D01*
Y201218D01*
X-244227Y202014D01*
X-244836Y202623D01*
X-245632Y202953D01*
D02*
G37*
G36*
X-361205Y198651D02*
Y195724D01*
X-358279D01*
X-358430Y196288D01*
X-358963Y197212D01*
X-359717Y197966D01*
X-360641Y198500D01*
X-361205Y198651D01*
D02*
G37*
G36*
X-363205D02*
X-363768Y198500D01*
X-364692Y197966D01*
X-365446Y197212D01*
X-365980Y196288D01*
X-366131Y195724D01*
X-363205D01*
Y198651D01*
D02*
G37*
G36*
X-74293Y203091D02*
X-75314D01*
X-76300Y202826D01*
X-77184Y202316D01*
X-77906Y201594D01*
X-78417Y200709D01*
X-78681Y199723D01*
Y198702D01*
X-78417Y197716D01*
X-77906Y196832D01*
X-77184Y196109D01*
X-76300Y195599D01*
X-75314Y195335D01*
X-74293D01*
X-73306Y195599D01*
X-72422Y196109D01*
X-71700Y196832D01*
X-71189Y197716D01*
X-70925Y198702D01*
Y199723D01*
X-71189Y200709D01*
X-71700Y201594D01*
X-72422Y202316D01*
X-73306Y202826D01*
X-74293Y203091D01*
D02*
G37*
G36*
X-84293D02*
X-85314D01*
X-86300Y202826D01*
X-87184Y202316D01*
X-87906Y201594D01*
X-88417Y200709D01*
X-88681Y199723D01*
Y198702D01*
X-88417Y197716D01*
X-87906Y196832D01*
X-87184Y196109D01*
X-86300Y195599D01*
X-85314Y195335D01*
X-84293D01*
X-83306Y195599D01*
X-82422Y196109D01*
X-81700Y196832D01*
X-81190Y197716D01*
X-80925Y198702D01*
Y199723D01*
X-81190Y200709D01*
X-81700Y201594D01*
X-82422Y202316D01*
X-83306Y202826D01*
X-84293Y203091D01*
D02*
G37*
G36*
X-314293D02*
X-315314D01*
X-316300Y202826D01*
X-317184Y202316D01*
X-317906Y201594D01*
X-318417Y200709D01*
X-318681Y199723D01*
Y198702D01*
X-318417Y197716D01*
X-317906Y196832D01*
X-317184Y196109D01*
X-316300Y195599D01*
X-315314Y195335D01*
X-314293D01*
X-313306Y195599D01*
X-312422Y196109D01*
X-311700Y196832D01*
X-311190Y197716D01*
X-310925Y198702D01*
Y199723D01*
X-311190Y200709D01*
X-311700Y201594D01*
X-312422Y202316D01*
X-313306Y202826D01*
X-314293Y203091D01*
D02*
G37*
G36*
X-324293D02*
X-325314D01*
X-326300Y202826D01*
X-327184Y202316D01*
X-327906Y201594D01*
X-328417Y200709D01*
X-328681Y199723D01*
Y198702D01*
X-328417Y197716D01*
X-327906Y196832D01*
X-327184Y196109D01*
X-326300Y195599D01*
X-325314Y195335D01*
X-324293D01*
X-323306Y195599D01*
X-322422Y196109D01*
X-321700Y196832D01*
X-321189Y197716D01*
X-320925Y198702D01*
Y199723D01*
X-321189Y200709D01*
X-321700Y201594D01*
X-322422Y202316D01*
X-323306Y202826D01*
X-324293Y203091D01*
D02*
G37*
G36*
X-229952Y199081D02*
X-230813D01*
X-231609Y198751D01*
X-232218Y198142D01*
X-232548Y197346D01*
Y196485D01*
X-232218Y195689D01*
X-231609Y195080D01*
X-230813Y194750D01*
X-229952D01*
X-229156Y195080D01*
X-228547Y195689D01*
X-228217Y196485D01*
Y197346D01*
X-228547Y198142D01*
X-229156Y198751D01*
X-229952Y199081D01*
D02*
G37*
G36*
X-66498Y199016D02*
X-67360D01*
X-68156Y198686D01*
X-68765Y198077D01*
X-69095Y197281D01*
Y196420D01*
X-68765Y195624D01*
X-68156Y195015D01*
X-67360Y194685D01*
X-66498D01*
X-65703Y195015D01*
X-65093Y195624D01*
X-64764Y196420D01*
Y197281D01*
X-65093Y198077D01*
X-65703Y198686D01*
X-66498Y199016D01*
D02*
G37*
G36*
X-307933D02*
X-308794D01*
X-309590Y198686D01*
X-310199Y198077D01*
X-310529Y197281D01*
Y196420D01*
X-310199Y195624D01*
X-309590Y195015D01*
X-308794Y194685D01*
X-307933D01*
X-307137Y195015D01*
X-306528Y195624D01*
X-306198Y196420D01*
Y197281D01*
X-306528Y198077D01*
X-307137Y198686D01*
X-307933Y199016D01*
D02*
G37*
G36*
X-39527Y198592D02*
X-40473D01*
X-41387Y198348D01*
X-42206Y197875D01*
X-42875Y197206D01*
X-43348Y196387D01*
X-43593Y195473D01*
Y194527D01*
X-43348Y193613D01*
X-42875Y192794D01*
X-42206Y192125D01*
X-41387Y191652D01*
X-40473Y191408D01*
X-39527D01*
X-38613Y191652D01*
X-37794Y192125D01*
X-37125Y192794D01*
X-36652Y193613D01*
X-36408Y194527D01*
Y195473D01*
X-36652Y196387D01*
X-37125Y197206D01*
X-37794Y197875D01*
X-38613Y198348D01*
X-39527Y198592D01*
D02*
G37*
G36*
X-49527D02*
X-50473D01*
X-51387Y198348D01*
X-52206Y197875D01*
X-52875Y197206D01*
X-53348Y196387D01*
X-53592Y195473D01*
Y194527D01*
X-53348Y193613D01*
X-52875Y192794D01*
X-52206Y192125D01*
X-51387Y191652D01*
X-50473Y191408D01*
X-49527D01*
X-48613Y191652D01*
X-47794Y192125D01*
X-47125Y192794D01*
X-46652Y193613D01*
X-46407Y194527D01*
Y195473D01*
X-46652Y196387D01*
X-47125Y197206D01*
X-47794Y197875D01*
X-48613Y198348D01*
X-49527Y198592D01*
D02*
G37*
G36*
X-351699Y198563D02*
X-352710D01*
X-353686Y198301D01*
X-354562Y197796D01*
X-355276Y197081D01*
X-355782Y196206D01*
X-356043Y195230D01*
Y194219D01*
X-355782Y193243D01*
X-355276Y192367D01*
X-354562Y191653D01*
X-353686Y191147D01*
X-352710Y190886D01*
X-351699D01*
X-350723Y191147D01*
X-349848Y191653D01*
X-349133Y192367D01*
X-348628Y193243D01*
X-348366Y194219D01*
Y195230D01*
X-348628Y196206D01*
X-349133Y197081D01*
X-349848Y197796D01*
X-350723Y198301D01*
X-351699Y198563D01*
D02*
G37*
G36*
X-363205Y193724D02*
X-366131D01*
X-365980Y193161D01*
X-365446Y192237D01*
X-364692Y191483D01*
X-363768Y190949D01*
X-363205Y190798D01*
Y193724D01*
D02*
G37*
G36*
X-358279D02*
X-361205D01*
Y190798D01*
X-360641Y190949D01*
X-359717Y191483D01*
X-358963Y192237D01*
X-358430Y193161D01*
X-358279Y193724D01*
D02*
G37*
G36*
X-270164Y195079D02*
X-271025D01*
X-271821Y194749D01*
X-272430Y194140D01*
X-272760Y193344D01*
Y192483D01*
X-272430Y191687D01*
X-271821Y191078D01*
X-271025Y190748D01*
X-270164D01*
X-269368Y191078D01*
X-268759Y191687D01*
X-268429Y192483D01*
Y193344D01*
X-268759Y194140D01*
X-269368Y194749D01*
X-270164Y195079D01*
D02*
G37*
G36*
X-162403Y194612D02*
X-163264D01*
X-164060Y194282D01*
X-164669Y193673D01*
X-164999Y192877D01*
Y192016D01*
X-164669Y191220D01*
X-164060Y190611D01*
X-163264Y190281D01*
X-162403D01*
X-161607Y190611D01*
X-160998Y191220D01*
X-160668Y192016D01*
Y192877D01*
X-160998Y193673D01*
X-161607Y194282D01*
X-162403Y194612D01*
D02*
G37*
G36*
X-305933Y191505D02*
X-306794D01*
X-307590Y191176D01*
X-308199Y190567D01*
X-308529Y189771D01*
Y188909D01*
X-308199Y188113D01*
X-307590Y187504D01*
X-306794Y187175D01*
X-305933D01*
X-305137Y187504D01*
X-304528Y188113D01*
X-304198Y188909D01*
Y189771D01*
X-304528Y190567D01*
X-305137Y191176D01*
X-305933Y191505D01*
D02*
G37*
G36*
X-74293Y193091D02*
X-75314D01*
X-76300Y192826D01*
X-77184Y192316D01*
X-77906Y191594D01*
X-78417Y190709D01*
X-78681Y189723D01*
Y188702D01*
X-78417Y187716D01*
X-77906Y186831D01*
X-77184Y186109D01*
X-76300Y185599D01*
X-75314Y185335D01*
X-74293D01*
X-73306Y185599D01*
X-72422Y186109D01*
X-71700Y186831D01*
X-71189Y187716D01*
X-70925Y188702D01*
Y189723D01*
X-71189Y190709D01*
X-71700Y191594D01*
X-72422Y192316D01*
X-73306Y192826D01*
X-74293Y193091D01*
D02*
G37*
G36*
X-84293D02*
X-85314D01*
X-86300Y192826D01*
X-87184Y192316D01*
X-87906Y191594D01*
X-88417Y190709D01*
X-88681Y189723D01*
Y188702D01*
X-88417Y187716D01*
X-87906Y186831D01*
X-87184Y186109D01*
X-86300Y185599D01*
X-85314Y185335D01*
X-84293D01*
X-83306Y185599D01*
X-82422Y186109D01*
X-81700Y186831D01*
X-81190Y187716D01*
X-80925Y188702D01*
Y189723D01*
X-81190Y190709D01*
X-81700Y191594D01*
X-82422Y192316D01*
X-83306Y192826D01*
X-84293Y193091D01*
D02*
G37*
G36*
X-314293D02*
X-315314D01*
X-316300Y192826D01*
X-317184Y192316D01*
X-317906Y191594D01*
X-318417Y190709D01*
X-318681Y189723D01*
Y188702D01*
X-318417Y187716D01*
X-317906Y186831D01*
X-317184Y186109D01*
X-316300Y185599D01*
X-315314Y185335D01*
X-314293D01*
X-313306Y185599D01*
X-312422Y186109D01*
X-311700Y186831D01*
X-311190Y187716D01*
X-310925Y188702D01*
Y189723D01*
X-311190Y190709D01*
X-311700Y191594D01*
X-312422Y192316D01*
X-313306Y192826D01*
X-314293Y193091D01*
D02*
G37*
G36*
X-324293D02*
X-325314D01*
X-326300Y192826D01*
X-327184Y192316D01*
X-327906Y191594D01*
X-328417Y190709D01*
X-328681Y189723D01*
Y188702D01*
X-328417Y187716D01*
X-327906Y186831D01*
X-327184Y186109D01*
X-326300Y185599D01*
X-325314Y185335D01*
X-324293D01*
X-323306Y185599D01*
X-322422Y186109D01*
X-321700Y186831D01*
X-321189Y187716D01*
X-320925Y188702D01*
Y189723D01*
X-321189Y190709D01*
X-321700Y191594D01*
X-322422Y192316D01*
X-323306Y192826D01*
X-324293Y193091D01*
D02*
G37*
G36*
X-206262Y189173D02*
X-207124D01*
X-207920Y188844D01*
X-208529Y188234D01*
X-208858Y187439D01*
Y186577D01*
X-208529Y185781D01*
X-207920Y185172D01*
X-207124Y184843D01*
X-206262D01*
X-205466Y185172D01*
X-204857Y185781D01*
X-204528Y186577D01*
Y187439D01*
X-204857Y188234D01*
X-205466Y188844D01*
X-206262Y189173D01*
D02*
G37*
G36*
X-188227Y187750D02*
X-189089D01*
X-189885Y187420D01*
X-190494Y186811D01*
X-190824Y186015D01*
Y185154D01*
X-190494Y184358D01*
X-189885Y183749D01*
X-189089Y183419D01*
X-188227D01*
X-187432Y183749D01*
X-186822Y184358D01*
X-186493Y185154D01*
Y186015D01*
X-186822Y186811D01*
X-187432Y187420D01*
X-188227Y187750D01*
D02*
G37*
G36*
X-269254Y187205D02*
X-270116D01*
X-270912Y186875D01*
X-271521Y186266D01*
X-271850Y185470D01*
Y184609D01*
X-271521Y183813D01*
X-270912Y183204D01*
X-270116Y182874D01*
X-269254D01*
X-268459Y183204D01*
X-267849Y183813D01*
X-267520Y184609D01*
Y185470D01*
X-267849Y186266D01*
X-268459Y186875D01*
X-269254Y187205D01*
D02*
G37*
G36*
X-39527Y188593D02*
X-40473D01*
X-41387Y188348D01*
X-42206Y187875D01*
X-42875Y187206D01*
X-43348Y186387D01*
X-43593Y185473D01*
Y184527D01*
X-43348Y183613D01*
X-42875Y182794D01*
X-42206Y182125D01*
X-41387Y181652D01*
X-40473Y181407D01*
X-39527D01*
X-38613Y181652D01*
X-37794Y182125D01*
X-37125Y182794D01*
X-36652Y183613D01*
X-36408Y184527D01*
Y185473D01*
X-36652Y186387D01*
X-37125Y187206D01*
X-37794Y187875D01*
X-38613Y188348D01*
X-39527Y188593D01*
D02*
G37*
G36*
X-49527D02*
X-50473D01*
X-51387Y188348D01*
X-52206Y187875D01*
X-52875Y187206D01*
X-53348Y186387D01*
X-53592Y185473D01*
Y184527D01*
X-53348Y183613D01*
X-52875Y182794D01*
X-52206Y182125D01*
X-51387Y181652D01*
X-50473Y181407D01*
X-49527D01*
X-48613Y181652D01*
X-47794Y182125D01*
X-47125Y182794D01*
X-46652Y183613D01*
X-46407Y184527D01*
Y185473D01*
X-46652Y186387D01*
X-47125Y187206D01*
X-47794Y187875D01*
X-48613Y188348D01*
X-49527Y188593D01*
D02*
G37*
G36*
X-351699Y188563D02*
X-352710D01*
X-353686Y188301D01*
X-354562Y187796D01*
X-355276Y187081D01*
X-355782Y186206D01*
X-356043Y185230D01*
Y184219D01*
X-355782Y183243D01*
X-355276Y182368D01*
X-354562Y181653D01*
X-353686Y181147D01*
X-352710Y180886D01*
X-351699D01*
X-350723Y181147D01*
X-349848Y181653D01*
X-349133Y182368D01*
X-348628Y183243D01*
X-348366Y184219D01*
Y185230D01*
X-348628Y186206D01*
X-349133Y187081D01*
X-349848Y187796D01*
X-350723Y188301D01*
X-351699Y188563D01*
D02*
G37*
G36*
X-361699D02*
X-362710D01*
X-363686Y188301D01*
X-364562Y187796D01*
X-365276Y187081D01*
X-365782Y186206D01*
X-366043Y185230D01*
Y184219D01*
X-365782Y183243D01*
X-365276Y182368D01*
X-364562Y181653D01*
X-363686Y181147D01*
X-362710Y180886D01*
X-361699D01*
X-360723Y181147D01*
X-359848Y181653D01*
X-359133Y182368D01*
X-358628Y183243D01*
X-358366Y184219D01*
Y185230D01*
X-358628Y186206D01*
X-359133Y187081D01*
X-359848Y187796D01*
X-360723Y188301D01*
X-361699Y188563D01*
D02*
G37*
G36*
X-172992Y184250D02*
X-173853D01*
X-174649Y183920D01*
X-175258Y183311D01*
X-175588Y182515D01*
Y181654D01*
X-175258Y180858D01*
X-174649Y180249D01*
X-173853Y179919D01*
X-172992D01*
X-172196Y180249D01*
X-171587Y180858D01*
X-171257Y181654D01*
Y182515D01*
X-171587Y183311D01*
X-172196Y183920D01*
X-172992Y184250D01*
D02*
G37*
G36*
X-162046Y181299D02*
X-162907D01*
X-163703Y180970D01*
X-164312Y180360D01*
X-164642Y179565D01*
Y178703D01*
X-164312Y177907D01*
X-163703Y177298D01*
X-162907Y176969D01*
X-162046D01*
X-161250Y177298D01*
X-160641Y177907D01*
X-160311Y178703D01*
Y179565D01*
X-160641Y180360D01*
X-161250Y180970D01*
X-162046Y181299D01*
D02*
G37*
G36*
X-193983Y180961D02*
X-194845D01*
X-195641Y180631D01*
X-196250Y180022D01*
X-196580Y179226D01*
Y178365D01*
X-196250Y177569D01*
X-195641Y176960D01*
X-194845Y176630D01*
X-193983D01*
X-193188Y176960D01*
X-192578Y177569D01*
X-192249Y178365D01*
Y179226D01*
X-192578Y180022D01*
X-193188Y180631D01*
X-193983Y180961D01*
D02*
G37*
G36*
X-298782D02*
X-299643D01*
X-300439Y180631D01*
X-301048Y180022D01*
X-301378Y179226D01*
Y178365D01*
X-301048Y177569D01*
X-300439Y176960D01*
X-299643Y176630D01*
X-298782D01*
X-297986Y176960D01*
X-297377Y177569D01*
X-297047Y178365D01*
Y179226D01*
X-297377Y180022D01*
X-297986Y180631D01*
X-298782Y180961D01*
D02*
G37*
G36*
X-74293Y183091D02*
X-75314D01*
X-76300Y182826D01*
X-77184Y182316D01*
X-77906Y181594D01*
X-78417Y180709D01*
X-78681Y179723D01*
Y178702D01*
X-78417Y177716D01*
X-77906Y176831D01*
X-77184Y176110D01*
X-76300Y175599D01*
X-75314Y175335D01*
X-74293D01*
X-73306Y175599D01*
X-72422Y176110D01*
X-71700Y176831D01*
X-71189Y177716D01*
X-70925Y178702D01*
Y179723D01*
X-71189Y180709D01*
X-71700Y181594D01*
X-72422Y182316D01*
X-73306Y182826D01*
X-74293Y183091D01*
D02*
G37*
G36*
X-84293D02*
X-85314D01*
X-86300Y182826D01*
X-87184Y182316D01*
X-87906Y181594D01*
X-88417Y180709D01*
X-88681Y179723D01*
Y178702D01*
X-88417Y177716D01*
X-87906Y176831D01*
X-87184Y176110D01*
X-86300Y175599D01*
X-85314Y175335D01*
X-84293D01*
X-83306Y175599D01*
X-82422Y176110D01*
X-81700Y176831D01*
X-81190Y177716D01*
X-80925Y178702D01*
Y179723D01*
X-81190Y180709D01*
X-81700Y181594D01*
X-82422Y182316D01*
X-83306Y182826D01*
X-84293Y183091D01*
D02*
G37*
G36*
X-314293D02*
X-315314D01*
X-316300Y182826D01*
X-317184Y182316D01*
X-317906Y181594D01*
X-318417Y180709D01*
X-318681Y179723D01*
Y178702D01*
X-318417Y177716D01*
X-317906Y176831D01*
X-317184Y176110D01*
X-316300Y175599D01*
X-315314Y175335D01*
X-314293D01*
X-313306Y175599D01*
X-312422Y176110D01*
X-311700Y176831D01*
X-311190Y177716D01*
X-310925Y178702D01*
Y179723D01*
X-311190Y180709D01*
X-311700Y181594D01*
X-312422Y182316D01*
X-313306Y182826D01*
X-314293Y183091D01*
D02*
G37*
G36*
X-324293D02*
X-325314D01*
X-326300Y182826D01*
X-327184Y182316D01*
X-327906Y181594D01*
X-328417Y180709D01*
X-328681Y179723D01*
Y178702D01*
X-328417Y177716D01*
X-327906Y176831D01*
X-327184Y176110D01*
X-326300Y175599D01*
X-325314Y175335D01*
X-324293D01*
X-323306Y175599D01*
X-322422Y176110D01*
X-321700Y176831D01*
X-321189Y177716D01*
X-320925Y178702D01*
Y179723D01*
X-321189Y180709D01*
X-321700Y181594D01*
X-322422Y182316D01*
X-323306Y182826D01*
X-324293Y183091D01*
D02*
G37*
G36*
X-241695Y179331D02*
X-242557D01*
X-243353Y179001D01*
X-243962Y178392D01*
X-244291Y177596D01*
Y176735D01*
X-243962Y175939D01*
X-243353Y175330D01*
X-242557Y175000D01*
X-241695D01*
X-240899Y175330D01*
X-240290Y175939D01*
X-239961Y176735D01*
Y177596D01*
X-240290Y178392D01*
X-240899Y179001D01*
X-241695Y179331D01*
D02*
G37*
G36*
X-257443D02*
X-258305D01*
X-259101Y179001D01*
X-259710Y178392D01*
X-260039Y177596D01*
Y176735D01*
X-259710Y175939D01*
X-259101Y175330D01*
X-258305Y175000D01*
X-257443D01*
X-256647Y175330D01*
X-256038Y175939D01*
X-255709Y176735D01*
Y177596D01*
X-256038Y178392D01*
X-256647Y179001D01*
X-257443Y179331D01*
D02*
G37*
G36*
X-101932Y177362D02*
X-102793D01*
X-103589Y177032D01*
X-104198Y176423D01*
X-104528Y175628D01*
Y174766D01*
X-104198Y173970D01*
X-103589Y173361D01*
X-102793Y173031D01*
X-101932D01*
X-101136Y173361D01*
X-100526Y173970D01*
X-100197Y174766D01*
Y175628D01*
X-100526Y176423D01*
X-101136Y177032D01*
X-101932Y177362D01*
D02*
G37*
G36*
X-125554Y177362D02*
X-126415D01*
X-127211Y177032D01*
X-127820Y176423D01*
X-128150Y175628D01*
Y174766D01*
X-127820Y173970D01*
X-127211Y173361D01*
X-126415Y173031D01*
X-125554D01*
X-124758Y173361D01*
X-124149Y173970D01*
X-123819Y174766D01*
Y175628D01*
X-124149Y176423D01*
X-124758Y177032D01*
X-125554Y177362D01*
D02*
G37*
G36*
X-39527Y178593D02*
X-40473D01*
X-41387Y178348D01*
X-42206Y177875D01*
X-42875Y177206D01*
X-43348Y176387D01*
X-43593Y175473D01*
Y174527D01*
X-43348Y173613D01*
X-42875Y172794D01*
X-42206Y172125D01*
X-41387Y171652D01*
X-40473Y171407D01*
X-39527D01*
X-38613Y171652D01*
X-37794Y172125D01*
X-37125Y172794D01*
X-36652Y173613D01*
X-36408Y174527D01*
Y175473D01*
X-36652Y176387D01*
X-37125Y177206D01*
X-37794Y177875D01*
X-38613Y178348D01*
X-39527Y178593D01*
D02*
G37*
G36*
X-49527D02*
X-50473D01*
X-51387Y178348D01*
X-52206Y177875D01*
X-52875Y177206D01*
X-53348Y176387D01*
X-53592Y175473D01*
Y174527D01*
X-53348Y173613D01*
X-52875Y172794D01*
X-52206Y172125D01*
X-51387Y171652D01*
X-50473Y171407D01*
X-49527D01*
X-48613Y171652D01*
X-47794Y172125D01*
X-47125Y172794D01*
X-46652Y173613D01*
X-46407Y174527D01*
Y175473D01*
X-46652Y176387D01*
X-47125Y177206D01*
X-47794Y177875D01*
X-48613Y178348D01*
X-49527Y178593D01*
D02*
G37*
G36*
X-96026Y175394D02*
X-96887D01*
X-97683Y175064D01*
X-98292Y174455D01*
X-98622Y173659D01*
Y172798D01*
X-98292Y172002D01*
X-97683Y171393D01*
X-96887Y171063D01*
X-96026D01*
X-95230Y171393D01*
X-94621Y172002D01*
X-94291Y172798D01*
Y173659D01*
X-94621Y174455D01*
X-95230Y175064D01*
X-96026Y175394D01*
D02*
G37*
G36*
X-351699Y178563D02*
X-352710D01*
X-353686Y178301D01*
X-354562Y177796D01*
X-355276Y177081D01*
X-355782Y176206D01*
X-356043Y175230D01*
Y174219D01*
X-355782Y173243D01*
X-355276Y172368D01*
X-354562Y171653D01*
X-353686Y171147D01*
X-352710Y170886D01*
X-351699D01*
X-350723Y171147D01*
X-349848Y171653D01*
X-349133Y172368D01*
X-348628Y173243D01*
X-348366Y174219D01*
Y175230D01*
X-348628Y176206D01*
X-349133Y177081D01*
X-349848Y177796D01*
X-350723Y178301D01*
X-351699Y178563D01*
D02*
G37*
G36*
X-361699D02*
X-362710D01*
X-363686Y178301D01*
X-364562Y177796D01*
X-365276Y177081D01*
X-365782Y176206D01*
X-366043Y175230D01*
Y174219D01*
X-365782Y173243D01*
X-365276Y172368D01*
X-364562Y171653D01*
X-363686Y171147D01*
X-362710Y170886D01*
X-361699D01*
X-360723Y171147D01*
X-359848Y171653D01*
X-359133Y172368D01*
X-358628Y173243D01*
X-358366Y174219D01*
Y175230D01*
X-358628Y176206D01*
X-359133Y177081D01*
X-359848Y177796D01*
X-360723Y178301D01*
X-361699Y178563D01*
D02*
G37*
G36*
X-141302Y173425D02*
X-142163D01*
X-142959Y173096D01*
X-143568Y172486D01*
X-143898Y171691D01*
Y170829D01*
X-143568Y170033D01*
X-142959Y169424D01*
X-142163Y169095D01*
X-141302D01*
X-140506Y169424D01*
X-139897Y170033D01*
X-139567Y170829D01*
Y171691D01*
X-139897Y172486D01*
X-140506Y173096D01*
X-141302Y173425D01*
D02*
G37*
G36*
X-292876Y173425D02*
X-293738D01*
X-294534Y173096D01*
X-295143Y172486D01*
X-295472Y171691D01*
Y170829D01*
X-295143Y170033D01*
X-294534Y169424D01*
X-293738Y169095D01*
X-292876D01*
X-292080Y169424D01*
X-291471Y170033D01*
X-291142Y170829D01*
Y171691D01*
X-291471Y172486D01*
X-292080Y173096D01*
X-292876Y173425D01*
D02*
G37*
G36*
X-306656D02*
X-307517D01*
X-308313Y173096D01*
X-308922Y172486D01*
X-309252Y171691D01*
Y170829D01*
X-308922Y170033D01*
X-308313Y169424D01*
X-307517Y169095D01*
X-306656D01*
X-305860Y169424D01*
X-305251Y170033D01*
X-304921Y170829D01*
Y171691D01*
X-305251Y172486D01*
X-305860Y173096D01*
X-306656Y173425D01*
D02*
G37*
G36*
X-369648D02*
X-370510D01*
X-371305Y173096D01*
X-371914Y172486D01*
X-372244Y171691D01*
Y170829D01*
X-371914Y170033D01*
X-371305Y169424D01*
X-370510Y169095D01*
X-369648D01*
X-368852Y169424D01*
X-368243Y170033D01*
X-367913Y170829D01*
Y171691D01*
X-368243Y172486D01*
X-368852Y173096D01*
X-369648Y173425D01*
D02*
G37*
G36*
X-176735Y171457D02*
X-177596D01*
X-178392Y171127D01*
X-179001Y170518D01*
X-179331Y169722D01*
Y168861D01*
X-179001Y168065D01*
X-178392Y167456D01*
X-177596Y167126D01*
X-176735D01*
X-175939Y167456D01*
X-175330Y168065D01*
X-175000Y168861D01*
Y169722D01*
X-175330Y170518D01*
X-175939Y171127D01*
X-176735Y171457D01*
D02*
G37*
G36*
X-235790D02*
X-236651D01*
X-237447Y171127D01*
X-238056Y170518D01*
X-238386Y169722D01*
Y168861D01*
X-238056Y168065D01*
X-237447Y167456D01*
X-236651Y167126D01*
X-235790D01*
X-234994Y167456D01*
X-234385Y168065D01*
X-234055Y168861D01*
Y169722D01*
X-234385Y170518D01*
X-234994Y171127D01*
X-235790Y171457D01*
D02*
G37*
G36*
X-74293Y173091D02*
X-75314D01*
X-76300Y172826D01*
X-77184Y172316D01*
X-77906Y171594D01*
X-78417Y170709D01*
X-78681Y169723D01*
Y168702D01*
X-78417Y167716D01*
X-77906Y166832D01*
X-77184Y166110D01*
X-76300Y165599D01*
X-75314Y165335D01*
X-74293D01*
X-73306Y165599D01*
X-72422Y166110D01*
X-71700Y166832D01*
X-71189Y167716D01*
X-70925Y168702D01*
Y169723D01*
X-71189Y170709D01*
X-71700Y171594D01*
X-72422Y172316D01*
X-73306Y172826D01*
X-74293Y173091D01*
D02*
G37*
G36*
X-84293D02*
X-85314D01*
X-86300Y172826D01*
X-87184Y172316D01*
X-87906Y171594D01*
X-88417Y170709D01*
X-88681Y169723D01*
Y168702D01*
X-88417Y167716D01*
X-87906Y166832D01*
X-87184Y166110D01*
X-86300Y165599D01*
X-85314Y165335D01*
X-84293D01*
X-83306Y165599D01*
X-82422Y166110D01*
X-81700Y166832D01*
X-81190Y167716D01*
X-80925Y168702D01*
Y169723D01*
X-81190Y170709D01*
X-81700Y171594D01*
X-82422Y172316D01*
X-83306Y172826D01*
X-84293Y173091D01*
D02*
G37*
G36*
X-314293D02*
X-315314D01*
X-316300Y172826D01*
X-317184Y172316D01*
X-317906Y171594D01*
X-318417Y170709D01*
X-318681Y169723D01*
Y168702D01*
X-318417Y167716D01*
X-317906Y166832D01*
X-317184Y166110D01*
X-316300Y165599D01*
X-315314Y165335D01*
X-314293D01*
X-313306Y165599D01*
X-312422Y166110D01*
X-311700Y166832D01*
X-311190Y167716D01*
X-310925Y168702D01*
Y169723D01*
X-311190Y170709D01*
X-311700Y171594D01*
X-312422Y172316D01*
X-313306Y172826D01*
X-314293Y173091D01*
D02*
G37*
G36*
X-324293D02*
X-325314D01*
X-326300Y172826D01*
X-327184Y172316D01*
X-327906Y171594D01*
X-328417Y170709D01*
X-328681Y169723D01*
Y168702D01*
X-328417Y167716D01*
X-327906Y166832D01*
X-327184Y166110D01*
X-326300Y165599D01*
X-325314Y165335D01*
X-324293D01*
X-323306Y165599D01*
X-322422Y166110D01*
X-321700Y166832D01*
X-321189Y167716D01*
X-320925Y168702D01*
Y169723D01*
X-321189Y170709D01*
X-321700Y171594D01*
X-322422Y172316D01*
X-323306Y172826D01*
X-324293Y173091D01*
D02*
G37*
G36*
X-92089Y169488D02*
X-92950D01*
X-93746Y169158D01*
X-94355Y168549D01*
X-94685Y167754D01*
Y166892D01*
X-94355Y166096D01*
X-93746Y165487D01*
X-92950Y165157D01*
X-92089D01*
X-91293Y165487D01*
X-90684Y166096D01*
X-90354Y166892D01*
Y167754D01*
X-90684Y168549D01*
X-91293Y169158D01*
X-92089Y169488D01*
D02*
G37*
G36*
X-121616D02*
X-122478D01*
X-123274Y169158D01*
X-123883Y168549D01*
X-124213Y167754D01*
Y166892D01*
X-123883Y166096D01*
X-123274Y165487D01*
X-122478Y165157D01*
X-121616D01*
X-120821Y165487D01*
X-120212Y166096D01*
X-119882Y166892D01*
Y167754D01*
X-120212Y168549D01*
X-120821Y169158D01*
X-121616Y169488D01*
D02*
G37*
G36*
X-127522D02*
X-128384D01*
X-129179Y169158D01*
X-129788Y168549D01*
X-130118Y167754D01*
Y166892D01*
X-129788Y166096D01*
X-129179Y165487D01*
X-128384Y165157D01*
X-127522D01*
X-126726Y165487D01*
X-126117Y166096D01*
X-125787Y166892D01*
Y167754D01*
X-126117Y168549D01*
X-126726Y169158D01*
X-127522Y169488D01*
D02*
G37*
G36*
X-164046D02*
X-164907D01*
X-165703Y169158D01*
X-166312Y168549D01*
X-166642Y167754D01*
Y166892D01*
X-166312Y166096D01*
X-165703Y165487D01*
X-164907Y165157D01*
X-164046D01*
X-163250Y165487D01*
X-162641Y166096D01*
X-162311Y166892D01*
Y167754D01*
X-162641Y168549D01*
X-163250Y169158D01*
X-164046Y169488D01*
D02*
G37*
G36*
X-267286D02*
X-268147D01*
X-268943Y169158D01*
X-269552Y168549D01*
X-269882Y167754D01*
Y166892D01*
X-269552Y166096D01*
X-268943Y165487D01*
X-268147Y165157D01*
X-267286D01*
X-266490Y165487D01*
X-265881Y166096D01*
X-265551Y166892D01*
Y167754D01*
X-265881Y168549D01*
X-266490Y169158D01*
X-267286Y169488D01*
D02*
G37*
G36*
X-277128Y167520D02*
X-277990D01*
X-278786Y167190D01*
X-279395Y166581D01*
X-279724Y165785D01*
Y164924D01*
X-279395Y164128D01*
X-278786Y163519D01*
X-277990Y163189D01*
X-277128D01*
X-276332Y163519D01*
X-275723Y164128D01*
X-275394Y164924D01*
Y165785D01*
X-275723Y166581D01*
X-276332Y167190D01*
X-277128Y167520D01*
D02*
G37*
G36*
X-283034D02*
X-283895D01*
X-284691Y167190D01*
X-285300Y166581D01*
X-285630Y165785D01*
Y164924D01*
X-285300Y164128D01*
X-284691Y163519D01*
X-283895Y163189D01*
X-283034D01*
X-282238Y163519D01*
X-281629Y164128D01*
X-281299Y164924D01*
Y165785D01*
X-281629Y166581D01*
X-282238Y167190D01*
X-283034Y167520D01*
D02*
G37*
G36*
X-332246D02*
X-333108D01*
X-333904Y167190D01*
X-334513Y166581D01*
X-334842Y165785D01*
Y164924D01*
X-334513Y164128D01*
X-333904Y163519D01*
X-333108Y163189D01*
X-332246D01*
X-331451Y163519D01*
X-330841Y164128D01*
X-330512Y164924D01*
Y165785D01*
X-330841Y166581D01*
X-331451Y167190D01*
X-332246Y167520D01*
D02*
G37*
G36*
X-39527Y168593D02*
X-40473D01*
X-41387Y168348D01*
X-42206Y167875D01*
X-42875Y167206D01*
X-43348Y166387D01*
X-43593Y165473D01*
Y164527D01*
X-43348Y163613D01*
X-42875Y162794D01*
X-42206Y162125D01*
X-41387Y161652D01*
X-40473Y161407D01*
X-39527D01*
X-38613Y161652D01*
X-37794Y162125D01*
X-37125Y162794D01*
X-36652Y163613D01*
X-36408Y164527D01*
Y165473D01*
X-36652Y166387D01*
X-37125Y167206D01*
X-37794Y167875D01*
X-38613Y168348D01*
X-39527Y168593D01*
D02*
G37*
G36*
X-49527D02*
X-50473D01*
X-51387Y168348D01*
X-52206Y167875D01*
X-52875Y167206D01*
X-53348Y166387D01*
X-53592Y165473D01*
Y164527D01*
X-53348Y163613D01*
X-52875Y162794D01*
X-52206Y162125D01*
X-51387Y161652D01*
X-50473Y161407D01*
X-49527D01*
X-48613Y161652D01*
X-47794Y162125D01*
X-47125Y162794D01*
X-46652Y163613D01*
X-46407Y164527D01*
Y165473D01*
X-46652Y166387D01*
X-47125Y167206D01*
X-47794Y167875D01*
X-48613Y168348D01*
X-49527Y168593D01*
D02*
G37*
G36*
X-344057Y165551D02*
X-344919D01*
X-345715Y165222D01*
X-346324Y164612D01*
X-346654Y163816D01*
Y162955D01*
X-346324Y162159D01*
X-345715Y161550D01*
X-344919Y161221D01*
X-344057D01*
X-343262Y161550D01*
X-342653Y162159D01*
X-342323Y162955D01*
Y163816D01*
X-342653Y164612D01*
X-343262Y165222D01*
X-344057Y165551D01*
D02*
G37*
G36*
X-348366Y168563D02*
X-356043D01*
Y160886D01*
X-348366D01*
Y168563D01*
D02*
G37*
G36*
X-361699D02*
X-362710D01*
X-363686Y168301D01*
X-364562Y167796D01*
X-365276Y167081D01*
X-365782Y166206D01*
X-366043Y165230D01*
Y164219D01*
X-365782Y163243D01*
X-365276Y162367D01*
X-364562Y161653D01*
X-363686Y161147D01*
X-362710Y160886D01*
X-361699D01*
X-360723Y161147D01*
X-359848Y161653D01*
X-359133Y162367D01*
X-358628Y163243D01*
X-358366Y164219D01*
Y165230D01*
X-358628Y166206D01*
X-359133Y167081D01*
X-359848Y167796D01*
X-360723Y168301D01*
X-361699Y168563D01*
D02*
G37*
G36*
X-97995Y163583D02*
X-98856D01*
X-99652Y163253D01*
X-100261Y162644D01*
X-100591Y161848D01*
Y160987D01*
X-100261Y160191D01*
X-99652Y159582D01*
X-98856Y159252D01*
X-97995D01*
X-97199Y159582D01*
X-96589Y160191D01*
X-96260Y160987D01*
Y161848D01*
X-96589Y162644D01*
X-97199Y163253D01*
X-97995Y163583D01*
D02*
G37*
G36*
X-204294D02*
X-205155D01*
X-205951Y163253D01*
X-206560Y162644D01*
X-206890Y161848D01*
Y160987D01*
X-206560Y160191D01*
X-205951Y159582D01*
X-205155Y159252D01*
X-204294D01*
X-203498Y159582D01*
X-202889Y160191D01*
X-202559Y160987D01*
Y161848D01*
X-202889Y162644D01*
X-203498Y163253D01*
X-204294Y163583D01*
D02*
G37*
G36*
X-194451Y161614D02*
X-195313D01*
X-196108Y161284D01*
X-196718Y160675D01*
X-197047Y159880D01*
Y159018D01*
X-196718Y158222D01*
X-196108Y157613D01*
X-195313Y157283D01*
X-194451D01*
X-193655Y157613D01*
X-193046Y158222D01*
X-192717Y159018D01*
Y159880D01*
X-193046Y160675D01*
X-193655Y161284D01*
X-194451Y161614D01*
D02*
G37*
G36*
X-334215D02*
X-335076D01*
X-335872Y161284D01*
X-336481Y160675D01*
X-336811Y159880D01*
Y159018D01*
X-336481Y158222D01*
X-335872Y157613D01*
X-335076Y157283D01*
X-334215D01*
X-333419Y157613D01*
X-332810Y158222D01*
X-332480Y159018D01*
Y159880D01*
X-332810Y160675D01*
X-333419Y161284D01*
X-334215Y161614D01*
D02*
G37*
G36*
X-233001Y159919D02*
X-233862D01*
X-234658Y159590D01*
X-235267Y158981D01*
X-235597Y158185D01*
Y157323D01*
X-235267Y156527D01*
X-234658Y155918D01*
X-233862Y155589D01*
X-233001D01*
X-232205Y155918D01*
X-231596Y156527D01*
X-231266Y157323D01*
Y158185D01*
X-231596Y158981D01*
X-232205Y159590D01*
X-233001Y159919D01*
D02*
G37*
G36*
X-74293Y163091D02*
X-75314D01*
X-76300Y162826D01*
X-77184Y162316D01*
X-77906Y161594D01*
X-78417Y160709D01*
X-78681Y159723D01*
Y158702D01*
X-78417Y157716D01*
X-77906Y156832D01*
X-77184Y156109D01*
X-76300Y155599D01*
X-75314Y155335D01*
X-74293D01*
X-73306Y155599D01*
X-72422Y156109D01*
X-71700Y156832D01*
X-71189Y157716D01*
X-70925Y158702D01*
Y159723D01*
X-71189Y160709D01*
X-71700Y161594D01*
X-72422Y162316D01*
X-73306Y162826D01*
X-74293Y163091D01*
D02*
G37*
G36*
X-84293D02*
X-85314D01*
X-86300Y162826D01*
X-87184Y162316D01*
X-87906Y161594D01*
X-88417Y160709D01*
X-88681Y159723D01*
Y158702D01*
X-88417Y157716D01*
X-87906Y156832D01*
X-87184Y156109D01*
X-86300Y155599D01*
X-85314Y155335D01*
X-84293D01*
X-83306Y155599D01*
X-82422Y156109D01*
X-81700Y156832D01*
X-81190Y157716D01*
X-80925Y158702D01*
Y159723D01*
X-81190Y160709D01*
X-81700Y161594D01*
X-82422Y162316D01*
X-83306Y162826D01*
X-84293Y163091D01*
D02*
G37*
G36*
X-314293D02*
X-315314D01*
X-316300Y162826D01*
X-317184Y162316D01*
X-317906Y161594D01*
X-318417Y160709D01*
X-318681Y159723D01*
Y158702D01*
X-318417Y157716D01*
X-317906Y156832D01*
X-317184Y156109D01*
X-316300Y155599D01*
X-315314Y155335D01*
X-314293D01*
X-313306Y155599D01*
X-312422Y156109D01*
X-311700Y156832D01*
X-311190Y157716D01*
X-310925Y158702D01*
Y159723D01*
X-311190Y160709D01*
X-311700Y161594D01*
X-312422Y162316D01*
X-313306Y162826D01*
X-314293Y163091D01*
D02*
G37*
G36*
X-324293D02*
X-325314D01*
X-326300Y162826D01*
X-327184Y162316D01*
X-327906Y161594D01*
X-328417Y160709D01*
X-328681Y159723D01*
Y158702D01*
X-328417Y157716D01*
X-327906Y156832D01*
X-327184Y156109D01*
X-326300Y155599D01*
X-325314Y155335D01*
X-324293D01*
X-323306Y155599D01*
X-322422Y156109D01*
X-321700Y156832D01*
X-321189Y157716D01*
X-320925Y158702D01*
Y159723D01*
X-321189Y160709D01*
X-321700Y161594D01*
X-322422Y162316D01*
X-323306Y162826D01*
X-324293Y163091D01*
D02*
G37*
G36*
X-145239Y159646D02*
X-146100D01*
X-146896Y159316D01*
X-147505Y158707D01*
X-147835Y157911D01*
Y157050D01*
X-147505Y156254D01*
X-146896Y155645D01*
X-146100Y155315D01*
X-145239D01*
X-144443Y155645D01*
X-143834Y156254D01*
X-143504Y157050D01*
Y157911D01*
X-143834Y158707D01*
X-144443Y159316D01*
X-145239Y159646D01*
D02*
G37*
G36*
X-39527Y158592D02*
X-40473D01*
X-41387Y158348D01*
X-42206Y157875D01*
X-42875Y157206D01*
X-43348Y156387D01*
X-43593Y155473D01*
Y154527D01*
X-43348Y153613D01*
X-42875Y152794D01*
X-42206Y152125D01*
X-41387Y151652D01*
X-40473Y151408D01*
X-39527D01*
X-38613Y151652D01*
X-37794Y152125D01*
X-37125Y152794D01*
X-36652Y153613D01*
X-36408Y154527D01*
Y155473D01*
X-36652Y156387D01*
X-37125Y157206D01*
X-37794Y157875D01*
X-38613Y158348D01*
X-39527Y158592D01*
D02*
G37*
G36*
X-49527D02*
X-50473D01*
X-51387Y158348D01*
X-52206Y157875D01*
X-52875Y157206D01*
X-53348Y156387D01*
X-53592Y155473D01*
Y154527D01*
X-53348Y153613D01*
X-52875Y152794D01*
X-52206Y152125D01*
X-51387Y151652D01*
X-50473Y151408D01*
X-49527D01*
X-48613Y151652D01*
X-47794Y152125D01*
X-47125Y152794D01*
X-46652Y153613D01*
X-46407Y154527D01*
Y155473D01*
X-46652Y156387D01*
X-47125Y157206D01*
X-47794Y157875D01*
X-48613Y158348D01*
X-49527Y158592D01*
D02*
G37*
G36*
X-83803Y153180D02*
Y150213D01*
X-80836D01*
X-80991Y150792D01*
X-81530Y151724D01*
X-82292Y152486D01*
X-83224Y153024D01*
X-83803Y153180D01*
D02*
G37*
G36*
X-85803D02*
X-86382Y153024D01*
X-87315Y152486D01*
X-88076Y151724D01*
X-88615Y150792D01*
X-88770Y150213D01*
X-85803D01*
Y153180D01*
D02*
G37*
G36*
X-29097Y151772D02*
X-29958D01*
X-30754Y151442D01*
X-31363Y150833D01*
X-31693Y150037D01*
Y149176D01*
X-31363Y148380D01*
X-30754Y147771D01*
X-29958Y147441D01*
X-29097D01*
X-28301Y147771D01*
X-27692Y148380D01*
X-27362Y149176D01*
Y150037D01*
X-27692Y150833D01*
X-28301Y151442D01*
X-29097Y151772D01*
D02*
G37*
G36*
X-204294Y149803D02*
X-205155D01*
X-205951Y149474D01*
X-206560Y148864D01*
X-206890Y148068D01*
Y147207D01*
X-206560Y146411D01*
X-205951Y145802D01*
X-205155Y145473D01*
X-204294D01*
X-203498Y145802D01*
X-202889Y146411D01*
X-202559Y147207D01*
Y148068D01*
X-202889Y148864D01*
X-203498Y149474D01*
X-204294Y149803D01*
D02*
G37*
G36*
X-74293Y153091D02*
X-75314D01*
X-76300Y152826D01*
X-77184Y152316D01*
X-77906Y151594D01*
X-78417Y150709D01*
X-78681Y149723D01*
Y148702D01*
X-78417Y147716D01*
X-77906Y146832D01*
X-77184Y146109D01*
X-76300Y145599D01*
X-75314Y145335D01*
X-74293D01*
X-73306Y145599D01*
X-72422Y146109D01*
X-71700Y146832D01*
X-71189Y147716D01*
X-70925Y148702D01*
Y149723D01*
X-71189Y150709D01*
X-71700Y151594D01*
X-72422Y152316D01*
X-73306Y152826D01*
X-74293Y153091D01*
D02*
G37*
G36*
X-314293D02*
X-315314D01*
X-316300Y152826D01*
X-317184Y152316D01*
X-317906Y151594D01*
X-318417Y150709D01*
X-318681Y149723D01*
Y148702D01*
X-318417Y147716D01*
X-317906Y146832D01*
X-317184Y146109D01*
X-316300Y145599D01*
X-315314Y145335D01*
X-314293D01*
X-313306Y145599D01*
X-312422Y146109D01*
X-311700Y146832D01*
X-311190Y147716D01*
X-310925Y148702D01*
Y149723D01*
X-311190Y150709D01*
X-311700Y151594D01*
X-312422Y152316D01*
X-313306Y152826D01*
X-314293Y153091D01*
D02*
G37*
G36*
X-324293D02*
X-325314D01*
X-326300Y152826D01*
X-327184Y152316D01*
X-327906Y151594D01*
X-328417Y150709D01*
X-328681Y149723D01*
Y148702D01*
X-328417Y147716D01*
X-327906Y146832D01*
X-327184Y146109D01*
X-326300Y145599D01*
X-325314Y145335D01*
X-324293D01*
X-323306Y145599D01*
X-322422Y146109D01*
X-321700Y146832D01*
X-321189Y147716D01*
X-320925Y148702D01*
Y149723D01*
X-321189Y150709D01*
X-321700Y151594D01*
X-322422Y152316D01*
X-323306Y152826D01*
X-324293Y153091D01*
D02*
G37*
G36*
X-85803Y148213D02*
X-88770D01*
X-88615Y147634D01*
X-88076Y146701D01*
X-87315Y145939D01*
X-86382Y145401D01*
X-85803Y145246D01*
Y148213D01*
D02*
G37*
G36*
X-80836D02*
X-83803D01*
Y145246D01*
X-83224Y145401D01*
X-82292Y145939D01*
X-81530Y146701D01*
X-80991Y147634D01*
X-80836Y148213D01*
D02*
G37*
G36*
X-338026Y147835D02*
X-338887D01*
X-339683Y147505D01*
X-340292Y146896D01*
X-340622Y146100D01*
Y145239D01*
X-340292Y144443D01*
X-339683Y143834D01*
X-338887Y143504D01*
X-338026D01*
X-337230Y143834D01*
X-336621Y144443D01*
X-336291Y145239D01*
Y146100D01*
X-336621Y146896D01*
X-337230Y147505D01*
X-338026Y147835D01*
D02*
G37*
G36*
X-28748Y146132D02*
X-29610D01*
X-30406Y145802D01*
X-31015Y145193D01*
X-31344Y144397D01*
Y143536D01*
X-31015Y142740D01*
X-30406Y142131D01*
X-29610Y141801D01*
X-28748D01*
X-27953Y142131D01*
X-27343Y142740D01*
X-27014Y143536D01*
Y144397D01*
X-27343Y145193D01*
X-27953Y145802D01*
X-28748Y146132D01*
D02*
G37*
G36*
X-39527Y148592D02*
X-40473D01*
X-41387Y148348D01*
X-42206Y147875D01*
X-42875Y147206D01*
X-43348Y146387D01*
X-43593Y145473D01*
Y144527D01*
X-43348Y143613D01*
X-42875Y142794D01*
X-42206Y142125D01*
X-41387Y141652D01*
X-40473Y141408D01*
X-39527D01*
X-38613Y141652D01*
X-37794Y142125D01*
X-37125Y142794D01*
X-36652Y143613D01*
X-36408Y144527D01*
Y145473D01*
X-36652Y146387D01*
X-37125Y147206D01*
X-37794Y147875D01*
X-38613Y148348D01*
X-39527Y148592D01*
D02*
G37*
G36*
X-49527D02*
X-50473D01*
X-51387Y148348D01*
X-52206Y147875D01*
X-52875Y147206D01*
X-53348Y146387D01*
X-53592Y145473D01*
Y144527D01*
X-53348Y143613D01*
X-52875Y142794D01*
X-52206Y142125D01*
X-51387Y141652D01*
X-50473Y141408D01*
X-49527D01*
X-48613Y141652D01*
X-47794Y142125D01*
X-47125Y142794D01*
X-46652Y143613D01*
X-46407Y144527D01*
Y145473D01*
X-46652Y146387D01*
X-47125Y147206D01*
X-47794Y147875D01*
X-48613Y148348D01*
X-49527Y148592D01*
D02*
G37*
G36*
X-323803Y143180D02*
Y140213D01*
X-320836D01*
X-320991Y140791D01*
X-321530Y141724D01*
X-322291Y142486D01*
X-323224Y143024D01*
X-323803Y143180D01*
D02*
G37*
G36*
X-325803D02*
X-326382Y143024D01*
X-327315Y142486D01*
X-328076Y141724D01*
X-328615Y140791D01*
X-328770Y140213D01*
X-325803D01*
Y143180D01*
D02*
G37*
G36*
X-73803D02*
Y140213D01*
X-70836D01*
X-70991Y140791D01*
X-71530Y141724D01*
X-72291Y142486D01*
X-73224Y143024D01*
X-73803Y143180D01*
D02*
G37*
G36*
X-83803D02*
Y140213D01*
X-80836D01*
X-80991Y140791D01*
X-81530Y141724D01*
X-82292Y142486D01*
X-83224Y143024D01*
X-83803Y143180D01*
D02*
G37*
G36*
X-75803D02*
X-76382Y143024D01*
X-77315Y142486D01*
X-78076Y141724D01*
X-78615Y140791D01*
X-78770Y140213D01*
X-75803D01*
Y143180D01*
D02*
G37*
G36*
X-85803D02*
X-86382Y143024D01*
X-87315Y142486D01*
X-88076Y141724D01*
X-88615Y140791D01*
X-88770Y140213D01*
X-85803D01*
Y143180D01*
D02*
G37*
G36*
X-237758Y141929D02*
X-238620D01*
X-239416Y141600D01*
X-240025Y140990D01*
X-240354Y140194D01*
Y139333D01*
X-240025Y138537D01*
X-239416Y137928D01*
X-238620Y137598D01*
X-237758D01*
X-236962Y137928D01*
X-236353Y138537D01*
X-236024Y139333D01*
Y140194D01*
X-236353Y140990D01*
X-236962Y141600D01*
X-237758Y141929D01*
D02*
G37*
G36*
X-336184D02*
X-337045D01*
X-337841Y141600D01*
X-338450Y140990D01*
X-338779Y140194D01*
Y139333D01*
X-338450Y138537D01*
X-337841Y137928D01*
X-337045Y137598D01*
X-336184D01*
X-335388Y137928D01*
X-334778Y138537D01*
X-334449Y139333D01*
Y140194D01*
X-334778Y140990D01*
X-335388Y141600D01*
X-336184Y141929D01*
D02*
G37*
G36*
X-342047Y146142D02*
X-350866D01*
Y137323D01*
X-342047D01*
Y146142D01*
D02*
G37*
G36*
X-355876D02*
X-357037D01*
X-358159Y145841D01*
X-359164Y145261D01*
X-359985Y144440D01*
X-360566Y143434D01*
X-360866Y142313D01*
Y141152D01*
X-360566Y140030D01*
X-359985Y139025D01*
X-359164Y138204D01*
X-358159Y137623D01*
X-357037Y137323D01*
X-355876D01*
X-354755Y137623D01*
X-353749Y138204D01*
X-352928Y139025D01*
X-352348Y140030D01*
X-352047Y141152D01*
Y142313D01*
X-352348Y143434D01*
X-352928Y144440D01*
X-353749Y145261D01*
X-354755Y145841D01*
X-355876Y146142D01*
D02*
G37*
G36*
X-365876D02*
X-367037D01*
X-368159Y145841D01*
X-369164Y145261D01*
X-369985Y144440D01*
X-370566Y143434D01*
X-370866Y142313D01*
Y141152D01*
X-370566Y140030D01*
X-369985Y139025D01*
X-369164Y138204D01*
X-368159Y137623D01*
X-367037Y137323D01*
X-365876D01*
X-364755Y137623D01*
X-363749Y138204D01*
X-362928Y139025D01*
X-362348Y140030D01*
X-362047Y141152D01*
Y142313D01*
X-362348Y143434D01*
X-362928Y144440D01*
X-363749Y145261D01*
X-364755Y145841D01*
X-365876Y146142D01*
D02*
G37*
G36*
X-314293Y143091D02*
X-315314D01*
X-316300Y142826D01*
X-317184Y142316D01*
X-317906Y141594D01*
X-318417Y140709D01*
X-318681Y139723D01*
Y138702D01*
X-318417Y137716D01*
X-317906Y136831D01*
X-317184Y136109D01*
X-316300Y135599D01*
X-315314Y135335D01*
X-314293D01*
X-313306Y135599D01*
X-312422Y136109D01*
X-311700Y136831D01*
X-311190Y137716D01*
X-310925Y138702D01*
Y139723D01*
X-311190Y140709D01*
X-311700Y141594D01*
X-312422Y142316D01*
X-313306Y142826D01*
X-314293Y143091D01*
D02*
G37*
G36*
X-75803Y138213D02*
X-78770D01*
X-78615Y137634D01*
X-78076Y136701D01*
X-77315Y135939D01*
X-76382Y135401D01*
X-75803Y135246D01*
Y138213D01*
D02*
G37*
G36*
X-85803D02*
X-88770D01*
X-88615Y137634D01*
X-88076Y136701D01*
X-87315Y135939D01*
X-86382Y135401D01*
X-85803Y135246D01*
Y138213D01*
D02*
G37*
G36*
X-320836Y138213D02*
X-323803D01*
Y135246D01*
X-323224Y135401D01*
X-322291Y135939D01*
X-321530Y136701D01*
X-320991Y137634D01*
X-320836Y138213D01*
D02*
G37*
G36*
X-325803D02*
X-328770D01*
X-328615Y137634D01*
X-328076Y136701D01*
X-327315Y135939D01*
X-326382Y135401D01*
X-325803Y135246D01*
Y138213D01*
D02*
G37*
G36*
X-70836Y138213D02*
X-73803D01*
Y135246D01*
X-73224Y135401D01*
X-72291Y135939D01*
X-71530Y136701D01*
X-70991Y137634D01*
X-70836Y138213D01*
D02*
G37*
G36*
X-80836D02*
X-83803D01*
Y135246D01*
X-83224Y135401D01*
X-82292Y135939D01*
X-81530Y136701D01*
X-80991Y137634D01*
X-80836Y138213D01*
D02*
G37*
G36*
X-263349Y137992D02*
X-264210D01*
X-265006Y137662D01*
X-265615Y137053D01*
X-265945Y136258D01*
Y135396D01*
X-265615Y134600D01*
X-265006Y133991D01*
X-264210Y133661D01*
X-263349D01*
X-262553Y133991D01*
X-261944Y134600D01*
X-261614Y135396D01*
Y136258D01*
X-261944Y137053D01*
X-262553Y137662D01*
X-263349Y137992D01*
D02*
G37*
G36*
X-56656Y136024D02*
X-57517D01*
X-58313Y135694D01*
X-58922Y135085D01*
X-59252Y134289D01*
Y133428D01*
X-58922Y132632D01*
X-58313Y132023D01*
X-57517Y131693D01*
X-56656D01*
X-55860Y132023D01*
X-55251Y132632D01*
X-54921Y133428D01*
Y134289D01*
X-55251Y135085D01*
X-55860Y135694D01*
X-56656Y136024D01*
D02*
G37*
G36*
X-39527Y138593D02*
X-40473D01*
X-41387Y138348D01*
X-42206Y137875D01*
X-42875Y137206D01*
X-43348Y136387D01*
X-43593Y135473D01*
Y134527D01*
X-43348Y133613D01*
X-42875Y132794D01*
X-42206Y132125D01*
X-41387Y131652D01*
X-40473Y131407D01*
X-39527D01*
X-38613Y131652D01*
X-37794Y132125D01*
X-37125Y132794D01*
X-36652Y133613D01*
X-36408Y134527D01*
Y135473D01*
X-36652Y136387D01*
X-37125Y137206D01*
X-37794Y137875D01*
X-38613Y138348D01*
X-39527Y138593D01*
D02*
G37*
G36*
X-49527D02*
X-50473D01*
X-51387Y138348D01*
X-52206Y137875D01*
X-52875Y137206D01*
X-53348Y136387D01*
X-53592Y135473D01*
Y134527D01*
X-53348Y133613D01*
X-52875Y132794D01*
X-52206Y132125D01*
X-51387Y131652D01*
X-50473Y131407D01*
X-49527D01*
X-48613Y131652D01*
X-47794Y132125D01*
X-47125Y132794D01*
X-46652Y133613D01*
X-46407Y134527D01*
Y135473D01*
X-46652Y136387D01*
X-47125Y137206D01*
X-47794Y137875D01*
X-48613Y138348D01*
X-49527Y138593D01*
D02*
G37*
G36*
X-210199Y134055D02*
X-211061D01*
X-211857Y133726D01*
X-212466Y133116D01*
X-212795Y132320D01*
Y131459D01*
X-212466Y130663D01*
X-211857Y130054D01*
X-211061Y129724D01*
X-210199D01*
X-209403Y130054D01*
X-208794Y130663D01*
X-208465Y131459D01*
Y132320D01*
X-208794Y133116D01*
X-209403Y133726D01*
X-210199Y134055D01*
D02*
G37*
G36*
X-127569Y133793D02*
X-128431D01*
X-129226Y133464D01*
X-129836Y132855D01*
X-130165Y132059D01*
Y131197D01*
X-129836Y130402D01*
X-129226Y129792D01*
X-128431Y129463D01*
X-127569D01*
X-126773Y129792D01*
X-126164Y130402D01*
X-125835Y131197D01*
Y132059D01*
X-126164Y132855D01*
X-126773Y133464D01*
X-127569Y133793D01*
D02*
G37*
G36*
X-141302Y130118D02*
X-142163D01*
X-142959Y129788D01*
X-143568Y129179D01*
X-143898Y128384D01*
Y127522D01*
X-143568Y126726D01*
X-142959Y126117D01*
X-142163Y125787D01*
X-141302D01*
X-140506Y126117D01*
X-139897Y126726D01*
X-139567Y127522D01*
Y128384D01*
X-139897Y129179D01*
X-140506Y129788D01*
X-141302Y130118D01*
D02*
G37*
G36*
X-147207D02*
X-148068D01*
X-148864Y129788D01*
X-149474Y129179D01*
X-149803Y128384D01*
Y127522D01*
X-149474Y126726D01*
X-148864Y126117D01*
X-148068Y125787D01*
X-147207D01*
X-146411Y126117D01*
X-145802Y126726D01*
X-145473Y127522D01*
Y128384D01*
X-145802Y129179D01*
X-146411Y129788D01*
X-147207Y130118D01*
D02*
G37*
G36*
X-74293Y133091D02*
X-75314D01*
X-76300Y132826D01*
X-77184Y132316D01*
X-77906Y131594D01*
X-78417Y130709D01*
X-78681Y129723D01*
Y128702D01*
X-78417Y127716D01*
X-77906Y126831D01*
X-77184Y126110D01*
X-76300Y125599D01*
X-75314Y125335D01*
X-74293D01*
X-73306Y125599D01*
X-72422Y126110D01*
X-71700Y126831D01*
X-71189Y127716D01*
X-70925Y128702D01*
Y129723D01*
X-71189Y130709D01*
X-71700Y131594D01*
X-72422Y132316D01*
X-73306Y132826D01*
X-74293Y133091D01*
D02*
G37*
G36*
X-84293D02*
X-85314D01*
X-86300Y132826D01*
X-87184Y132316D01*
X-87906Y131594D01*
X-88417Y130709D01*
X-88681Y129723D01*
Y128702D01*
X-88417Y127716D01*
X-87906Y126831D01*
X-87184Y126110D01*
X-86300Y125599D01*
X-85314Y125335D01*
X-84293D01*
X-83306Y125599D01*
X-82422Y126110D01*
X-81700Y126831D01*
X-81190Y127716D01*
X-80925Y128702D01*
Y129723D01*
X-81190Y130709D01*
X-81700Y131594D01*
X-82422Y132316D01*
X-83306Y132826D01*
X-84293Y133091D01*
D02*
G37*
G36*
X-314293D02*
X-315314D01*
X-316300Y132826D01*
X-317184Y132316D01*
X-317906Y131594D01*
X-318417Y130709D01*
X-318681Y129723D01*
Y128702D01*
X-318417Y127716D01*
X-317906Y126831D01*
X-317184Y126110D01*
X-316300Y125599D01*
X-315314Y125335D01*
X-314293D01*
X-313306Y125599D01*
X-312422Y126110D01*
X-311700Y126831D01*
X-311190Y127716D01*
X-310925Y128702D01*
Y129723D01*
X-311190Y130709D01*
X-311700Y131594D01*
X-312422Y132316D01*
X-313306Y132826D01*
X-314293Y133091D01*
D02*
G37*
G36*
X-324293D02*
X-325314D01*
X-326300Y132826D01*
X-327184Y132316D01*
X-327906Y131594D01*
X-328417Y130709D01*
X-328681Y129723D01*
Y128702D01*
X-328417Y127716D01*
X-327906Y126831D01*
X-327184Y126110D01*
X-326300Y125599D01*
X-325314Y125335D01*
X-324293D01*
X-323306Y125599D01*
X-322422Y126110D01*
X-321700Y126831D01*
X-321189Y127716D01*
X-320925Y128702D01*
Y129723D01*
X-321189Y130709D01*
X-321700Y131594D01*
X-322422Y132316D01*
X-323306Y132826D01*
X-324293Y133091D01*
D02*
G37*
G36*
X-233755Y128083D02*
X-234616D01*
X-235412Y127753D01*
X-236021Y127144D01*
X-236351Y126348D01*
Y125487D01*
X-236021Y124691D01*
X-235412Y124082D01*
X-234616Y123752D01*
X-233755D01*
X-232959Y124082D01*
X-232350Y124691D01*
X-232020Y125487D01*
Y126348D01*
X-232350Y127144D01*
X-232959Y127753D01*
X-233755Y128083D01*
D02*
G37*
G36*
X-39527Y128593D02*
X-40473D01*
X-41387Y128348D01*
X-42206Y127875D01*
X-42875Y127206D01*
X-43348Y126387D01*
X-43593Y125473D01*
Y124527D01*
X-43348Y123613D01*
X-42875Y122794D01*
X-42206Y122125D01*
X-41387Y121652D01*
X-40473Y121407D01*
X-39527D01*
X-38613Y121652D01*
X-37794Y122125D01*
X-37125Y122794D01*
X-36652Y123613D01*
X-36408Y124527D01*
Y125473D01*
X-36652Y126387D01*
X-37125Y127206D01*
X-37794Y127875D01*
X-38613Y128348D01*
X-39527Y128593D01*
D02*
G37*
G36*
X-49527D02*
X-50473D01*
X-51387Y128348D01*
X-52206Y127875D01*
X-52875Y127206D01*
X-53348Y126387D01*
X-53592Y125473D01*
Y124527D01*
X-53348Y123613D01*
X-52875Y122794D01*
X-52206Y122125D01*
X-51387Y121652D01*
X-50473Y121407D01*
X-49527D01*
X-48613Y121652D01*
X-47794Y122125D01*
X-47125Y122794D01*
X-46652Y123613D01*
X-46407Y124527D01*
Y125473D01*
X-46652Y126387D01*
X-47125Y127206D01*
X-47794Y127875D01*
X-48613Y128348D01*
X-49527Y128593D01*
D02*
G37*
G36*
X-121616Y124213D02*
X-122478D01*
X-123274Y123883D01*
X-123883Y123274D01*
X-124213Y122478D01*
Y121616D01*
X-123883Y120821D01*
X-123274Y120212D01*
X-122478Y119882D01*
X-121616D01*
X-120821Y120212D01*
X-120212Y120821D01*
X-119882Y121616D01*
Y122478D01*
X-120212Y123274D01*
X-120821Y123883D01*
X-121616Y124213D01*
D02*
G37*
G36*
X-344057Y122244D02*
X-344919D01*
X-345715Y121914D01*
X-346324Y121305D01*
X-346654Y120509D01*
Y119648D01*
X-346324Y118852D01*
X-345715Y118243D01*
X-344919Y117913D01*
X-344057D01*
X-343262Y118243D01*
X-342653Y118852D01*
X-342323Y119648D01*
Y120509D01*
X-342653Y121305D01*
X-343262Y121914D01*
X-344057Y122244D01*
D02*
G37*
G36*
X-293027Y120330D02*
X-293888D01*
X-294684Y120000D01*
X-295293Y119391D01*
X-295623Y118595D01*
Y117734D01*
X-295293Y116938D01*
X-294684Y116329D01*
X-293888Y115999D01*
X-293027D01*
X-292231Y116329D01*
X-291622Y116938D01*
X-291292Y117734D01*
Y118595D01*
X-291622Y119391D01*
X-292231Y120000D01*
X-293027Y120330D01*
D02*
G37*
G36*
X-74293Y123091D02*
X-75314D01*
X-76300Y122826D01*
X-77184Y122316D01*
X-77906Y121594D01*
X-78417Y120709D01*
X-78681Y119723D01*
Y118702D01*
X-78417Y117716D01*
X-77906Y116832D01*
X-77184Y116110D01*
X-76300Y115599D01*
X-75314Y115335D01*
X-74293D01*
X-73306Y115599D01*
X-72422Y116110D01*
X-71700Y116832D01*
X-71189Y117716D01*
X-70925Y118702D01*
Y119723D01*
X-71189Y120709D01*
X-71700Y121594D01*
X-72422Y122316D01*
X-73306Y122826D01*
X-74293Y123091D01*
D02*
G37*
G36*
X-84293D02*
X-85314D01*
X-86300Y122826D01*
X-87184Y122316D01*
X-87906Y121594D01*
X-88417Y120709D01*
X-88681Y119723D01*
Y118702D01*
X-88417Y117716D01*
X-87906Y116832D01*
X-87184Y116110D01*
X-86300Y115599D01*
X-85314Y115335D01*
X-84293D01*
X-83306Y115599D01*
X-82422Y116110D01*
X-81700Y116832D01*
X-81190Y117716D01*
X-80925Y118702D01*
Y119723D01*
X-81190Y120709D01*
X-81700Y121594D01*
X-82422Y122316D01*
X-83306Y122826D01*
X-84293Y123091D01*
D02*
G37*
G36*
X-314293D02*
X-315314D01*
X-316300Y122826D01*
X-317184Y122316D01*
X-317906Y121594D01*
X-318417Y120709D01*
X-318681Y119723D01*
Y118702D01*
X-318417Y117716D01*
X-317906Y116832D01*
X-317184Y116110D01*
X-316300Y115599D01*
X-315314Y115335D01*
X-314293D01*
X-313306Y115599D01*
X-312422Y116110D01*
X-311700Y116832D01*
X-311190Y117716D01*
X-310925Y118702D01*
Y119723D01*
X-311190Y120709D01*
X-311700Y121594D01*
X-312422Y122316D01*
X-313306Y122826D01*
X-314293Y123091D01*
D02*
G37*
G36*
X-324293D02*
X-325314D01*
X-326300Y122826D01*
X-327184Y122316D01*
X-327906Y121594D01*
X-328417Y120709D01*
X-328681Y119723D01*
Y118702D01*
X-328417Y117716D01*
X-327906Y116832D01*
X-327184Y116110D01*
X-326300Y115599D01*
X-325314Y115335D01*
X-324293D01*
X-323306Y115599D01*
X-322422Y116110D01*
X-321700Y116832D01*
X-321189Y117716D01*
X-320925Y118702D01*
Y119723D01*
X-321189Y120709D01*
X-321700Y121594D01*
X-322422Y122316D01*
X-323306Y122826D01*
X-324293Y123091D01*
D02*
G37*
G36*
X-224045Y118241D02*
X-224907D01*
X-225703Y117911D01*
X-226312Y117302D01*
X-226641Y116506D01*
Y115645D01*
X-226312Y114849D01*
X-225703Y114240D01*
X-224907Y113910D01*
X-224045D01*
X-223249Y114240D01*
X-222640Y114849D01*
X-222311Y115645D01*
Y116506D01*
X-222640Y117302D01*
X-223249Y117911D01*
X-224045Y118241D01*
D02*
G37*
G36*
X-213912Y118160D02*
X-214774D01*
X-215569Y117831D01*
X-216179Y117222D01*
X-216508Y116426D01*
Y115564D01*
X-216179Y114769D01*
X-215569Y114159D01*
X-214774Y113830D01*
X-213912D01*
X-213116Y114159D01*
X-212507Y114769D01*
X-212178Y115564D01*
Y116426D01*
X-212507Y117222D01*
X-213116Y117831D01*
X-213912Y118160D01*
D02*
G37*
G36*
X-66498Y116339D02*
X-67360D01*
X-68156Y116009D01*
X-68765Y115400D01*
X-69095Y114604D01*
Y113742D01*
X-68765Y112947D01*
X-68156Y112338D01*
X-67360Y112008D01*
X-66498D01*
X-65703Y112338D01*
X-65093Y112947D01*
X-64764Y113742D01*
Y114604D01*
X-65093Y115400D01*
X-65703Y116009D01*
X-66498Y116339D01*
D02*
G37*
G36*
X-172798D02*
X-173659D01*
X-174455Y116009D01*
X-175064Y115400D01*
X-175394Y114604D01*
Y113742D01*
X-175064Y112947D01*
X-174455Y112338D01*
X-173659Y112008D01*
X-172798D01*
X-172002Y112338D01*
X-171393Y112947D01*
X-171063Y113742D01*
Y114604D01*
X-171393Y115400D01*
X-172002Y116009D01*
X-172798Y116339D01*
D02*
G37*
G36*
X-180672D02*
X-181533D01*
X-182329Y116009D01*
X-182938Y115400D01*
X-183268Y114604D01*
Y113742D01*
X-182938Y112947D01*
X-182329Y112338D01*
X-181533Y112008D01*
X-180672D01*
X-179876Y112338D01*
X-179267Y112947D01*
X-178937Y113742D01*
Y114604D01*
X-179267Y115400D01*
X-179876Y116009D01*
X-180672Y116339D01*
D02*
G37*
G36*
X-296813D02*
X-297675D01*
X-298471Y116009D01*
X-299080Y115400D01*
X-299409Y114604D01*
Y113742D01*
X-299080Y112947D01*
X-298471Y112338D01*
X-297675Y112008D01*
X-296813D01*
X-296018Y112338D01*
X-295408Y112947D01*
X-295079Y113742D01*
Y114604D01*
X-295408Y115400D01*
X-296018Y116009D01*
X-296813Y116339D01*
D02*
G37*
G36*
X-39527Y118593D02*
X-40473D01*
X-41387Y118348D01*
X-42206Y117875D01*
X-42875Y117206D01*
X-43348Y116387D01*
X-43593Y115473D01*
Y114527D01*
X-43348Y113613D01*
X-42875Y112794D01*
X-42206Y112125D01*
X-41387Y111652D01*
X-40473Y111407D01*
X-39527D01*
X-38613Y111652D01*
X-37794Y112125D01*
X-37125Y112794D01*
X-36652Y113613D01*
X-36408Y114527D01*
Y115473D01*
X-36652Y116387D01*
X-37125Y117206D01*
X-37794Y117875D01*
X-38613Y118348D01*
X-39527Y118593D01*
D02*
G37*
G36*
X-49527D02*
X-50473D01*
X-51387Y118348D01*
X-52206Y117875D01*
X-52875Y117206D01*
X-53348Y116387D01*
X-53592Y115473D01*
Y114527D01*
X-53348Y113613D01*
X-52875Y112794D01*
X-52206Y112125D01*
X-51387Y111652D01*
X-50473Y111407D01*
X-49527D01*
X-48613Y111652D01*
X-47794Y112125D01*
X-47125Y112794D01*
X-46652Y113613D01*
X-46407Y114527D01*
Y115473D01*
X-46652Y116387D01*
X-47125Y117206D01*
X-47794Y117875D01*
X-48613Y118348D01*
X-49527Y118593D01*
D02*
G37*
G36*
X-227916Y112402D02*
X-228777D01*
X-229573Y112072D01*
X-230182Y111463D01*
X-230512Y110667D01*
Y109806D01*
X-230182Y109010D01*
X-229573Y108400D01*
X-228777Y108071D01*
X-227916D01*
X-227120Y108400D01*
X-226511Y109010D01*
X-226181Y109806D01*
Y110667D01*
X-226511Y111463D01*
X-227120Y112072D01*
X-227916Y112402D01*
D02*
G37*
G36*
X-277128D02*
X-277990D01*
X-278786Y112072D01*
X-279395Y111463D01*
X-279724Y110667D01*
Y109806D01*
X-279395Y109010D01*
X-278786Y108400D01*
X-277990Y108071D01*
X-277128D01*
X-276332Y108400D01*
X-275723Y109010D01*
X-275394Y109806D01*
Y110667D01*
X-275723Y111463D01*
X-276332Y112072D01*
X-277128Y112402D01*
D02*
G37*
G36*
X-332246D02*
X-333108D01*
X-333904Y112072D01*
X-334513Y111463D01*
X-334842Y110667D01*
Y109806D01*
X-334513Y109010D01*
X-333904Y108400D01*
X-333108Y108071D01*
X-332246D01*
X-331451Y108400D01*
X-330841Y109010D01*
X-330512Y109806D01*
Y110667D01*
X-330841Y111463D01*
X-331451Y112072D01*
X-332246Y112402D01*
D02*
G37*
G36*
X-299946Y111296D02*
X-300808D01*
X-301604Y110966D01*
X-302213Y110357D01*
X-302542Y109561D01*
Y108700D01*
X-302213Y107904D01*
X-301604Y107295D01*
X-300808Y106965D01*
X-299946D01*
X-299150Y107295D01*
X-298541Y107904D01*
X-298212Y108700D01*
Y109561D01*
X-298541Y110357D01*
X-299150Y110966D01*
X-299946Y111296D01*
D02*
G37*
G36*
X-153113Y110433D02*
X-153974D01*
X-154770Y110103D01*
X-155379Y109494D01*
X-155709Y108698D01*
Y107837D01*
X-155379Y107041D01*
X-154770Y106432D01*
X-153974Y106102D01*
X-153113D01*
X-152317Y106432D01*
X-151708Y107041D01*
X-151378Y107837D01*
Y108698D01*
X-151708Y109494D01*
X-152317Y110103D01*
X-153113Y110433D01*
D02*
G37*
G36*
X-74293Y113091D02*
X-75314D01*
X-76300Y112826D01*
X-77184Y112316D01*
X-77906Y111594D01*
X-78417Y110709D01*
X-78681Y109723D01*
Y108702D01*
X-78417Y107716D01*
X-77906Y106832D01*
X-77184Y106109D01*
X-76300Y105599D01*
X-75314Y105335D01*
X-74293D01*
X-73306Y105599D01*
X-72422Y106109D01*
X-71700Y106832D01*
X-71189Y107716D01*
X-70925Y108702D01*
Y109723D01*
X-71189Y110709D01*
X-71700Y111594D01*
X-72422Y112316D01*
X-73306Y112826D01*
X-74293Y113091D01*
D02*
G37*
G36*
X-84293D02*
X-85314D01*
X-86300Y112826D01*
X-87184Y112316D01*
X-87906Y111594D01*
X-88417Y110709D01*
X-88681Y109723D01*
Y108702D01*
X-88417Y107716D01*
X-87906Y106832D01*
X-87184Y106109D01*
X-86300Y105599D01*
X-85314Y105335D01*
X-84293D01*
X-83306Y105599D01*
X-82422Y106109D01*
X-81700Y106832D01*
X-81190Y107716D01*
X-80925Y108702D01*
Y109723D01*
X-81190Y110709D01*
X-81700Y111594D01*
X-82422Y112316D01*
X-83306Y112826D01*
X-84293Y113091D01*
D02*
G37*
G36*
X-314293D02*
X-315314D01*
X-316300Y112826D01*
X-317184Y112316D01*
X-317906Y111594D01*
X-318417Y110709D01*
X-318681Y109723D01*
Y108702D01*
X-318417Y107716D01*
X-317906Y106832D01*
X-317184Y106109D01*
X-316300Y105599D01*
X-315314Y105335D01*
X-314293D01*
X-313306Y105599D01*
X-312422Y106109D01*
X-311700Y106832D01*
X-311190Y107716D01*
X-310925Y108702D01*
Y109723D01*
X-311190Y110709D01*
X-311700Y111594D01*
X-312422Y112316D01*
X-313306Y112826D01*
X-314293Y113091D01*
D02*
G37*
G36*
X-324293D02*
X-325314D01*
X-326300Y112826D01*
X-327184Y112316D01*
X-327906Y111594D01*
X-328417Y110709D01*
X-328681Y109723D01*
Y108702D01*
X-328417Y107716D01*
X-327906Y106832D01*
X-327184Y106109D01*
X-326300Y105599D01*
X-325314Y105335D01*
X-324293D01*
X-323306Y105599D01*
X-322422Y106109D01*
X-321700Y106832D01*
X-321189Y107716D01*
X-320925Y108702D01*
Y109723D01*
X-321189Y110709D01*
X-321700Y111594D01*
X-322422Y112316D01*
X-323306Y112826D01*
X-324293Y113091D01*
D02*
G37*
G36*
X-349762Y112686D02*
X-357538D01*
Y104911D01*
X-349762D01*
Y112686D01*
D02*
G37*
G36*
X-363138D02*
X-364162D01*
X-365151Y112421D01*
X-366037Y111909D01*
X-366761Y111185D01*
X-367273Y110299D01*
X-367538Y109310D01*
Y108286D01*
X-367273Y107298D01*
X-366761Y106411D01*
X-366037Y105687D01*
X-365151Y105175D01*
X-364162Y104911D01*
X-363138D01*
X-362149Y105175D01*
X-361263Y105687D01*
X-360539Y106411D01*
X-360027Y107298D01*
X-359762Y108286D01*
Y109310D01*
X-360027Y110299D01*
X-360539Y111185D01*
X-361263Y111909D01*
X-362149Y112421D01*
X-363138Y112686D01*
D02*
G37*
G36*
X-243664Y108465D02*
X-244525D01*
X-245321Y108135D01*
X-245930Y107526D01*
X-246260Y106730D01*
Y105868D01*
X-245930Y105073D01*
X-245321Y104464D01*
X-244525Y104134D01*
X-243664D01*
X-242868Y104464D01*
X-242259Y105073D01*
X-241929Y105868D01*
Y106730D01*
X-242259Y107526D01*
X-242868Y108135D01*
X-243664Y108465D01*
D02*
G37*
G36*
X-269254Y106496D02*
X-270116D01*
X-270912Y106166D01*
X-271521Y105557D01*
X-271850Y104761D01*
Y103900D01*
X-271521Y103104D01*
X-270912Y102495D01*
X-270116Y102165D01*
X-269254D01*
X-268459Y102495D01*
X-267849Y103104D01*
X-267520Y103900D01*
Y104761D01*
X-267849Y105557D01*
X-268459Y106166D01*
X-269254Y106496D01*
D02*
G37*
G36*
X-39527Y108592D02*
X-40473D01*
X-41387Y108348D01*
X-42206Y107875D01*
X-42875Y107206D01*
X-43348Y106387D01*
X-43593Y105473D01*
Y104527D01*
X-43348Y103613D01*
X-42875Y102794D01*
X-42206Y102125D01*
X-41387Y101652D01*
X-40473Y101408D01*
X-39527D01*
X-38613Y101652D01*
X-37794Y102125D01*
X-37125Y102794D01*
X-36652Y103613D01*
X-36408Y104527D01*
Y105473D01*
X-36652Y106387D01*
X-37125Y107206D01*
X-37794Y107875D01*
X-38613Y108348D01*
X-39527Y108592D01*
D02*
G37*
G36*
X-49527D02*
X-50473D01*
X-51387Y108348D01*
X-52206Y107875D01*
X-52875Y107206D01*
X-53348Y106387D01*
X-53592Y105473D01*
Y104527D01*
X-53348Y103613D01*
X-52875Y102794D01*
X-52206Y102125D01*
X-51387Y101652D01*
X-50473Y101408D01*
X-49527D01*
X-48613Y101652D01*
X-47794Y102125D01*
X-47125Y102794D01*
X-46652Y103613D01*
X-46407Y104527D01*
Y105473D01*
X-46652Y106387D01*
X-47125Y107206D01*
X-47794Y107875D01*
X-48613Y108348D01*
X-49527Y108592D01*
D02*
G37*
G36*
X-121616Y100591D02*
X-122478D01*
X-123274Y100261D01*
X-123883Y99652D01*
X-124213Y98856D01*
Y97995D01*
X-123883Y97199D01*
X-123274Y96589D01*
X-122478Y96260D01*
X-121616D01*
X-120821Y96589D01*
X-120212Y97199D01*
X-119882Y97995D01*
Y98856D01*
X-120212Y99652D01*
X-120821Y100261D01*
X-121616Y100591D01*
D02*
G37*
G36*
X-74293Y103091D02*
X-75314D01*
X-76300Y102826D01*
X-77184Y102316D01*
X-77906Y101594D01*
X-78417Y100709D01*
X-78681Y99723D01*
Y98702D01*
X-78417Y97716D01*
X-77906Y96832D01*
X-77184Y96109D01*
X-76300Y95599D01*
X-75314Y95335D01*
X-74293D01*
X-73306Y95599D01*
X-72422Y96109D01*
X-71700Y96832D01*
X-71189Y97716D01*
X-70925Y98702D01*
Y99723D01*
X-71189Y100709D01*
X-71700Y101594D01*
X-72422Y102316D01*
X-73306Y102826D01*
X-74293Y103091D01*
D02*
G37*
G36*
X-84293D02*
X-85314D01*
X-86300Y102826D01*
X-87184Y102316D01*
X-87906Y101594D01*
X-88417Y100709D01*
X-88681Y99723D01*
Y98702D01*
X-88417Y97716D01*
X-87906Y96832D01*
X-87184Y96109D01*
X-86300Y95599D01*
X-85314Y95335D01*
X-84293D01*
X-83306Y95599D01*
X-82422Y96109D01*
X-81700Y96832D01*
X-81190Y97716D01*
X-80925Y98702D01*
Y99723D01*
X-81190Y100709D01*
X-81700Y101594D01*
X-82422Y102316D01*
X-83306Y102826D01*
X-84293Y103091D01*
D02*
G37*
G36*
X-314293D02*
X-315314D01*
X-316300Y102826D01*
X-317184Y102316D01*
X-317906Y101594D01*
X-318417Y100709D01*
X-318681Y99723D01*
Y98702D01*
X-318417Y97716D01*
X-317906Y96832D01*
X-317184Y96109D01*
X-316300Y95599D01*
X-315314Y95335D01*
X-314293D01*
X-313306Y95599D01*
X-312422Y96109D01*
X-311700Y96832D01*
X-311190Y97716D01*
X-310925Y98702D01*
Y99723D01*
X-311190Y100709D01*
X-311700Y101594D01*
X-312422Y102316D01*
X-313306Y102826D01*
X-314293Y103091D01*
D02*
G37*
G36*
X-324293D02*
X-325314D01*
X-326300Y102826D01*
X-327184Y102316D01*
X-327906Y101594D01*
X-328417Y100709D01*
X-328681Y99723D01*
Y98702D01*
X-328417Y97716D01*
X-327906Y96832D01*
X-327184Y96109D01*
X-326300Y95599D01*
X-325314Y95335D01*
X-324293D01*
X-323306Y95599D01*
X-322422Y96109D01*
X-321700Y96832D01*
X-321189Y97716D01*
X-320925Y98702D01*
Y99723D01*
X-321189Y100709D01*
X-321700Y101594D01*
X-322422Y102316D01*
X-323306Y102826D01*
X-324293Y103091D01*
D02*
G37*
G36*
X-113742Y98622D02*
X-114604D01*
X-115400Y98292D01*
X-116009Y97683D01*
X-116339Y96887D01*
Y96026D01*
X-116009Y95230D01*
X-115400Y94621D01*
X-114604Y94291D01*
X-113742D01*
X-112947Y94621D01*
X-112338Y95230D01*
X-112008Y96026D01*
Y96887D01*
X-112338Y97683D01*
X-112947Y98292D01*
X-113742Y98622D01*
D02*
G37*
G36*
X-62561Y96653D02*
X-63423D01*
X-64219Y96324D01*
X-64828Y95715D01*
X-65158Y94919D01*
Y94058D01*
X-64828Y93262D01*
X-64219Y92652D01*
X-63423Y92323D01*
X-62561D01*
X-61766Y92652D01*
X-61156Y93262D01*
X-60827Y94058D01*
Y94919D01*
X-61156Y95715D01*
X-61766Y96324D01*
X-62561Y96653D01*
D02*
G37*
G36*
X-39527Y98593D02*
X-40473D01*
X-41387Y98348D01*
X-42206Y97875D01*
X-42875Y97206D01*
X-43348Y96387D01*
X-43593Y95473D01*
Y94527D01*
X-43348Y93613D01*
X-42875Y92794D01*
X-42206Y92125D01*
X-41387Y91652D01*
X-40473Y91408D01*
X-39527D01*
X-38613Y91652D01*
X-37794Y92125D01*
X-37125Y92794D01*
X-36652Y93613D01*
X-36408Y94527D01*
Y95473D01*
X-36652Y96387D01*
X-37125Y97206D01*
X-37794Y97875D01*
X-38613Y98348D01*
X-39527Y98593D01*
D02*
G37*
G36*
X-49527D02*
X-50473D01*
X-51387Y98348D01*
X-52206Y97875D01*
X-52875Y97206D01*
X-53348Y96387D01*
X-53592Y95473D01*
Y94527D01*
X-53348Y93613D01*
X-52875Y92794D01*
X-52206Y92125D01*
X-51387Y91652D01*
X-50473Y91408D01*
X-49527D01*
X-48613Y91652D01*
X-47794Y92125D01*
X-47125Y92794D01*
X-46652Y93613D01*
X-46407Y94527D01*
Y95473D01*
X-46652Y96387D01*
X-47125Y97206D01*
X-47794Y97875D01*
X-48613Y98348D01*
X-49527Y98593D01*
D02*
G37*
G36*
X-344057Y94685D02*
X-344919D01*
X-345715Y94355D01*
X-346324Y93746D01*
X-346654Y92950D01*
Y92089D01*
X-346324Y91293D01*
X-345715Y90684D01*
X-344919Y90354D01*
X-344057D01*
X-343262Y90684D01*
X-342653Y91293D01*
X-342323Y92089D01*
Y92950D01*
X-342653Y93746D01*
X-343262Y94355D01*
X-344057Y94685D01*
D02*
G37*
G36*
X-313803Y93180D02*
Y90213D01*
X-310836D01*
X-310991Y90791D01*
X-311530Y91724D01*
X-312292Y92486D01*
X-313224Y93024D01*
X-313803Y93180D01*
D02*
G37*
G36*
X-315803D02*
X-316382Y93024D01*
X-317315Y92486D01*
X-318076Y91724D01*
X-318615Y90791D01*
X-318770Y90213D01*
X-315803D01*
Y93180D01*
D02*
G37*
G36*
X-351773Y97155D02*
X-352952D01*
X-354091Y96850D01*
X-355112Y96261D01*
X-355946Y95427D01*
X-356535Y94406D01*
X-356840Y93267D01*
Y92088D01*
X-356535Y90949D01*
X-355946Y89927D01*
X-355112Y89094D01*
X-354091Y88504D01*
X-352952Y88199D01*
X-351773D01*
X-350634Y88504D01*
X-349612Y89094D01*
X-348779Y89927D01*
X-348189Y90949D01*
X-347884Y92088D01*
Y93267D01*
X-348189Y94406D01*
X-348779Y95427D01*
X-349612Y96261D01*
X-350634Y96850D01*
X-351773Y97155D01*
D02*
G37*
G36*
X-206262Y90748D02*
X-207124D01*
X-207920Y90418D01*
X-208529Y89809D01*
X-208858Y89013D01*
Y88152D01*
X-208529Y87356D01*
X-207920Y86747D01*
X-207124Y86417D01*
X-206262D01*
X-205466Y86747D01*
X-204857Y87356D01*
X-204528Y88152D01*
Y89013D01*
X-204857Y89809D01*
X-205466Y90418D01*
X-206262Y90748D01*
D02*
G37*
G36*
X-74293Y93090D02*
X-75314D01*
X-76300Y92826D01*
X-77184Y92316D01*
X-77906Y91594D01*
X-78417Y90709D01*
X-78681Y89723D01*
Y88702D01*
X-78417Y87716D01*
X-77906Y86831D01*
X-77184Y86110D01*
X-76300Y85599D01*
X-75314Y85335D01*
X-74293D01*
X-73306Y85599D01*
X-72422Y86110D01*
X-71700Y86831D01*
X-71189Y87716D01*
X-70925Y88702D01*
Y89723D01*
X-71189Y90709D01*
X-71700Y91594D01*
X-72422Y92316D01*
X-73306Y92826D01*
X-74293Y93090D01*
D02*
G37*
G36*
X-84293D02*
X-85314D01*
X-86300Y92826D01*
X-87184Y92316D01*
X-87906Y91594D01*
X-88417Y90709D01*
X-88681Y89723D01*
Y88702D01*
X-88417Y87716D01*
X-87906Y86831D01*
X-87184Y86110D01*
X-86300Y85599D01*
X-85314Y85335D01*
X-84293D01*
X-83306Y85599D01*
X-82422Y86110D01*
X-81700Y86831D01*
X-81190Y87716D01*
X-80925Y88702D01*
Y89723D01*
X-81190Y90709D01*
X-81700Y91594D01*
X-82422Y92316D01*
X-83306Y92826D01*
X-84293Y93090D01*
D02*
G37*
G36*
X-324293D02*
X-325314D01*
X-326300Y92826D01*
X-327184Y92316D01*
X-327906Y91594D01*
X-328417Y90709D01*
X-328681Y89723D01*
Y88702D01*
X-328417Y87716D01*
X-327906Y86831D01*
X-327184Y86110D01*
X-326300Y85599D01*
X-325314Y85335D01*
X-324293D01*
X-323306Y85599D01*
X-322422Y86110D01*
X-321700Y86831D01*
X-321189Y87716D01*
X-320925Y88702D01*
Y89723D01*
X-321189Y90709D01*
X-321700Y91594D01*
X-322422Y92316D01*
X-323306Y92826D01*
X-324293Y93090D01*
D02*
G37*
G36*
X-310836Y88213D02*
X-313803D01*
Y85246D01*
X-313224Y85401D01*
X-312292Y85939D01*
X-311530Y86701D01*
X-310991Y87634D01*
X-310836Y88213D01*
D02*
G37*
G36*
X-315803D02*
X-318770D01*
X-318615Y87634D01*
X-318076Y86701D01*
X-317315Y85939D01*
X-316382Y85401D01*
X-315803Y85246D01*
Y88213D01*
D02*
G37*
G36*
X-188546Y86811D02*
X-189407D01*
X-190203Y86481D01*
X-190812Y85872D01*
X-191142Y85076D01*
Y84215D01*
X-190812Y83419D01*
X-190203Y82810D01*
X-189407Y82480D01*
X-188546D01*
X-187750Y82810D01*
X-187141Y83419D01*
X-186811Y84215D01*
Y85076D01*
X-187141Y85872D01*
X-187750Y86481D01*
X-188546Y86811D01*
D02*
G37*
G36*
X-39527Y88592D02*
X-40473D01*
X-41387Y88348D01*
X-42206Y87875D01*
X-42875Y87206D01*
X-43348Y86387D01*
X-43593Y85473D01*
Y84527D01*
X-43348Y83613D01*
X-42875Y82794D01*
X-42206Y82125D01*
X-41387Y81652D01*
X-40473Y81407D01*
X-39527D01*
X-38613Y81652D01*
X-37794Y82125D01*
X-37125Y82794D01*
X-36652Y83613D01*
X-36408Y84527D01*
Y85473D01*
X-36652Y86387D01*
X-37125Y87206D01*
X-37794Y87875D01*
X-38613Y88348D01*
X-39527Y88592D01*
D02*
G37*
G36*
X-49527D02*
X-50473D01*
X-51387Y88348D01*
X-52206Y87875D01*
X-52875Y87206D01*
X-53348Y86387D01*
X-53592Y85473D01*
Y84527D01*
X-53348Y83613D01*
X-52875Y82794D01*
X-52206Y82125D01*
X-51387Y81652D01*
X-50473Y81407D01*
X-49527D01*
X-48613Y81652D01*
X-47794Y82125D01*
X-47125Y82794D01*
X-46652Y83613D01*
X-46407Y84527D01*
Y85473D01*
X-46652Y86387D01*
X-47125Y87206D01*
X-47794Y87875D01*
X-48613Y88348D01*
X-49527Y88592D01*
D02*
G37*
G36*
X-83803Y83179D02*
Y80213D01*
X-80836D01*
X-80991Y80791D01*
X-81530Y81724D01*
X-82292Y82486D01*
X-83224Y83024D01*
X-83803Y83179D01*
D02*
G37*
G36*
X-85803D02*
X-86382Y83024D01*
X-87315Y82486D01*
X-88076Y81724D01*
X-88615Y80791D01*
X-88770Y80213D01*
X-85803D01*
Y83179D01*
D02*
G37*
G36*
X-347884Y87155D02*
X-356840D01*
Y78199D01*
X-347884D01*
Y87155D01*
D02*
G37*
G36*
X-31065Y80905D02*
X-31927D01*
X-32723Y80576D01*
X-33332Y79967D01*
X-33661Y79171D01*
Y78310D01*
X-33332Y77514D01*
X-32723Y76904D01*
X-31927Y76575D01*
X-31065D01*
X-30270Y76904D01*
X-29660Y77514D01*
X-29331Y78310D01*
Y79171D01*
X-29660Y79967D01*
X-30270Y80576D01*
X-31065Y80905D01*
D02*
G37*
G36*
X-74293Y83091D02*
X-75314D01*
X-76300Y82826D01*
X-77184Y82316D01*
X-77906Y81594D01*
X-78417Y80709D01*
X-78681Y79723D01*
Y78702D01*
X-78417Y77716D01*
X-77906Y76832D01*
X-77184Y76109D01*
X-76300Y75599D01*
X-75314Y75335D01*
X-74293D01*
X-73306Y75599D01*
X-72422Y76109D01*
X-71700Y76832D01*
X-71189Y77716D01*
X-70925Y78702D01*
Y79723D01*
X-71189Y80709D01*
X-71700Y81594D01*
X-72422Y82316D01*
X-73306Y82826D01*
X-74293Y83091D01*
D02*
G37*
G36*
X-314293D02*
X-315314D01*
X-316300Y82826D01*
X-317184Y82316D01*
X-317906Y81594D01*
X-318417Y80709D01*
X-318681Y79723D01*
Y78702D01*
X-318417Y77716D01*
X-317906Y76832D01*
X-317184Y76109D01*
X-316300Y75599D01*
X-315314Y75335D01*
X-314293D01*
X-313306Y75599D01*
X-312422Y76109D01*
X-311700Y76832D01*
X-311190Y77716D01*
X-310925Y78702D01*
Y79723D01*
X-311190Y80709D01*
X-311700Y81594D01*
X-312422Y82316D01*
X-313306Y82826D01*
X-314293Y83091D01*
D02*
G37*
G36*
X-324293D02*
X-325314D01*
X-326300Y82826D01*
X-327184Y82316D01*
X-327906Y81594D01*
X-328417Y80709D01*
X-328681Y79723D01*
Y78702D01*
X-328417Y77716D01*
X-327906Y76832D01*
X-327184Y76109D01*
X-326300Y75599D01*
X-325314Y75335D01*
X-324293D01*
X-323306Y75599D01*
X-322422Y76109D01*
X-321700Y76832D01*
X-321189Y77716D01*
X-320925Y78702D01*
Y79723D01*
X-321189Y80709D01*
X-321700Y81594D01*
X-322422Y82316D01*
X-323306Y82826D01*
X-324293Y83091D01*
D02*
G37*
G36*
X-85803Y78213D02*
X-88770D01*
X-88615Y77634D01*
X-88076Y76701D01*
X-87315Y75939D01*
X-86382Y75401D01*
X-85803Y75246D01*
Y78213D01*
D02*
G37*
G36*
X-80836D02*
X-83803D01*
Y75246D01*
X-83224Y75401D01*
X-82292Y75939D01*
X-81530Y76701D01*
X-80991Y77634D01*
X-80836Y78213D01*
D02*
G37*
G36*
X-336184Y78937D02*
X-337045D01*
X-337841Y78607D01*
X-338450Y77998D01*
X-338779Y77202D01*
Y76341D01*
X-338450Y75545D01*
X-337841Y74936D01*
X-337045Y74606D01*
X-336184D01*
X-335388Y74936D01*
X-334778Y75545D01*
X-334449Y76341D01*
Y77202D01*
X-334778Y77998D01*
X-335388Y78607D01*
X-336184Y78937D01*
D02*
G37*
G36*
X-363742D02*
X-364604D01*
X-365400Y78607D01*
X-366009Y77998D01*
X-366339Y77202D01*
Y76341D01*
X-366009Y75545D01*
X-365400Y74936D01*
X-364604Y74606D01*
X-363742D01*
X-362947Y74936D01*
X-362337Y75545D01*
X-362008Y76341D01*
Y77202D01*
X-362337Y77998D01*
X-362947Y78607D01*
X-363742Y78937D01*
D02*
G37*
G36*
X-39527Y78592D02*
X-40473D01*
X-41387Y78348D01*
X-42206Y77875D01*
X-42875Y77206D01*
X-43348Y76387D01*
X-43593Y75473D01*
Y74527D01*
X-43348Y73613D01*
X-42875Y72794D01*
X-42206Y72125D01*
X-41387Y71652D01*
X-40473Y71408D01*
X-39527D01*
X-38613Y71652D01*
X-37794Y72125D01*
X-37125Y72794D01*
X-36652Y73613D01*
X-36408Y74527D01*
Y75473D01*
X-36652Y76387D01*
X-37125Y77206D01*
X-37794Y77875D01*
X-38613Y78348D01*
X-39527Y78592D01*
D02*
G37*
G36*
X-49527D02*
X-50473D01*
X-51387Y78348D01*
X-52206Y77875D01*
X-52875Y77206D01*
X-53348Y76387D01*
X-53592Y75473D01*
Y74527D01*
X-53348Y73613D01*
X-52875Y72794D01*
X-52206Y72125D01*
X-51387Y71652D01*
X-50473Y71408D01*
X-49527D01*
X-48613Y71652D01*
X-47794Y72125D01*
X-47125Y72794D01*
X-46652Y73613D01*
X-46407Y74527D01*
Y75473D01*
X-46652Y76387D01*
X-47125Y77206D01*
X-47794Y77875D01*
X-48613Y78348D01*
X-49527Y78592D01*
D02*
G37*
G36*
X-290047Y71219D02*
X-290909D01*
X-291705Y70890D01*
X-292314Y70281D01*
X-292643Y69485D01*
Y68623D01*
X-292314Y67827D01*
X-291705Y67218D01*
X-290909Y66889D01*
X-290047D01*
X-289251Y67218D01*
X-288642Y67827D01*
X-288313Y68623D01*
Y69485D01*
X-288642Y70281D01*
X-289251Y70890D01*
X-290047Y71219D01*
D02*
G37*
G36*
X-74293Y73090D02*
X-75314D01*
X-76300Y72826D01*
X-77184Y72316D01*
X-77906Y71594D01*
X-78417Y70709D01*
X-78681Y69723D01*
Y68702D01*
X-78417Y67716D01*
X-77906Y66831D01*
X-77184Y66110D01*
X-76300Y65599D01*
X-75314Y65335D01*
X-74293D01*
X-73306Y65599D01*
X-72422Y66110D01*
X-71700Y66831D01*
X-71189Y67716D01*
X-70925Y68702D01*
Y69723D01*
X-71189Y70709D01*
X-71700Y71594D01*
X-72422Y72316D01*
X-73306Y72826D01*
X-74293Y73090D01*
D02*
G37*
G36*
X-84293D02*
X-85314D01*
X-86300Y72826D01*
X-87184Y72316D01*
X-87906Y71594D01*
X-88417Y70709D01*
X-88681Y69723D01*
Y68702D01*
X-88417Y67716D01*
X-87906Y66831D01*
X-87184Y66110D01*
X-86300Y65599D01*
X-85314Y65335D01*
X-84293D01*
X-83306Y65599D01*
X-82422Y66110D01*
X-81700Y66831D01*
X-81190Y67716D01*
X-80925Y68702D01*
Y69723D01*
X-81190Y70709D01*
X-81700Y71594D01*
X-82422Y72316D01*
X-83306Y72826D01*
X-84293Y73090D01*
D02*
G37*
G36*
X-314293D02*
X-315314D01*
X-316300Y72826D01*
X-317184Y72316D01*
X-317906Y71594D01*
X-318417Y70709D01*
X-318681Y69723D01*
Y68702D01*
X-318417Y67716D01*
X-317906Y66831D01*
X-317184Y66110D01*
X-316300Y65599D01*
X-315314Y65335D01*
X-314293D01*
X-313306Y65599D01*
X-312422Y66110D01*
X-311700Y66831D01*
X-311190Y67716D01*
X-310925Y68702D01*
Y69723D01*
X-311190Y70709D01*
X-311700Y71594D01*
X-312422Y72316D01*
X-313306Y72826D01*
X-314293Y73090D01*
D02*
G37*
G36*
X-324293D02*
X-325314D01*
X-326300Y72826D01*
X-327184Y72316D01*
X-327906Y71594D01*
X-328417Y70709D01*
X-328681Y69723D01*
Y68702D01*
X-328417Y67716D01*
X-327906Y66831D01*
X-327184Y66110D01*
X-326300Y65599D01*
X-325314Y65335D01*
X-324293D01*
X-323306Y65599D01*
X-322422Y66110D01*
X-321700Y66831D01*
X-321189Y67716D01*
X-320925Y68702D01*
Y69723D01*
X-321189Y70709D01*
X-321700Y71594D01*
X-322422Y72316D01*
X-323306Y72826D01*
X-324293Y73090D01*
D02*
G37*
G36*
X-347884Y71565D02*
X-356840D01*
Y62608D01*
X-347884D01*
Y71565D01*
D02*
G37*
G36*
X-175596Y66746D02*
X-176458D01*
X-177253Y66416D01*
X-177862Y65807D01*
X-178192Y65012D01*
Y64150D01*
X-177862Y63354D01*
X-177253Y62745D01*
X-176458Y62415D01*
X-175596D01*
X-174800Y62745D01*
X-174191Y63354D01*
X-173861Y64150D01*
Y65012D01*
X-174191Y65807D01*
X-174800Y66416D01*
X-175596Y66746D01*
D02*
G37*
G36*
X-39527Y68593D02*
X-40473D01*
X-41387Y68348D01*
X-42206Y67875D01*
X-42875Y67206D01*
X-43348Y66387D01*
X-43593Y65473D01*
Y64527D01*
X-43348Y63613D01*
X-42875Y62794D01*
X-42206Y62125D01*
X-41387Y61652D01*
X-40473Y61408D01*
X-39527D01*
X-38613Y61652D01*
X-37794Y62125D01*
X-37125Y62794D01*
X-36652Y63613D01*
X-36408Y64527D01*
Y65473D01*
X-36652Y66387D01*
X-37125Y67206D01*
X-37794Y67875D01*
X-38613Y68348D01*
X-39527Y68593D01*
D02*
G37*
G36*
X-49527D02*
X-50473D01*
X-51387Y68348D01*
X-52206Y67875D01*
X-52875Y67206D01*
X-53348Y66387D01*
X-53592Y65473D01*
Y64527D01*
X-53348Y63613D01*
X-52875Y62794D01*
X-52206Y62125D01*
X-51387Y61652D01*
X-50473Y61408D01*
X-49527D01*
X-48613Y61652D01*
X-47794Y62125D01*
X-47125Y62794D01*
X-46652Y63613D01*
X-46407Y64527D01*
Y65473D01*
X-46652Y66387D01*
X-47125Y67206D01*
X-47794Y67875D01*
X-48613Y68348D01*
X-49527Y68593D01*
D02*
G37*
G36*
X-180672Y63189D02*
X-181533D01*
X-182329Y62859D01*
X-182938Y62250D01*
X-183268Y61454D01*
Y60593D01*
X-182938Y59797D01*
X-182329Y59188D01*
X-181533Y58858D01*
X-180672D01*
X-179876Y59188D01*
X-179267Y59797D01*
X-178937Y60593D01*
Y61454D01*
X-179267Y62250D01*
X-179876Y62859D01*
X-180672Y63189D01*
D02*
G37*
G36*
X-286685Y61539D02*
X-287546D01*
X-288342Y61209D01*
X-288951Y60600D01*
X-289281Y59804D01*
Y58943D01*
X-288951Y58147D01*
X-288342Y57538D01*
X-287546Y57209D01*
X-286685D01*
X-285889Y57538D01*
X-285280Y58147D01*
X-284950Y58943D01*
Y59804D01*
X-285280Y60600D01*
X-285889Y61209D01*
X-286685Y61539D01*
D02*
G37*
G36*
X-74293Y63090D02*
X-75314D01*
X-76300Y62826D01*
X-77184Y62316D01*
X-77906Y61594D01*
X-78417Y60709D01*
X-78681Y59723D01*
Y58702D01*
X-78417Y57716D01*
X-77906Y56832D01*
X-77184Y56109D01*
X-76300Y55599D01*
X-75314Y55335D01*
X-74293D01*
X-73306Y55599D01*
X-72422Y56109D01*
X-71700Y56832D01*
X-71189Y57716D01*
X-70925Y58702D01*
Y59723D01*
X-71189Y60709D01*
X-71700Y61594D01*
X-72422Y62316D01*
X-73306Y62826D01*
X-74293Y63090D01*
D02*
G37*
G36*
X-84293D02*
X-85314D01*
X-86300Y62826D01*
X-87184Y62316D01*
X-87906Y61594D01*
X-88417Y60709D01*
X-88681Y59723D01*
Y58702D01*
X-88417Y57716D01*
X-87906Y56832D01*
X-87184Y56109D01*
X-86300Y55599D01*
X-85314Y55335D01*
X-84293D01*
X-83306Y55599D01*
X-82422Y56109D01*
X-81700Y56832D01*
X-81190Y57716D01*
X-80925Y58702D01*
Y59723D01*
X-81190Y60709D01*
X-81700Y61594D01*
X-82422Y62316D01*
X-83306Y62826D01*
X-84293Y63090D01*
D02*
G37*
G36*
X-314293D02*
X-315314D01*
X-316300Y62826D01*
X-317184Y62316D01*
X-317906Y61594D01*
X-318417Y60709D01*
X-318681Y59723D01*
Y58702D01*
X-318417Y57716D01*
X-317906Y56832D01*
X-317184Y56109D01*
X-316300Y55599D01*
X-315314Y55335D01*
X-314293D01*
X-313306Y55599D01*
X-312422Y56109D01*
X-311700Y56832D01*
X-311190Y57716D01*
X-310925Y58702D01*
Y59723D01*
X-311190Y60709D01*
X-311700Y61594D01*
X-312422Y62316D01*
X-313306Y62826D01*
X-314293Y63090D01*
D02*
G37*
G36*
X-324293D02*
X-325314D01*
X-326300Y62826D01*
X-327184Y62316D01*
X-327906Y61594D01*
X-328417Y60709D01*
X-328681Y59723D01*
Y58702D01*
X-328417Y57716D01*
X-327906Y56832D01*
X-327184Y56109D01*
X-326300Y55599D01*
X-325314Y55335D01*
X-324293D01*
X-323306Y55599D01*
X-322422Y56109D01*
X-321700Y56832D01*
X-321189Y57716D01*
X-320925Y58702D01*
Y59723D01*
X-321189Y60709D01*
X-321700Y61594D01*
X-322422Y62316D01*
X-323306Y62826D01*
X-324293Y63090D01*
D02*
G37*
G36*
X-196420Y57284D02*
X-197281D01*
X-198077Y56954D01*
X-198686Y56345D01*
X-199016Y55549D01*
Y54687D01*
X-198686Y53891D01*
X-198077Y53282D01*
X-197281Y52953D01*
X-196420D01*
X-195624Y53282D01*
X-195015Y53891D01*
X-194685Y54687D01*
Y55549D01*
X-195015Y56345D01*
X-195624Y56954D01*
X-196420Y57284D01*
D02*
G37*
G36*
X-351773Y61565D02*
X-352952D01*
X-354091Y61260D01*
X-355112Y60670D01*
X-355946Y59836D01*
X-356535Y58815D01*
X-356840Y57676D01*
Y56497D01*
X-356535Y55358D01*
X-355946Y54337D01*
X-355112Y53503D01*
X-354091Y52913D01*
X-352952Y52608D01*
X-351773D01*
X-350634Y52913D01*
X-349612Y53503D01*
X-348779Y54337D01*
X-348189Y55358D01*
X-347884Y56497D01*
Y57676D01*
X-348189Y58815D01*
X-348779Y59836D01*
X-349612Y60670D01*
X-350634Y61260D01*
X-351773Y61565D01*
D02*
G37*
G36*
X-39527Y58592D02*
X-40473D01*
X-41387Y58348D01*
X-42206Y57875D01*
X-42875Y57206D01*
X-43348Y56387D01*
X-43593Y55473D01*
Y54527D01*
X-43348Y53613D01*
X-42875Y52794D01*
X-42206Y52125D01*
X-41387Y51652D01*
X-40473Y51407D01*
X-39527D01*
X-38613Y51652D01*
X-37794Y52125D01*
X-37125Y52794D01*
X-36652Y53613D01*
X-36408Y54527D01*
Y55473D01*
X-36652Y56387D01*
X-37125Y57206D01*
X-37794Y57875D01*
X-38613Y58348D01*
X-39527Y58592D01*
D02*
G37*
G36*
X-49527D02*
X-50473D01*
X-51387Y58348D01*
X-52206Y57875D01*
X-52875Y57206D01*
X-53348Y56387D01*
X-53592Y55473D01*
Y54527D01*
X-53348Y53613D01*
X-52875Y52794D01*
X-52206Y52125D01*
X-51387Y51652D01*
X-50473Y51407D01*
X-49527D01*
X-48613Y51652D01*
X-47794Y52125D01*
X-47125Y52794D01*
X-46652Y53613D01*
X-46407Y54527D01*
Y55473D01*
X-46652Y56387D01*
X-47125Y57206D01*
X-47794Y57875D01*
X-48613Y58348D01*
X-49527Y58592D01*
D02*
G37*
G36*
X-96026Y53347D02*
X-96887D01*
X-97683Y53017D01*
X-98292Y52408D01*
X-98622Y51612D01*
Y50750D01*
X-98292Y49955D01*
X-97683Y49345D01*
X-96887Y49016D01*
X-96026D01*
X-95230Y49345D01*
X-94621Y49955D01*
X-94291Y50750D01*
Y51612D01*
X-94621Y52408D01*
X-95230Y53017D01*
X-96026Y53347D01*
D02*
G37*
G36*
X-192483D02*
X-193344D01*
X-194140Y53017D01*
X-194749Y52408D01*
X-195079Y51612D01*
Y50750D01*
X-194749Y49955D01*
X-194140Y49345D01*
X-193344Y49016D01*
X-192483D01*
X-191687Y49345D01*
X-191078Y49955D01*
X-190748Y50750D01*
Y51612D01*
X-191078Y52408D01*
X-191687Y53017D01*
X-192483Y53347D01*
D02*
G37*
G36*
X-129491Y50394D02*
X-130352D01*
X-131148Y50064D01*
X-131757Y49455D01*
X-132087Y48659D01*
Y47798D01*
X-131757Y47002D01*
X-131148Y46393D01*
X-130352Y46063D01*
X-129491D01*
X-128695Y46393D01*
X-128086Y47002D01*
X-127756Y47798D01*
Y48659D01*
X-128086Y49455D01*
X-128695Y50064D01*
X-129491Y50394D01*
D02*
G37*
G36*
X-74293Y53091D02*
X-75314D01*
X-76300Y52826D01*
X-77184Y52316D01*
X-77906Y51594D01*
X-78417Y50709D01*
X-78681Y49723D01*
Y48702D01*
X-78417Y47716D01*
X-77906Y46832D01*
X-77184Y46110D01*
X-76300Y45599D01*
X-75314Y45335D01*
X-74293D01*
X-73306Y45599D01*
X-72422Y46110D01*
X-71700Y46832D01*
X-71189Y47716D01*
X-70925Y48702D01*
Y49723D01*
X-71189Y50709D01*
X-71700Y51594D01*
X-72422Y52316D01*
X-73306Y52826D01*
X-74293Y53091D01*
D02*
G37*
G36*
X-84293D02*
X-85314D01*
X-86300Y52826D01*
X-87184Y52316D01*
X-87906Y51594D01*
X-88417Y50709D01*
X-88681Y49723D01*
Y48702D01*
X-88417Y47716D01*
X-87906Y46832D01*
X-87184Y46110D01*
X-86300Y45599D01*
X-85314Y45335D01*
X-84293D01*
X-83306Y45599D01*
X-82422Y46110D01*
X-81700Y46832D01*
X-81190Y47716D01*
X-80925Y48702D01*
Y49723D01*
X-81190Y50709D01*
X-81700Y51594D01*
X-82422Y52316D01*
X-83306Y52826D01*
X-84293Y53091D01*
D02*
G37*
G36*
X-314293D02*
X-315314D01*
X-316300Y52826D01*
X-317184Y52316D01*
X-317906Y51594D01*
X-318417Y50709D01*
X-318681Y49723D01*
Y48702D01*
X-318417Y47716D01*
X-317906Y46832D01*
X-317184Y46110D01*
X-316300Y45599D01*
X-315314Y45335D01*
X-314293D01*
X-313306Y45599D01*
X-312422Y46110D01*
X-311700Y46832D01*
X-311190Y47716D01*
X-310925Y48702D01*
Y49723D01*
X-311190Y50709D01*
X-311700Y51594D01*
X-312422Y52316D01*
X-313306Y52826D01*
X-314293Y53091D01*
D02*
G37*
G36*
X-324293D02*
X-325314D01*
X-326300Y52826D01*
X-327184Y52316D01*
X-327906Y51594D01*
X-328417Y50709D01*
X-328681Y49723D01*
Y48702D01*
X-328417Y47716D01*
X-327906Y46832D01*
X-327184Y46110D01*
X-326300Y45599D01*
X-325314Y45335D01*
X-324293D01*
X-323306Y45599D01*
X-322422Y46110D01*
X-321700Y46832D01*
X-321189Y47716D01*
X-320925Y48702D01*
Y49723D01*
X-321189Y50709D01*
X-321700Y51594D01*
X-322422Y52316D01*
X-323306Y52826D01*
X-324293Y53091D01*
D02*
G37*
G36*
X-223979Y47441D02*
X-224840D01*
X-225636Y47111D01*
X-226245Y46502D01*
X-226575Y45706D01*
Y44845D01*
X-226245Y44049D01*
X-225636Y43440D01*
X-224840Y43110D01*
X-223979D01*
X-223183Y43440D01*
X-222574Y44049D01*
X-222244Y44845D01*
Y45706D01*
X-222574Y46502D01*
X-223183Y47111D01*
X-223979Y47441D01*
D02*
G37*
G36*
X-283034D02*
X-283895D01*
X-284691Y47111D01*
X-285300Y46502D01*
X-285630Y45706D01*
Y44845D01*
X-285300Y44049D01*
X-284691Y43440D01*
X-283895Y43110D01*
X-283034D01*
X-282238Y43440D01*
X-281629Y44049D01*
X-281299Y44845D01*
Y45706D01*
X-281629Y46502D01*
X-282238Y47111D01*
X-283034Y47441D01*
D02*
G37*
G36*
X-39527Y48592D02*
X-40473D01*
X-41387Y48348D01*
X-42206Y47875D01*
X-42875Y47206D01*
X-43348Y46387D01*
X-43593Y45473D01*
Y44527D01*
X-43348Y43613D01*
X-42875Y42794D01*
X-42206Y42125D01*
X-41387Y41652D01*
X-40473Y41407D01*
X-39527D01*
X-38613Y41652D01*
X-37794Y42125D01*
X-37125Y42794D01*
X-36652Y43613D01*
X-36408Y44527D01*
Y45473D01*
X-36652Y46387D01*
X-37125Y47206D01*
X-37794Y47875D01*
X-38613Y48348D01*
X-39527Y48592D01*
D02*
G37*
G36*
X-49527D02*
X-50473D01*
X-51387Y48348D01*
X-52206Y47875D01*
X-52875Y47206D01*
X-53348Y46387D01*
X-53592Y45473D01*
Y44527D01*
X-53348Y43613D01*
X-52875Y42794D01*
X-52206Y42125D01*
X-51387Y41652D01*
X-50473Y41407D01*
X-49527D01*
X-48613Y41652D01*
X-47794Y42125D01*
X-47125Y42794D01*
X-46652Y43613D01*
X-46407Y44527D01*
Y45473D01*
X-46652Y46387D01*
X-47125Y47206D01*
X-47794Y47875D01*
X-48613Y48348D01*
X-49527Y48592D01*
D02*
G37*
G36*
X-204294Y44488D02*
X-205155D01*
X-205951Y44159D01*
X-206560Y43549D01*
X-206890Y42754D01*
Y41892D01*
X-206560Y41096D01*
X-205951Y40487D01*
X-205155Y40157D01*
X-204294D01*
X-203498Y40487D01*
X-202889Y41096D01*
X-202559Y41892D01*
Y42754D01*
X-202889Y43549D01*
X-203498Y44159D01*
X-204294Y44488D01*
D02*
G37*
G36*
X-227916Y43504D02*
X-228777D01*
X-229573Y43174D01*
X-230182Y42565D01*
X-230512Y41769D01*
Y40908D01*
X-230182Y40112D01*
X-229573Y39503D01*
X-228777Y39173D01*
X-227916D01*
X-227120Y39503D01*
X-226511Y40112D01*
X-226181Y40908D01*
Y41769D01*
X-226511Y42565D01*
X-227120Y43174D01*
X-227916Y43504D01*
D02*
G37*
G36*
X-153014Y41535D02*
X-153876D01*
X-154672Y41206D01*
X-155281Y40597D01*
X-155610Y39801D01*
Y38939D01*
X-155281Y38144D01*
X-154672Y37534D01*
X-153876Y37205D01*
X-153014D01*
X-152218Y37534D01*
X-151609Y38144D01*
X-151279Y38939D01*
Y39801D01*
X-151609Y40597D01*
X-152218Y41206D01*
X-153014Y41535D01*
D02*
G37*
G36*
X-89773Y41417D02*
X-90635D01*
X-91430Y41088D01*
X-92040Y40479D01*
X-92369Y39683D01*
Y38821D01*
X-92040Y38025D01*
X-91430Y37416D01*
X-90635Y37087D01*
X-89773D01*
X-88977Y37416D01*
X-88368Y38025D01*
X-88039Y38821D01*
Y39683D01*
X-88368Y40479D01*
X-88977Y41088D01*
X-89773Y41417D01*
D02*
G37*
G36*
X-260942Y40431D02*
X-261803D01*
X-262599Y40101D01*
X-263208Y39492D01*
X-263538Y38696D01*
Y37835D01*
X-263208Y37039D01*
X-262599Y36430D01*
X-261803Y36100D01*
X-260942D01*
X-260146Y36430D01*
X-259537Y37039D01*
X-259207Y37835D01*
Y38696D01*
X-259537Y39492D01*
X-260146Y40101D01*
X-260942Y40431D01*
D02*
G37*
G36*
X-241695Y38508D02*
X-242557D01*
X-243353Y38178D01*
X-243962Y37569D01*
X-244291Y36773D01*
Y35912D01*
X-243962Y35116D01*
X-243353Y34507D01*
X-242557Y34177D01*
X-241695D01*
X-240899Y34507D01*
X-240290Y35116D01*
X-239961Y35912D01*
Y36773D01*
X-240290Y37569D01*
X-240899Y38178D01*
X-241695Y38508D01*
D02*
G37*
G36*
X-336184Y37598D02*
X-337045D01*
X-337841Y37269D01*
X-338450Y36660D01*
X-338779Y35864D01*
Y35002D01*
X-338450Y34207D01*
X-337841Y33597D01*
X-337045Y33268D01*
X-336184D01*
X-335388Y33597D01*
X-334778Y34207D01*
X-334449Y35002D01*
Y35864D01*
X-334778Y36660D01*
X-335388Y37269D01*
X-336184Y37598D01*
D02*
G37*
G36*
X-39527Y38592D02*
X-40473D01*
X-41387Y38348D01*
X-42206Y37875D01*
X-42875Y37206D01*
X-43348Y36387D01*
X-43593Y35473D01*
Y34527D01*
X-43348Y33613D01*
X-42875Y32794D01*
X-42206Y32125D01*
X-41387Y31652D01*
X-40473Y31407D01*
X-39527D01*
X-38613Y31652D01*
X-37794Y32125D01*
X-37125Y32794D01*
X-36652Y33613D01*
X-36408Y34527D01*
Y35473D01*
X-36652Y36387D01*
X-37125Y37206D01*
X-37794Y37875D01*
X-38613Y38348D01*
X-39527Y38592D01*
D02*
G37*
G36*
X-49527D02*
X-50473D01*
X-51387Y38348D01*
X-52206Y37875D01*
X-52875Y37206D01*
X-53348Y36387D01*
X-53592Y35473D01*
Y34527D01*
X-53348Y33613D01*
X-52875Y32794D01*
X-52206Y32125D01*
X-51387Y31652D01*
X-50473Y31407D01*
X-49527D01*
X-48613Y31652D01*
X-47794Y32125D01*
X-47125Y32794D01*
X-46652Y33613D01*
X-46407Y34527D01*
Y35473D01*
X-46652Y36387D01*
X-47125Y37206D01*
X-47794Y37875D01*
X-48613Y38348D01*
X-49527Y38592D01*
D02*
G37*
G36*
X-247094Y34751D02*
X-247956D01*
X-248752Y34421D01*
X-249361Y33812D01*
X-249691Y33016D01*
Y32155D01*
X-249361Y31359D01*
X-248752Y30750D01*
X-247956Y30420D01*
X-247094D01*
X-246299Y30750D01*
X-245689Y31359D01*
X-245360Y32155D01*
Y33016D01*
X-245689Y33812D01*
X-246299Y34421D01*
X-247094Y34751D01*
D02*
G37*
G36*
X-281065Y37598D02*
X-281927D01*
X-282723Y37269D01*
X-283332Y36660D01*
X-283661Y35864D01*
Y35002D01*
X-283332Y34207D01*
X-282723Y33597D01*
X-281927Y33268D01*
X-281065D01*
X-280270Y33597D01*
X-280244Y33623D01*
X-279820Y33340D01*
X-279967Y32986D01*
Y32124D01*
X-279637Y31328D01*
X-279028Y30719D01*
X-278232Y30390D01*
X-277371D01*
X-276575Y30719D01*
X-275965Y31328D01*
X-275636Y32124D01*
Y32986D01*
X-275965Y33782D01*
X-276575Y34391D01*
X-277371Y34721D01*
X-278232D01*
X-279028Y34391D01*
X-279053Y34365D01*
X-279477Y34648D01*
X-279331Y35002D01*
Y35864D01*
X-279660Y36660D01*
X-280270Y37269D01*
X-281065Y37598D01*
D02*
G37*
G36*
X-157050Y33661D02*
X-157911D01*
X-158707Y33332D01*
X-159316Y32723D01*
X-159646Y31927D01*
Y31065D01*
X-159316Y30270D01*
X-158707Y29660D01*
X-157911Y29331D01*
X-157050D01*
X-156254Y29660D01*
X-155645Y30270D01*
X-155315Y31065D01*
Y31927D01*
X-155645Y32723D01*
X-156254Y33332D01*
X-157050Y33661D01*
D02*
G37*
G36*
X-296813Y31693D02*
X-297675D01*
X-298471Y31363D01*
X-299080Y30754D01*
X-299409Y29958D01*
Y29097D01*
X-299080Y28301D01*
X-298471Y27692D01*
X-297675Y27362D01*
X-296813D01*
X-296018Y27692D01*
X-295408Y28301D01*
X-295079Y29097D01*
Y29958D01*
X-295408Y30754D01*
X-296018Y31363D01*
X-296813Y31693D01*
D02*
G37*
G36*
X-46195Y28805D02*
X-49000D01*
Y26000D01*
X-46195D01*
Y28805D01*
D02*
G37*
G36*
X-51000D02*
X-53805D01*
Y26000D01*
X-51000D01*
Y28805D01*
D02*
G37*
G36*
X-307565Y29724D02*
X-308427D01*
X-309223Y29395D01*
X-309832Y28786D01*
X-310161Y27990D01*
Y27128D01*
X-309832Y26333D01*
X-309223Y25723D01*
X-308427Y25394D01*
X-307565D01*
X-306769Y25723D01*
X-306160Y26333D01*
X-305831Y27128D01*
Y27990D01*
X-306160Y28786D01*
X-306769Y29395D01*
X-307565Y29724D01*
D02*
G37*
G36*
X-65610Y30689D02*
X-73681D01*
Y22618D01*
X-65610D01*
Y30689D01*
D02*
G37*
G36*
X-79114D02*
X-80177D01*
X-81203Y30414D01*
X-82124Y29883D01*
X-82875Y29131D01*
X-83406Y28211D01*
X-83681Y27185D01*
Y26122D01*
X-83406Y25096D01*
X-82875Y24176D01*
X-82124Y23424D01*
X-81203Y22893D01*
X-80177Y22618D01*
X-79114D01*
X-78088Y22893D01*
X-77168Y23424D01*
X-76416Y24176D01*
X-75885Y25096D01*
X-75610Y26122D01*
Y27185D01*
X-75885Y28211D01*
X-76416Y29131D01*
X-77168Y29883D01*
X-78088Y30414D01*
X-79114Y30689D01*
D02*
G37*
G36*
X-89114D02*
X-90177D01*
X-91203Y30414D01*
X-92124Y29883D01*
X-92875Y29131D01*
X-93406Y28211D01*
X-93681Y27185D01*
Y26122D01*
X-93406Y25096D01*
X-92875Y24176D01*
X-92124Y23424D01*
X-91203Y22893D01*
X-90177Y22618D01*
X-89114D01*
X-88088Y22893D01*
X-87168Y23424D01*
X-86417Y24176D01*
X-85885Y25096D01*
X-85610Y26122D01*
Y27185D01*
X-85885Y28211D01*
X-86417Y29131D01*
X-87168Y29883D01*
X-88088Y30414D01*
X-89114Y30689D01*
D02*
G37*
G36*
X-99114D02*
X-100177D01*
X-101203Y30414D01*
X-102123Y29883D01*
X-102875Y29131D01*
X-103406Y28211D01*
X-103681Y27185D01*
Y26122D01*
X-103406Y25096D01*
X-102875Y24176D01*
X-102123Y23424D01*
X-101203Y22893D01*
X-100177Y22618D01*
X-99114D01*
X-98088Y22893D01*
X-97168Y23424D01*
X-96416Y24176D01*
X-95885Y25096D01*
X-95610Y26122D01*
Y27185D01*
X-95885Y28211D01*
X-96416Y29131D01*
X-97168Y29883D01*
X-98088Y30414D01*
X-99114Y30689D01*
D02*
G37*
G36*
X-356474Y48287D02*
X-358565D01*
X-360631Y47960D01*
X-362620Y47314D01*
X-364484Y46364D01*
X-366176Y45135D01*
X-367655Y43656D01*
X-368884Y41964D01*
X-369834Y40101D01*
X-370480Y38111D01*
X-370807Y36046D01*
Y33954D01*
X-370480Y31888D01*
X-369834Y29899D01*
X-368884Y28036D01*
X-367655Y26344D01*
X-366176Y24865D01*
X-364484Y23636D01*
X-362620Y22686D01*
X-360631Y22040D01*
X-358565Y21713D01*
X-356474D01*
X-354408Y22040D01*
X-352419Y22686D01*
X-350556Y23636D01*
X-348864Y24865D01*
X-347385Y26344D01*
X-346155Y28036D01*
X-345206Y29899D01*
X-344560Y31888D01*
X-344232Y33954D01*
Y36046D01*
X-344560Y38111D01*
X-345206Y40101D01*
X-346155Y41964D01*
X-347385Y43656D01*
X-348864Y45135D01*
X-350556Y46364D01*
X-352419Y47314D01*
X-354408Y47960D01*
X-356474Y48287D01*
D02*
G37*
G36*
X-302824Y25787D02*
X-303686D01*
X-304482Y25458D01*
X-305091Y24849D01*
X-305420Y24053D01*
Y23191D01*
X-305091Y22396D01*
X-304482Y21786D01*
X-303686Y21457D01*
X-302824D01*
X-302028Y21786D01*
X-301419Y22396D01*
X-301090Y23191D01*
Y24053D01*
X-301419Y24849D01*
X-302028Y25458D01*
X-302824Y25787D01*
D02*
G37*
G36*
X-39527Y28593D02*
X-40473D01*
X-41387Y28348D01*
X-42206Y27875D01*
X-42875Y27206D01*
X-43348Y26387D01*
X-43593Y25473D01*
Y24527D01*
X-43348Y23613D01*
X-42875Y22794D01*
X-42206Y22125D01*
X-41387Y21652D01*
X-40473Y21407D01*
X-39527D01*
X-38613Y21652D01*
X-37794Y22125D01*
X-37125Y22794D01*
X-36652Y23613D01*
X-36408Y24527D01*
Y25473D01*
X-36652Y26387D01*
X-37125Y27206D01*
X-37794Y27875D01*
X-38613Y28348D01*
X-39527Y28593D01*
D02*
G37*
G36*
X-46195Y24000D02*
X-49000D01*
Y21195D01*
X-46195D01*
Y24000D01*
D02*
G37*
G36*
X-51000D02*
X-53805D01*
Y21195D01*
X-51000D01*
Y24000D01*
D02*
G37*
G36*
X-177378Y20642D02*
X-178303Y20394D01*
X-179440Y19738D01*
X-180368Y18810D01*
X-181024Y17673D01*
X-181229Y16908D01*
X-181747D01*
X-181930Y17591D01*
X-182558Y18679D01*
X-183447Y19568D01*
X-184535Y20196D01*
X-185749Y20522D01*
X-187006D01*
X-188221Y20196D01*
X-189309Y19568D01*
X-190198Y18679D01*
X-190826Y17591D01*
X-191126Y16473D01*
X-191630D01*
X-191930Y17591D01*
X-192558Y18679D01*
X-193447Y19568D01*
X-194535Y20196D01*
X-195749Y20522D01*
X-197006D01*
X-198221Y20196D01*
X-199309Y19568D01*
X-200198Y18679D01*
X-200826Y17591D01*
X-201126Y16473D01*
X-201630D01*
X-201930Y17591D01*
X-202558Y18679D01*
X-203447Y19568D01*
X-204535Y20196D01*
X-205750Y20522D01*
X-207006D01*
X-208221Y20196D01*
X-209309Y19568D01*
X-210198Y18679D01*
X-210826Y17591D01*
X-211126Y16473D01*
X-211630D01*
X-211930Y17591D01*
X-212558Y18679D01*
X-213447Y19568D01*
X-214535Y20196D01*
X-215750Y20522D01*
X-217006D01*
X-218220Y20196D01*
X-219309Y19568D01*
X-220198Y18679D01*
X-220826Y17591D01*
X-221126Y16473D01*
X-221630D01*
X-221930Y17591D01*
X-222558Y18679D01*
X-223447Y19568D01*
X-224535Y20196D01*
X-225749Y20522D01*
X-227006D01*
X-228221Y20196D01*
X-229309Y19568D01*
X-230198Y18679D01*
X-230826Y17591D01*
X-231126Y16473D01*
X-231630D01*
X-231930Y17591D01*
X-232558Y18679D01*
X-233447Y19568D01*
X-234535Y20196D01*
X-235750Y20522D01*
X-237006D01*
X-238221Y20196D01*
X-239309Y19568D01*
X-240198Y18679D01*
X-240826Y17591D01*
X-241126Y16473D01*
X-241630D01*
X-241930Y17591D01*
X-242558Y18679D01*
X-243447Y19568D01*
X-244535Y20196D01*
X-245749Y20522D01*
X-247006D01*
X-248220Y20196D01*
X-249309Y19568D01*
X-250198Y18679D01*
X-250826Y17591D01*
X-251126Y16473D01*
X-251630D01*
X-251930Y17591D01*
X-252558Y18679D01*
X-253447Y19568D01*
X-254535Y20196D01*
X-255750Y20522D01*
X-257006D01*
X-258221Y20196D01*
X-259309Y19568D01*
X-260198Y18679D01*
X-260826Y17591D01*
X-261126Y16473D01*
X-261630D01*
X-261930Y17591D01*
X-262558Y18679D01*
X-263447Y19568D01*
X-264535Y20196D01*
X-265750Y20522D01*
X-267006D01*
X-268220Y20196D01*
X-269309Y19568D01*
X-270198Y18679D01*
X-270826Y17591D01*
X-271126Y16473D01*
X-271630D01*
X-271930Y17591D01*
X-272558Y18679D01*
X-273447Y19568D01*
X-274535Y20196D01*
X-275749Y20522D01*
X-277006D01*
X-278221Y20196D01*
X-279309Y19568D01*
X-280198Y18679D01*
X-280826Y17591D01*
X-281009Y16908D01*
X-281527D01*
X-281732Y17673D01*
X-282388Y18810D01*
X-283316Y19738D01*
X-284453Y20394D01*
X-285378Y20642D01*
Y15748D01*
Y10854D01*
X-284453Y11102D01*
X-283316Y11758D01*
X-282388Y12686D01*
X-281732Y13823D01*
X-281527Y14588D01*
X-281009D01*
X-280826Y13905D01*
X-280198Y12817D01*
X-279309Y11928D01*
X-278221Y11300D01*
X-277006Y10974D01*
X-275749D01*
X-274535Y11300D01*
X-273447Y11928D01*
X-272558Y12817D01*
X-271930Y13905D01*
X-271630Y15023D01*
X-271126D01*
X-270826Y13905D01*
X-270198Y12817D01*
X-269309Y11928D01*
X-268220Y11300D01*
X-267006Y10974D01*
X-265750D01*
X-264535Y11300D01*
X-263447Y11928D01*
X-262558Y12817D01*
X-261930Y13905D01*
X-261630Y15023D01*
X-261126D01*
X-260826Y13905D01*
X-260198Y12817D01*
X-259309Y11928D01*
X-258221Y11300D01*
X-257006Y10974D01*
X-255750D01*
X-254535Y11300D01*
X-253447Y11928D01*
X-252558Y12817D01*
X-251930Y13905D01*
X-251630Y15023D01*
X-251126D01*
X-250826Y13905D01*
X-250198Y12817D01*
X-249309Y11928D01*
X-248220Y11300D01*
X-247006Y10974D01*
X-245749D01*
X-244535Y11300D01*
X-243447Y11928D01*
X-242558Y12817D01*
X-241930Y13905D01*
X-241630Y15023D01*
X-241126D01*
X-240826Y13905D01*
X-240198Y12817D01*
X-239309Y11928D01*
X-238221Y11300D01*
X-237006Y10974D01*
X-235750D01*
X-234535Y11300D01*
X-233447Y11928D01*
X-232558Y12817D01*
X-231930Y13905D01*
X-231630Y15023D01*
X-231126D01*
X-230826Y13905D01*
X-230198Y12817D01*
X-229309Y11928D01*
X-228221Y11300D01*
X-227006Y10974D01*
X-225749D01*
X-224535Y11300D01*
X-223447Y11928D01*
X-222558Y12817D01*
X-221930Y13905D01*
X-221630Y15023D01*
X-221126D01*
X-220826Y13905D01*
X-220198Y12817D01*
X-219309Y11928D01*
X-218220Y11300D01*
X-217006Y10974D01*
X-215750D01*
X-214535Y11300D01*
X-213447Y11928D01*
X-212558Y12817D01*
X-211930Y13905D01*
X-211630Y15023D01*
X-211126D01*
X-210826Y13905D01*
X-210198Y12817D01*
X-209309Y11928D01*
X-208221Y11300D01*
X-207006Y10974D01*
X-205750D01*
X-204535Y11300D01*
X-203447Y11928D01*
X-202558Y12817D01*
X-201930Y13905D01*
X-201630Y15023D01*
X-201126D01*
X-200826Y13905D01*
X-200198Y12817D01*
X-199309Y11928D01*
X-198221Y11300D01*
X-197006Y10974D01*
X-195749D01*
X-194535Y11300D01*
X-193447Y11928D01*
X-192558Y12817D01*
X-191930Y13905D01*
X-191630Y15023D01*
X-191126D01*
X-190826Y13905D01*
X-190198Y12817D01*
X-189309Y11928D01*
X-188221Y11300D01*
X-187006Y10974D01*
X-185749D01*
X-184535Y11300D01*
X-183447Y11928D01*
X-182558Y12817D01*
X-181930Y13905D01*
X-181747Y14588D01*
X-181229D01*
X-181024Y13823D01*
X-180368Y12686D01*
X-179440Y11758D01*
X-178303Y11102D01*
X-177378Y10854D01*
Y15748D01*
Y20642D01*
D02*
G37*
G36*
X-175378D02*
Y16748D01*
X-171484D01*
X-171731Y17673D01*
X-172388Y18810D01*
X-173316Y19738D01*
X-174453Y20394D01*
X-175378Y20642D01*
D02*
G37*
G36*
X-327378Y20734D02*
X-331364D01*
Y16748D01*
X-327378D01*
Y20734D01*
D02*
G37*
G36*
X-171484Y14748D02*
X-175378D01*
Y10854D01*
X-174453Y11102D01*
X-173316Y11758D01*
X-172388Y12686D01*
X-171731Y13823D01*
X-171484Y14748D01*
D02*
G37*
G36*
X-321392Y20734D02*
X-325378D01*
Y15748D01*
Y10762D01*
X-321392D01*
Y14084D01*
X-320892Y14150D01*
X-320826Y13905D01*
X-320198Y12817D01*
X-319309Y11928D01*
X-318220Y11300D01*
X-317006Y10974D01*
X-315750D01*
X-314535Y11300D01*
X-313447Y11928D01*
X-312558Y12817D01*
X-311930Y13905D01*
X-311630Y15023D01*
X-311126D01*
X-310826Y13905D01*
X-310198Y12817D01*
X-309309Y11928D01*
X-308221Y11300D01*
X-307006Y10974D01*
X-305750D01*
X-304535Y11300D01*
X-303447Y11928D01*
X-302558Y12817D01*
X-301930Y13905D01*
X-301630Y15023D01*
X-301126D01*
X-300826Y13905D01*
X-300198Y12817D01*
X-299309Y11928D01*
X-298220Y11300D01*
X-297006Y10974D01*
X-295749D01*
X-294535Y11300D01*
X-293447Y11928D01*
X-292558Y12817D01*
X-291930Y13905D01*
X-291747Y14588D01*
X-291229D01*
X-291024Y13823D01*
X-290368Y12686D01*
X-289440Y11758D01*
X-288303Y11102D01*
X-287378Y10854D01*
Y15748D01*
Y20642D01*
X-288303Y20394D01*
X-289440Y19738D01*
X-290368Y18810D01*
X-291024Y17673D01*
X-291229Y16908D01*
X-291747D01*
X-291930Y17591D01*
X-292558Y18679D01*
X-293447Y19568D01*
X-294535Y20196D01*
X-295749Y20522D01*
X-297006D01*
X-298220Y20196D01*
X-299309Y19568D01*
X-300198Y18679D01*
X-300826Y17591D01*
X-301126Y16473D01*
X-301630D01*
X-301930Y17591D01*
X-302558Y18679D01*
X-303447Y19568D01*
X-304535Y20196D01*
X-305750Y20522D01*
X-307006D01*
X-308221Y20196D01*
X-309309Y19568D01*
X-310198Y18679D01*
X-310826Y17591D01*
X-311126Y16473D01*
X-311630D01*
X-311930Y17591D01*
X-312558Y18679D01*
X-313447Y19568D01*
X-314535Y20196D01*
X-315750Y20522D01*
X-317006D01*
X-318220Y20196D01*
X-319309Y19568D01*
X-320198Y18679D01*
X-320826Y17591D01*
X-320892Y17346D01*
X-321392Y17412D01*
Y20734D01*
D02*
G37*
G36*
X-327378Y14748D02*
X-331364D01*
Y10762D01*
X-327378D01*
Y14748D01*
D02*
G37*
G36*
X-18954Y33287D02*
X-21046D01*
X-23111Y32960D01*
X-25101Y32314D01*
X-26964Y31364D01*
X-28656Y30135D01*
X-30135Y28656D01*
X-31364Y26964D01*
X-32314Y25101D01*
X-32960Y23111D01*
X-33287Y21046D01*
Y18954D01*
X-32960Y16888D01*
X-32314Y14899D01*
X-31364Y13036D01*
X-30135Y11344D01*
X-28656Y9865D01*
X-26964Y8636D01*
X-25101Y7686D01*
X-23111Y7040D01*
X-21046Y6713D01*
X-18954D01*
X-16888Y7040D01*
X-14899Y7686D01*
X-13036Y8636D01*
X-11344Y9865D01*
X-9865Y11344D01*
X-8636Y13036D01*
X-7686Y14899D01*
X-7040Y16888D01*
X-6713Y18954D01*
Y21046D01*
X-7040Y23111D01*
X-7686Y25101D01*
X-8636Y26964D01*
X-9865Y28656D01*
X-11344Y30135D01*
X-13036Y31364D01*
X-14899Y32314D01*
X-16888Y32960D01*
X-18954Y33287D01*
D02*
G37*
%LPD*%
D17*
X-326772Y316929D02*
D03*
X-228346D02*
D03*
D18*
X-299370Y311339D02*
D03*
D19*
X-255748D02*
D03*
X-266653D02*
D03*
X-277559D02*
D03*
X-288465D02*
D03*
X-261201Y322520D02*
D03*
X-272106D02*
D03*
X-283012D02*
D03*
X-293917D02*
D03*
D20*
X-318898Y289528D02*
D03*
D21*
Y279528D02*
D03*
Y269528D02*
D03*
Y259528D02*
D03*
X-363650Y108798D02*
D03*
D22*
X-352205Y241653D02*
D03*
Y164724D02*
D03*
D23*
Y251654D02*
D03*
Y261653D02*
D03*
Y271654D02*
D03*
Y281653D02*
D03*
Y291653D02*
D03*
Y301654D02*
D03*
X-362205Y241653D02*
D03*
Y251654D02*
D03*
Y261653D02*
D03*
Y271654D02*
D03*
Y281653D02*
D03*
Y291653D02*
D03*
Y301654D02*
D03*
X-352205Y174724D02*
D03*
Y184724D02*
D03*
Y194724D02*
D03*
Y204724D02*
D03*
Y214724D02*
D03*
Y224724D02*
D03*
X-362205Y164724D02*
D03*
Y174724D02*
D03*
Y184724D02*
D03*
Y194724D02*
D03*
Y204724D02*
D03*
Y214724D02*
D03*
Y224724D02*
D03*
D24*
X-326378Y15748D02*
D03*
D25*
X-316378D02*
D03*
X-306378D02*
D03*
X-296378D02*
D03*
X-286378D02*
D03*
X-276378D02*
D03*
X-266378D02*
D03*
X-256378D02*
D03*
X-246378D02*
D03*
X-236378D02*
D03*
X-226378D02*
D03*
X-216378D02*
D03*
X-206378D02*
D03*
X-196378D02*
D03*
X-186378D02*
D03*
X-176378D02*
D03*
D26*
X-65709Y329646D02*
D03*
X-75709D02*
D03*
X-85709D02*
D03*
X-79646Y26654D02*
D03*
X-89646D02*
D03*
X-99646D02*
D03*
D27*
X-95709Y329646D02*
D03*
X-69646Y26654D02*
D03*
D28*
X-353650Y108798D02*
D03*
D29*
X-346457Y141732D02*
D03*
D30*
X-356457D02*
D03*
X-366457D02*
D03*
D31*
X-165354Y338740D02*
D03*
X-198524D02*
D03*
D32*
X-165354Y328740D02*
D03*
Y318740D02*
D03*
X-198524Y328740D02*
D03*
Y318740D02*
D03*
X-74803Y49213D02*
D03*
X-84803D02*
D03*
X-74803Y59213D02*
D03*
X-84803D02*
D03*
X-74803Y69213D02*
D03*
X-84803D02*
D03*
X-74803Y79213D02*
D03*
X-84803D02*
D03*
X-74803Y89213D02*
D03*
X-84803D02*
D03*
X-74803Y99213D02*
D03*
X-84803D02*
D03*
X-74803Y109213D02*
D03*
X-84803D02*
D03*
X-74803Y119213D02*
D03*
X-84803D02*
D03*
X-74803Y129213D02*
D03*
X-84803D02*
D03*
X-74803Y139213D02*
D03*
X-84803D02*
D03*
X-74803Y149213D02*
D03*
X-84803D02*
D03*
X-74803Y159213D02*
D03*
X-84803D02*
D03*
X-74803Y169213D02*
D03*
X-84803D02*
D03*
X-74803Y179213D02*
D03*
X-84803D02*
D03*
X-74803Y189213D02*
D03*
X-84803D02*
D03*
X-74803Y199213D02*
D03*
X-84803D02*
D03*
X-74803Y209213D02*
D03*
X-84803D02*
D03*
X-74803Y219213D02*
D03*
X-84803D02*
D03*
X-74803Y229213D02*
D03*
X-84803D02*
D03*
X-314803Y49213D02*
D03*
X-324803D02*
D03*
X-314803Y59213D02*
D03*
X-324803D02*
D03*
X-314803Y69213D02*
D03*
X-324803D02*
D03*
X-314803Y79213D02*
D03*
X-324803D02*
D03*
X-314803Y89213D02*
D03*
X-324803D02*
D03*
X-314803Y99213D02*
D03*
X-324803D02*
D03*
X-314803Y109213D02*
D03*
X-324803D02*
D03*
X-314803Y119213D02*
D03*
X-324803D02*
D03*
X-314803Y129213D02*
D03*
X-324803D02*
D03*
X-314803Y139213D02*
D03*
X-324803D02*
D03*
X-314803Y149213D02*
D03*
X-324803D02*
D03*
X-314803Y159213D02*
D03*
X-324803D02*
D03*
X-314803Y169213D02*
D03*
X-324803D02*
D03*
X-314803Y179213D02*
D03*
X-324803D02*
D03*
X-314803Y189213D02*
D03*
X-324803D02*
D03*
X-314803Y199213D02*
D03*
X-324803D02*
D03*
X-314803Y209213D02*
D03*
X-324803D02*
D03*
X-314803Y219213D02*
D03*
X-324803D02*
D03*
X-314803Y229213D02*
D03*
X-324803D02*
D03*
X-68425Y312992D02*
D03*
X-78425D02*
D03*
X-88425D02*
D03*
X-98425D02*
D03*
X-108425D02*
D03*
X-118425D02*
D03*
X-128425D02*
D03*
D33*
X-40000Y335000D02*
D03*
Y325000D02*
D03*
Y315000D02*
D03*
Y305000D02*
D03*
Y295000D02*
D03*
Y285000D02*
D03*
Y275000D02*
D03*
Y265000D02*
D03*
Y255000D02*
D03*
Y245000D02*
D03*
Y235000D02*
D03*
Y225000D02*
D03*
Y215000D02*
D03*
Y205000D02*
D03*
Y195000D02*
D03*
Y185000D02*
D03*
Y175000D02*
D03*
Y165000D02*
D03*
Y155000D02*
D03*
Y145000D02*
D03*
Y135000D02*
D03*
Y125000D02*
D03*
Y115000D02*
D03*
Y105000D02*
D03*
Y95000D02*
D03*
Y85000D02*
D03*
Y75000D02*
D03*
Y65000D02*
D03*
Y55000D02*
D03*
Y45000D02*
D03*
Y35000D02*
D03*
Y25000D02*
D03*
X-50000Y335000D02*
D03*
Y325000D02*
D03*
Y315000D02*
D03*
Y305000D02*
D03*
Y295000D02*
D03*
Y285000D02*
D03*
Y275000D02*
D03*
Y265000D02*
D03*
Y255000D02*
D03*
Y245000D02*
D03*
Y235000D02*
D03*
Y225000D02*
D03*
Y215000D02*
D03*
Y205000D02*
D03*
Y195000D02*
D03*
Y185000D02*
D03*
Y175000D02*
D03*
Y165000D02*
D03*
Y155000D02*
D03*
Y145000D02*
D03*
Y135000D02*
D03*
Y125000D02*
D03*
Y115000D02*
D03*
Y105000D02*
D03*
Y95000D02*
D03*
Y85000D02*
D03*
Y75000D02*
D03*
Y65000D02*
D03*
Y55000D02*
D03*
Y45000D02*
D03*
Y35000D02*
D03*
D34*
Y25000D02*
D03*
D35*
X-352362Y67087D02*
D03*
Y82677D02*
D03*
D36*
Y57087D02*
D03*
Y92677D02*
D03*
D37*
X-138425Y312992D02*
D03*
D38*
X-20000Y335000D02*
D03*
Y20000D02*
D03*
X-357520Y35000D02*
D03*
Y325000D02*
D03*
D39*
X-333849Y302140D02*
D03*
X-333125Y338195D02*
D03*
X-334696Y330209D02*
D03*
X-220995Y334296D02*
D03*
X-128000Y131628D02*
D03*
X-141732Y127953D02*
D03*
X-147638D02*
D03*
X-133858D02*
D03*
X-310134Y279613D02*
D03*
X-298608Y253689D02*
D03*
X-129921Y147638D02*
D03*
X-206693Y125984D02*
D03*
X-66929Y114173D02*
D03*
X-96457Y51181D02*
D03*
X-29179Y143966D02*
D03*
X-19685Y145669D02*
D03*
X-236232Y244094D02*
D03*
X-236221Y169291D02*
D03*
X-233431Y157754D02*
D03*
X-293307Y171260D02*
D03*
X-283465Y165354D02*
D03*
X-307996Y27559D02*
D03*
X-204724Y147638D02*
D03*
X-201444Y142933D02*
D03*
X-194882Y159449D02*
D03*
X-204724Y161417D02*
D03*
X-194414Y178796D02*
D03*
X-210630Y131890D02*
D03*
X-227172Y271433D02*
D03*
X-247540Y268071D02*
D03*
X-257473Y285501D02*
D03*
X-227409D02*
D03*
X-206693Y285433D02*
D03*
X-336614Y35433D02*
D03*
X-364173Y76772D02*
D03*
X-344488Y120079D02*
D03*
X-176027Y64581D02*
D03*
X-129912Y274531D02*
D03*
X-150827Y285433D02*
D03*
X-90827D02*
D03*
X-223500Y204724D02*
D03*
X-224476Y116075D02*
D03*
X-181997Y301181D02*
D03*
X-186133Y244094D02*
D03*
X-88583Y301181D02*
D03*
X-100394Y297244D02*
D03*
X-174241Y233297D02*
D03*
X-183071Y311024D02*
D03*
X-100937Y250302D02*
D03*
X-188976Y248031D02*
D03*
X-145669Y241216D02*
D03*
X-265748Y273622D02*
D03*
X-210630Y244094D02*
D03*
X-273654Y248016D02*
D03*
X-248031Y244094D02*
D03*
X-240158Y240158D02*
D03*
X-202756Y242126D02*
D03*
X-224410Y244094D02*
D03*
X-24945Y164366D02*
D03*
X-11613Y100728D02*
D03*
X-11811Y62992D02*
D03*
X-31496Y78740D02*
D03*
X-33346Y239930D02*
D03*
X-57087Y208661D02*
D03*
X-372659Y308926D02*
D03*
X-175197Y343547D02*
D03*
X-368081Y228346D02*
D03*
X-370079Y171260D02*
D03*
X-367201Y208661D02*
D03*
X-106299Y326772D02*
D03*
X-372047Y151575D02*
D03*
X-308364Y196850D02*
D03*
X-306364Y189340D02*
D03*
X-299213Y178796D02*
D03*
X-173422Y182084D02*
D03*
X-188658Y185584D02*
D03*
X-167323Y198819D02*
D03*
Y202756D02*
D03*
Y206693D02*
D03*
Y210630D02*
D03*
X-122047Y198819D02*
D03*
Y202756D02*
D03*
X-125984Y198819D02*
D03*
Y175197D02*
D03*
X-162476Y179134D02*
D03*
X-102362Y175197D02*
D03*
X-177165Y169291D02*
D03*
X-127953Y167323D02*
D03*
X-122047Y122047D02*
D03*
X-238189Y139764D02*
D03*
X-307087Y171260D02*
D03*
X-342520Y261811D02*
D03*
X-344488Y163386D02*
D03*
X-334646Y159449D02*
D03*
X-332677Y110236D02*
D03*
X-29528Y318898D02*
D03*
Y149606D02*
D03*
X-57087Y133858D02*
D03*
X-173228Y114173D02*
D03*
X-122047Y98425D02*
D03*
X-129921D02*
D03*
X-181102Y143701D02*
D03*
X-164476Y167323D02*
D03*
X-277559Y165354D02*
D03*
X-301181Y259839D02*
D03*
X-342520Y269685D02*
D03*
X-257874Y177165D02*
D03*
X-263779Y135827D02*
D03*
X-277559Y110236D02*
D03*
X-283465Y45276D02*
D03*
X-287116Y59374D02*
D03*
X-290478Y69054D02*
D03*
X-293457Y118164D02*
D03*
X-300377Y109130D02*
D03*
X-303255Y23622D02*
D03*
X-297244Y114173D02*
D03*
Y29528D02*
D03*
X-241130Y208661D02*
D03*
X-239130Y212598D02*
D03*
X-214343Y115995D02*
D03*
X-228346Y110236D02*
D03*
X-90204Y39252D02*
D03*
X-98425Y161417D02*
D03*
X-145669Y157480D02*
D03*
X-234186Y125918D02*
D03*
X-277801Y32555D02*
D03*
X-247525Y32585D02*
D03*
X-261372Y38265D02*
D03*
X-281496Y35433D02*
D03*
X-263779Y68898D02*
D03*
X-228346Y41339D02*
D03*
X-224410Y45276D02*
D03*
X-230382Y196916D02*
D03*
X-188976Y84646D02*
D03*
X-336614Y139764D02*
D03*
X-338457Y145669D02*
D03*
X-344488Y92520D02*
D03*
X-196850Y248031D02*
D03*
X-206693Y187008D02*
D03*
X-188976Y318898D02*
D03*
X-162833Y192446D02*
D03*
X-244094Y340551D02*
D03*
X-141732Y202756D02*
D03*
Y198819D02*
D03*
X-145669Y206693D02*
D03*
Y202756D02*
D03*
Y198819D02*
D03*
X-141732Y210630D02*
D03*
X-145669D02*
D03*
X-141732Y206693D02*
D03*
X-210630Y208661D02*
D03*
X-342520Y251969D02*
D03*
X-340520Y224410D02*
D03*
Y216535D02*
D03*
X-336614Y76772D02*
D03*
X-181102Y114173D02*
D03*
Y61024D02*
D03*
X-267717Y68898D02*
D03*
X-228346D02*
D03*
X-106299Y197000D02*
D03*
X-102628D02*
D03*
X-106299Y202756D02*
D03*
X-102362D02*
D03*
X-240158Y216535D02*
D03*
X-242126Y177165D02*
D03*
X-96457Y173228D02*
D03*
X-64961Y305118D02*
D03*
X-62992Y216535D02*
D03*
X-66929Y196850D02*
D03*
X-143701Y305118D02*
D03*
X-332677Y165354D02*
D03*
X-104395Y234153D02*
D03*
X-102362Y237311D02*
D03*
X-92520Y244429D02*
D03*
X-90551Y250078D02*
D03*
X-120079Y238189D02*
D03*
X-167323D02*
D03*
X-78740Y250000D02*
D03*
X-70866Y246063D02*
D03*
X-92520Y167323D02*
D03*
X-122047D02*
D03*
X-96457Y230315D02*
D03*
X-141732Y171260D02*
D03*
X-112205Y11024D02*
D03*
X-62992Y94488D02*
D03*
X-114173Y96457D02*
D03*
X-153543Y108268D02*
D03*
X-153445Y39370D02*
D03*
X-157480Y31496D02*
D03*
X-143701Y9843D02*
D03*
X-192913Y51181D02*
D03*
X-206693Y88583D02*
D03*
X-196850Y55118D02*
D03*
X-269685Y104331D02*
D03*
X-244094Y106299D02*
D03*
X-246063Y143701D02*
D03*
X-242126Y36342D02*
D03*
X-270595Y192913D02*
D03*
X-269685Y185039D02*
D03*
X-246063Y200787D02*
D03*
X-267717Y167323D02*
D03*
X-305118Y242126D02*
D03*
X-242126Y228346D02*
D03*
X-295276Y198819D02*
D03*
X-283465Y141732D02*
D03*
X-204724Y42323D02*
D03*
X-104245Y217087D02*
D03*
X-102362Y210630D02*
D03*
Y206693D02*
D03*
X-106299D02*
D03*
Y210630D02*
D03*
X-125984D02*
D03*
Y206693D02*
D03*
Y202756D02*
D03*
X-122047Y206693D02*
D03*
Y210630D02*
D03*
X-163386Y198819D02*
D03*
Y202756D02*
D03*
Y206693D02*
D03*
Y210630D02*
D03*
X-267717Y72835D02*
D03*
Y76772D02*
D03*
Y80709D02*
D03*
X-263779D02*
D03*
Y76772D02*
D03*
Y72835D02*
D03*
X-244094Y68898D02*
D03*
Y72835D02*
D03*
Y76772D02*
D03*
Y80709D02*
D03*
X-248031D02*
D03*
Y76772D02*
D03*
Y72835D02*
D03*
Y68898D02*
D03*
X-228346Y80709D02*
D03*
Y76772D02*
D03*
Y72835D02*
D03*
X-224410Y80709D02*
D03*
Y76772D02*
D03*
Y72835D02*
D03*
Y68898D02*
D03*
X-208661Y80709D02*
D03*
X-204724D02*
D03*
X-208661Y76772D02*
D03*
X-204724D02*
D03*
X-208661Y72835D02*
D03*
X-204724D02*
D03*
X-208661Y68898D02*
D03*
X-204724D02*
D03*
X-165354Y64961D02*
D03*
X-129921Y48228D02*
D03*
X-104331Y74803D02*
D03*
%TF.MD5,343485f59d03ddf096d38b2d1186ac8b*%
M02*
