G04*
G04 #@! TF.GenerationSoftware,Altium Limited,Altium Designer,23.1.1 (15)*
G04*
G04 Layer_Color=16711935*
%FSLAX25Y25*%
%MOIN*%
G70*
G04*
G04 #@! TF.SameCoordinates,134DEFD1-A11A-4816-9570-CA793B5A4A5F*
G04*
G04*
G04 #@! TF.FilePolarity,Positive*
G04*
G01*
G75*
%ADD14C,0.00394*%
%ADD15C,0.01000*%
D14*
X-340551Y354331D02*
X-214567D01*
D15*
X0Y342520D02*
X-40Y343495D01*
X-161Y344464D01*
X-361Y345419D01*
X-640Y346355D01*
X-995Y347264D01*
X-1424Y348141D01*
X-1923Y348980D01*
X-2490Y349774D01*
X-3121Y350519D01*
X-3812Y351209D01*
X-4557Y351840D01*
X-5351Y352408D01*
X-6190Y352907D01*
X-7067Y353336D01*
X-7976Y353691D01*
X-8912Y353969D01*
X-9867Y354170D01*
X-10836Y354290D01*
X-11811Y354331D01*
Y0D02*
X-10836Y40D01*
X-9867Y161D01*
X-8912Y361D01*
X-7976Y640D01*
X-7067Y995D01*
X-6190Y1424D01*
X-5351Y1923D01*
X-4557Y2490D01*
X-3812Y3121D01*
X-3121Y3812D01*
X-2490Y4557D01*
X-1923Y5351D01*
X-1424Y6190D01*
X-995Y7067D01*
X-640Y7976D01*
X-361Y8912D01*
X-161Y9867D01*
X-40Y10836D01*
X0Y11811D01*
X-366142Y354331D02*
X-367117Y354290D01*
X-368086Y354170D01*
X-369041Y353969D01*
X-369977Y353691D01*
X-370886Y353336D01*
X-371763Y352907D01*
X-372602Y352408D01*
X-373396Y351840D01*
X-374141Y351209D01*
X-374831Y350519D01*
X-375462Y349774D01*
X-376029Y348980D01*
X-376529Y348141D01*
X-376958Y347264D01*
X-377313Y346355D01*
X-377591Y345419D01*
X-377792Y344464D01*
X-377912Y343495D01*
X-377953Y342520D01*
Y11811D02*
X-377912Y10836D01*
X-377792Y9867D01*
X-377591Y8912D01*
X-377313Y7976D01*
X-376958Y7067D01*
X-376529Y6190D01*
X-376029Y5351D01*
X-375462Y4557D01*
X-374831Y3812D01*
X-374141Y3121D01*
X-373396Y2490D01*
X-372602Y1923D01*
X-371763Y1424D01*
X-370886Y995D01*
X-369977Y640D01*
X-369041Y361D01*
X-368086Y161D01*
X-367117Y40D01*
X-366142Y0D01*
X-11811D01*
X-366142Y354331D02*
X-11811D01*
X0Y11811D02*
Y342520D01*
X-377953Y11811D02*
Y342520D01*
X-302559Y362849D02*
Y357929D01*
X-300099D01*
X-299279Y358749D01*
Y359569D01*
X-300099Y360389D01*
X-302559D01*
X-300099D01*
X-299279Y361209D01*
Y362029D01*
X-300099Y362849D01*
X-302559D01*
X-296819Y357929D02*
X-295180D01*
X-294360Y358749D01*
Y360389D01*
X-295180Y361209D01*
X-296819D01*
X-297639Y360389D01*
Y358749D01*
X-296819Y357929D01*
X-291900Y361209D02*
X-290260D01*
X-289440Y360389D01*
Y357929D01*
X-291900D01*
X-292720Y358749D01*
X-291900Y359569D01*
X-289440D01*
X-287800Y361209D02*
Y357929D01*
Y359569D01*
X-286980Y360389D01*
X-286160Y361209D01*
X-285340D01*
X-279601Y362849D02*
Y357929D01*
X-282060D01*
X-282880Y358749D01*
Y360389D01*
X-282060Y361209D01*
X-279601D01*
X-269761Y362849D02*
X-273041D01*
Y357929D01*
X-269761D01*
X-273041Y360389D02*
X-271401D01*
X-264842Y362849D02*
Y357929D01*
X-267301D01*
X-268121Y358749D01*
Y360389D01*
X-267301Y361209D01*
X-264842D01*
X-261562Y356289D02*
X-260742D01*
X-259922Y357109D01*
Y361209D01*
X-262382D01*
X-263202Y360389D01*
Y358749D01*
X-262382Y357929D01*
X-259922D01*
X-255822D02*
X-257462D01*
X-258282Y358749D01*
Y360389D01*
X-257462Y361209D01*
X-255822D01*
X-255002Y360389D01*
Y359569D01*
X-258282D01*
M02*
