%TF.GenerationSoftware,Altium Limited,Altium Designer,23.1.1 (15)*%
G04 Layer_Physical_Order=4*
G04 Layer_Color=16711680*
%FSLAX25Y25*%
%MOIN*%
%TF.SameCoordinates,FA324DF6-1FC1-44E6-B842-7DB02DEBFDBB*%
%TF.FilePolarity,Positive*%
%TF.FileFunction,Copper,L4,Bot,Signal*%
%TF.Part,Single*%
G01*
G75*
%TA.AperFunction,Conductor*%
%ADD11C,0.01000*%
%ADD12C,0.01968*%
%ADD14C,0.02362*%
%ADD16C,0.02756*%
%TA.AperFunction,ComponentPad*%
%ADD17C,0.14488*%
%ADD18R,0.06299X0.06299*%
%ADD19C,0.06299*%
%ADD20R,0.06201X0.06201*%
%ADD21C,0.06201*%
%ADD22R,0.06102X0.06102*%
%ADD23C,0.06102*%
%ADD24R,0.07972X0.07972*%
%ADD25C,0.07972*%
%ADD26C,0.06496*%
%ADD27R,0.06496X0.06496*%
%ADD28R,0.06201X0.06201*%
%ADD29R,0.07244X0.07244*%
%ADD30C,0.07244*%
%ADD31R,0.06181X0.06181*%
%ADD32C,0.06181*%
%ADD33C,0.05610*%
%ADD34R,0.05610X0.05610*%
%ADD35R,0.07382X0.07382*%
%ADD36C,0.07382*%
%ADD37R,0.06181X0.06181*%
%TA.AperFunction,WasherPad*%
%ADD38C,0.25000*%
%TA.AperFunction,ViaPad*%
%ADD39C,0.02756*%
%TA.AperFunction,SMDPad,CuDef*%
%ADD40R,0.03543X0.03150*%
G04:AMPARAMS|DCode=41|XSize=21.65mil|YSize=49.21mil|CornerRadius=1.95mil|HoleSize=0mil|Usage=FLASHONLY|Rotation=270.000|XOffset=0mil|YOffset=0mil|HoleType=Round|Shape=RoundedRectangle|*
%AMROUNDEDRECTD41*
21,1,0.02165,0.04532,0,0,270.0*
21,1,0.01776,0.04921,0,0,270.0*
1,1,0.00390,-0.02266,-0.00888*
1,1,0.00390,-0.02266,0.00888*
1,1,0.00390,0.02266,0.00888*
1,1,0.00390,0.02266,-0.00888*
%
%ADD41ROUNDEDRECTD41*%
%ADD42R,0.02756X0.02756*%
%ADD43R,0.03150X0.03543*%
%ADD44R,0.03740X0.03150*%
%ADD45R,0.03150X0.03543*%
%ADD46R,0.03543X0.04134*%
G04:AMPARAMS|DCode=47|XSize=17.72mil|YSize=62.99mil|CornerRadius=1.95mil|HoleSize=0mil|Usage=FLASHONLY|Rotation=270.000|XOffset=0mil|YOffset=0mil|HoleType=Round|Shape=RoundedRectangle|*
%AMROUNDEDRECTD47*
21,1,0.01772,0.05909,0,0,270.0*
21,1,0.01382,0.06299,0,0,270.0*
1,1,0.00390,-0.02955,-0.00691*
1,1,0.00390,-0.02955,0.00691*
1,1,0.00390,0.02955,0.00691*
1,1,0.00390,0.02955,-0.00691*
%
%ADD47ROUNDEDRECTD47*%
%ADD48R,0.04724X0.04724*%
%ADD49R,0.05906X0.06299*%
%ADD50O,0.08268X0.02559*%
%ADD51R,0.05118X0.02362*%
%ADD52R,0.03394X0.02613*%
%ADD53R,0.06299X0.05512*%
%ADD54R,0.03937X0.03543*%
%ADD55R,0.03150X0.03150*%
%ADD56R,0.03150X0.03740*%
%ADD57R,0.04469X0.04182*%
%ADD58R,0.04952X0.03985*%
%ADD59R,0.04724X0.04724*%
%ADD60R,0.06299X0.05906*%
%ADD61R,0.03937X0.02953*%
%ADD62R,0.04134X0.03543*%
%ADD63R,0.03543X0.02953*%
%ADD64R,0.05512X0.06299*%
%ADD65R,0.04560X0.03985*%
%ADD66R,0.02613X0.03394*%
%ADD67R,0.03543X0.03150*%
%ADD68R,0.03150X0.03150*%
%ADD69R,0.05512X0.02362*%
%ADD70R,0.03543X0.03937*%
%ADD71R,0.04182X0.04469*%
%ADD72R,0.03765X0.04749*%
G36*
X-261811Y84646D02*
X-202756D01*
X-200787Y82677D01*
Y55118D01*
X-208661D01*
Y62992D01*
X-210630Y64961D01*
X-271654D01*
X-275590Y68898D01*
Y84646D01*
Y90551D01*
X-273903Y92238D01*
X-264342D01*
X-261811Y84646D01*
D02*
G37*
G36*
X-163386Y216535D02*
X-161417Y214567D01*
X-100394D01*
X-96457Y210630D01*
Y188976D01*
X-98425Y187008D01*
X-106299D01*
X-108268Y188976D01*
Y192913D01*
X-110236Y194882D01*
X-169291D01*
X-171260Y196850D01*
Y222441D01*
X-163386D01*
Y216535D01*
D02*
G37*
D11*
X-333849Y196380D02*
X-332091Y194622D01*
X-333849Y196380D02*
Y302140D01*
X-335378Y338377D02*
X-333308D01*
X-333125Y338195D01*
X-339858Y333896D02*
X-335378Y338377D01*
X-339858Y313491D02*
Y333896D01*
X-336614Y328058D02*
X-334696Y329976D01*
Y330209D01*
X-336614Y313076D02*
Y328058D01*
X-339858Y313491D02*
X-330709Y304342D01*
X-216535Y313557D02*
Y329836D01*
X-220995Y334296D02*
X-216535Y329836D01*
X-131538Y135167D02*
X-128000Y131628D01*
X-138555Y135167D02*
X-131538D01*
X-141732Y127478D02*
Y127953D01*
X-147638D02*
X-147561Y127876D01*
X-133858Y127478D02*
Y127953D01*
X-147561Y124601D02*
Y127876D01*
X-313812Y154713D02*
X-303255Y144156D01*
X-314803Y159213D02*
X-313812Y158221D01*
Y154713D02*
Y158221D01*
X-303255Y23622D02*
Y144156D01*
X-307996Y27559D02*
Y142405D01*
X-314803Y149213D02*
X-307996Y142405D01*
X-335555Y100160D02*
Y122453D01*
X-334608Y99213D02*
X-324803D01*
X-335555Y100160D02*
X-334608Y99213D01*
X-330709Y248642D02*
Y304342D01*
X-320213Y204622D02*
Y238146D01*
X-330709Y248642D02*
X-320213Y238146D01*
X-328709Y249572D02*
Y305170D01*
X-321631Y242494D02*
X-321592D01*
X-328709Y249572D02*
X-321631Y242494D01*
X-321592D02*
X-305486Y226387D01*
Y195658D02*
Y226387D01*
X-309978Y233707D02*
Y279457D01*
X-303486Y178998D02*
Y227216D01*
X-309978Y233707D02*
X-303486Y227216D01*
X-310134Y279613D02*
X-309978Y279457D01*
X-222756Y124331D02*
X-214420Y115995D01*
X-224756Y120426D02*
X-192913Y88583D01*
X-228346Y152687D02*
X-226756Y154278D01*
X-222756Y198932D02*
X-220622Y201066D01*
X-224756Y199760D02*
X-223500Y201016D01*
X-220756Y198103D02*
X-218535Y200324D01*
X-220756Y149032D02*
X-216535Y144812D01*
X-224756Y120426D02*
Y199760D01*
X-222756Y124331D02*
Y198932D01*
X-226756Y154278D02*
Y226605D01*
X-224410Y228952D01*
X-220756Y149032D02*
Y198103D01*
X-216535Y141732D02*
Y144812D01*
X-283342Y244680D02*
X-282756Y244094D01*
X-283342Y250567D02*
X-281989Y251921D01*
X-283342Y244680D02*
Y250567D01*
X-282756Y244094D02*
X-278268D01*
X-281989Y251921D02*
Y252346D01*
X-280398Y253937D02*
X-280254D01*
X-281989Y252346D02*
X-280398Y253937D01*
X-278268Y244094D02*
X-278051Y243878D01*
X-283295Y257003D02*
Y322237D01*
Y257003D02*
X-282940Y256649D01*
X-281989Y255528D02*
X-280398Y253937D01*
X-282940Y256623D02*
X-281989Y255671D01*
X-283295Y322237D02*
X-283012Y322520D01*
X-282940Y256623D02*
Y256649D01*
X-280398Y253937D02*
X-280254D01*
X-281989Y255528D02*
Y255671D01*
X-301486Y181407D02*
Y259534D01*
X-301181Y259839D01*
X-34847Y41551D02*
X-27968D01*
X-290354Y242126D02*
X-290280Y242051D01*
Y236806D02*
Y242051D01*
X-289694Y236221D02*
X-285433D01*
X-290280Y236806D02*
X-289694Y236221D01*
X-288386Y230315D02*
X-284790D01*
X-278159Y228986D02*
X-278051Y228878D01*
X-284790Y230315D02*
X-283461Y228986D01*
X-278159D01*
X-285846Y218878D02*
X-278051D01*
X-287205Y217520D02*
X-285846Y218878D01*
X-287402Y217520D02*
X-287205D01*
X-279889Y204724D02*
X-274302D01*
X-280474Y204139D02*
X-279889Y204724D01*
X-280474Y198856D02*
Y204139D01*
X-102362Y175197D02*
Y182230D01*
Y183071D01*
X-187816Y154484D02*
Y184267D01*
Y154484D02*
X-176453Y143121D01*
X-188658Y185109D02*
Y185584D01*
Y185109D02*
X-187816Y184267D01*
X-134740Y120181D02*
Y126596D01*
X-133858Y127478D01*
X-148147Y124016D02*
X-147561Y124601D01*
X-140922Y120253D02*
X-140748Y120079D01*
X-141732Y127478D02*
X-140922Y126668D01*
Y120253D02*
Y126668D01*
X-157087Y124016D02*
X-148147D01*
X-134843Y120079D02*
X-134740Y120181D01*
X-141732Y120079D02*
X-140748D01*
X-150495D02*
X-141732D01*
X-157087Y121457D02*
X-151873D01*
X-150495Y120079D01*
X-204724Y42323D02*
Y52165D01*
X-73721Y74622D02*
X-70213Y71114D01*
X-68232Y68898D02*
X-64961D01*
X-70213Y70878D02*
X-68232Y68898D01*
X-70213Y70878D02*
Y71114D01*
X-80213Y74622D02*
X-73721D01*
X-84803Y79213D02*
X-80213Y74622D01*
X-74803Y199213D02*
X-66929Y191339D01*
X-62992Y94488D02*
Y207801D01*
X-57840Y212953D01*
X-66929Y114173D02*
Y191339D01*
X-72518Y63803D02*
X-71706Y62992D01*
X-64961D01*
X-84803Y69213D02*
X-79394Y63803D01*
X-72518D01*
X-96457Y51181D02*
Y159316D01*
X-98425Y161284D02*
Y161417D01*
Y161284D02*
X-96457Y159316D01*
X-23672Y149617D02*
Y152587D01*
X-29179Y143966D02*
Y144110D01*
X-23672Y149617D01*
X-19685Y145669D02*
X-10157Y136141D01*
Y130235D02*
Y136141D01*
X-9843Y129921D02*
X-7874Y131890D01*
X-10157Y130235D02*
X-9843Y129921D01*
X-257308Y218804D02*
X-253657D01*
X-251005Y221457D01*
X-239207D01*
X-257382Y218878D02*
X-257308Y218804D01*
X-240158Y240158D02*
X-238621Y238621D01*
X-239207Y221457D02*
X-238621Y222042D01*
Y238621D01*
X-236221Y176172D02*
Y244083D01*
X-239098Y173294D02*
X-236221Y176172D01*
X-236232Y244094D02*
X-236221Y244083D01*
X-236252Y159550D02*
Y169260D01*
X-233354Y170495D02*
X-233343Y170483D01*
X-233354Y168088D02*
X-233343Y168099D01*
X-233354Y157831D02*
Y168088D01*
X-233431Y157754D02*
X-233354Y157831D01*
X-233343Y168099D02*
Y170483D01*
X-233354Y170495D02*
Y264717D01*
X-236252Y169260D02*
X-236221Y169291D01*
X-236708Y268071D02*
X-233354Y264717D01*
X-233431Y130742D02*
Y157754D01*
X-248031Y116142D02*
X-233431Y130742D01*
X-238094Y139858D02*
Y157708D01*
X-236252Y159550D01*
X-230346Y129890D02*
Y196880D01*
X-228346Y110236D02*
Y152687D01*
X-331470Y164622D02*
X-312849D01*
X-307423Y170049D01*
Y170924D01*
X-307087Y171260D01*
X-304528Y159449D02*
X-291339D01*
X-304299Y153310D02*
X-293443D01*
X-305118Y154129D02*
Y160039D01*
Y154129D02*
X-304299Y153310D01*
X-305118Y160039D02*
X-304528Y159449D01*
X-289370Y161417D02*
Y173228D01*
X-291339Y159449D02*
X-289370Y161417D01*
Y173228D02*
X-286811Y175787D01*
X-283465D01*
X-311119Y183803D02*
X-296993Y169678D01*
Y166695D02*
Y169678D01*
X-296083Y171596D02*
X-293643D01*
X-303486Y178998D02*
X-296083Y171596D01*
X-293643D02*
X-293307Y171260D01*
X-293443Y153310D02*
X-293404D01*
X-282449Y176231D02*
X-282154Y176526D01*
X-198819Y98425D02*
Y106264D01*
X-199104D02*
X-198141Y107227D01*
X-190601D01*
X-185828Y106691D02*
Y111619D01*
X-186221Y106299D02*
X-185828Y106691D01*
X-192328Y112205D02*
X-186414D01*
X-185828Y111619D01*
X-204794Y135897D02*
Y147568D01*
X-204724Y135827D02*
X-204589Y135692D01*
X-190994Y127867D02*
Y136026D01*
X-192287Y126575D02*
X-190994Y127867D01*
X-192287Y126575D02*
X-181102D01*
X-204589Y135692D02*
X-196592D01*
X-196457Y135827D01*
X-191672Y153543D02*
Y160690D01*
X-194882Y159449D02*
Y175193D01*
X-191672Y149606D02*
Y153543D01*
Y160690D02*
X-191536Y160826D01*
X-191672Y143590D02*
Y149606D01*
X-191536Y160826D02*
Y194613D01*
X-204724Y161417D02*
Y184906D01*
X-202756Y186875D02*
Y242126D01*
X-204724Y184906D02*
X-202756Y186875D01*
X-194882Y195131D02*
X-194414Y194663D01*
Y178796D02*
Y194663D01*
X-199728Y180040D02*
Y269733D01*
Y180040D02*
X-194882Y175193D01*
Y195131D02*
Y246063D01*
X-196736Y255476D02*
X-192882Y251621D01*
X-196850Y248031D02*
X-194882Y246063D01*
X-192882Y195959D02*
X-191536Y194613D01*
X-192882Y195959D02*
Y251621D01*
X-223386Y269683D02*
X-222441Y268738D01*
X-224947Y269683D02*
X-223386D01*
X-227172Y271433D02*
X-226697D01*
X-224947Y269683D01*
X-222441Y252101D02*
Y268738D01*
X-247540Y268071D02*
X-236708D01*
X-360917Y49620D02*
X-349401D01*
X-367051Y55753D02*
X-360917Y49620D01*
X-349401D02*
X-340551Y40769D01*
X-357682Y51646D02*
X-346921D01*
X-358268Y52232D02*
Y76772D01*
Y52232D02*
X-357682Y51646D01*
X-346921D02*
X-336614Y41339D01*
X-340551Y19827D02*
Y40769D01*
Y19827D02*
X-330985Y10262D01*
X-358268Y76772D02*
X-352362Y82677D01*
X-336614Y35433D02*
Y41339D01*
X-166903Y10262D02*
X-151065Y26100D01*
X-330985Y10262D02*
X-166903D01*
X-367051Y55753D02*
Y89785D01*
X-363650Y93186D01*
Y108798D01*
X-364173Y76772D02*
Y88583D01*
X-341335Y111421D01*
X-356756Y142032D02*
X-344488Y129764D01*
Y120079D02*
Y129764D01*
X-157480Y59429D02*
X-153856Y63054D01*
Y64912D02*
X-153002Y65766D01*
X-153856Y63054D02*
Y64912D01*
X-176110Y111295D02*
Y122592D01*
Y111295D02*
X-176110Y111295D01*
X-176110Y64664D02*
Y111295D01*
X-176110Y111295D02*
X-172036D01*
X-170350Y112981D01*
Y142676D01*
X-176110Y64664D02*
X-176027Y64581D01*
X-177446Y123843D02*
X-176210Y122607D01*
X-181102Y124016D02*
X-180929Y124189D01*
X-273654Y250961D02*
Y279237D01*
X-277559Y283143D02*
X-273654Y279237D01*
X-129921Y217810D02*
Y274522D01*
X-129912Y274531D01*
X-223500Y201016D02*
Y204724D01*
X-222441Y252101D02*
X-220622Y250283D01*
Y201066D02*
Y250283D01*
X-218535Y311557D02*
X-216535Y313557D01*
X-218535Y200324D02*
Y311557D01*
X-234186Y126051D02*
X-230346Y129890D01*
X-230382Y196916D02*
X-230346Y196880D01*
X-224410Y93106D02*
X-223607Y92303D01*
X-224410Y93106D02*
Y116009D01*
X-224476Y116075D02*
X-224410Y116009D01*
X-177120Y193860D02*
Y318303D01*
X-175197Y320226D01*
X-181255Y190736D02*
Y246149D01*
X-181997Y246892D02*
X-181255Y246149D01*
X-184875Y308758D02*
X-183071Y310563D01*
Y311024D01*
X-184875Y246941D02*
X-183255Y245321D01*
X-181997Y246892D02*
Y301181D01*
X-185039Y346457D02*
X-179120Y340537D01*
X-184875Y246941D02*
Y308758D01*
X-179120Y193032D02*
Y340537D01*
X-189011Y190007D02*
X-185780Y186776D01*
X-189011Y190007D02*
Y247997D01*
X-177446Y129134D02*
X-174016D01*
X-183255Y189908D02*
X-177165Y183818D01*
X-181102Y129134D02*
X-177446D01*
X-189011Y247997D02*
X-188976Y248031D01*
X-186133Y189957D02*
Y244094D01*
Y189957D02*
X-182305Y186130D01*
X-183255Y189908D02*
Y245321D01*
X-181255Y190736D02*
X-175165Y184647D01*
X-129921Y217810D02*
X-129335Y217224D01*
X-107165Y301181D02*
X-88583D01*
X-108425Y302441D02*
X-107165Y301181D01*
X-174591Y231833D02*
X-174577Y231847D01*
Y232961D01*
X-177120Y193860D02*
X-165354Y182095D01*
X-179120Y193032D02*
X-168350Y182263D01*
X-174577Y232961D02*
X-174241Y233297D01*
X-92520Y244429D02*
Y248031D01*
Y242126D02*
Y244429D01*
X-102362Y237311D02*
Y248401D01*
X-100937Y249826D01*
Y250302D01*
X-145669Y222810D02*
Y241216D01*
X-262060Y273622D02*
X-259842Y271405D01*
X-265748Y273622D02*
X-262060D01*
X-259842Y250673D02*
Y271405D01*
X-206693Y187008D02*
Y240158D01*
X-210630Y244094D02*
X-206693Y240158D01*
X-214567Y163386D02*
Y312697D01*
X-216535Y161417D02*
X-214567Y163386D01*
Y312697D02*
X-198524Y328740D01*
X-273654Y248016D02*
X-273606Y248063D01*
X-273654Y250961D02*
X-273606Y250914D01*
Y248063D02*
Y250914D01*
X-199529Y311173D02*
X-198524Y312179D01*
X-199529Y269932D02*
Y311173D01*
X-199728Y269733D02*
X-199529Y269932D01*
X-196736Y311138D02*
X-188976Y318898D01*
X-196736Y255476D02*
Y311138D01*
X-248031Y234767D02*
Y251969D01*
X-224410Y228952D02*
Y244094D01*
X-23672Y152587D02*
X-23475Y152784D01*
X-21654Y116574D02*
Y129921D01*
Y116574D02*
X-21566Y116487D01*
X-21803Y41569D02*
X-21684Y41450D01*
X-23676Y45796D02*
X-21803Y43923D01*
Y41569D02*
Y43923D01*
X-23676Y45796D02*
Y53096D01*
X-11811Y90551D02*
X-11613Y90749D01*
Y100728D01*
X-21286Y78882D02*
X-21144Y78740D01*
X-21286Y78882D02*
Y81352D01*
X-23622Y83687D02*
X-21286Y81352D01*
X-23622Y83687D02*
Y90551D01*
X-31496Y78740D02*
X-26100D01*
X-11811Y90551D02*
X-9843Y88583D01*
X-57840Y212953D02*
Y321777D01*
X-29528Y149606D02*
Y318898D01*
X-192913Y84513D02*
Y88583D01*
X-368081Y228346D02*
X-367606D01*
X-366676Y229276D01*
X-360320D01*
X-356756Y225712D01*
Y222839D02*
Y225712D01*
Y222839D02*
X-353181Y219264D01*
Y215701D02*
Y219264D01*
Y215701D02*
X-352205Y214724D01*
X-372959Y170070D02*
Y308626D01*
X-372659Y308926D01*
X-372959Y170070D02*
X-372047Y169158D01*
X-175197Y320226D02*
Y343547D01*
X-372047Y151575D02*
Y169158D01*
X-370959Y172615D02*
Y262899D01*
X-362205Y271654D01*
X-370959Y172615D02*
X-370079Y171735D01*
Y171260D02*
Y171735D01*
X-366756Y176610D02*
X-363192Y180173D01*
X-366756Y142032D02*
Y176610D01*
Y142032D02*
X-366457Y141732D01*
X-367201Y199298D02*
Y208661D01*
X-367335Y188725D02*
X-363334Y184724D01*
X-367335Y188725D02*
Y199164D01*
X-367201Y199298D01*
X-106299Y326772D02*
Y333858D01*
X-363334Y184724D02*
X-362205D01*
X-320213Y204622D02*
X-314803Y199213D01*
X-336614Y313076D02*
X-328709Y305170D01*
X-311009Y196514D02*
X-308700D01*
X-312902Y194622D02*
X-311009Y196514D01*
X-301486Y181407D02*
X-299213Y179134D01*
X-308700Y196514D02*
X-308364Y196850D01*
X-306364Y194780D02*
X-305486Y195658D01*
X-306364Y189340D02*
Y194780D01*
X-299213Y178796D02*
Y179134D01*
X-295276Y224464D02*
X-294690Y223878D01*
X-278051D01*
X-295276Y224464D02*
Y230315D01*
X-337056Y183803D02*
X-311119D01*
X-175165Y184303D02*
Y184647D01*
X-173422Y182084D02*
Y182560D01*
X-175165Y184303D02*
X-173422Y182560D01*
X-185780Y155277D02*
X-174453Y143950D01*
X-185780Y155277D02*
Y186776D01*
X-182305Y154630D02*
Y186130D01*
X-177165Y169291D02*
Y183818D01*
X-174591Y194276D02*
X-162539Y182224D01*
X-174591Y194276D02*
Y231833D01*
X-165354Y177942D02*
Y182095D01*
X-162539Y182224D02*
X-152953D01*
X-168350Y130089D02*
Y182263D01*
X-125984Y175197D02*
Y190945D01*
X-162476Y179134D02*
X-159541Y176199D01*
X-164836Y126575D02*
X-157087D01*
X-168350Y130089D02*
X-164836Y126575D01*
X-127953Y167323D02*
X-122047Y161417D01*
Y122047D02*
Y161417D01*
X-238189Y139764D02*
X-238094Y139858D01*
X-239098Y161637D02*
Y173294D01*
X-240094Y160641D02*
X-239098Y161637D01*
X-336562Y174622D02*
X-306379D01*
X-304209Y169945D02*
Y172452D01*
X-306379Y174622D02*
X-304209Y172452D01*
X-305118Y169035D02*
X-304209Y169945D01*
X-305118Y165650D02*
Y169035D01*
X-347398Y256933D02*
X-342520Y261811D01*
X-347398Y166295D02*
Y256933D01*
Y166295D02*
X-344488Y163386D01*
X-352205Y271654D02*
X-347358Y266807D01*
X-343446D02*
X-339642Y263003D01*
X-345398Y253161D02*
X-339642Y258916D01*
X-347358Y266807D02*
X-343446D01*
X-339642Y258916D02*
Y263003D01*
X-345398Y175257D02*
Y253161D01*
X-340520Y178580D02*
Y216535D01*
X-343398Y250615D02*
X-342520Y251493D01*
X-345398Y175257D02*
X-341335Y171194D01*
X-343398Y178629D02*
Y250615D01*
Y178629D02*
X-338457Y173688D01*
X-340520Y178580D02*
X-336562Y174622D01*
X-342520Y251493D02*
Y251969D01*
X-338457Y145669D02*
Y173688D01*
X-341335Y111421D02*
Y171194D01*
X-337555Y92663D02*
X-329315Y84423D01*
X-333736Y124272D02*
Y148318D01*
X-334646Y149227D02*
Y159449D01*
Y149227D02*
X-333736Y148318D01*
X-337555Y123282D02*
X-336614Y124223D01*
X-337555Y92663D02*
Y123282D01*
X-336614Y124223D02*
Y139764D01*
X-335555Y122453D02*
X-333736Y124272D01*
X-337642Y184389D02*
X-337056Y183803D01*
X-337642Y184389D02*
Y221532D01*
X-332677Y110236D02*
X-327063Y104622D01*
X-320213D01*
X-45695Y59305D02*
X-36019D01*
X-35433Y42137D02*
Y58719D01*
X-36019Y59305D02*
X-35433Y58719D01*
Y42137D02*
X-34847Y41551D01*
X-182305Y154630D02*
X-170350Y142676D01*
X-180929Y123843D02*
X-177446D01*
X-181102Y124016D02*
X-180929Y123843D01*
X-174016Y114961D02*
X-173228Y114173D01*
X-174016Y114961D02*
Y129134D01*
X-177446Y129307D02*
X-174453Y132300D01*
Y143950D01*
X-180929Y134425D02*
X-177446D01*
X-176453Y135418D02*
Y143121D01*
X-177446Y134425D02*
X-176453Y135418D01*
X-159541Y137197D02*
X-159155Y136811D01*
X-164476Y153281D02*
Y167323D01*
X-159155Y136811D02*
X-157087D01*
X-163354Y132279D02*
X-162768Y131693D01*
X-159541Y137197D02*
Y176199D01*
X-163354Y151575D02*
X-161598Y153331D01*
Y174186D01*
X-162768Y131693D02*
X-157087D01*
X-165354Y152403D02*
X-164476Y153281D01*
X-165354Y129921D02*
Y152403D01*
X-164567Y129134D02*
X-157087D01*
X-163354Y132279D02*
Y151575D01*
X-165354Y129921D02*
X-164567Y129134D01*
X-165354Y177942D02*
X-161598Y174186D01*
X-332091Y194622D02*
X-312902D01*
X-332677Y165354D02*
X-332202D01*
X-331470Y164622D01*
X-324512Y319188D02*
X-307189D01*
X-326772Y316929D02*
X-324512Y319188D01*
X-307189D02*
X-307087Y319291D01*
X-290317Y327169D02*
X-270180D01*
X-293917Y322520D02*
Y323569D01*
X-290317Y327169D01*
X-299370Y317067D02*
X-293917Y322520D01*
X-271716Y198800D02*
Y238799D01*
X-270776Y243004D02*
Y281274D01*
X-272106Y282605D02*
X-270776Y281274D01*
X-277559Y192957D02*
X-271716Y198800D01*
Y238799D02*
X-259842Y250673D01*
X-277559Y165354D02*
Y192957D01*
X-274311Y213878D02*
X-273716Y213283D01*
Y205310D02*
Y213283D01*
X-272106Y282605D02*
Y322520D01*
X-274302Y204724D02*
X-273716Y205310D01*
X-274701Y239078D02*
X-270776Y243004D01*
X-278051Y238878D02*
X-277851Y239078D01*
X-274701D01*
X-267717Y236221D02*
X-265059Y238878D01*
X-269717Y192913D02*
Y237433D01*
X-269717Y237847D02*
X-264751Y242936D01*
X-267717Y192913D02*
Y236221D01*
X-269717Y237433D02*
X-269717Y237847D01*
X-265059Y238878D02*
X-257382D01*
X-342520Y269685D02*
Y275000D01*
X-257874Y137662D02*
Y177165D01*
X-264038Y131498D02*
X-257874Y137662D01*
X-283465Y113198D02*
X-265164Y131498D01*
X-264038D01*
X-283465Y45276D02*
Y113198D01*
X-287116Y59374D02*
Y118396D01*
X-267717Y137795D01*
Y158863D01*
X-263616Y135990D02*
Y192104D01*
X-263779Y135827D02*
X-263616Y135990D01*
X-280438Y38460D02*
Y113396D01*
X-264336Y129498D02*
X-256196D01*
X-280438Y113396D02*
X-264336Y129498D01*
X-290478Y120689D02*
X-278861Y132305D01*
Y143863D01*
X-290478Y69054D02*
Y120689D01*
X-277680Y32676D02*
Y110115D01*
X-277801Y32555D02*
X-277680Y32676D01*
Y110115D02*
X-277559Y110236D01*
X-293457Y30221D02*
X-288827Y25591D01*
X-293457Y30221D02*
Y118164D01*
X-300377Y20018D02*
X-296378Y16018D01*
X-300377Y20018D02*
Y109130D01*
X-296378Y15748D02*
Y16018D01*
X-297244Y29528D02*
Y114173D01*
X-314834Y27432D02*
Y31172D01*
X-315158Y31496D02*
X-314834Y31172D01*
Y27432D02*
X-311024Y23622D01*
X-311024D01*
X-307643Y17013D02*
X-306378Y15748D01*
X-307643Y17013D02*
Y20242D01*
X-311024Y23622D02*
X-307643Y20242D01*
X-238794Y210396D02*
X-238252Y209854D01*
Y176969D02*
Y209854D01*
X-241993Y173228D02*
X-238252Y176969D01*
X-238794Y210396D02*
Y212263D01*
X-239130Y212598D02*
X-238794Y212263D01*
X-242094Y150066D02*
Y173228D01*
X-241993D01*
X-240094Y145599D02*
Y160641D01*
X-214420Y115995D02*
X-214343D01*
X-281445Y37452D02*
X-280438Y38460D01*
X-223607Y92303D02*
X-217126D01*
X-188976Y26176D02*
Y80576D01*
X-92570Y44321D02*
Y61446D01*
X-95199Y41692D02*
X-92570Y44321D01*
Y61446D02*
X-84803Y69213D01*
X-90204Y39252D02*
X-90074Y39382D01*
Y50433D02*
X-85795Y54713D01*
X-90074Y39382D02*
Y50433D01*
X-105946Y41692D02*
X-95199D01*
X-85795Y58221D02*
X-84803Y59213D01*
X-85795Y54713D02*
Y58221D01*
X-144578Y143808D02*
Y155914D01*
X-145669Y157005D02*
X-144578Y155914D01*
X-145669Y157005D02*
Y157480D01*
X-121538Y26100D02*
X-105946Y41692D01*
X-143701Y26100D02*
X-121538D01*
X-234186Y125918D02*
Y126051D01*
X-281496Y35433D02*
X-281445Y35484D01*
Y37452D01*
X-247525Y32585D02*
X-247329Y32782D01*
Y50217D01*
X-249415Y52303D02*
X-247329Y50217D01*
X-261811Y48920D02*
X-261372Y48482D01*
Y38265D02*
Y48482D01*
X-261811Y48920D02*
Y58661D01*
X-258169Y62303D01*
X-256196Y129498D02*
X-240094Y145599D01*
X-248031Y92889D02*
Y116142D01*
X-248617Y92303D02*
X-248031Y92889D01*
X-252756Y149449D02*
X-242712D01*
X-242094Y150066D01*
X-255315Y92303D02*
X-248617D01*
X-228346Y60919D02*
X-226963Y62303D01*
X-228346Y41339D02*
Y60919D01*
X-224512Y45378D02*
Y55779D01*
Y45378D02*
X-224410Y45276D01*
X-224512Y55779D02*
X-223026Y57266D01*
X-192913Y84513D02*
X-188976Y80576D01*
X-216535Y152362D02*
Y161417D01*
X-217323Y151575D02*
X-216535Y152362D01*
X-189562Y25591D02*
X-188976Y26176D01*
X-196913Y71335D02*
Y86677D01*
X-194913Y72163D02*
X-192913Y70163D01*
X-204711Y97303D02*
X-194913Y87506D01*
X-202539Y92303D02*
X-196913Y86677D01*
X-205792Y25591D02*
X-189562D01*
X-192913Y51181D02*
Y70163D01*
X-196850Y55118D02*
Y71272D01*
X-194913Y72163D02*
Y87506D01*
X-196913Y71335D02*
X-196850Y71272D01*
X-198819Y98425D02*
X-188976Y88583D01*
Y84646D02*
Y88583D01*
X-206378Y15748D02*
Y25005D01*
X-205792Y25591D01*
X-288827D02*
X-277559D01*
X-329315Y84423D02*
X-320013D01*
X-314803Y79213D01*
X-320213Y104622D02*
X-314803Y99213D01*
X-276378Y15748D02*
Y24409D01*
X-277559Y25591D02*
X-276378Y24409D01*
X-349028Y94285D02*
X-348629D01*
X-352362Y67087D02*
X-344488Y74961D01*
Y92520D01*
X-258169Y62303D02*
X-255315D01*
X-198524Y312179D02*
Y318740D01*
X-306501Y346457D02*
X-185039D01*
X-307087Y345871D02*
X-306501Y346457D01*
X-307087Y339567D02*
Y345871D01*
X-153195Y192467D02*
X-152953Y192224D01*
X-162813Y192467D02*
X-153195D01*
X-181102Y134252D02*
X-180929Y134425D01*
X-250000Y340551D02*
X-250000Y340551D01*
X-244094D01*
X-189961Y141535D02*
X-186940Y138515D01*
X-189961Y141535D02*
Y141929D01*
X-191672Y143590D02*
X-191086Y143004D01*
X-191035D02*
X-189961Y141929D01*
X-191086Y143004D02*
X-191035D01*
X-141732Y218504D02*
Y303017D01*
X-143701Y304985D02*
Y305118D01*
X-143012Y217224D02*
X-141732Y218504D01*
X-143701Y304985D02*
X-141732Y303017D01*
X-146255Y222224D02*
X-145669Y222810D01*
X-152953Y217224D02*
X-143012D01*
X-152953Y222224D02*
X-146255D01*
X-144942Y143443D02*
X-144578Y143808D01*
X-340520Y224410D02*
X-337642Y221532D01*
X-352362Y92677D02*
X-350635D01*
X-181102Y61024D02*
Y114173D01*
X-186940Y132476D02*
Y138515D01*
X-307087Y339567D02*
X-307087Y339567D01*
X-157087Y124016D02*
X-157087Y124016D01*
X-92488Y167354D02*
Y208020D01*
X-92520Y167323D02*
X-92488Y167354D01*
X-94488Y175197D02*
Y228346D01*
X-79394Y224622D02*
X-70866Y233150D01*
X-96457Y230315D02*
X-94488Y228346D01*
X-96457Y173228D02*
X-94488Y175197D01*
X-92488Y208020D02*
X-85886Y214622D01*
X-244094Y155512D02*
Y175064D01*
X-242126Y177032D02*
Y177165D01*
X-244094Y175064D02*
X-242126Y177032D01*
X-246094Y160035D02*
Y200756D01*
X-252756Y159449D02*
X-246680D01*
X-246094Y160035D01*
Y200756D02*
X-246063Y200787D01*
X-263030Y228878D02*
X-257382D01*
X-263616Y192104D02*
X-263616Y228292D01*
X-263030Y228878D01*
X-66929Y236894D02*
X-61847Y241977D01*
Y302004D01*
X-64961Y305118D02*
X-61847Y302004D01*
X-62992Y216535D02*
X-59847Y219681D01*
X-68425Y312992D02*
X-59847Y304413D01*
Y219681D02*
Y304413D01*
X-66929Y196850D02*
Y236894D01*
X-65709Y329646D02*
X-57840Y321777D01*
X-27968Y41551D02*
X-27756Y41339D01*
X-70866Y233150D02*
Y246063D01*
X-352205Y281653D02*
X-344350D01*
X-342815Y280118D01*
X-342520D01*
X-104395Y227623D02*
Y234153D01*
X-90551Y250000D02*
Y250078D01*
X-104395Y227623D02*
X-104331Y227559D01*
X-92520Y248031D02*
X-90551Y250000D01*
X-120398Y237870D02*
X-120079Y238189D01*
X-120398Y225004D02*
Y237870D01*
X-106299Y339370D02*
X-89370D01*
X-86614Y336614D01*
Y330551D02*
X-85709Y329646D01*
X-86614Y330551D02*
Y336614D01*
X-84803Y243937D02*
X-78740Y250000D01*
X-84803Y229213D02*
Y243937D01*
X-85886Y214622D02*
X-82902D01*
X-79394Y218130D02*
Y224622D01*
X-82902Y214622D02*
X-79394Y218130D01*
X-122047Y167323D02*
Y171260D01*
X-122047Y171260D02*
X-122047Y171260D01*
X-92488Y219090D02*
X-91902Y218504D01*
X-92488Y219090D02*
Y242094D01*
X-92520Y242126D02*
X-92488Y242094D01*
X-91902Y218504D02*
X-85512D01*
X-84803Y219213D01*
X-129335Y217224D02*
X-114764D01*
X-120398Y225004D02*
X-117618Y222224D01*
X-114764D01*
X-108425Y302441D02*
Y312992D01*
X-118425Y302480D02*
X-118110Y302165D01*
X-118425Y302480D02*
Y312992D01*
X-128425Y302638D02*
Y312992D01*
Y302638D02*
X-127953Y302165D01*
X-138425Y312992D02*
X-137795Y312362D01*
Y302165D02*
Y312362D01*
X-110933Y23925D02*
X-108571D01*
X-102362Y17717D02*
X-80231D01*
X-108571Y23925D02*
X-102362Y17717D01*
X-80231D02*
X-79646Y18302D01*
Y26654D01*
X-112205Y25197D02*
X-110933Y23925D01*
X-112205Y11024D02*
Y18898D01*
X-50000Y55000D02*
X-45695Y59305D01*
X-143701Y21144D02*
X-132399D01*
X-131890Y21654D01*
X-151065Y26100D02*
X-143701D01*
X-15708Y153546D02*
Y158861D01*
X-16298Y159451D02*
X-15708Y158861D01*
X-363192Y180173D02*
X-356756D01*
X-352205Y184724D01*
X-356756Y142032D02*
Y170173D01*
X-352205Y174724D01*
X-346457Y141732D02*
Y158976D01*
X-352205Y164724D02*
X-346457Y158976D01*
X-217126Y97303D02*
X-204711D01*
X-207168Y88583D02*
X-206693D01*
X-217126Y92303D02*
X-202539D01*
X-208448Y87303D02*
X-207168Y88583D01*
X-217126Y87303D02*
X-208448D01*
X-244094Y88583D02*
Y106299D01*
X-245158Y154449D02*
X-244094Y155512D01*
X-252756Y154449D02*
X-245158D01*
X-244094Y38444D02*
Y55118D01*
Y38444D02*
X-242126Y36476D01*
Y36342D02*
Y36476D01*
X-269685Y185039D02*
Y185172D01*
X-267717Y167323D02*
X-265616Y169423D01*
X-269685Y185172D02*
X-267717Y187141D01*
X-265616Y233292D02*
X-265031Y233878D01*
X-267717Y187141D02*
Y192913D01*
X-267717Y192913D01*
X-265616Y169423D02*
Y233292D01*
X-273622Y159449D02*
X-268302D01*
X-267717Y158863D01*
X-265031Y233878D02*
X-257382D01*
X-151718Y134425D02*
X-150316Y135827D01*
X-156913Y134425D02*
X-151718D01*
X-157087Y134252D02*
X-156913Y134425D01*
X-150316Y135827D02*
X-144942D01*
Y143443D01*
X-183366Y121457D02*
X-181102D01*
X-192913Y116142D02*
X-188681D01*
X-192913Y112791D02*
Y116142D01*
Y112791D02*
X-192328Y112205D01*
X-188681Y116142D02*
X-183366Y121457D01*
X-186157Y131693D02*
X-181102D01*
X-186940Y132476D02*
X-186157Y131693D01*
X-250000Y334646D02*
Y335629D01*
Y326772D02*
Y334646D01*
X-307087Y333661D02*
X-307087Y333661D01*
Y326378D02*
Y333661D01*
X-277559Y283143D02*
Y311339D01*
X-264751Y242936D02*
X-264172Y243516D01*
X-263809Y243878D01*
X-257382D01*
X-251969Y234181D02*
X-251383Y234767D01*
X-251969Y224464D02*
Y234181D01*
X-251383Y234767D02*
X-248031D01*
X-305118Y242126D02*
Y294685D01*
X-288465Y311339D01*
X-252554Y223878D02*
X-251969Y224464D01*
X-257382Y223878D02*
X-252554D01*
X-278051Y213878D02*
X-274311D01*
X-285650Y208878D02*
X-278051D01*
X-287402Y210630D02*
X-285650Y208878D01*
X-285433Y236221D02*
X-283090Y233878D01*
X-278051D01*
X-283465Y149606D02*
X-283465Y149606D01*
X-278276Y144449D02*
X-273622D01*
X-278861Y143863D02*
X-278276Y144449D01*
X-104331Y222441D02*
X-104245Y222356D01*
Y217087D02*
Y222356D01*
X-141732Y171260D02*
Y186639D01*
X-152953Y187224D02*
X-142318D01*
X-141732Y186639D01*
X-125984Y190945D02*
X-124705Y192224D01*
X-114764D01*
X-122047Y171260D02*
Y186639D01*
X-121461Y187224D01*
X-114764D01*
Y227224D02*
X-104665D01*
X-104331Y227559D01*
X-245374Y87303D02*
X-244094Y88583D01*
X-255315Y87303D02*
X-245374D01*
X-246280Y57303D02*
X-244094Y55118D01*
X-255315Y57303D02*
X-246280D01*
X-255315Y52303D02*
X-249415D01*
X-226963Y62303D02*
X-217126D01*
X-223026Y57266D02*
X-217164D01*
X-217126Y57303D01*
X-143701Y78937D02*
X-141248Y76484D01*
X-140223D02*
X-139637Y75898D01*
X-140223Y60492D02*
X-139637Y61078D01*
Y75898D01*
X-144291Y60492D02*
X-140223D01*
X-141248Y76484D02*
X-140223D01*
X-157480Y31496D02*
Y59429D01*
X-114173Y75394D02*
Y96457D01*
X-114764Y74803D02*
X-114173Y75394D01*
X-114764Y71078D02*
Y74803D01*
X-123425Y70492D02*
X-115350D01*
X-114764Y71078D01*
X-153543Y87200D02*
Y108268D01*
Y87200D02*
X-152957Y86614D01*
X-143154D01*
X-131858Y75318D01*
Y67350D02*
Y75318D01*
Y67350D02*
X-125000Y60492D01*
X-123425D01*
X-124016Y76968D02*
Y78357D01*
X-127681Y66078D02*
X-127095Y65492D01*
X-127681Y66078D02*
Y74691D01*
X-124710Y77663D02*
X-124016Y76968D01*
X-124710Y77663D02*
X-124016Y78357D01*
X-127095Y65492D02*
X-123425D01*
X-127681Y74691D02*
X-124710Y77663D01*
X-125984Y78937D02*
X-124710Y77663D01*
X-123425Y65492D02*
X-112736D01*
X-153445Y39370D02*
Y47244D01*
X-149294Y65766D02*
X-149021Y65492D01*
X-153002Y65766D02*
X-149294D01*
X-149021Y65492D02*
X-144291D01*
X-143701Y42323D02*
X-138780D01*
X-144291Y55492D02*
X-143701Y54901D01*
Y48229D02*
Y54901D01*
X-110236Y57087D02*
X-109161Y56012D01*
X-108853D02*
X-108268Y55426D01*
X-109161Y56012D02*
X-108853D01*
X-108268Y46870D02*
Y55426D01*
X-112815Y42323D02*
X-108268Y46870D01*
X-116142Y49798D02*
Y59906D01*
X-116727Y60492D02*
X-116142Y59906D01*
X-123425Y60492D02*
X-116727D01*
X-116142Y49798D02*
X-115556Y49213D01*
X-112303D01*
X-153445Y60438D02*
X-152859Y61024D01*
X-153445Y57087D02*
Y60438D01*
X-144823Y61024D02*
X-144291Y60492D01*
X-152859Y61024D02*
X-144823D01*
X-150648Y48171D02*
X-149606Y49213D01*
Y54906D01*
X-149021Y55492D01*
X-144291D01*
X-152518Y48171D02*
X-150648D01*
X-153445Y47244D02*
X-152518Y48171D01*
X-138779Y42323D02*
X-137795D01*
X-138780Y42323D02*
X-138779Y42323D01*
X-327953Y17323D02*
X-326378Y15748D01*
X-327953Y17323D02*
Y27559D01*
X-320280Y23622D02*
X-316964D01*
X-316378Y15748D02*
Y23036D01*
X-316964Y23622D02*
X-316378Y23036D01*
X-320866Y24208D02*
Y33465D01*
Y24208D02*
X-320280Y23622D01*
X-322835Y35433D02*
X-320866Y33465D01*
X-327953Y35433D02*
X-322835D01*
X-122047Y42323D02*
X-112815D01*
X-266653Y311339D02*
Y323642D01*
X-270180Y327169D02*
X-266653Y323642D01*
X-299370Y311339D02*
Y317067D01*
X-250000Y335630D02*
X-250000Y335629D01*
X-251272Y318413D02*
X-250000Y319685D01*
X-251272Y315815D02*
Y318413D01*
X-255748Y311339D02*
X-251272Y315815D01*
X-112736Y65492D02*
X-112205Y64961D01*
D12*
X-298608Y253689D02*
X-298461Y253835D01*
X-286776D01*
X-296260Y242126D02*
Y242323D01*
X-297047Y242913D02*
X-296850D01*
X-298608Y244474D02*
Y253689D01*
X-296850Y242913D02*
X-296260Y242323D01*
X-298608Y244474D02*
X-297047Y242913D01*
X-249902Y213878D02*
X-248228Y215551D01*
X-241355D01*
X-257382Y213878D02*
X-249902D01*
X-241355Y215551D02*
X-240371Y216535D01*
X-240158D01*
X-210630Y152756D02*
X-210134Y153252D01*
X-211811Y151575D02*
X-210630Y152756D01*
Y131890D02*
Y141732D01*
X-130134Y147638D02*
X-129921D01*
X-138779Y145669D02*
X-132103D01*
X-130134Y147638D01*
X-206693Y125984D02*
X-206480D01*
X-205654Y126810D01*
X-198654D01*
X-210630Y110236D02*
X-207282Y106888D01*
X-204813D01*
X-204222Y106298D01*
Y106264D02*
Y106298D01*
X-199809Y144569D02*
X-195805D01*
X-201444Y142933D02*
X-199809Y144569D01*
X-210134Y153252D02*
X-198384D01*
X-198092Y153543D01*
X-210630Y110236D02*
Y131890D01*
X-108268Y297244D02*
X-108150D01*
X-118110D02*
X-108268D01*
X-108150D02*
X-100394D01*
X-24959Y162207D02*
Y164352D01*
Y162207D02*
X-22204Y159451D01*
X-24959Y164352D02*
X-24945Y164366D01*
X-33346Y116356D02*
X-28011D01*
X-27881Y116487D02*
X-27876Y116486D01*
X-11811Y53150D02*
Y62992D01*
X-57087Y133858D02*
Y208661D01*
Y62087D02*
Y133858D01*
X-122047Y91732D02*
Y98425D01*
Y87200D02*
Y91732D01*
X-181102Y143488D02*
Y143701D01*
Y143488D02*
X-178937Y141322D01*
X-122633Y86614D02*
X-122047Y87200D01*
X-139178Y86614D02*
X-122633D01*
X-210630Y152756D02*
Y208661D01*
X-211811Y142520D02*
Y151575D01*
Y142520D02*
X-211024Y141732D01*
X-178937Y136909D02*
Y141322D01*
X-127953Y297244D02*
X-118110D01*
X-137795D02*
X-127953D01*
X-108150D02*
X-108150Y297244D01*
X-57087Y62087D02*
X-50000Y55000D01*
X-143701Y9843D02*
X-131890D01*
X-198844Y116331D02*
Y126621D01*
X-199033Y116142D02*
X-198844Y116331D01*
Y126621D02*
X-198654Y126810D01*
X-295276Y198819D02*
X-287402D01*
X-129921Y48228D02*
X-122047D01*
X-137795D02*
X-129921D01*
X-161516Y57087D02*
Y57579D01*
Y47244D02*
Y57087D01*
X-162414Y58477D02*
X-161516Y57579D01*
X-165204Y60774D02*
Y64810D01*
X-162906Y58477D02*
X-162414D01*
X-165204Y60774D02*
X-162906Y58477D01*
X-165141Y64961D02*
X-164336Y65766D01*
X-158120D01*
X-165354Y64961D02*
X-165141D01*
X-165354D02*
X-165204Y64810D01*
X-158071Y66929D02*
Y69906D01*
X-139764Y87200D02*
Y91732D01*
Y87200D02*
X-139178Y86614D01*
X-145669Y98425D02*
X-129921D01*
X-147638Y96457D02*
X-145669Y98425D01*
X-147638Y91732D02*
Y96457D01*
X-129921Y91732D02*
Y98425D01*
X-109646Y74803D02*
X-104331D01*
X-104232Y49213D02*
Y64862D01*
X-104134Y64961D02*
Y68701D01*
X-104232Y64862D02*
X-104134Y64961D01*
X-109060Y70866D02*
X-106299D01*
X-109646Y71452D02*
Y74803D01*
Y71452D02*
X-109060Y70866D01*
X-106299D02*
X-104134Y68701D01*
X-158071Y69906D02*
X-157485Y70492D01*
X-144291D01*
X-123425Y52559D02*
X-122047Y51181D01*
X-123425Y52559D02*
Y55492D01*
X-122047Y48228D02*
Y51181D01*
D14*
X-252947Y208878D02*
X-252179Y209646D01*
X-248031D01*
X-257382Y208878D02*
X-252947D01*
X-283465Y155886D02*
X-283312Y155734D01*
X-283465Y155886D02*
Y165354D01*
X-283312Y155734D02*
X-283115D01*
X-281830Y154449D02*
X-273622D01*
X-283115Y155734D02*
X-281830Y154449D01*
X-111856Y182224D02*
X-111133Y182948D01*
X-102485D01*
X-102362Y183071D01*
X-114764Y182224D02*
X-111856D01*
X-301101Y148505D02*
X-293523D01*
X-293443Y148585D01*
X-301181Y148425D02*
X-301101Y148505D01*
X-283465Y165354D02*
X-283465Y165354D01*
X-283465Y165354D02*
Y170669D01*
X-33346Y116356D02*
Y239930D01*
Y114603D02*
Y116356D01*
X-167323Y238082D02*
Y238189D01*
Y238082D02*
X-166791Y237551D01*
Y231822D02*
Y237551D01*
X-167323Y226086D02*
Y231291D01*
X-166791Y231822D01*
X-50000Y105000D02*
X-45007Y109993D01*
X-37956D02*
X-33346Y114603D01*
X-45007Y109993D02*
X-37956D01*
X-269685Y97303D02*
X-255315D01*
X-269685D02*
Y104331D01*
Y96457D02*
Y97303D01*
X-246918Y144449D02*
X-246169Y143701D01*
X-246063D01*
X-252756Y144449D02*
X-246918D01*
X-283465Y141732D02*
Y149606D01*
X-283307Y149449D02*
X-273622D01*
X-292127Y149606D02*
X-283465D01*
X-152990Y227187D02*
X-152953Y227224D01*
X-166222Y227187D02*
X-152990D01*
X-167323Y226086D02*
X-166222Y227187D01*
X-217126Y52303D02*
X-205847D01*
D16*
X-248031Y209646D02*
X-242114D01*
X-241130Y208661D01*
X-242126Y228346D02*
X-242126Y228346D01*
X-248031Y228346D02*
X-242126D01*
D17*
X-326772Y316929D02*
D03*
X-228346D02*
D03*
D18*
X-299370Y311339D02*
D03*
D19*
X-255748D02*
D03*
X-266653D02*
D03*
X-277559D02*
D03*
X-288465D02*
D03*
X-261201Y322520D02*
D03*
X-272106D02*
D03*
X-283012D02*
D03*
X-293917D02*
D03*
D20*
X-318898Y289528D02*
D03*
D21*
Y279528D02*
D03*
Y269528D02*
D03*
Y259528D02*
D03*
X-363650Y108798D02*
D03*
D22*
X-352205Y241653D02*
D03*
Y164724D02*
D03*
D23*
Y251654D02*
D03*
Y261653D02*
D03*
Y271654D02*
D03*
Y281653D02*
D03*
Y291653D02*
D03*
Y301654D02*
D03*
X-362205Y241653D02*
D03*
Y251654D02*
D03*
Y261653D02*
D03*
Y271654D02*
D03*
Y281653D02*
D03*
Y291653D02*
D03*
Y301654D02*
D03*
X-352205Y174724D02*
D03*
Y184724D02*
D03*
Y194724D02*
D03*
Y204724D02*
D03*
Y214724D02*
D03*
Y224724D02*
D03*
X-362205Y164724D02*
D03*
Y174724D02*
D03*
Y184724D02*
D03*
Y194724D02*
D03*
Y204724D02*
D03*
Y214724D02*
D03*
Y224724D02*
D03*
D24*
X-326378Y15748D02*
D03*
D25*
X-316378D02*
D03*
X-306378D02*
D03*
X-296378D02*
D03*
X-286378D02*
D03*
X-276378D02*
D03*
X-266378D02*
D03*
X-256378D02*
D03*
X-246378D02*
D03*
X-236378D02*
D03*
X-226378D02*
D03*
X-216378D02*
D03*
X-206378D02*
D03*
X-196378D02*
D03*
X-186378D02*
D03*
X-176378D02*
D03*
D26*
X-65709Y329646D02*
D03*
X-75709D02*
D03*
X-85709D02*
D03*
X-79646Y26654D02*
D03*
X-89646D02*
D03*
X-99646D02*
D03*
D27*
X-95709Y329646D02*
D03*
X-69646Y26654D02*
D03*
D28*
X-353650Y108798D02*
D03*
D29*
X-346457Y141732D02*
D03*
D30*
X-356457D02*
D03*
X-366457D02*
D03*
D31*
X-165354Y338740D02*
D03*
X-198524D02*
D03*
D32*
X-165354Y328740D02*
D03*
Y318740D02*
D03*
X-198524Y328740D02*
D03*
Y318740D02*
D03*
X-74803Y49213D02*
D03*
X-84803D02*
D03*
X-74803Y59213D02*
D03*
X-84803D02*
D03*
X-74803Y69213D02*
D03*
X-84803D02*
D03*
X-74803Y79213D02*
D03*
X-84803D02*
D03*
X-74803Y89213D02*
D03*
X-84803D02*
D03*
X-74803Y99213D02*
D03*
X-84803D02*
D03*
X-74803Y109213D02*
D03*
X-84803D02*
D03*
X-74803Y119213D02*
D03*
X-84803D02*
D03*
X-74803Y129213D02*
D03*
X-84803D02*
D03*
X-74803Y139213D02*
D03*
X-84803D02*
D03*
X-74803Y149213D02*
D03*
X-84803D02*
D03*
X-74803Y159213D02*
D03*
X-84803D02*
D03*
X-74803Y169213D02*
D03*
X-84803D02*
D03*
X-74803Y179213D02*
D03*
X-84803D02*
D03*
X-74803Y189213D02*
D03*
X-84803D02*
D03*
X-74803Y199213D02*
D03*
X-84803D02*
D03*
X-74803Y209213D02*
D03*
X-84803D02*
D03*
X-74803Y219213D02*
D03*
X-84803D02*
D03*
X-74803Y229213D02*
D03*
X-84803D02*
D03*
X-314803Y49213D02*
D03*
X-324803D02*
D03*
X-314803Y59213D02*
D03*
X-324803D02*
D03*
X-314803Y69213D02*
D03*
X-324803D02*
D03*
X-314803Y79213D02*
D03*
X-324803D02*
D03*
X-314803Y89213D02*
D03*
X-324803D02*
D03*
X-314803Y99213D02*
D03*
X-324803D02*
D03*
X-314803Y109213D02*
D03*
X-324803D02*
D03*
X-314803Y119213D02*
D03*
X-324803D02*
D03*
X-314803Y129213D02*
D03*
X-324803D02*
D03*
X-314803Y139213D02*
D03*
X-324803D02*
D03*
X-314803Y149213D02*
D03*
X-324803D02*
D03*
X-314803Y159213D02*
D03*
X-324803D02*
D03*
X-314803Y169213D02*
D03*
X-324803D02*
D03*
X-314803Y179213D02*
D03*
X-324803D02*
D03*
X-314803Y189213D02*
D03*
X-324803D02*
D03*
X-314803Y199213D02*
D03*
X-324803D02*
D03*
X-314803Y209213D02*
D03*
X-324803D02*
D03*
X-314803Y219213D02*
D03*
X-324803D02*
D03*
X-314803Y229213D02*
D03*
X-324803D02*
D03*
X-68425Y312992D02*
D03*
X-78425D02*
D03*
X-88425D02*
D03*
X-98425D02*
D03*
X-108425D02*
D03*
X-118425D02*
D03*
X-128425D02*
D03*
D33*
X-40000Y335000D02*
D03*
Y325000D02*
D03*
Y315000D02*
D03*
Y305000D02*
D03*
Y295000D02*
D03*
Y285000D02*
D03*
Y275000D02*
D03*
Y265000D02*
D03*
Y255000D02*
D03*
Y245000D02*
D03*
Y235000D02*
D03*
Y225000D02*
D03*
Y215000D02*
D03*
Y205000D02*
D03*
Y195000D02*
D03*
Y185000D02*
D03*
Y175000D02*
D03*
Y165000D02*
D03*
Y155000D02*
D03*
Y145000D02*
D03*
Y135000D02*
D03*
Y125000D02*
D03*
Y115000D02*
D03*
Y105000D02*
D03*
Y95000D02*
D03*
Y85000D02*
D03*
Y75000D02*
D03*
Y65000D02*
D03*
Y55000D02*
D03*
Y45000D02*
D03*
Y35000D02*
D03*
Y25000D02*
D03*
X-50000Y335000D02*
D03*
Y325000D02*
D03*
Y315000D02*
D03*
Y305000D02*
D03*
Y295000D02*
D03*
Y285000D02*
D03*
Y275000D02*
D03*
Y265000D02*
D03*
Y255000D02*
D03*
Y245000D02*
D03*
Y235000D02*
D03*
Y225000D02*
D03*
Y215000D02*
D03*
Y205000D02*
D03*
Y195000D02*
D03*
Y185000D02*
D03*
Y175000D02*
D03*
Y165000D02*
D03*
Y155000D02*
D03*
Y145000D02*
D03*
Y135000D02*
D03*
Y125000D02*
D03*
Y115000D02*
D03*
Y105000D02*
D03*
Y95000D02*
D03*
Y85000D02*
D03*
Y75000D02*
D03*
Y65000D02*
D03*
Y55000D02*
D03*
Y45000D02*
D03*
Y35000D02*
D03*
D34*
Y25000D02*
D03*
D35*
X-352362Y67087D02*
D03*
Y82677D02*
D03*
D36*
Y57087D02*
D03*
Y92677D02*
D03*
D37*
X-138425Y312992D02*
D03*
D38*
X-20000Y335000D02*
D03*
Y20000D02*
D03*
X-357520Y35000D02*
D03*
Y325000D02*
D03*
D39*
X-333849Y302140D02*
D03*
X-333125Y338195D02*
D03*
X-334696Y330209D02*
D03*
X-220995Y334296D02*
D03*
X-128000Y131628D02*
D03*
X-141732Y127953D02*
D03*
X-147638D02*
D03*
X-133858D02*
D03*
X-310134Y279613D02*
D03*
X-298608Y253689D02*
D03*
X-129921Y147638D02*
D03*
X-206693Y125984D02*
D03*
X-66929Y114173D02*
D03*
X-96457Y51181D02*
D03*
X-29179Y143966D02*
D03*
X-19685Y145669D02*
D03*
X-236232Y244094D02*
D03*
X-236221Y169291D02*
D03*
X-233431Y157754D02*
D03*
X-293307Y171260D02*
D03*
X-283465Y165354D02*
D03*
X-307996Y27559D02*
D03*
X-204724Y147638D02*
D03*
X-201444Y142933D02*
D03*
X-194882Y159449D02*
D03*
X-204724Y161417D02*
D03*
X-194414Y178796D02*
D03*
X-210630Y131890D02*
D03*
X-227172Y271433D02*
D03*
X-247540Y268071D02*
D03*
X-257473Y285501D02*
D03*
X-227409D02*
D03*
X-206693Y285433D02*
D03*
X-336614Y35433D02*
D03*
X-364173Y76772D02*
D03*
X-344488Y120079D02*
D03*
X-176027Y64581D02*
D03*
X-129912Y274531D02*
D03*
X-150827Y285433D02*
D03*
X-90827D02*
D03*
X-223500Y204724D02*
D03*
X-224476Y116075D02*
D03*
X-181997Y301181D02*
D03*
X-186133Y244094D02*
D03*
X-88583Y301181D02*
D03*
X-100394Y297244D02*
D03*
X-174241Y233297D02*
D03*
X-183071Y311024D02*
D03*
X-100937Y250302D02*
D03*
X-188976Y248031D02*
D03*
X-145669Y241216D02*
D03*
X-265748Y273622D02*
D03*
X-210630Y244094D02*
D03*
X-273654Y248016D02*
D03*
X-248031Y244094D02*
D03*
X-240158Y240158D02*
D03*
X-202756Y242126D02*
D03*
X-224410Y244094D02*
D03*
X-24945Y164366D02*
D03*
X-11613Y100728D02*
D03*
X-11811Y62992D02*
D03*
X-31496Y78740D02*
D03*
X-33346Y239930D02*
D03*
X-57087Y208661D02*
D03*
X-372659Y308926D02*
D03*
X-175197Y343547D02*
D03*
X-368081Y228346D02*
D03*
X-370079Y171260D02*
D03*
X-367201Y208661D02*
D03*
X-106299Y326772D02*
D03*
X-372047Y151575D02*
D03*
X-308364Y196850D02*
D03*
X-306364Y189340D02*
D03*
X-299213Y178796D02*
D03*
X-173422Y182084D02*
D03*
X-188658Y185584D02*
D03*
X-167323Y198819D02*
D03*
Y202756D02*
D03*
Y206693D02*
D03*
Y210630D02*
D03*
X-122047Y198819D02*
D03*
Y202756D02*
D03*
X-125984Y198819D02*
D03*
Y175197D02*
D03*
X-162476Y179134D02*
D03*
X-102362Y175197D02*
D03*
X-177165Y169291D02*
D03*
X-127953Y167323D02*
D03*
X-122047Y122047D02*
D03*
X-238189Y139764D02*
D03*
X-307087Y171260D02*
D03*
X-342520Y261811D02*
D03*
X-344488Y163386D02*
D03*
X-334646Y159449D02*
D03*
X-332677Y110236D02*
D03*
X-29528Y318898D02*
D03*
Y149606D02*
D03*
X-57087Y133858D02*
D03*
X-173228Y114173D02*
D03*
X-122047Y98425D02*
D03*
X-129921D02*
D03*
X-181102Y143701D02*
D03*
X-164476Y167323D02*
D03*
X-277559Y165354D02*
D03*
X-301181Y259839D02*
D03*
X-342520Y269685D02*
D03*
X-257874Y177165D02*
D03*
X-263779Y135827D02*
D03*
X-277559Y110236D02*
D03*
X-283465Y45276D02*
D03*
X-287116Y59374D02*
D03*
X-290478Y69054D02*
D03*
X-293457Y118164D02*
D03*
X-300377Y109130D02*
D03*
X-303255Y23622D02*
D03*
X-297244Y114173D02*
D03*
Y29528D02*
D03*
X-241130Y208661D02*
D03*
X-239130Y212598D02*
D03*
X-214343Y115995D02*
D03*
X-228346Y110236D02*
D03*
X-90204Y39252D02*
D03*
X-98425Y161417D02*
D03*
X-145669Y157480D02*
D03*
X-234186Y125918D02*
D03*
X-277801Y32555D02*
D03*
X-247525Y32585D02*
D03*
X-261372Y38265D02*
D03*
X-281496Y35433D02*
D03*
X-263779Y68898D02*
D03*
X-228346Y41339D02*
D03*
X-224410Y45276D02*
D03*
X-230382Y196916D02*
D03*
X-188976Y84646D02*
D03*
X-336614Y139764D02*
D03*
X-338457Y145669D02*
D03*
X-344488Y92520D02*
D03*
X-196850Y248031D02*
D03*
X-206693Y187008D02*
D03*
X-188976Y318898D02*
D03*
X-162833Y192446D02*
D03*
X-244094Y340551D02*
D03*
X-141732Y202756D02*
D03*
Y198819D02*
D03*
X-145669Y206693D02*
D03*
Y202756D02*
D03*
Y198819D02*
D03*
X-141732Y210630D02*
D03*
X-145669D02*
D03*
X-141732Y206693D02*
D03*
X-210630Y208661D02*
D03*
X-342520Y251969D02*
D03*
X-340520Y224410D02*
D03*
Y216535D02*
D03*
X-336614Y76772D02*
D03*
X-181102Y114173D02*
D03*
Y61024D02*
D03*
X-267717Y68898D02*
D03*
X-228346D02*
D03*
X-106299Y197000D02*
D03*
X-102628D02*
D03*
X-106299Y202756D02*
D03*
X-102362D02*
D03*
X-240158Y216535D02*
D03*
X-242126Y177165D02*
D03*
X-96457Y173228D02*
D03*
X-64961Y305118D02*
D03*
X-62992Y216535D02*
D03*
X-66929Y196850D02*
D03*
X-143701Y305118D02*
D03*
X-332677Y165354D02*
D03*
X-104395Y234153D02*
D03*
X-102362Y237311D02*
D03*
X-92520Y244429D02*
D03*
X-90551Y250078D02*
D03*
X-120079Y238189D02*
D03*
X-167323D02*
D03*
X-78740Y250000D02*
D03*
X-70866Y246063D02*
D03*
X-92520Y167323D02*
D03*
X-122047D02*
D03*
X-96457Y230315D02*
D03*
X-141732Y171260D02*
D03*
X-112205Y11024D02*
D03*
X-62992Y94488D02*
D03*
X-114173Y96457D02*
D03*
X-153543Y108268D02*
D03*
X-153445Y39370D02*
D03*
X-157480Y31496D02*
D03*
X-143701Y9843D02*
D03*
X-192913Y51181D02*
D03*
X-206693Y88583D02*
D03*
X-196850Y55118D02*
D03*
X-269685Y104331D02*
D03*
X-244094Y106299D02*
D03*
X-246063Y143701D02*
D03*
X-242126Y36342D02*
D03*
X-270595Y192913D02*
D03*
X-269685Y185039D02*
D03*
X-246063Y200787D02*
D03*
X-267717Y167323D02*
D03*
X-305118Y242126D02*
D03*
X-242126Y228346D02*
D03*
X-295276Y198819D02*
D03*
X-283465Y141732D02*
D03*
X-204724Y42323D02*
D03*
X-104245Y217087D02*
D03*
X-102362Y210630D02*
D03*
Y206693D02*
D03*
X-106299D02*
D03*
Y210630D02*
D03*
X-125984D02*
D03*
Y206693D02*
D03*
Y202756D02*
D03*
X-122047Y206693D02*
D03*
Y210630D02*
D03*
X-163386Y198819D02*
D03*
Y202756D02*
D03*
Y206693D02*
D03*
Y210630D02*
D03*
X-267717Y72835D02*
D03*
Y76772D02*
D03*
Y80709D02*
D03*
X-263779D02*
D03*
Y76772D02*
D03*
Y72835D02*
D03*
X-244094Y68898D02*
D03*
Y72835D02*
D03*
Y76772D02*
D03*
Y80709D02*
D03*
X-248031D02*
D03*
Y76772D02*
D03*
Y72835D02*
D03*
Y68898D02*
D03*
X-228346Y80709D02*
D03*
Y76772D02*
D03*
Y72835D02*
D03*
X-224410Y80709D02*
D03*
Y76772D02*
D03*
Y72835D02*
D03*
Y68898D02*
D03*
X-208661Y80709D02*
D03*
X-204724D02*
D03*
X-208661Y76772D02*
D03*
X-204724D02*
D03*
X-208661Y72835D02*
D03*
X-204724D02*
D03*
X-208661Y68898D02*
D03*
X-204724D02*
D03*
X-165354Y64961D02*
D03*
X-129921Y48228D02*
D03*
X-104331Y74803D02*
D03*
D40*
X-287402Y217520D02*
D03*
Y211614D02*
D03*
X-64961Y68898D02*
D03*
Y62992D02*
D03*
X-283312Y149828D02*
D03*
Y155734D02*
D03*
X-248031Y215551D02*
D03*
Y209646D02*
D03*
X-102362Y188976D02*
D03*
Y183071D02*
D03*
X-204724Y58071D02*
D03*
Y52165D02*
D03*
D41*
X-278051Y208878D02*
D03*
Y213878D02*
D03*
Y218878D02*
D03*
Y223878D02*
D03*
Y228878D02*
D03*
Y233878D02*
D03*
Y238878D02*
D03*
Y243878D02*
D03*
X-257382Y208878D02*
D03*
Y213878D02*
D03*
Y218878D02*
D03*
Y223878D02*
D03*
Y228878D02*
D03*
Y233878D02*
D03*
Y238878D02*
D03*
Y243878D02*
D03*
D42*
X-167323Y219685D02*
D03*
Y225197D02*
D03*
X-269685Y90056D02*
D03*
Y95568D02*
D03*
D43*
X-288386Y230315D02*
D03*
X-294291D02*
D03*
X-296260Y242126D02*
D03*
X-290354D02*
D03*
X-286417Y198819D02*
D03*
X-280512D02*
D03*
X-134843Y120079D02*
D03*
X-140748D02*
D03*
X-144685Y145669D02*
D03*
X-138779D02*
D03*
X-189899Y144569D02*
D03*
X-195805D02*
D03*
D44*
X-108268Y297244D02*
D03*
Y302165D02*
D03*
X-118110Y297244D02*
D03*
Y302165D02*
D03*
X-127953Y297244D02*
D03*
Y302165D02*
D03*
X-137795Y297244D02*
D03*
Y302165D02*
D03*
X-342520Y280118D02*
D03*
Y275000D02*
D03*
X-104331Y222441D02*
D03*
Y227559D02*
D03*
X-301181Y148425D02*
D03*
Y153543D02*
D03*
X-283465Y175787D02*
D03*
Y170669D02*
D03*
D45*
X-305118Y166732D02*
D03*
Y160039D02*
D03*
X-296993Y160003D02*
D03*
Y166695D02*
D03*
D46*
X-196457Y135827D02*
D03*
X-190945D02*
D03*
X-191732Y106299D02*
D03*
X-186221D02*
D03*
X-211811Y151575D02*
D03*
X-217323D02*
D03*
X-211024Y141732D02*
D03*
X-216535D02*
D03*
D47*
X-157087Y121457D02*
D03*
Y136811D02*
D03*
Y134252D02*
D03*
Y131693D02*
D03*
Y129134D02*
D03*
Y126575D02*
D03*
Y124016D02*
D03*
X-181102Y136811D02*
D03*
Y134252D02*
D03*
Y131693D02*
D03*
Y129134D02*
D03*
Y126575D02*
D03*
Y124016D02*
D03*
Y121457D02*
D03*
D48*
X-327953Y35433D02*
D03*
Y27559D02*
D03*
D49*
X-315158Y31496D02*
D03*
D50*
X-217126Y97303D02*
D03*
Y92303D02*
D03*
Y87303D02*
D03*
Y82303D02*
D03*
Y77303D02*
D03*
Y72303D02*
D03*
Y67303D02*
D03*
Y62303D02*
D03*
Y57303D02*
D03*
Y52303D02*
D03*
X-255315Y97303D02*
D03*
Y92303D02*
D03*
Y87303D02*
D03*
Y82303D02*
D03*
Y77303D02*
D03*
Y72303D02*
D03*
Y67303D02*
D03*
Y62303D02*
D03*
Y57303D02*
D03*
Y52303D02*
D03*
X-114764Y227224D02*
D03*
Y222224D02*
D03*
Y217224D02*
D03*
Y212224D02*
D03*
Y207224D02*
D03*
Y202224D02*
D03*
Y197224D02*
D03*
Y192224D02*
D03*
Y187224D02*
D03*
Y182224D02*
D03*
X-152953Y227224D02*
D03*
Y222224D02*
D03*
Y217224D02*
D03*
Y212224D02*
D03*
Y207224D02*
D03*
Y202224D02*
D03*
Y197224D02*
D03*
Y192224D02*
D03*
Y187224D02*
D03*
Y182224D02*
D03*
D51*
X-273622Y144449D02*
D03*
Y149449D02*
D03*
Y154449D02*
D03*
Y159449D02*
D03*
X-252756D02*
D03*
Y154449D02*
D03*
Y149449D02*
D03*
Y144449D02*
D03*
D52*
X-143701Y26100D02*
D03*
Y21144D02*
D03*
D53*
X-131890Y21654D02*
D03*
Y9843D02*
D03*
D54*
X-23475Y152784D02*
D03*
X-16389D02*
D03*
D55*
X-22204Y159451D02*
D03*
X-16298D02*
D03*
X-110236Y57087D02*
D03*
X-116142D02*
D03*
D56*
X-209842Y135827D02*
D03*
X-204724D02*
D03*
X-204222Y106264D02*
D03*
X-199104D02*
D03*
X-114764Y74803D02*
D03*
X-109646D02*
D03*
X-158120Y65766D02*
D03*
X-153002D02*
D03*
D57*
X-138555Y135167D02*
D03*
X-144975D02*
D03*
X-198092Y153543D02*
D03*
X-191672D02*
D03*
X-286675Y253937D02*
D03*
X-280254D02*
D03*
D58*
X-192913Y116142D02*
D03*
X-199033D02*
D03*
X-192535Y126810D02*
D03*
X-198654D02*
D03*
D59*
X-147638Y91732D02*
D03*
X-139764D02*
D03*
X-129921D02*
D03*
X-122047D02*
D03*
D60*
X-143701Y78937D02*
D03*
X-125984D02*
D03*
D61*
X-137795Y48228D02*
D03*
Y42323D02*
D03*
X-122047Y48228D02*
D03*
Y42323D02*
D03*
D62*
X-106299Y333858D02*
D03*
Y339370D02*
D03*
X-112205Y18898D02*
D03*
Y24409D02*
D03*
D63*
X-293443Y148585D02*
D03*
Y153310D02*
D03*
D64*
X-23622Y53150D02*
D03*
X-11811D02*
D03*
X-23622Y90551D02*
D03*
X-11811D02*
D03*
X-21654Y129921D02*
D03*
X-9843D02*
D03*
D65*
X-21566Y116487D02*
D03*
X-27881D02*
D03*
D66*
X-21144Y78740D02*
D03*
X-26100D02*
D03*
D67*
X-21668Y41434D02*
D03*
X-28361D02*
D03*
D68*
X-143701Y42323D02*
D03*
Y48229D02*
D03*
X-307087Y339567D02*
D03*
Y333661D02*
D03*
X-250000Y340551D02*
D03*
Y334646D02*
D03*
D69*
X-123425Y55492D02*
D03*
Y60492D02*
D03*
Y65492D02*
D03*
Y70492D02*
D03*
X-144291D02*
D03*
Y65492D02*
D03*
Y60492D02*
D03*
Y55492D02*
D03*
D70*
X-250000Y319685D02*
D03*
Y326772D02*
D03*
X-307087Y319291D02*
D03*
Y326378D02*
D03*
D71*
X-248031Y228346D02*
D03*
Y234767D02*
D03*
D72*
X-104134Y64961D02*
D03*
X-112205D02*
D03*
X-104232Y49213D02*
D03*
X-112303D02*
D03*
X-161516Y47244D02*
D03*
X-153445D02*
D03*
X-161516Y57087D02*
D03*
X-153445D02*
D03*
%TF.MD5,4b6fbc345095a0d34765da324603eea9*%
M02*
