G04*
G04 #@! TF.GenerationSoftware,Altium Limited,Altium Designer,23.1.1 (15)*
G04*
G04 Layer_Physical_Order=3*
G04 Layer_Color=128*
%FSLAX25Y25*%
%MOIN*%
G70*
G04*
G04 #@! TF.SameCoordinates,F95E5C2C-EF46-48FB-A8A4-4245753B878B*
G04*
G04*
G04 #@! TF.FilePolarity,Negative*
G04*
G01*
G75*
%ADD65C,0.04000*%
%ADD67C,0.08291*%
%ADD69C,0.08134*%
G04:AMPARAMS|DCode=70|XSize=101.339mil|YSize=101.339mil|CornerRadius=0mil|HoleSize=0mil|Usage=FLASHONLY|Rotation=0.000|XOffset=0mil|YOffset=0mil|HoleType=Round|Shape=Relief|Width=10mil|Gap=10mil|Entries=4|*
%AMTHD70*
7,0,0,0.10134,0.08134,0.01000,45*
%
%ADD70THD70*%
G04:AMPARAMS|DCode=71|XSize=100.157mil|YSize=100.157mil|CornerRadius=0mil|HoleSize=0mil|Usage=FLASHONLY|Rotation=0.000|XOffset=0mil|YOffset=0mil|HoleType=Round|Shape=Relief|Width=10mil|Gap=10mil|Entries=4|*
%AMTHD71*
7,0,0,0.10016,0.08016,0.01000,45*
%
%ADD71THD71*%
%ADD72C,0.08016*%
G04:AMPARAMS|DCode=73|XSize=113.15mil|YSize=113.15mil|CornerRadius=0mil|HoleSize=0mil|Usage=FLASHONLY|Rotation=0.000|XOffset=0mil|YOffset=0mil|HoleType=Round|Shape=Relief|Width=10mil|Gap=10mil|Entries=4|*
%AMTHD73*
7,0,0,0.11315,0.09315,0.01000,45*
%
%ADD73THD73*%
%ADD74C,0.09315*%
%ADD75C,0.08331*%
%ADD76C,0.08685*%
G04:AMPARAMS|DCode=77|XSize=97.402mil|YSize=97.402mil|CornerRadius=0mil|HoleSize=0mil|Usage=FLASHONLY|Rotation=0.000|XOffset=0mil|YOffset=0mil|HoleType=Round|Shape=Relief|Width=10mil|Gap=10mil|Entries=4|*
%AMTHD77*
7,0,0,0.09740,0.07740,0.01000,45*
%
%ADD77THD77*%
%ADD78C,0.07740*%
%ADD79C,0.08921*%
%ADD80C,0.08094*%
%ADD82C,0.16520*%
%ADD83C,0.05181*%
G04:AMPARAMS|DCode=84|XSize=103.307mil|YSize=103.307mil|CornerRadius=0mil|HoleSize=0mil|Usage=FLASHONLY|Rotation=0.000|XOffset=0mil|YOffset=0mil|HoleType=Round|Shape=Relief|Width=10mil|Gap=10mil|Entries=4|*
%AMTHD84*
7,0,0,0.10331,0.08331,0.01000,45*
%
%ADD84THD84*%
D65*
X-377953Y11811D02*
X-377912Y10836D01*
X-377792Y9867D01*
X-377591Y8912D01*
X-377313Y7976D01*
X-376958Y7067D01*
X-376529Y6190D01*
X-376029Y5351D01*
X-375462Y4557D01*
X-374831Y3812D01*
X-374141Y3121D01*
X-373396Y2490D01*
X-372602Y1923D01*
X-371763Y1424D01*
X-370886Y995D01*
X-369977Y640D01*
X-369041Y361D01*
X-368086Y161D01*
X-367117Y40D01*
X-366142Y0D01*
X-11811D02*
X-10836Y40D01*
X-9867Y161D01*
X-8912Y361D01*
X-7976Y640D01*
X-7067Y995D01*
X-6190Y1424D01*
X-5351Y1923D01*
X-4557Y2490D01*
X-3812Y3121D01*
X-3121Y3812D01*
X-2490Y4557D01*
X-1923Y5351D01*
X-1424Y6190D01*
X-995Y7067D01*
X-640Y7976D01*
X-361Y8912D01*
X-161Y9867D01*
X-40Y10836D01*
X0Y11811D01*
Y342520D02*
X-40Y343495D01*
X-161Y344464D01*
X-361Y345419D01*
X-640Y346355D01*
X-995Y347264D01*
X-1424Y348141D01*
X-1923Y348980D01*
X-2490Y349774D01*
X-3121Y350519D01*
X-3812Y351209D01*
X-4557Y351840D01*
X-5351Y352408D01*
X-6190Y352907D01*
X-7067Y353336D01*
X-7976Y353691D01*
X-8912Y353969D01*
X-9867Y354170D01*
X-10836Y354290D01*
X-11811Y354331D01*
X-366142D02*
X-367117Y354290D01*
X-368086Y354170D01*
X-369041Y353969D01*
X-369977Y353691D01*
X-370886Y353336D01*
X-371763Y352907D01*
X-372602Y352408D01*
X-373396Y351840D01*
X-374141Y351209D01*
X-374831Y350519D01*
X-375462Y349774D01*
X-376029Y348980D01*
X-376529Y348141D01*
X-376958Y347264D01*
X-377313Y346355D01*
X-377591Y345419D01*
X-377792Y344464D01*
X-377912Y343495D01*
X-377953Y342520D01*
X-366142Y0D02*
X-11811D01*
X0Y11811D02*
Y342520D01*
X-366142Y354331D02*
X-11811D01*
X-377953Y11811D02*
Y342520D01*
D67*
X-299370Y311339D02*
D03*
X-255748D02*
D03*
X-266653D02*
D03*
X-277559D02*
D03*
X-288465D02*
D03*
X-261201Y322520D02*
D03*
X-272106D02*
D03*
X-283012D02*
D03*
X-293917D02*
D03*
D69*
X-318898Y279528D02*
D03*
Y269528D02*
D03*
Y259528D02*
D03*
X-363650Y108798D02*
D03*
D70*
X-318898Y289528D02*
D03*
X-353650Y108798D02*
D03*
D71*
X-352205Y291653D02*
D03*
Y194724D02*
D03*
X-362205Y164724D02*
D03*
D72*
X-352205Y241653D02*
D03*
Y251654D02*
D03*
Y261653D02*
D03*
Y271654D02*
D03*
Y281653D02*
D03*
Y301654D02*
D03*
X-362205Y241653D02*
D03*
Y251654D02*
D03*
Y261653D02*
D03*
Y271654D02*
D03*
Y281653D02*
D03*
Y291653D02*
D03*
Y301654D02*
D03*
X-352205Y164724D02*
D03*
Y174724D02*
D03*
Y184724D02*
D03*
Y204724D02*
D03*
Y214724D02*
D03*
Y224724D02*
D03*
X-362205Y174724D02*
D03*
Y184724D02*
D03*
Y194724D02*
D03*
Y204724D02*
D03*
Y214724D02*
D03*
Y224724D02*
D03*
X-165354Y338740D02*
D03*
Y328740D02*
D03*
Y318740D02*
D03*
X-198524Y338740D02*
D03*
Y328740D02*
D03*
Y318740D02*
D03*
X-68425Y312992D02*
D03*
X-78425D02*
D03*
X-88425D02*
D03*
X-98425D02*
D03*
X-108425D02*
D03*
X-118425D02*
D03*
X-128425D02*
D03*
X-138425D02*
D03*
D73*
X-316378Y15748D02*
D03*
X-186378D02*
D03*
D74*
X-326378D02*
D03*
X-306378D02*
D03*
X-296378D02*
D03*
X-286378D02*
D03*
X-276378D02*
D03*
X-266378D02*
D03*
X-256378D02*
D03*
X-246378D02*
D03*
X-236378D02*
D03*
X-226378D02*
D03*
X-216378D02*
D03*
X-206378D02*
D03*
X-196378D02*
D03*
X-176378D02*
D03*
D75*
X-65709Y329646D02*
D03*
X-85709D02*
D03*
X-79646Y26654D02*
D03*
X-99646D02*
D03*
D76*
X-346457Y141732D02*
D03*
X-356457D02*
D03*
X-366457D02*
D03*
D77*
X-50000Y305000D02*
D03*
Y45000D02*
D03*
D78*
X-40000Y335000D02*
D03*
Y325000D02*
D03*
Y315000D02*
D03*
Y305000D02*
D03*
Y295000D02*
D03*
Y285000D02*
D03*
Y275000D02*
D03*
Y265000D02*
D03*
Y255000D02*
D03*
Y245000D02*
D03*
Y235000D02*
D03*
Y225000D02*
D03*
Y215000D02*
D03*
Y205000D02*
D03*
Y195000D02*
D03*
Y185000D02*
D03*
Y175000D02*
D03*
Y165000D02*
D03*
Y155000D02*
D03*
Y145000D02*
D03*
Y135000D02*
D03*
Y125000D02*
D03*
Y115000D02*
D03*
Y105000D02*
D03*
Y95000D02*
D03*
Y85000D02*
D03*
Y75000D02*
D03*
Y65000D02*
D03*
Y55000D02*
D03*
Y45000D02*
D03*
Y35000D02*
D03*
Y25000D02*
D03*
X-50000Y335000D02*
D03*
Y325000D02*
D03*
Y315000D02*
D03*
Y295000D02*
D03*
Y285000D02*
D03*
Y275000D02*
D03*
Y265000D02*
D03*
Y255000D02*
D03*
Y245000D02*
D03*
Y235000D02*
D03*
Y225000D02*
D03*
Y215000D02*
D03*
Y205000D02*
D03*
Y195000D02*
D03*
Y185000D02*
D03*
Y175000D02*
D03*
Y165000D02*
D03*
Y155000D02*
D03*
Y145000D02*
D03*
Y135000D02*
D03*
Y125000D02*
D03*
Y115000D02*
D03*
Y105000D02*
D03*
Y95000D02*
D03*
Y85000D02*
D03*
Y75000D02*
D03*
Y65000D02*
D03*
Y55000D02*
D03*
Y35000D02*
D03*
Y25000D02*
D03*
D79*
X-352362Y67087D02*
D03*
Y57087D02*
D03*
Y82677D02*
D03*
Y92677D02*
D03*
D80*
X-74803Y49213D02*
D03*
X-84803D02*
D03*
X-74803Y59213D02*
D03*
X-84803D02*
D03*
X-74803Y69213D02*
D03*
X-84803D02*
D03*
X-74803Y79213D02*
D03*
X-84803D02*
D03*
X-74803Y89213D02*
D03*
X-84803D02*
D03*
X-74803Y99213D02*
D03*
X-84803D02*
D03*
X-74803Y109213D02*
D03*
X-84803D02*
D03*
X-74803Y119213D02*
D03*
X-84803D02*
D03*
X-74803Y129213D02*
D03*
X-84803D02*
D03*
X-74803Y139213D02*
D03*
X-84803D02*
D03*
X-74803Y149213D02*
D03*
X-84803D02*
D03*
X-74803Y159213D02*
D03*
X-84803D02*
D03*
X-74803Y169213D02*
D03*
X-84803D02*
D03*
X-74803Y179213D02*
D03*
X-84803D02*
D03*
X-74803Y189213D02*
D03*
X-84803D02*
D03*
X-74803Y199213D02*
D03*
X-84803D02*
D03*
X-74803Y209213D02*
D03*
X-84803D02*
D03*
X-74803Y219213D02*
D03*
X-84803D02*
D03*
X-74803Y229213D02*
D03*
X-84803D02*
D03*
X-314803Y49213D02*
D03*
X-324803D02*
D03*
X-314803Y59213D02*
D03*
X-324803D02*
D03*
X-314803Y69213D02*
D03*
X-324803D02*
D03*
X-314803Y79213D02*
D03*
X-324803D02*
D03*
X-314803Y89213D02*
D03*
X-324803D02*
D03*
X-314803Y99213D02*
D03*
X-324803D02*
D03*
X-314803Y109213D02*
D03*
X-324803D02*
D03*
X-314803Y119213D02*
D03*
X-324803D02*
D03*
X-314803Y129213D02*
D03*
X-324803D02*
D03*
X-314803Y139213D02*
D03*
X-324803D02*
D03*
X-314803Y149213D02*
D03*
X-324803D02*
D03*
X-314803Y159213D02*
D03*
X-324803D02*
D03*
X-314803Y169213D02*
D03*
X-324803D02*
D03*
X-314803Y179213D02*
D03*
X-324803D02*
D03*
X-314803Y189213D02*
D03*
X-324803D02*
D03*
X-314803Y199213D02*
D03*
X-324803D02*
D03*
X-314803Y209213D02*
D03*
X-324803D02*
D03*
X-314803Y219213D02*
D03*
X-324803D02*
D03*
X-314803Y229213D02*
D03*
X-324803D02*
D03*
D82*
X-326772Y316929D02*
D03*
X-228346D02*
D03*
X-20000Y335000D02*
D03*
Y20000D02*
D03*
X-357520Y35000D02*
D03*
Y325000D02*
D03*
D83*
X-333849Y302140D02*
D03*
X-333125Y338195D02*
D03*
X-334696Y330209D02*
D03*
X-220995Y334296D02*
D03*
X-128000Y131628D02*
D03*
X-147638Y127953D02*
D03*
X-133858D02*
D03*
X-310134Y279613D02*
D03*
X-298608Y253689D02*
D03*
X-129921Y147638D02*
D03*
X-206693Y125984D02*
D03*
X-66929Y114173D02*
D03*
X-96457Y51181D02*
D03*
X-29179Y143966D02*
D03*
X-19685Y145669D02*
D03*
X-236232Y244094D02*
D03*
X-236221Y169291D02*
D03*
X-233431Y157754D02*
D03*
X-293307Y171260D02*
D03*
X-307996Y27559D02*
D03*
X-204724Y147638D02*
D03*
X-201444Y142933D02*
D03*
X-194882Y159449D02*
D03*
X-204724Y161417D02*
D03*
X-194414Y178796D02*
D03*
X-210630Y131890D02*
D03*
X-227172Y271433D02*
D03*
X-247540Y268071D02*
D03*
X-257473Y285501D02*
D03*
X-227409D02*
D03*
X-206693Y285433D02*
D03*
X-336614Y35433D02*
D03*
X-364173Y76772D02*
D03*
X-344488Y120079D02*
D03*
X-176027Y64581D02*
D03*
X-129912Y274531D02*
D03*
X-150827Y285433D02*
D03*
X-90827D02*
D03*
X-223500Y204724D02*
D03*
X-224476Y116075D02*
D03*
X-181997Y301181D02*
D03*
X-186133Y244094D02*
D03*
X-88583Y301181D02*
D03*
X-100394Y297244D02*
D03*
X-174241Y233297D02*
D03*
X-183071Y311024D02*
D03*
X-100937Y250302D02*
D03*
X-188976Y248031D02*
D03*
X-145669Y241216D02*
D03*
X-265748Y273622D02*
D03*
X-210630Y244094D02*
D03*
X-273654Y248016D02*
D03*
X-248031Y244094D02*
D03*
X-240158Y240158D02*
D03*
X-202756Y242126D02*
D03*
X-224410Y244094D02*
D03*
X-24945Y164366D02*
D03*
X-11613Y100728D02*
D03*
X-11811Y62992D02*
D03*
X-33346Y239930D02*
D03*
X-57087Y208661D02*
D03*
X-372659Y308926D02*
D03*
X-175197Y343547D02*
D03*
X-368081Y228346D02*
D03*
X-370079Y171260D02*
D03*
X-367201Y208661D02*
D03*
X-106299Y326772D02*
D03*
X-372047Y151575D02*
D03*
X-308364Y196850D02*
D03*
X-306364Y189340D02*
D03*
X-299213Y178796D02*
D03*
X-173422Y182084D02*
D03*
X-188658Y185584D02*
D03*
X-167323Y198819D02*
D03*
Y202756D02*
D03*
Y206693D02*
D03*
Y210630D02*
D03*
X-122047Y198819D02*
D03*
Y202756D02*
D03*
X-125984Y198819D02*
D03*
Y175197D02*
D03*
X-162476Y179134D02*
D03*
X-177165Y169291D02*
D03*
X-127953Y167323D02*
D03*
X-122047Y122047D02*
D03*
X-238189Y139764D02*
D03*
X-307087Y171260D02*
D03*
X-342520Y261811D02*
D03*
X-344488Y163386D02*
D03*
X-334646Y159449D02*
D03*
X-332677Y110236D02*
D03*
X-29528Y318898D02*
D03*
Y149606D02*
D03*
X-57087Y133858D02*
D03*
X-173228Y114173D02*
D03*
X-129921Y98425D02*
D03*
X-181102Y143701D02*
D03*
X-164476Y167323D02*
D03*
X-277559Y165354D02*
D03*
X-301181Y259839D02*
D03*
X-342520Y269685D02*
D03*
X-257874Y177165D02*
D03*
X-263779Y135827D02*
D03*
X-277559Y110236D02*
D03*
X-283465Y45276D02*
D03*
X-287116Y59374D02*
D03*
X-290478Y69054D02*
D03*
X-293457Y118164D02*
D03*
X-300377Y109130D02*
D03*
X-303255Y23622D02*
D03*
X-297244Y114173D02*
D03*
Y29528D02*
D03*
X-241130Y208661D02*
D03*
X-239130Y212598D02*
D03*
X-214343Y115995D02*
D03*
X-228346Y110236D02*
D03*
X-90204Y39252D02*
D03*
X-98425Y161417D02*
D03*
X-145669Y157480D02*
D03*
X-234186Y125918D02*
D03*
X-277801Y32555D02*
D03*
X-247525Y32585D02*
D03*
X-261372Y38265D02*
D03*
X-281496Y35433D02*
D03*
X-263779Y68898D02*
D03*
X-228346Y41339D02*
D03*
X-224410Y45276D02*
D03*
X-230382Y196916D02*
D03*
X-188976Y84646D02*
D03*
X-336614Y139764D02*
D03*
X-338457Y145669D02*
D03*
X-344488Y92520D02*
D03*
X-196850Y248031D02*
D03*
X-206693Y187008D02*
D03*
X-188976Y318898D02*
D03*
X-162833Y192446D02*
D03*
X-244094Y340551D02*
D03*
X-141732Y202756D02*
D03*
Y198819D02*
D03*
X-145669Y206693D02*
D03*
Y202756D02*
D03*
Y198819D02*
D03*
X-141732Y210630D02*
D03*
X-145669D02*
D03*
X-141732Y206693D02*
D03*
X-210630Y208661D02*
D03*
X-342520Y251969D02*
D03*
X-340520Y224410D02*
D03*
Y216535D02*
D03*
X-336614Y76772D02*
D03*
X-181102Y114173D02*
D03*
Y61024D02*
D03*
X-267717Y68898D02*
D03*
X-228346D02*
D03*
X-106299Y197000D02*
D03*
X-102628D02*
D03*
X-106299Y202756D02*
D03*
X-102362D02*
D03*
X-240158Y216535D02*
D03*
X-242126Y177165D02*
D03*
X-96457Y173228D02*
D03*
X-64961Y305118D02*
D03*
X-62992Y216535D02*
D03*
X-66929Y196850D02*
D03*
X-143701Y305118D02*
D03*
X-332677Y165354D02*
D03*
X-104395Y234153D02*
D03*
X-102362Y237311D02*
D03*
X-92520Y244429D02*
D03*
X-90551Y250078D02*
D03*
X-120079Y238189D02*
D03*
X-167323D02*
D03*
X-78740Y250000D02*
D03*
X-70866Y246063D02*
D03*
X-92520Y167323D02*
D03*
X-122047D02*
D03*
X-96457Y230315D02*
D03*
X-141732Y171260D02*
D03*
X-112205Y11024D02*
D03*
X-62992Y94488D02*
D03*
X-114173Y96457D02*
D03*
X-153543Y108268D02*
D03*
X-153445Y39370D02*
D03*
X-157480Y31496D02*
D03*
X-143701Y9843D02*
D03*
X-192913Y51181D02*
D03*
X-206693Y88583D02*
D03*
X-196850Y55118D02*
D03*
X-269685Y104331D02*
D03*
X-244094Y106299D02*
D03*
X-246063Y143701D02*
D03*
X-242126Y36342D02*
D03*
X-270595Y192913D02*
D03*
X-269685Y185039D02*
D03*
X-246063Y200787D02*
D03*
X-267717Y167323D02*
D03*
X-305118Y242126D02*
D03*
X-242126Y228346D02*
D03*
X-295276Y198819D02*
D03*
X-283465Y141732D02*
D03*
X-102362Y210630D02*
D03*
Y206693D02*
D03*
X-106299D02*
D03*
Y210630D02*
D03*
X-125984D02*
D03*
Y206693D02*
D03*
Y202756D02*
D03*
X-122047Y206693D02*
D03*
Y210630D02*
D03*
X-163386Y198819D02*
D03*
Y202756D02*
D03*
Y206693D02*
D03*
Y210630D02*
D03*
X-267717Y72835D02*
D03*
Y76772D02*
D03*
Y80709D02*
D03*
X-263779D02*
D03*
Y76772D02*
D03*
Y72835D02*
D03*
X-244094Y68898D02*
D03*
Y72835D02*
D03*
Y76772D02*
D03*
Y80709D02*
D03*
X-248031D02*
D03*
Y76772D02*
D03*
Y72835D02*
D03*
Y68898D02*
D03*
X-228346Y80709D02*
D03*
Y76772D02*
D03*
Y72835D02*
D03*
X-224410Y80709D02*
D03*
Y76772D02*
D03*
Y72835D02*
D03*
Y68898D02*
D03*
X-208661Y80709D02*
D03*
X-204724D02*
D03*
X-208661Y76772D02*
D03*
X-204724D02*
D03*
X-208661Y72835D02*
D03*
X-204724D02*
D03*
X-208661Y68898D02*
D03*
X-204724D02*
D03*
X-165354Y64961D02*
D03*
X-104331Y74803D02*
D03*
D84*
X-75709Y329646D02*
D03*
X-95709D02*
D03*
X-69646Y26654D02*
D03*
X-89646D02*
D03*
M02*
