%TF.GenerationSoftware,Altium Limited,Altium Designer,23.1.1 (15)*%
G04 Layer_Color=128*
%FSLAX25Y25*%
%MOIN*%
%TF.SameCoordinates,FA324DF6-1FC1-44E6-B842-7DB02DEBFDBB*%
%TF.FilePolarity,Positive*%
%TF.FileFunction,Paste,Bot*%
%TF.Part,Single*%
G01*
G75*
%TA.AperFunction,SMDPad,CuDef*%
%ADD40R,0.03543X0.03150*%
G04:AMPARAMS|DCode=41|XSize=21.65mil|YSize=49.21mil|CornerRadius=1.95mil|HoleSize=0mil|Usage=FLASHONLY|Rotation=270.000|XOffset=0mil|YOffset=0mil|HoleType=Round|Shape=RoundedRectangle|*
%AMROUNDEDRECTD41*
21,1,0.02165,0.04532,0,0,270.0*
21,1,0.01776,0.04921,0,0,270.0*
1,1,0.00390,-0.02266,-0.00888*
1,1,0.00390,-0.02266,0.00888*
1,1,0.00390,0.02266,0.00888*
1,1,0.00390,0.02266,-0.00888*
%
%ADD41ROUNDEDRECTD41*%
%ADD42R,0.02756X0.02756*%
%ADD43R,0.03150X0.03543*%
%ADD44R,0.03740X0.03150*%
%ADD45R,0.03150X0.03543*%
%ADD46R,0.03543X0.04134*%
G04:AMPARAMS|DCode=47|XSize=17.72mil|YSize=62.99mil|CornerRadius=1.95mil|HoleSize=0mil|Usage=FLASHONLY|Rotation=270.000|XOffset=0mil|YOffset=0mil|HoleType=Round|Shape=RoundedRectangle|*
%AMROUNDEDRECTD47*
21,1,0.01772,0.05909,0,0,270.0*
21,1,0.01382,0.06299,0,0,270.0*
1,1,0.00390,-0.02955,-0.00691*
1,1,0.00390,-0.02955,0.00691*
1,1,0.00390,0.02955,0.00691*
1,1,0.00390,0.02955,-0.00691*
%
%ADD47ROUNDEDRECTD47*%
%ADD48R,0.04724X0.04724*%
%ADD49R,0.05906X0.06299*%
%ADD50O,0.08268X0.02559*%
%ADD51R,0.05118X0.02362*%
%ADD52R,0.03394X0.02613*%
%ADD53R,0.06299X0.05512*%
%ADD54R,0.03937X0.03543*%
%ADD55R,0.03150X0.03150*%
%ADD56R,0.03150X0.03740*%
%ADD57R,0.04469X0.04182*%
%ADD58R,0.04952X0.03985*%
%ADD59R,0.04724X0.04724*%
%ADD60R,0.06299X0.05906*%
%ADD61R,0.03937X0.02953*%
%ADD62R,0.04134X0.03543*%
%ADD63R,0.03543X0.02953*%
%ADD64R,0.05512X0.06299*%
%ADD65R,0.04560X0.03985*%
%ADD66R,0.02613X0.03394*%
%ADD67R,0.03543X0.03150*%
%ADD68R,0.03150X0.03150*%
%ADD69R,0.05512X0.02362*%
%ADD70R,0.03543X0.03937*%
%ADD71R,0.04182X0.04469*%
%ADD72R,0.03765X0.04749*%
D40*
X-287402Y217520D02*
D03*
Y211614D02*
D03*
X-64961Y68898D02*
D03*
Y62992D02*
D03*
X-283312Y149828D02*
D03*
Y155734D02*
D03*
X-248031Y215551D02*
D03*
Y209646D02*
D03*
X-102362Y188976D02*
D03*
Y183071D02*
D03*
X-204724Y58071D02*
D03*
Y52165D02*
D03*
D41*
X-278051Y208878D02*
D03*
Y213878D02*
D03*
Y218878D02*
D03*
Y223878D02*
D03*
Y228878D02*
D03*
Y233878D02*
D03*
Y238878D02*
D03*
Y243878D02*
D03*
X-257382Y208878D02*
D03*
Y213878D02*
D03*
Y218878D02*
D03*
Y223878D02*
D03*
Y228878D02*
D03*
Y233878D02*
D03*
Y238878D02*
D03*
Y243878D02*
D03*
D42*
X-167323Y219685D02*
D03*
Y225197D02*
D03*
X-269685Y90056D02*
D03*
Y95568D02*
D03*
D43*
X-288386Y230315D02*
D03*
X-294291D02*
D03*
X-296260Y242126D02*
D03*
X-290354D02*
D03*
X-286417Y198819D02*
D03*
X-280512D02*
D03*
X-134843Y120079D02*
D03*
X-140748D02*
D03*
X-144685Y145669D02*
D03*
X-138779D02*
D03*
X-189899Y144569D02*
D03*
X-195805D02*
D03*
D44*
X-108268Y297244D02*
D03*
Y302165D02*
D03*
X-118110Y297244D02*
D03*
Y302165D02*
D03*
X-127953Y297244D02*
D03*
Y302165D02*
D03*
X-137795Y297244D02*
D03*
Y302165D02*
D03*
X-342520Y280118D02*
D03*
Y275000D02*
D03*
X-104331Y222441D02*
D03*
Y227559D02*
D03*
X-301181Y148425D02*
D03*
Y153543D02*
D03*
X-283465Y175787D02*
D03*
Y170669D02*
D03*
D45*
X-305118Y166732D02*
D03*
Y160039D02*
D03*
X-296993Y160003D02*
D03*
Y166695D02*
D03*
D46*
X-196457Y135827D02*
D03*
X-190945D02*
D03*
X-191732Y106299D02*
D03*
X-186221D02*
D03*
X-211811Y151575D02*
D03*
X-217323D02*
D03*
X-211024Y141732D02*
D03*
X-216535D02*
D03*
D47*
X-157087Y121457D02*
D03*
Y136811D02*
D03*
Y134252D02*
D03*
Y131693D02*
D03*
Y129134D02*
D03*
Y126575D02*
D03*
Y124016D02*
D03*
X-181102Y136811D02*
D03*
Y134252D02*
D03*
Y131693D02*
D03*
Y129134D02*
D03*
Y126575D02*
D03*
Y124016D02*
D03*
Y121457D02*
D03*
D48*
X-327953Y35433D02*
D03*
Y27559D02*
D03*
D49*
X-315158Y31496D02*
D03*
D50*
X-217126Y97303D02*
D03*
Y92303D02*
D03*
Y87303D02*
D03*
Y82303D02*
D03*
Y77303D02*
D03*
Y72303D02*
D03*
Y67303D02*
D03*
Y62303D02*
D03*
Y57303D02*
D03*
Y52303D02*
D03*
X-255315Y97303D02*
D03*
Y92303D02*
D03*
Y87303D02*
D03*
Y82303D02*
D03*
Y77303D02*
D03*
Y72303D02*
D03*
Y67303D02*
D03*
Y62303D02*
D03*
Y57303D02*
D03*
Y52303D02*
D03*
X-114764Y227224D02*
D03*
Y222224D02*
D03*
Y217224D02*
D03*
Y212224D02*
D03*
Y207224D02*
D03*
Y202224D02*
D03*
Y197224D02*
D03*
Y192224D02*
D03*
Y187224D02*
D03*
Y182224D02*
D03*
X-152953Y227224D02*
D03*
Y222224D02*
D03*
Y217224D02*
D03*
Y212224D02*
D03*
Y207224D02*
D03*
Y202224D02*
D03*
Y197224D02*
D03*
Y192224D02*
D03*
Y187224D02*
D03*
Y182224D02*
D03*
D51*
X-273622Y144449D02*
D03*
Y149449D02*
D03*
Y154449D02*
D03*
Y159449D02*
D03*
X-252756D02*
D03*
Y154449D02*
D03*
Y149449D02*
D03*
Y144449D02*
D03*
D52*
X-143701Y26100D02*
D03*
Y21144D02*
D03*
D53*
X-131890Y21654D02*
D03*
Y9843D02*
D03*
D54*
X-23475Y152784D02*
D03*
X-16389D02*
D03*
D55*
X-22204Y159451D02*
D03*
X-16298D02*
D03*
X-110236Y57087D02*
D03*
X-116142D02*
D03*
D56*
X-209842Y135827D02*
D03*
X-204724D02*
D03*
X-204222Y106264D02*
D03*
X-199104D02*
D03*
X-114764Y74803D02*
D03*
X-109646D02*
D03*
X-158120Y65766D02*
D03*
X-153002D02*
D03*
D57*
X-138555Y135167D02*
D03*
X-144975D02*
D03*
X-198092Y153543D02*
D03*
X-191672D02*
D03*
X-286675Y253937D02*
D03*
X-280254D02*
D03*
D58*
X-192913Y116142D02*
D03*
X-199033D02*
D03*
X-192535Y126810D02*
D03*
X-198654D02*
D03*
D59*
X-147638Y91732D02*
D03*
X-139764D02*
D03*
X-129921D02*
D03*
X-122047D02*
D03*
D60*
X-143701Y78937D02*
D03*
X-125984D02*
D03*
D61*
X-137795Y48228D02*
D03*
Y42323D02*
D03*
X-122047Y48228D02*
D03*
Y42323D02*
D03*
D62*
X-106299Y333858D02*
D03*
Y339370D02*
D03*
X-112205Y18898D02*
D03*
Y24409D02*
D03*
D63*
X-293443Y148585D02*
D03*
Y153310D02*
D03*
D64*
X-23622Y53150D02*
D03*
X-11811D02*
D03*
X-23622Y90551D02*
D03*
X-11811D02*
D03*
X-21654Y129921D02*
D03*
X-9843D02*
D03*
D65*
X-21566Y116487D02*
D03*
X-27881D02*
D03*
D66*
X-21144Y78740D02*
D03*
X-26100D02*
D03*
D67*
X-21668Y41434D02*
D03*
X-28361D02*
D03*
D68*
X-143701Y42323D02*
D03*
Y48229D02*
D03*
X-307087Y339567D02*
D03*
Y333661D02*
D03*
X-250000Y340551D02*
D03*
Y334646D02*
D03*
D69*
X-123425Y55492D02*
D03*
Y60492D02*
D03*
Y65492D02*
D03*
Y70492D02*
D03*
X-144291D02*
D03*
Y65492D02*
D03*
Y60492D02*
D03*
Y55492D02*
D03*
D70*
X-250000Y319685D02*
D03*
Y326772D02*
D03*
X-307087Y319291D02*
D03*
Y326378D02*
D03*
D71*
X-248031Y228346D02*
D03*
Y234767D02*
D03*
D72*
X-104134Y64961D02*
D03*
X-112205D02*
D03*
X-104232Y49213D02*
D03*
X-112303D02*
D03*
X-161516Y47244D02*
D03*
X-153445D02*
D03*
X-161516Y57087D02*
D03*
X-153445D02*
D03*
%TF.MD5,e0637e2d8d2c61d8fa999dabd99efc44*%
M02*
