%TF.GenerationSoftware,Altium Limited,Altium Designer,23.1.1 (15)*%
G04 Layer_Color=16711935*
%FSLAX25Y25*%
%MOIN*%
%TF.SameCoordinates,FA324DF6-1FC1-44E6-B842-7DB02DEBFDBB*%
%TF.FilePolarity,Negative*%
%TF.FileFunction,Soldermask,Bot*%
%TF.Part,Single*%
G01*
G75*
%TA.AperFunction,ComponentPad*%
%ADD29R,0.07244X0.07244*%
%ADD30C,0.07244*%
%ADD31R,0.06181X0.06181*%
%ADD32C,0.06181*%
%ADD37R,0.06181X0.06181*%
%TA.AperFunction,SMDPad,CuDef*%
%ADD40R,0.03543X0.03150*%
%ADD42R,0.02756X0.02756*%
%ADD43R,0.03150X0.03543*%
%ADD45R,0.03150X0.03543*%
%ADD51R,0.05118X0.02362*%
%ADD52R,0.03394X0.02613*%
%ADD54R,0.03937X0.03543*%
%ADD57R,0.04469X0.04182*%
%ADD58R,0.04952X0.03985*%
%ADD61R,0.03937X0.02953*%
%ADD63R,0.03543X0.02953*%
%ADD65R,0.04560X0.03985*%
%ADD66R,0.02613X0.03394*%
%ADD67R,0.03543X0.03150*%
%ADD69R,0.05512X0.02362*%
%ADD70R,0.03543X0.03937*%
%ADD71R,0.04182X0.04469*%
%ADD72R,0.03765X0.04749*%
%TA.AperFunction,ComponentPad*%
%ADD82C,0.15288*%
%ADD83R,0.07099X0.07099*%
%ADD84C,0.07099*%
%ADD85R,0.07001X0.07001*%
%ADD86C,0.07001*%
%ADD87R,0.06902X0.06902*%
%ADD88C,0.06902*%
%ADD89R,0.08772X0.08772*%
%ADD90C,0.08772*%
%ADD91C,0.07296*%
%ADD92R,0.07296X0.07296*%
%ADD93R,0.07001X0.07001*%
%ADD94C,0.06410*%
%ADD95R,0.06410X0.06410*%
%ADD96R,0.08182X0.08182*%
%ADD97C,0.08182*%
%ADD98C,0.06981*%
%TA.AperFunction,WasherPad*%
%ADD99C,0.25800*%
%TA.AperFunction,ViaPad*%
%ADD100C,0.03556*%
%TA.AperFunction,SMDPad,CuDef*%
G04:AMPARAMS|DCode=101|XSize=29.65mil|YSize=57.21mil|CornerRadius=5.95mil|HoleSize=0mil|Usage=FLASHONLY|Rotation=270.000|XOffset=0mil|YOffset=0mil|HoleType=Round|Shape=RoundedRectangle|*
%AMROUNDEDRECTD101*
21,1,0.02965,0.04532,0,0,270.0*
21,1,0.01776,0.05721,0,0,270.0*
1,1,0.01190,-0.02266,-0.00888*
1,1,0.01190,-0.02266,0.00888*
1,1,0.01190,0.02266,0.00888*
1,1,0.01190,0.02266,-0.00888*
%
%ADD101ROUNDEDRECTD101*%
%ADD102R,0.04540X0.03950*%
%ADD103R,0.04343X0.04934*%
G04:AMPARAMS|DCode=104|XSize=22.44mil|YSize=67.72mil|CornerRadius=4.31mil|HoleSize=0mil|Usage=FLASHONLY|Rotation=270.000|XOffset=0mil|YOffset=0mil|HoleType=Round|Shape=RoundedRectangle|*
%AMROUNDEDRECTD104*
21,1,0.02244,0.05909,0,0,270.0*
21,1,0.01382,0.06772,0,0,270.0*
1,1,0.00862,-0.02955,-0.00691*
1,1,0.00862,-0.02955,0.00691*
1,1,0.00862,0.02955,0.00691*
1,1,0.00862,0.02955,-0.00691*
%
%ADD104ROUNDEDRECTD104*%
%ADD105R,0.05524X0.05524*%
%ADD106R,0.06706X0.07099*%
%ADD107O,0.09068X0.03359*%
%ADD108R,0.07099X0.06312*%
%ADD109R,0.03950X0.03950*%
%ADD110R,0.03950X0.04540*%
%ADD111R,0.05524X0.05524*%
%ADD112R,0.07099X0.06706*%
%ADD113R,0.04934X0.04343*%
%ADD114R,0.06312X0.07099*%
%ADD115R,0.03950X0.03950*%
D29*
X-346457Y141732D02*
D03*
D30*
X-356457D02*
D03*
X-366457D02*
D03*
D31*
X-165354Y338740D02*
D03*
X-198524D02*
D03*
D32*
X-165354Y328740D02*
D03*
Y318740D02*
D03*
X-198524Y328740D02*
D03*
Y318740D02*
D03*
X-68425Y312992D02*
D03*
X-78425D02*
D03*
X-88425D02*
D03*
X-98425D02*
D03*
X-108425D02*
D03*
X-118425D02*
D03*
X-128425D02*
D03*
D37*
X-138425D02*
D03*
D40*
X-287402Y217520D02*
D03*
Y211614D02*
D03*
X-64961Y68898D02*
D03*
Y62992D02*
D03*
X-283312Y149828D02*
D03*
Y155734D02*
D03*
X-248031Y215551D02*
D03*
Y209646D02*
D03*
X-102362Y188976D02*
D03*
Y183071D02*
D03*
X-204724Y58071D02*
D03*
Y52165D02*
D03*
D42*
X-167323Y219685D02*
D03*
Y225197D02*
D03*
X-269685Y90056D02*
D03*
Y95568D02*
D03*
D43*
X-288386Y230315D02*
D03*
X-294291D02*
D03*
X-296260Y242126D02*
D03*
X-290354D02*
D03*
X-286417Y198819D02*
D03*
X-280512D02*
D03*
X-134843Y120079D02*
D03*
X-140748D02*
D03*
X-144685Y145669D02*
D03*
X-138779D02*
D03*
X-189899Y144569D02*
D03*
X-195805D02*
D03*
D45*
X-305118Y166732D02*
D03*
Y160039D02*
D03*
X-296993Y160003D02*
D03*
Y166695D02*
D03*
D51*
X-273622Y144449D02*
D03*
Y149449D02*
D03*
Y154449D02*
D03*
Y159449D02*
D03*
X-252756D02*
D03*
Y154449D02*
D03*
Y149449D02*
D03*
Y144449D02*
D03*
D52*
X-143701Y26100D02*
D03*
Y21144D02*
D03*
D54*
X-23475Y152784D02*
D03*
X-16389D02*
D03*
D57*
X-138555Y135167D02*
D03*
X-144975D02*
D03*
X-198092Y153543D02*
D03*
X-191672D02*
D03*
X-286675Y253937D02*
D03*
X-280254D02*
D03*
D58*
X-192913Y116142D02*
D03*
X-199033D02*
D03*
X-192535Y126810D02*
D03*
X-198654D02*
D03*
D61*
X-137795Y48228D02*
D03*
Y42323D02*
D03*
X-122047Y48228D02*
D03*
Y42323D02*
D03*
D63*
X-293443Y148585D02*
D03*
Y153310D02*
D03*
D65*
X-21566Y116487D02*
D03*
X-27881D02*
D03*
D66*
X-21144Y78740D02*
D03*
X-26100D02*
D03*
D67*
X-21668Y41434D02*
D03*
X-28361D02*
D03*
D69*
X-123425Y55492D02*
D03*
Y60492D02*
D03*
Y65492D02*
D03*
Y70492D02*
D03*
X-144291D02*
D03*
Y65492D02*
D03*
Y60492D02*
D03*
Y55492D02*
D03*
D70*
X-250000Y319685D02*
D03*
Y326772D02*
D03*
X-307087Y319291D02*
D03*
Y326378D02*
D03*
D71*
X-248031Y228346D02*
D03*
Y234767D02*
D03*
D72*
X-104134Y64961D02*
D03*
X-112205D02*
D03*
X-104232Y49213D02*
D03*
X-112303D02*
D03*
X-161516Y47244D02*
D03*
X-153445D02*
D03*
X-161516Y57087D02*
D03*
X-153445D02*
D03*
D82*
X-326772Y316929D02*
D03*
X-228346D02*
D03*
D83*
X-299370Y311339D02*
D03*
D84*
X-255748D02*
D03*
X-266653D02*
D03*
X-277559D02*
D03*
X-288465D02*
D03*
X-261201Y322520D02*
D03*
X-272106D02*
D03*
X-283012D02*
D03*
X-293917D02*
D03*
D85*
X-318898Y289528D02*
D03*
D86*
Y279528D02*
D03*
Y269528D02*
D03*
Y259528D02*
D03*
X-363650Y108798D02*
D03*
D87*
X-352205Y241653D02*
D03*
Y164724D02*
D03*
D88*
Y251654D02*
D03*
Y261653D02*
D03*
Y271654D02*
D03*
Y281653D02*
D03*
Y291653D02*
D03*
Y301654D02*
D03*
X-362205Y241653D02*
D03*
Y251654D02*
D03*
Y261653D02*
D03*
Y271654D02*
D03*
Y281653D02*
D03*
Y291653D02*
D03*
Y301654D02*
D03*
X-352205Y174724D02*
D03*
Y184724D02*
D03*
Y194724D02*
D03*
Y204724D02*
D03*
Y214724D02*
D03*
Y224724D02*
D03*
X-362205Y164724D02*
D03*
Y174724D02*
D03*
Y184724D02*
D03*
Y194724D02*
D03*
Y204724D02*
D03*
Y214724D02*
D03*
Y224724D02*
D03*
D89*
X-326378Y15748D02*
D03*
D90*
X-316378D02*
D03*
X-306378D02*
D03*
X-296378D02*
D03*
X-286378D02*
D03*
X-276378D02*
D03*
X-266378D02*
D03*
X-256378D02*
D03*
X-246378D02*
D03*
X-236378D02*
D03*
X-226378D02*
D03*
X-216378D02*
D03*
X-206378D02*
D03*
X-196378D02*
D03*
X-186378D02*
D03*
X-176378D02*
D03*
D91*
X-65709Y329646D02*
D03*
X-75709D02*
D03*
X-85709D02*
D03*
X-79646Y26654D02*
D03*
X-89646D02*
D03*
X-99646D02*
D03*
D92*
X-95709Y329646D02*
D03*
X-69646Y26654D02*
D03*
D93*
X-353650Y108798D02*
D03*
D94*
X-40000Y335000D02*
D03*
Y325000D02*
D03*
Y315000D02*
D03*
Y305000D02*
D03*
Y295000D02*
D03*
Y285000D02*
D03*
Y275000D02*
D03*
Y265000D02*
D03*
Y255000D02*
D03*
Y245000D02*
D03*
Y235000D02*
D03*
Y225000D02*
D03*
Y215000D02*
D03*
Y205000D02*
D03*
Y195000D02*
D03*
Y185000D02*
D03*
Y175000D02*
D03*
Y165000D02*
D03*
Y155000D02*
D03*
Y145000D02*
D03*
Y135000D02*
D03*
Y125000D02*
D03*
Y115000D02*
D03*
Y105000D02*
D03*
Y95000D02*
D03*
Y85000D02*
D03*
Y75000D02*
D03*
Y65000D02*
D03*
Y55000D02*
D03*
Y45000D02*
D03*
Y35000D02*
D03*
Y25000D02*
D03*
X-50000Y335000D02*
D03*
Y325000D02*
D03*
Y315000D02*
D03*
Y305000D02*
D03*
Y295000D02*
D03*
Y285000D02*
D03*
Y275000D02*
D03*
Y265000D02*
D03*
Y255000D02*
D03*
Y245000D02*
D03*
Y235000D02*
D03*
Y225000D02*
D03*
Y215000D02*
D03*
Y205000D02*
D03*
Y195000D02*
D03*
Y185000D02*
D03*
Y175000D02*
D03*
Y165000D02*
D03*
Y155000D02*
D03*
Y145000D02*
D03*
Y135000D02*
D03*
Y125000D02*
D03*
Y115000D02*
D03*
Y105000D02*
D03*
Y95000D02*
D03*
Y85000D02*
D03*
Y75000D02*
D03*
Y65000D02*
D03*
Y55000D02*
D03*
Y45000D02*
D03*
Y35000D02*
D03*
D95*
Y25000D02*
D03*
D96*
X-352362Y67087D02*
D03*
Y82677D02*
D03*
D97*
Y57087D02*
D03*
Y92677D02*
D03*
D98*
X-74803Y49213D02*
D03*
X-84803D02*
D03*
X-74803Y59213D02*
D03*
X-84803D02*
D03*
X-74803Y69213D02*
D03*
X-84803D02*
D03*
X-74803Y79213D02*
D03*
X-84803D02*
D03*
X-74803Y89213D02*
D03*
X-84803D02*
D03*
X-74803Y99213D02*
D03*
X-84803D02*
D03*
X-74803Y109213D02*
D03*
X-84803D02*
D03*
X-74803Y119213D02*
D03*
X-84803D02*
D03*
X-74803Y129213D02*
D03*
X-84803D02*
D03*
X-74803Y139213D02*
D03*
X-84803D02*
D03*
X-74803Y149213D02*
D03*
X-84803D02*
D03*
X-74803Y159213D02*
D03*
X-84803D02*
D03*
X-74803Y169213D02*
D03*
X-84803D02*
D03*
X-74803Y179213D02*
D03*
X-84803D02*
D03*
X-74803Y189213D02*
D03*
X-84803D02*
D03*
X-74803Y199213D02*
D03*
X-84803D02*
D03*
X-74803Y209213D02*
D03*
X-84803D02*
D03*
X-74803Y219213D02*
D03*
X-84803D02*
D03*
X-74803Y229213D02*
D03*
X-84803D02*
D03*
X-314803Y49213D02*
D03*
X-324803D02*
D03*
X-314803Y59213D02*
D03*
X-324803D02*
D03*
X-314803Y69213D02*
D03*
X-324803D02*
D03*
X-314803Y79213D02*
D03*
X-324803D02*
D03*
X-314803Y89213D02*
D03*
X-324803D02*
D03*
X-314803Y99213D02*
D03*
X-324803D02*
D03*
X-314803Y109213D02*
D03*
X-324803D02*
D03*
X-314803Y119213D02*
D03*
X-324803D02*
D03*
X-314803Y129213D02*
D03*
X-324803D02*
D03*
X-314803Y139213D02*
D03*
X-324803D02*
D03*
X-314803Y149213D02*
D03*
X-324803D02*
D03*
X-314803Y159213D02*
D03*
X-324803D02*
D03*
X-314803Y169213D02*
D03*
X-324803D02*
D03*
X-314803Y179213D02*
D03*
X-324803D02*
D03*
X-314803Y189213D02*
D03*
X-324803D02*
D03*
X-314803Y199213D02*
D03*
X-324803D02*
D03*
X-314803Y209213D02*
D03*
X-324803D02*
D03*
X-314803Y219213D02*
D03*
X-324803D02*
D03*
X-314803Y229213D02*
D03*
X-324803D02*
D03*
D99*
X-20000Y335000D02*
D03*
Y20000D02*
D03*
X-357520Y35000D02*
D03*
Y325000D02*
D03*
D100*
X-333849Y302140D02*
D03*
X-333125Y338195D02*
D03*
X-334696Y330209D02*
D03*
X-220995Y334296D02*
D03*
X-128000Y131628D02*
D03*
X-141732Y127953D02*
D03*
X-147638D02*
D03*
X-133858D02*
D03*
X-310134Y279613D02*
D03*
X-298608Y253689D02*
D03*
X-129921Y147638D02*
D03*
X-206693Y125984D02*
D03*
X-66929Y114173D02*
D03*
X-96457Y51181D02*
D03*
X-29179Y143966D02*
D03*
X-19685Y145669D02*
D03*
X-236232Y244094D02*
D03*
X-236221Y169291D02*
D03*
X-233431Y157754D02*
D03*
X-293307Y171260D02*
D03*
X-283465Y165354D02*
D03*
X-307996Y27559D02*
D03*
X-204724Y147638D02*
D03*
X-201444Y142933D02*
D03*
X-194882Y159449D02*
D03*
X-204724Y161417D02*
D03*
X-194414Y178796D02*
D03*
X-210630Y131890D02*
D03*
X-227172Y271433D02*
D03*
X-247540Y268071D02*
D03*
X-257473Y285501D02*
D03*
X-227409D02*
D03*
X-206693Y285433D02*
D03*
X-336614Y35433D02*
D03*
X-364173Y76772D02*
D03*
X-344488Y120079D02*
D03*
X-176027Y64581D02*
D03*
X-129912Y274531D02*
D03*
X-150827Y285433D02*
D03*
X-90827D02*
D03*
X-223500Y204724D02*
D03*
X-224476Y116075D02*
D03*
X-181997Y301181D02*
D03*
X-186133Y244094D02*
D03*
X-88583Y301181D02*
D03*
X-100394Y297244D02*
D03*
X-174241Y233297D02*
D03*
X-183071Y311024D02*
D03*
X-100937Y250302D02*
D03*
X-188976Y248031D02*
D03*
X-145669Y241216D02*
D03*
X-265748Y273622D02*
D03*
X-210630Y244094D02*
D03*
X-273654Y248016D02*
D03*
X-248031Y244094D02*
D03*
X-240158Y240158D02*
D03*
X-202756Y242126D02*
D03*
X-224410Y244094D02*
D03*
X-24945Y164366D02*
D03*
X-11613Y100728D02*
D03*
X-11811Y62992D02*
D03*
X-31496Y78740D02*
D03*
X-33346Y239930D02*
D03*
X-57087Y208661D02*
D03*
X-372659Y308926D02*
D03*
X-175197Y343547D02*
D03*
X-368081Y228346D02*
D03*
X-370079Y171260D02*
D03*
X-367201Y208661D02*
D03*
X-106299Y326772D02*
D03*
X-372047Y151575D02*
D03*
X-308364Y196850D02*
D03*
X-306364Y189340D02*
D03*
X-299213Y178796D02*
D03*
X-173422Y182084D02*
D03*
X-188658Y185584D02*
D03*
X-167323Y198819D02*
D03*
Y202756D02*
D03*
Y206693D02*
D03*
Y210630D02*
D03*
X-122047Y198819D02*
D03*
Y202756D02*
D03*
X-125984Y198819D02*
D03*
Y175197D02*
D03*
X-162476Y179134D02*
D03*
X-102362Y175197D02*
D03*
X-177165Y169291D02*
D03*
X-127953Y167323D02*
D03*
X-122047Y122047D02*
D03*
X-238189Y139764D02*
D03*
X-307087Y171260D02*
D03*
X-342520Y261811D02*
D03*
X-344488Y163386D02*
D03*
X-334646Y159449D02*
D03*
X-332677Y110236D02*
D03*
X-29528Y318898D02*
D03*
Y149606D02*
D03*
X-57087Y133858D02*
D03*
X-173228Y114173D02*
D03*
X-122047Y98425D02*
D03*
X-129921D02*
D03*
X-181102Y143701D02*
D03*
X-164476Y167323D02*
D03*
X-277559Y165354D02*
D03*
X-301181Y259839D02*
D03*
X-342520Y269685D02*
D03*
X-257874Y177165D02*
D03*
X-263779Y135827D02*
D03*
X-277559Y110236D02*
D03*
X-283465Y45276D02*
D03*
X-287116Y59374D02*
D03*
X-290478Y69054D02*
D03*
X-293457Y118164D02*
D03*
X-300377Y109130D02*
D03*
X-303255Y23622D02*
D03*
X-297244Y114173D02*
D03*
Y29528D02*
D03*
X-241130Y208661D02*
D03*
X-239130Y212598D02*
D03*
X-214343Y115995D02*
D03*
X-228346Y110236D02*
D03*
X-90204Y39252D02*
D03*
X-98425Y161417D02*
D03*
X-145669Y157480D02*
D03*
X-234186Y125918D02*
D03*
X-277801Y32555D02*
D03*
X-247525Y32585D02*
D03*
X-261372Y38265D02*
D03*
X-281496Y35433D02*
D03*
X-263779Y68898D02*
D03*
X-228346Y41339D02*
D03*
X-224410Y45276D02*
D03*
X-230382Y196916D02*
D03*
X-188976Y84646D02*
D03*
X-336614Y139764D02*
D03*
X-338457Y145669D02*
D03*
X-344488Y92520D02*
D03*
X-196850Y248031D02*
D03*
X-206693Y187008D02*
D03*
X-188976Y318898D02*
D03*
X-162833Y192446D02*
D03*
X-244094Y340551D02*
D03*
X-141732Y202756D02*
D03*
Y198819D02*
D03*
X-145669Y206693D02*
D03*
Y202756D02*
D03*
Y198819D02*
D03*
X-141732Y210630D02*
D03*
X-145669D02*
D03*
X-141732Y206693D02*
D03*
X-210630Y208661D02*
D03*
X-342520Y251969D02*
D03*
X-340520Y224410D02*
D03*
Y216535D02*
D03*
X-336614Y76772D02*
D03*
X-181102Y114173D02*
D03*
Y61024D02*
D03*
X-267717Y68898D02*
D03*
X-228346D02*
D03*
X-106299Y197000D02*
D03*
X-102628D02*
D03*
X-106299Y202756D02*
D03*
X-102362D02*
D03*
X-240158Y216535D02*
D03*
X-242126Y177165D02*
D03*
X-96457Y173228D02*
D03*
X-64961Y305118D02*
D03*
X-62992Y216535D02*
D03*
X-66929Y196850D02*
D03*
X-143701Y305118D02*
D03*
X-332677Y165354D02*
D03*
X-104395Y234153D02*
D03*
X-102362Y237311D02*
D03*
X-92520Y244429D02*
D03*
X-90551Y250078D02*
D03*
X-120079Y238189D02*
D03*
X-167323D02*
D03*
X-78740Y250000D02*
D03*
X-70866Y246063D02*
D03*
X-92520Y167323D02*
D03*
X-122047D02*
D03*
X-96457Y230315D02*
D03*
X-141732Y171260D02*
D03*
X-112205Y11024D02*
D03*
X-62992Y94488D02*
D03*
X-114173Y96457D02*
D03*
X-153543Y108268D02*
D03*
X-153445Y39370D02*
D03*
X-157480Y31496D02*
D03*
X-143701Y9843D02*
D03*
X-192913Y51181D02*
D03*
X-206693Y88583D02*
D03*
X-196850Y55118D02*
D03*
X-269685Y104331D02*
D03*
X-244094Y106299D02*
D03*
X-246063Y143701D02*
D03*
X-242126Y36342D02*
D03*
X-270595Y192913D02*
D03*
X-269685Y185039D02*
D03*
X-246063Y200787D02*
D03*
X-267717Y167323D02*
D03*
X-305118Y242126D02*
D03*
X-242126Y228346D02*
D03*
X-295276Y198819D02*
D03*
X-283465Y141732D02*
D03*
X-204724Y42323D02*
D03*
X-104245Y217087D02*
D03*
X-102362Y210630D02*
D03*
Y206693D02*
D03*
X-106299D02*
D03*
Y210630D02*
D03*
X-125984D02*
D03*
Y206693D02*
D03*
Y202756D02*
D03*
X-122047Y206693D02*
D03*
Y210630D02*
D03*
X-163386Y198819D02*
D03*
Y202756D02*
D03*
Y206693D02*
D03*
Y210630D02*
D03*
X-267717Y72835D02*
D03*
Y76772D02*
D03*
Y80709D02*
D03*
X-263779D02*
D03*
Y76772D02*
D03*
Y72835D02*
D03*
X-244094Y68898D02*
D03*
Y72835D02*
D03*
Y76772D02*
D03*
Y80709D02*
D03*
X-248031D02*
D03*
Y76772D02*
D03*
Y72835D02*
D03*
Y68898D02*
D03*
X-228346Y80709D02*
D03*
Y76772D02*
D03*
Y72835D02*
D03*
X-224410Y80709D02*
D03*
Y76772D02*
D03*
Y72835D02*
D03*
Y68898D02*
D03*
X-208661Y80709D02*
D03*
X-204724D02*
D03*
X-208661Y76772D02*
D03*
X-204724D02*
D03*
X-208661Y72835D02*
D03*
X-204724D02*
D03*
X-208661Y68898D02*
D03*
X-204724D02*
D03*
X-165354Y64961D02*
D03*
X-129921Y48228D02*
D03*
X-104331Y74803D02*
D03*
D101*
X-278051Y208878D02*
D03*
Y213878D02*
D03*
Y218878D02*
D03*
Y223878D02*
D03*
Y228878D02*
D03*
Y233878D02*
D03*
Y238878D02*
D03*
Y243878D02*
D03*
X-257382Y208878D02*
D03*
Y213878D02*
D03*
Y218878D02*
D03*
Y223878D02*
D03*
Y228878D02*
D03*
Y233878D02*
D03*
Y238878D02*
D03*
Y243878D02*
D03*
D102*
X-108268Y297244D02*
D03*
Y302165D02*
D03*
X-118110Y297244D02*
D03*
Y302165D02*
D03*
X-127953Y297244D02*
D03*
Y302165D02*
D03*
X-137795Y297244D02*
D03*
Y302165D02*
D03*
X-342520Y280118D02*
D03*
Y275000D02*
D03*
X-104331Y222441D02*
D03*
Y227559D02*
D03*
X-301181Y148425D02*
D03*
Y153543D02*
D03*
X-283465Y175787D02*
D03*
Y170669D02*
D03*
D103*
X-196457Y135827D02*
D03*
X-190945D02*
D03*
X-191732Y106299D02*
D03*
X-186221D02*
D03*
X-211811Y151575D02*
D03*
X-217323D02*
D03*
X-211024Y141732D02*
D03*
X-216535D02*
D03*
D104*
X-157087Y121457D02*
D03*
Y136811D02*
D03*
Y134252D02*
D03*
Y131693D02*
D03*
Y129134D02*
D03*
Y126575D02*
D03*
Y124016D02*
D03*
X-181102Y136811D02*
D03*
Y134252D02*
D03*
Y131693D02*
D03*
Y129134D02*
D03*
Y126575D02*
D03*
Y124016D02*
D03*
Y121457D02*
D03*
D105*
X-327953Y35433D02*
D03*
Y27559D02*
D03*
D106*
X-315158Y31496D02*
D03*
D107*
X-217126Y97303D02*
D03*
Y92303D02*
D03*
Y87303D02*
D03*
Y82303D02*
D03*
Y77303D02*
D03*
Y72303D02*
D03*
Y67303D02*
D03*
Y62303D02*
D03*
Y57303D02*
D03*
Y52303D02*
D03*
X-255315Y97303D02*
D03*
Y92303D02*
D03*
Y87303D02*
D03*
Y82303D02*
D03*
Y77303D02*
D03*
Y72303D02*
D03*
Y67303D02*
D03*
Y62303D02*
D03*
Y57303D02*
D03*
Y52303D02*
D03*
X-114764Y227224D02*
D03*
Y222224D02*
D03*
Y217224D02*
D03*
Y212224D02*
D03*
Y207224D02*
D03*
Y202224D02*
D03*
Y197224D02*
D03*
Y192224D02*
D03*
Y187224D02*
D03*
Y182224D02*
D03*
X-152953Y227224D02*
D03*
Y222224D02*
D03*
Y217224D02*
D03*
Y212224D02*
D03*
Y207224D02*
D03*
Y202224D02*
D03*
Y197224D02*
D03*
Y192224D02*
D03*
Y187224D02*
D03*
Y182224D02*
D03*
D108*
X-131890Y21654D02*
D03*
Y9843D02*
D03*
D109*
X-22204Y159451D02*
D03*
X-16298D02*
D03*
X-110236Y57087D02*
D03*
X-116142D02*
D03*
D110*
X-209842Y135827D02*
D03*
X-204724D02*
D03*
X-204222Y106264D02*
D03*
X-199104D02*
D03*
X-114764Y74803D02*
D03*
X-109646D02*
D03*
X-158120Y65766D02*
D03*
X-153002D02*
D03*
D111*
X-147638Y91732D02*
D03*
X-139764D02*
D03*
X-129921D02*
D03*
X-122047D02*
D03*
D112*
X-143701Y78937D02*
D03*
X-125984D02*
D03*
D113*
X-106299Y333858D02*
D03*
Y339370D02*
D03*
X-112205Y18898D02*
D03*
Y24409D02*
D03*
D114*
X-23622Y53150D02*
D03*
X-11811D02*
D03*
X-23622Y90551D02*
D03*
X-11811D02*
D03*
X-21654Y129921D02*
D03*
X-9843D02*
D03*
D115*
X-143701Y42323D02*
D03*
Y48229D02*
D03*
X-307087Y339567D02*
D03*
Y333661D02*
D03*
X-250000Y340551D02*
D03*
Y334646D02*
D03*
%TF.MD5,5a43ffd6338716d4b5be5bfa83873d4c*%
M02*
