%TF.GenerationSoftware,Altium Limited,Altium Designer,23.1.1 (15)*%
G04 Layer_Color=65535*
%FSLAX25Y25*%
%MOIN*%
%TF.SameCoordinates,FA324DF6-1FC1-44E6-B842-7DB02DEBFDBB*%
%TF.FilePolarity,Positive*%
%TF.FileFunction,Legend,Top*%
%TF.Part,Single*%
G01*
G75*
%TA.AperFunction,NonConductor*%
%ADD73C,0.00984*%
%ADD74C,0.01181*%
%ADD75C,0.00787*%
%ADD76C,0.00394*%
%ADD77C,0.01000*%
D73*
X-299878Y303740D02*
G03*
X-299878Y303740I-492J0D01*
G01*
X-338445Y141811D02*
G03*
X-338445Y141811I-492J0D01*
G01*
X-164862Y347087D02*
G03*
X-164862Y347087I-492J0D01*
G01*
X-198031D02*
G03*
X-198031Y347087I-492J0D01*
G01*
X-146043Y312992D02*
G03*
X-146043Y312992I-492J0D01*
G01*
D74*
X-80276Y293898D02*
G03*
X-81457Y293898I-591J0D01*
G01*
D02*
G03*
X-80276Y293898I591J0D01*
G01*
X-196732D02*
G03*
X-197913Y293898I-591J0D01*
G01*
D02*
G03*
X-196732Y293898I591J0D01*
G01*
X-12992Y176378D02*
X-20864D01*
X-12992Y181626D01*
X-20864D01*
X-12992Y185561D02*
Y188185D01*
X-14304Y189497D01*
X-16928D01*
X-18240Y188185D01*
Y185561D01*
X-16928Y184249D01*
X-14304D01*
X-12992Y185561D01*
X-18240Y193433D02*
Y196057D01*
X-16928Y197369D01*
X-12992D01*
Y193433D01*
X-14304Y192121D01*
X-15616Y193433D01*
Y197369D01*
X-20864Y199992D02*
X-12992D01*
X-16928D01*
X-18240Y201304D01*
Y203928D01*
X-16928Y205240D01*
X-12992D01*
X-19552Y220983D02*
X-20864Y219671D01*
Y217047D01*
X-19552Y215735D01*
X-14304D01*
X-12992Y217047D01*
Y219671D01*
X-14304Y220983D01*
X-16928D01*
Y218359D01*
X-18240Y223607D02*
X-12992D01*
X-15616D01*
X-16928Y224919D01*
X-18240Y226231D01*
Y227543D01*
Y232790D02*
Y235414D01*
X-16928Y236726D01*
X-12992D01*
Y232790D01*
X-14304Y231478D01*
X-15616Y232790D01*
Y236726D01*
X-12992Y239350D02*
X-18240D01*
Y243285D01*
X-16928Y244597D01*
X-12992D01*
X-19552Y248533D02*
X-18240D01*
Y247221D01*
Y249845D01*
Y248533D01*
X-14304D01*
X-12992Y249845D01*
X-20864Y266900D02*
Y261652D01*
X-12992D01*
Y266900D01*
X-16928Y261652D02*
Y264276D01*
X-19552Y274771D02*
X-20864Y273460D01*
Y270836D01*
X-19552Y269524D01*
X-18240D01*
X-16928Y270836D01*
Y273460D01*
X-15616Y274771D01*
X-14304D01*
X-12992Y273460D01*
Y270836D01*
X-14304Y269524D01*
X-20864Y282643D02*
Y277395D01*
X-12992D01*
Y282643D01*
X-16928Y277395D02*
Y280019D01*
X-20864Y293138D02*
X-12992D01*
X-15616Y295762D01*
X-12992Y298386D01*
X-20864D01*
X-12992Y306257D02*
Y301010D01*
X-18240Y306257D01*
X-19552D01*
X-20864Y304945D01*
Y302322D01*
X-19552Y301010D01*
Y308881D02*
X-20864Y310193D01*
Y312817D01*
X-19552Y314129D01*
X-18240D01*
X-16928Y312817D01*
Y311505D01*
Y312817D01*
X-15616Y314129D01*
X-14304D01*
X-12992Y312817D01*
Y310193D01*
X-14304Y308881D01*
D75*
X-68110Y49016D02*
G03*
X-68110Y49016I-197J0D01*
G01*
X-308110D02*
G03*
X-308110Y49016I-197J0D01*
G01*
X-338799Y306299D02*
Y377953D01*
X-216319D01*
Y306299D02*
Y377953D01*
X-338799Y306299D02*
X-216319D01*
X-324291Y295020D02*
X-318898D01*
X-324291Y254035D02*
Y295020D01*
Y254035D02*
X-313504D01*
Y289528D01*
X-367205Y307402D02*
X-347205D01*
Y235906D02*
Y307402D01*
X-367205Y235906D02*
X-347205D01*
X-367205D02*
Y307402D01*
Y230472D02*
X-347205D01*
Y158976D02*
Y230472D01*
X-367205Y158976D02*
X-347205D01*
X-367205D02*
Y230472D01*
X-326378Y10748D02*
X-169016D01*
Y21476D01*
X-332362D02*
X-169016D01*
X-332362Y15748D02*
Y21476D01*
X-66969Y368386D02*
X-65709Y369173D01*
X-64449Y368386D01*
X-66969Y345847D02*
Y368386D01*
X-64449Y345847D02*
Y368386D01*
X-86968D02*
X-85709Y369173D01*
X-84449Y368386D01*
X-86968Y345847D02*
Y368386D01*
X-84449Y345847D02*
Y368386D01*
X-96969D02*
X-95709Y369173D01*
X-94449Y368386D01*
X-96969Y345847D02*
Y368386D01*
X-94449Y345847D02*
Y368386D01*
X-101299Y335256D02*
X-60118D01*
Y345847D01*
X-101299D02*
X-60118D01*
X-101299Y335256D02*
Y345847D01*
X-74449D02*
Y368386D01*
X-76968Y345847D02*
Y368386D01*
X-75709Y369173D02*
X-74449Y368386D01*
X-76968D02*
X-75709Y369173D01*
X-89646Y-12874D02*
X-88386Y-12087D01*
X-90905D02*
X-89646Y-12874D01*
X-88386Y-12087D02*
Y10453D01*
X-90905Y-12087D02*
Y10453D01*
X-64055D02*
Y21043D01*
X-105236Y10453D02*
X-64055D01*
X-105236D02*
Y21043D01*
X-64055D01*
X-70906Y-12087D02*
Y10453D01*
X-68386Y-12087D02*
Y10453D01*
X-70906Y-12087D02*
X-69646Y-12874D01*
X-68386Y-12087D01*
X-80905D02*
Y10453D01*
X-78386Y-12087D02*
Y10453D01*
X-80905Y-12087D02*
X-79646Y-12874D01*
X-78386Y-12087D01*
X-100906D02*
Y10453D01*
X-98386Y-12087D02*
Y10453D01*
X-100906Y-12087D02*
X-99646Y-12874D01*
X-98386Y-12087D01*
X-348158Y108798D02*
Y114192D01*
X-369142D02*
X-348158D01*
X-369142Y103405D02*
Y114192D01*
Y103405D02*
X-353650D01*
X-371949Y129705D02*
X-340965D01*
X-371949D02*
Y153917D01*
X-340965D01*
Y129705D02*
Y153917D01*
X-152657Y313543D02*
Y343937D01*
X-178642Y313543D02*
X-152657D01*
X-178642D02*
Y343937D01*
X-152657D01*
X-185827Y313543D02*
Y343937D01*
X-211811Y313543D02*
X-185827D01*
X-211811D02*
Y343937D01*
X-185827D01*
X-50000Y17638D02*
X-34921D01*
Y343150D01*
X-54961D02*
X-34921D01*
X-54961Y25000D02*
Y343150D01*
X-339370Y51890D02*
Y67087D01*
X-365354Y51890D02*
X-339370D01*
X-365354D02*
Y72284D01*
X-352362D01*
X-365354Y82677D02*
Y97874D01*
X-339370D01*
Y77480D02*
Y97874D01*
X-352362Y77480D02*
X-339370D01*
X-144173Y307736D02*
Y318248D01*
Y307736D02*
X-62677D01*
Y318248D01*
X-144173D02*
X-62677D01*
D76*
X-175827Y290354D02*
X-158622D01*
X-175827Y254921D02*
Y290354D01*
Y254921D02*
X-158622D01*
X-83031D02*
X-65709D01*
X-65827Y290354D02*
X-65709Y254921D01*
X-83031Y290354D02*
X-65827D01*
X-292284D02*
X-275079D01*
X-292284Y254921D02*
Y290354D01*
Y254921D02*
X-275079D01*
X-199488D02*
X-182165D01*
X-182283Y290354D02*
X-182165Y254921D01*
X-199488Y290354D02*
X-182283D01*
X-89547Y43209D02*
Y235216D01*
Y43209D02*
X-70059D01*
Y235216D01*
X-89547D02*
X-70059D01*
X-329547Y43209D02*
Y235216D01*
Y43209D02*
X-310059D01*
Y235216D01*
X-329547D02*
X-310059D01*
D77*
X-140168Y245707D02*
Y240788D01*
X-137708D01*
X-136889Y241608D01*
Y244887D01*
X-137708Y245707D01*
X-140168D01*
X-131969D02*
X-135249D01*
Y240788D01*
X-131969D01*
X-135249Y243248D02*
X-133609D01*
X-130329Y245707D02*
Y240788D01*
X-127869D01*
X-127049Y241608D01*
Y242427D01*
X-127869Y243248D01*
X-130329D01*
X-127869D01*
X-127049Y244067D01*
Y244887D01*
X-127869Y245707D01*
X-130329D01*
X-125409D02*
Y241608D01*
X-124589Y240788D01*
X-122950D01*
X-122129Y241608D01*
Y245707D01*
X-117210Y244887D02*
X-118030Y245707D01*
X-119670D01*
X-120490Y244887D01*
Y241608D01*
X-119670Y240788D01*
X-118030D01*
X-117210Y241608D01*
Y243248D01*
X-118850D01*
X-107370Y240788D02*
X-110650D01*
X-107370Y244067D01*
Y244887D01*
X-108191Y245707D01*
X-109830D01*
X-110650Y244887D01*
X-289201Y242617D02*
Y237698D01*
X-286741D01*
X-285921Y238518D01*
Y241797D01*
X-286741Y242617D01*
X-289201D01*
X-281001D02*
X-284281D01*
Y237698D01*
X-281001D01*
X-284281Y240158D02*
X-282641D01*
X-279362Y242617D02*
Y237698D01*
X-276902D01*
X-276082Y238518D01*
Y239337D01*
X-276902Y240158D01*
X-279362D01*
X-276902D01*
X-276082Y240977D01*
Y241797D01*
X-276902Y242617D01*
X-279362D01*
X-274442D02*
Y238518D01*
X-273622Y237698D01*
X-271982D01*
X-271162Y238518D01*
Y242617D01*
X-266243Y241797D02*
X-267062Y242617D01*
X-268702D01*
X-269522Y241797D01*
Y238518D01*
X-268702Y237698D01*
X-267062D01*
X-266243Y238518D01*
Y240158D01*
X-267882D01*
X-259683Y237698D02*
X-258043D01*
X-258863D01*
Y242617D01*
X-259683Y241797D01*
X-340060Y238026D02*
X-344980D01*
Y240486D01*
X-344160Y241306D01*
X-342520D01*
X-341700Y240486D01*
Y238026D01*
X-340060Y246226D02*
Y242946D01*
X-343340Y246226D01*
X-344160D01*
X-344980Y245406D01*
Y243766D01*
X-344160Y242946D01*
X-340060Y167980D02*
X-344980D01*
Y170440D01*
X-344160Y171260D01*
X-342520D01*
X-341700Y170440D01*
Y167980D01*
X-340060Y172900D02*
Y174540D01*
Y173720D01*
X-344980D01*
X-344160Y172900D01*
X-333169Y256237D02*
X-329069D01*
X-328249Y257057D01*
Y258697D01*
X-329069Y259517D01*
X-333169D01*
Y261157D02*
X-328249D01*
Y264437D01*
X-333169Y266077D02*
Y269356D01*
Y267717D01*
X-328249D01*
Y270996D02*
X-333169D01*
Y273456D01*
X-332349Y274276D01*
X-330709D01*
X-329889Y273456D01*
Y270996D01*
Y272636D02*
X-328249Y274276D01*
Y275916D02*
X-331529D01*
X-333169Y277556D01*
X-331529Y279196D01*
X-328249D01*
X-330709D01*
Y275916D01*
X-366467Y125656D02*
X-367287Y126476D01*
X-368927D01*
X-369747Y125656D01*
Y124836D01*
X-368927Y124016D01*
X-367287D01*
X-366467Y123196D01*
Y122376D01*
X-367287Y121556D01*
X-368927D01*
X-369747Y122376D01*
X-361547Y125656D02*
X-362368Y126476D01*
X-364007D01*
X-364827Y125656D01*
Y122376D01*
X-364007Y121556D01*
X-362368D01*
X-361547Y122376D01*
X-357448Y126476D02*
X-359088D01*
X-359908Y125656D01*
Y122376D01*
X-359088Y121556D01*
X-357448D01*
X-356628Y122376D01*
Y125656D01*
X-357448Y126476D01*
X-354988Y121556D02*
Y126476D01*
X-352528D01*
X-351708Y125656D01*
Y124016D01*
X-352528Y123196D01*
X-354988D01*
X-346789Y126476D02*
X-350068D01*
Y121556D01*
X-346789D01*
X-350068Y124016D02*
X-348428D01*
X-58313Y9351D02*
Y14271D01*
X-55853D01*
X-55034Y13451D01*
Y11811D01*
X-55853Y10991D01*
X-58313D01*
X-50114Y13451D02*
X-50934Y14271D01*
X-52574D01*
X-53394Y13451D01*
Y10171D01*
X-52574Y9351D01*
X-50934D01*
X-50114Y10171D01*
X-48474Y9351D02*
X-46834D01*
X-47654D01*
Y14271D01*
X-48474Y13451D01*
X-44374D02*
X-43554Y14271D01*
X-41914D01*
X-41094Y13451D01*
Y10171D01*
X-41914Y9351D01*
X-43554D01*
X-44374Y10171D01*
Y13451D01*
X-36995Y9351D02*
Y14271D01*
X-39455Y11811D01*
X-36175D01*
X-302658Y52912D02*
X-307578D01*
X-302658Y56192D01*
X-307578D01*
Y57832D02*
X-303478D01*
X-302658Y58652D01*
Y60291D01*
X-303478Y61111D01*
X-307578D01*
X-306758Y66031D02*
X-307578Y65211D01*
Y63571D01*
X-306758Y62751D01*
X-303478D01*
X-302658Y63571D01*
Y65211D01*
X-303478Y66031D01*
X-307578Y67671D02*
X-302658D01*
Y70951D01*
X-307578Y75870D02*
Y72591D01*
X-302658D01*
Y75870D01*
X-305118Y72591D02*
Y74230D01*
X-307578Y79970D02*
Y78330D01*
X-306758Y77510D01*
X-303478D01*
X-302658Y78330D01*
Y79970D01*
X-303478Y80790D01*
X-306758D01*
X-307578Y79970D01*
X-306758Y90629D02*
X-307578Y89809D01*
Y88169D01*
X-306758Y87350D01*
X-303478D01*
X-302658Y88169D01*
Y89809D01*
X-303478Y90629D01*
X-302658Y92269D02*
X-307578D01*
X-302658Y95549D01*
X-307578D01*
X-302658Y97189D02*
Y98829D01*
Y98009D01*
X-307578D01*
X-306758Y97189D01*
Y101289D02*
X-307578Y102109D01*
Y103749D01*
X-306758Y104568D01*
X-303478D01*
X-302658Y103749D01*
Y102109D01*
X-303478Y101289D01*
X-306758D01*
X-92028Y56930D02*
X-96948D01*
X-92028Y60210D01*
X-96948D01*
Y61850D02*
X-92848D01*
X-92028Y62670D01*
Y64310D01*
X-92848Y65130D01*
X-96948D01*
X-96128Y70049D02*
X-96948Y69229D01*
Y67589D01*
X-96128Y66770D01*
X-92848D01*
X-92028Y67589D01*
Y69229D01*
X-92848Y70049D01*
X-96948Y71689D02*
X-92028D01*
Y74969D01*
X-96948Y79889D02*
Y76609D01*
X-92028D01*
Y79889D01*
X-94488Y76609D02*
Y78249D01*
X-96948Y83988D02*
Y82349D01*
X-96128Y81529D01*
X-92848D01*
X-92028Y82349D01*
Y83988D01*
X-92848Y84808D01*
X-96128D01*
X-96948Y83988D01*
X-96128Y94648D02*
X-96948Y93828D01*
Y92188D01*
X-96128Y91368D01*
X-92848D01*
X-92028Y92188D01*
Y93828D01*
X-92848Y94648D01*
X-92028Y96288D02*
X-96948D01*
X-92028Y99567D01*
X-96948D01*
Y101207D02*
Y104487D01*
X-96128D01*
X-92848Y101207D01*
X-92028D01*
X-367619Y47576D02*
X-372539D01*
X-370899Y49216D01*
X-372539Y50856D01*
X-367619D01*
X-372539Y52496D02*
Y55775D01*
Y54136D01*
X-367619D01*
Y57415D02*
X-372539D01*
Y59875D01*
X-371719Y60695D01*
X-370079D01*
X-369259Y59875D01*
Y57415D01*
Y59055D02*
X-367619Y60695D01*
Y67255D02*
X-372539D01*
Y69714D01*
X-371719Y70534D01*
X-370079D01*
X-369259Y69714D01*
Y67255D01*
Y68894D02*
X-367619Y70534D01*
X-368300Y76931D02*
X-373220D01*
X-371580Y78571D01*
X-373220Y80211D01*
X-368300D01*
X-373220Y81850D02*
Y85130D01*
Y83490D01*
X-368300D01*
Y86770D02*
X-373220D01*
Y89230D01*
X-372400Y90050D01*
X-370760D01*
X-369940Y89230D01*
Y86770D01*
Y88410D02*
X-368300Y90050D01*
X-373220Y96609D02*
X-368300D01*
Y99889D01*
X-181442Y28239D02*
Y23319D01*
X-178162D01*
X-173243Y27419D02*
X-174063Y28239D01*
X-175703D01*
X-176523Y27419D01*
Y24139D01*
X-175703Y23319D01*
X-174063D01*
X-173243Y24139D01*
X-171603Y28239D02*
Y23319D01*
X-169143D01*
X-168323Y24139D01*
Y27419D01*
X-169143Y28239D01*
X-171603D01*
X-143860Y325294D02*
Y320375D01*
Y322015D01*
X-140580Y325294D01*
X-143040Y322835D01*
X-140580Y320375D01*
X-135661Y325294D02*
X-138941D01*
Y320375D01*
X-135661D01*
X-138941Y322835D02*
X-137301D01*
X-134021Y325294D02*
Y324475D01*
X-132381Y322835D01*
X-130741Y324475D01*
Y325294D01*
X-132381Y322835D02*
Y320375D01*
X-129101D02*
Y325294D01*
X-126641D01*
X-125821Y324475D01*
Y322835D01*
X-126641Y322015D01*
X-129101D01*
X-124182Y320375D02*
Y323655D01*
X-122542Y325294D01*
X-120902Y323655D01*
Y320375D01*
Y322835D01*
X-124182D01*
X-119262Y325294D02*
Y320375D01*
X-116802D01*
X-115982Y321195D01*
Y324475D01*
X-116802Y325294D01*
X-119262D01*
X-344488Y343011D02*
X-346128D01*
X-345308D01*
Y338911D01*
X-346128Y338091D01*
X-346948D01*
X-347768Y338911D01*
X-342848Y338091D02*
X-341208D01*
X-342028D01*
Y343011D01*
X-342848Y342191D01*
X-108759Y331942D02*
Y333582D01*
Y332762D01*
X-103839D01*
Y331942D01*
Y333582D01*
Y336041D02*
X-108759D01*
Y338501D01*
X-107939Y339321D01*
X-106299D01*
X-105479Y338501D01*
Y336041D01*
Y337681D02*
X-103839Y339321D01*
Y345881D02*
X-108759D01*
Y348341D01*
X-107939Y349161D01*
X-106299D01*
X-105479Y348341D01*
Y345881D01*
Y347521D02*
X-103839Y349161D01*
X-112696Y13044D02*
Y14684D01*
Y13864D01*
X-107776D01*
Y13044D01*
Y14684D01*
Y17144D02*
X-112696D01*
Y19604D01*
X-111876Y20424D01*
X-110236D01*
X-109416Y19604D01*
Y17144D01*
Y18784D02*
X-107776Y20424D01*
X-112696Y26983D02*
X-107776D01*
Y30263D01*
X-173554Y311515D02*
X-176834D01*
Y306595D01*
X-173554D01*
X-176834Y309055D02*
X-175194D01*
X-171914Y306595D02*
Y311515D01*
X-168634Y306595D01*
Y311515D01*
X-163714Y310695D02*
X-164534Y311515D01*
X-166174D01*
X-166994Y310695D01*
Y307415D01*
X-166174Y306595D01*
X-164534D01*
X-163714Y307415D01*
X-157155Y306595D02*
Y311515D01*
X-154695D01*
X-153875Y310695D01*
Y309055D01*
X-154695Y308235D01*
X-157155D01*
X-155515D02*
X-153875Y306595D01*
X-207018Y311515D02*
X-210298D01*
Y306595D01*
X-207018D01*
X-210298Y309055D02*
X-208658D01*
X-205379Y306595D02*
Y311515D01*
X-202099Y306595D01*
Y311515D01*
X-197179Y310695D02*
X-197999Y311515D01*
X-199639D01*
X-200459Y310695D01*
Y307415D01*
X-199639Y306595D01*
X-197999D01*
X-197179Y307415D01*
X-190620Y311515D02*
Y306595D01*
X-187340D01*
X-344702Y105534D02*
Y102254D01*
X-339782D01*
Y105534D01*
X-342242Y102254D02*
Y103894D01*
X-344702Y110454D02*
Y107174D01*
X-342242D01*
X-343062Y108814D01*
Y109634D01*
X-342242Y110454D01*
X-340602D01*
X-339782Y109634D01*
Y107994D01*
X-340602Y107174D01*
X-344702Y112093D02*
X-341422D01*
X-339782Y113733D01*
X-341422Y115373D01*
X-344702D01*
%TF.MD5,67d394f28eecb182dce88a710756421c*%
M02*
