%TF.GenerationSoftware,Altium Limited,Altium Designer,23.1.1 (15)*%
G04 Layer_Color=255*
%FSLAX25Y25*%
%MOIN*%
%TF.SameCoordinates,FA324DF6-1FC1-44E6-B842-7DB02DEBFDBB*%
%TF.FilePolarity,Positive*%
%TF.FileFunction,Pads,Top*%
%TF.Part,Single*%
G01*
G75*
%TA.AperFunction,SMDPad,CuDef*%
%ADD10R,0.03504X0.18898*%
%TA.AperFunction,ComponentPad*%
%ADD17C,0.14488*%
%ADD18R,0.06299X0.06299*%
%ADD19C,0.06299*%
%ADD20R,0.06201X0.06201*%
%ADD21C,0.06201*%
%ADD22R,0.06102X0.06102*%
%ADD23C,0.06102*%
%ADD24R,0.07972X0.07972*%
%ADD25C,0.07972*%
%ADD26C,0.06496*%
%ADD27R,0.06496X0.06496*%
%ADD28R,0.06201X0.06201*%
%ADD29R,0.07244X0.07244*%
%ADD30C,0.07244*%
%ADD31R,0.06181X0.06181*%
%ADD32C,0.06181*%
%ADD33C,0.05610*%
%ADD34R,0.05610X0.05610*%
%ADD35R,0.07382X0.07382*%
%ADD36C,0.07382*%
%ADD37R,0.06181X0.06181*%
%TA.AperFunction,WasherPad*%
%ADD38C,0.25000*%
D10*
X-85827Y285433D02*
D03*
Y259842D02*
D03*
X-95827Y285433D02*
D03*
Y259842D02*
D03*
X-105827Y285433D02*
D03*
Y259842D02*
D03*
X-115827Y285433D02*
D03*
Y259842D02*
D03*
X-125827Y285433D02*
D03*
Y259842D02*
D03*
X-135827Y285433D02*
D03*
Y259842D02*
D03*
X-145827Y285433D02*
D03*
Y259842D02*
D03*
X-155827Y285433D02*
D03*
Y259842D02*
D03*
X-202284Y285433D02*
D03*
Y259842D02*
D03*
X-212283Y285433D02*
D03*
Y259842D02*
D03*
X-222284Y285433D02*
D03*
Y259842D02*
D03*
X-232283Y285433D02*
D03*
Y259842D02*
D03*
X-242284Y285433D02*
D03*
Y259842D02*
D03*
X-252284Y285433D02*
D03*
Y259842D02*
D03*
X-262283Y285433D02*
D03*
Y259842D02*
D03*
X-272284Y285433D02*
D03*
Y259842D02*
D03*
D17*
X-326772Y316929D02*
D03*
X-228346D02*
D03*
D18*
X-299370Y311339D02*
D03*
D19*
X-255748D02*
D03*
X-266653D02*
D03*
X-277559D02*
D03*
X-288465D02*
D03*
X-261201Y322520D02*
D03*
X-272106D02*
D03*
X-283012D02*
D03*
X-293917D02*
D03*
D20*
X-318898Y289528D02*
D03*
D21*
Y279528D02*
D03*
Y269528D02*
D03*
Y259528D02*
D03*
X-363650Y108798D02*
D03*
D22*
X-352205Y241653D02*
D03*
Y164724D02*
D03*
D23*
Y251654D02*
D03*
Y261653D02*
D03*
Y271654D02*
D03*
Y281653D02*
D03*
Y291653D02*
D03*
Y301654D02*
D03*
X-362205Y241653D02*
D03*
Y251654D02*
D03*
Y261653D02*
D03*
Y271654D02*
D03*
Y281653D02*
D03*
Y291653D02*
D03*
Y301654D02*
D03*
X-352205Y174724D02*
D03*
Y184724D02*
D03*
Y194724D02*
D03*
Y204724D02*
D03*
Y214724D02*
D03*
Y224724D02*
D03*
X-362205Y164724D02*
D03*
Y174724D02*
D03*
Y184724D02*
D03*
Y194724D02*
D03*
Y204724D02*
D03*
Y214724D02*
D03*
Y224724D02*
D03*
D24*
X-326378Y15748D02*
D03*
D25*
X-316378D02*
D03*
X-306378D02*
D03*
X-296378D02*
D03*
X-286378D02*
D03*
X-276378D02*
D03*
X-266378D02*
D03*
X-256378D02*
D03*
X-246378D02*
D03*
X-236378D02*
D03*
X-226378D02*
D03*
X-216378D02*
D03*
X-206378D02*
D03*
X-196378D02*
D03*
X-186378D02*
D03*
X-176378D02*
D03*
D26*
X-65709Y329646D02*
D03*
X-75709D02*
D03*
X-85709D02*
D03*
X-79646Y26654D02*
D03*
X-89646D02*
D03*
X-99646D02*
D03*
D27*
X-95709Y329646D02*
D03*
X-69646Y26654D02*
D03*
D28*
X-353650Y108798D02*
D03*
D29*
X-346457Y141732D02*
D03*
D30*
X-356457D02*
D03*
X-366457D02*
D03*
D31*
X-165354Y338740D02*
D03*
X-198524D02*
D03*
D32*
X-165354Y328740D02*
D03*
Y318740D02*
D03*
X-198524Y328740D02*
D03*
Y318740D02*
D03*
X-74803Y49213D02*
D03*
X-84803D02*
D03*
X-74803Y59213D02*
D03*
X-84803D02*
D03*
X-74803Y69213D02*
D03*
X-84803D02*
D03*
X-74803Y79213D02*
D03*
X-84803D02*
D03*
X-74803Y89213D02*
D03*
X-84803D02*
D03*
X-74803Y99213D02*
D03*
X-84803D02*
D03*
X-74803Y109213D02*
D03*
X-84803D02*
D03*
X-74803Y119213D02*
D03*
X-84803D02*
D03*
X-74803Y129213D02*
D03*
X-84803D02*
D03*
X-74803Y139213D02*
D03*
X-84803D02*
D03*
X-74803Y149213D02*
D03*
X-84803D02*
D03*
X-74803Y159213D02*
D03*
X-84803D02*
D03*
X-74803Y169213D02*
D03*
X-84803D02*
D03*
X-74803Y179213D02*
D03*
X-84803D02*
D03*
X-74803Y189213D02*
D03*
X-84803D02*
D03*
X-74803Y199213D02*
D03*
X-84803D02*
D03*
X-74803Y209213D02*
D03*
X-84803D02*
D03*
X-74803Y219213D02*
D03*
X-84803D02*
D03*
X-74803Y229213D02*
D03*
X-84803D02*
D03*
X-314803Y49213D02*
D03*
X-324803D02*
D03*
X-314803Y59213D02*
D03*
X-324803D02*
D03*
X-314803Y69213D02*
D03*
X-324803D02*
D03*
X-314803Y79213D02*
D03*
X-324803D02*
D03*
X-314803Y89213D02*
D03*
X-324803D02*
D03*
X-314803Y99213D02*
D03*
X-324803D02*
D03*
X-314803Y109213D02*
D03*
X-324803D02*
D03*
X-314803Y119213D02*
D03*
X-324803D02*
D03*
X-314803Y129213D02*
D03*
X-324803D02*
D03*
X-314803Y139213D02*
D03*
X-324803D02*
D03*
X-314803Y149213D02*
D03*
X-324803D02*
D03*
X-314803Y159213D02*
D03*
X-324803D02*
D03*
X-314803Y169213D02*
D03*
X-324803D02*
D03*
X-314803Y179213D02*
D03*
X-324803D02*
D03*
X-314803Y189213D02*
D03*
X-324803D02*
D03*
X-314803Y199213D02*
D03*
X-324803D02*
D03*
X-314803Y209213D02*
D03*
X-324803D02*
D03*
X-314803Y219213D02*
D03*
X-324803D02*
D03*
X-314803Y229213D02*
D03*
X-324803D02*
D03*
X-68425Y312992D02*
D03*
X-78425D02*
D03*
X-88425D02*
D03*
X-98425D02*
D03*
X-108425D02*
D03*
X-118425D02*
D03*
X-128425D02*
D03*
D33*
X-40000Y335000D02*
D03*
Y325000D02*
D03*
Y315000D02*
D03*
Y305000D02*
D03*
Y295000D02*
D03*
Y285000D02*
D03*
Y275000D02*
D03*
Y265000D02*
D03*
Y255000D02*
D03*
Y245000D02*
D03*
Y235000D02*
D03*
Y225000D02*
D03*
Y215000D02*
D03*
Y205000D02*
D03*
Y195000D02*
D03*
Y185000D02*
D03*
Y175000D02*
D03*
Y165000D02*
D03*
Y155000D02*
D03*
Y145000D02*
D03*
Y135000D02*
D03*
Y125000D02*
D03*
Y115000D02*
D03*
Y105000D02*
D03*
Y95000D02*
D03*
Y85000D02*
D03*
Y75000D02*
D03*
Y65000D02*
D03*
Y55000D02*
D03*
Y45000D02*
D03*
Y35000D02*
D03*
Y25000D02*
D03*
X-50000Y335000D02*
D03*
Y325000D02*
D03*
Y315000D02*
D03*
Y305000D02*
D03*
Y295000D02*
D03*
Y285000D02*
D03*
Y275000D02*
D03*
Y265000D02*
D03*
Y255000D02*
D03*
Y245000D02*
D03*
Y235000D02*
D03*
Y225000D02*
D03*
Y215000D02*
D03*
Y205000D02*
D03*
Y195000D02*
D03*
Y185000D02*
D03*
Y175000D02*
D03*
Y165000D02*
D03*
Y155000D02*
D03*
Y145000D02*
D03*
Y135000D02*
D03*
Y125000D02*
D03*
Y115000D02*
D03*
Y105000D02*
D03*
Y95000D02*
D03*
Y85000D02*
D03*
Y75000D02*
D03*
Y65000D02*
D03*
Y55000D02*
D03*
Y45000D02*
D03*
Y35000D02*
D03*
D34*
Y25000D02*
D03*
D35*
X-352362Y67087D02*
D03*
Y82677D02*
D03*
D36*
Y57087D02*
D03*
Y92677D02*
D03*
D37*
X-138425Y312992D02*
D03*
D38*
X-20000Y335000D02*
D03*
Y20000D02*
D03*
X-357520Y35000D02*
D03*
Y325000D02*
D03*
%TF.MD5,7300e0923ef4cc5ddd2c79727a09daf1*%
M02*
