G04*
G04 #@! TF.GenerationSoftware,Altium Limited,Altium Designer,23.1.1 (15)*
G04*
G04 Layer_Color=128*
%FSLAX25Y25*%
%MOIN*%
G70*
G04*
G04 #@! TF.SameCoordinates,134DEFD1-A11A-4816-9570-CA793B5A4A5F*
G04*
G04*
G04 #@! TF.FilePolarity,Positive*
G04*
G01*
G75*
%ADD113C,0.00500*%
D113*
X-333032Y316929D02*
X-320512D01*
X-326772Y310669D02*
Y323189D01*
X-234606Y316929D02*
X-222087D01*
X-228346Y310669D02*
Y323189D01*
X-301516Y311339D02*
X-297224D01*
X-299370Y309193D02*
Y313484D01*
X-257894Y311339D02*
X-253602D01*
X-255748Y309193D02*
Y313484D01*
X-268799Y311339D02*
X-264508D01*
X-266653Y309193D02*
Y313484D01*
X-279705Y311339D02*
X-275413D01*
X-277559Y309193D02*
Y313484D01*
X-290610Y311339D02*
X-286319D01*
X-288465Y309193D02*
Y313484D01*
X-263347Y322520D02*
X-259055D01*
X-261201Y320374D02*
Y324665D01*
X-274252Y322520D02*
X-269961D01*
X-272106Y320374D02*
Y324665D01*
X-285157Y322520D02*
X-280866D01*
X-283012Y320374D02*
Y324665D01*
X-296063Y322520D02*
X-291772D01*
X-293917Y320374D02*
Y324665D01*
X-320965Y289528D02*
X-316831D01*
X-318898Y287461D02*
Y291595D01*
X-320965Y279528D02*
X-316831D01*
X-318898Y277461D02*
Y281594D01*
X-320965Y269528D02*
X-316831D01*
X-318898Y267461D02*
Y271595D01*
X-320965Y259528D02*
X-316831D01*
X-318898Y257461D02*
Y261595D01*
X-354213Y241653D02*
X-350197D01*
X-352205Y239646D02*
Y243661D01*
X-354213Y251654D02*
X-350197D01*
X-352205Y249646D02*
Y253661D01*
X-354213Y261653D02*
X-350197D01*
X-352205Y259646D02*
Y263661D01*
X-354213Y271654D02*
X-350197D01*
X-352205Y269646D02*
Y273661D01*
X-354213Y281653D02*
X-350197D01*
X-352205Y279646D02*
Y283661D01*
X-354213Y291653D02*
X-350197D01*
X-352205Y289646D02*
Y293661D01*
X-354213Y301654D02*
X-350197D01*
X-352205Y299646D02*
Y303661D01*
X-364213Y241653D02*
X-360197D01*
X-362205Y239646D02*
Y243661D01*
X-364213Y251654D02*
X-360197D01*
X-362205Y249646D02*
Y253661D01*
X-364213Y261653D02*
X-360197D01*
X-362205Y259646D02*
Y263661D01*
X-364213Y271654D02*
X-360197D01*
X-362205Y269646D02*
Y273661D01*
X-364213Y281653D02*
X-360197D01*
X-362205Y279646D02*
Y283661D01*
X-364213Y291653D02*
X-360197D01*
X-362205Y289646D02*
Y293661D01*
X-364213Y301654D02*
X-360197D01*
X-362205Y299646D02*
Y303661D01*
X-354213Y164724D02*
X-350197D01*
X-352205Y162716D02*
Y166732D01*
X-354213Y174724D02*
X-350197D01*
X-352205Y172716D02*
Y176732D01*
X-354213Y184724D02*
X-350197D01*
X-352205Y182717D02*
Y186732D01*
X-354213Y194724D02*
X-350197D01*
X-352205Y192717D02*
Y196732D01*
X-354213Y204724D02*
X-350197D01*
X-352205Y202716D02*
Y206732D01*
X-354213Y214724D02*
X-350197D01*
X-352205Y212717D02*
Y216732D01*
X-354213Y224724D02*
X-350197D01*
X-352205Y222716D02*
Y226732D01*
X-364213Y164724D02*
X-360197D01*
X-362205Y162716D02*
Y166732D01*
X-364213Y174724D02*
X-360197D01*
X-362205Y172716D02*
Y176732D01*
X-364213Y184724D02*
X-360197D01*
X-362205Y182717D02*
Y186732D01*
X-364213Y194724D02*
X-360197D01*
X-362205Y192717D02*
Y196732D01*
X-364213Y204724D02*
X-360197D01*
X-362205Y202716D02*
Y206732D01*
X-364213Y214724D02*
X-360197D01*
X-362205Y212717D02*
Y216732D01*
X-364213Y224724D02*
X-360197D01*
X-362205Y222716D02*
Y226732D01*
X-329035Y15748D02*
X-323721D01*
X-326378Y13091D02*
Y18406D01*
X-319035Y15748D02*
X-313720D01*
X-316378Y13091D02*
Y18406D01*
X-309035Y15748D02*
X-303720D01*
X-306378Y13091D02*
Y18406D01*
X-299035Y15748D02*
X-293721D01*
X-296378Y13091D02*
Y18406D01*
X-289035Y15748D02*
X-283720D01*
X-286378Y13091D02*
Y18406D01*
X-279035Y15748D02*
X-273721D01*
X-276378Y13091D02*
Y18406D01*
X-269035Y15748D02*
X-263720D01*
X-266378Y13091D02*
Y18406D01*
X-259035Y15748D02*
X-253720D01*
X-256378Y13091D02*
Y18406D01*
X-249035Y15748D02*
X-243721D01*
X-246378Y13091D02*
Y18406D01*
X-239035Y15748D02*
X-233720D01*
X-236378Y13091D02*
Y18406D01*
X-229035Y15748D02*
X-223721D01*
X-226378Y13091D02*
Y18406D01*
X-219035Y15748D02*
X-213720D01*
X-216378Y13091D02*
Y18406D01*
X-209035Y15748D02*
X-203720D01*
X-206378Y13091D02*
Y18406D01*
X-199035Y15748D02*
X-193720D01*
X-196378Y13091D02*
Y18406D01*
X-189035Y15748D02*
X-183721D01*
X-186378Y13091D02*
Y18406D01*
X-179035Y15748D02*
X-173721D01*
X-176378Y13091D02*
Y18406D01*
X-67874Y329646D02*
X-63543D01*
X-65709Y327480D02*
Y331811D01*
X-77874Y329646D02*
X-73543D01*
X-75709Y327480D02*
Y331811D01*
X-97874Y329646D02*
X-93543D01*
X-95709Y327480D02*
Y331811D01*
X-87874Y329646D02*
X-83543D01*
X-85709Y327480D02*
Y331811D01*
X-81811Y26654D02*
X-77480D01*
X-79646Y24488D02*
Y28819D01*
X-71811Y26654D02*
X-67480D01*
X-69646Y24488D02*
Y28819D01*
X-91811Y26654D02*
X-87480D01*
X-89646Y24488D02*
Y28819D01*
X-101811Y26654D02*
X-97480D01*
X-99646Y24488D02*
Y28819D01*
X-355717Y108798D02*
X-351583D01*
X-353650Y106731D02*
Y110865D01*
X-365717Y108798D02*
X-361583D01*
X-363650Y106731D02*
Y110865D01*
X-348799Y141732D02*
X-344114D01*
X-346457Y139390D02*
Y144075D01*
X-358799Y141732D02*
X-354114D01*
X-356457Y139390D02*
Y144075D01*
X-368799Y141732D02*
X-364114D01*
X-366457Y139390D02*
Y144075D01*
X-167362Y338740D02*
X-163347D01*
X-165354Y336732D02*
Y340748D01*
X-167362Y328740D02*
X-163347D01*
X-165354Y326732D02*
Y330748D01*
X-167362Y318740D02*
X-163347D01*
X-165354Y316732D02*
Y320748D01*
X-200532Y338740D02*
X-196516D01*
X-198524Y336732D02*
Y340748D01*
X-200532Y328740D02*
X-196516D01*
X-198524Y326732D02*
Y330748D01*
X-200532Y318740D02*
X-196516D01*
X-198524Y316732D02*
Y320748D01*
X-41870Y335000D02*
X-38130D01*
X-40000Y333130D02*
Y336870D01*
X-41870Y325000D02*
X-38130D01*
X-40000Y323130D02*
Y326870D01*
X-41870Y315000D02*
X-38130D01*
X-40000Y313130D02*
Y316870D01*
X-41870Y305000D02*
X-38130D01*
X-40000Y303130D02*
Y306870D01*
X-41870Y295000D02*
X-38130D01*
X-40000Y293130D02*
Y296870D01*
X-41870Y285000D02*
X-38130D01*
X-40000Y283130D02*
Y286870D01*
X-41870Y275000D02*
X-38130D01*
X-40000Y273130D02*
Y276870D01*
X-41870Y265000D02*
X-38130D01*
X-40000Y263130D02*
Y266870D01*
X-41870Y255000D02*
X-38130D01*
X-40000Y253130D02*
Y256870D01*
X-41870Y245000D02*
X-38130D01*
X-40000Y243130D02*
Y246870D01*
X-41870Y235000D02*
X-38130D01*
X-40000Y233130D02*
Y236870D01*
X-41870Y225000D02*
X-38130D01*
X-40000Y223130D02*
Y226870D01*
X-41870Y215000D02*
X-38130D01*
X-40000Y213130D02*
Y216870D01*
X-41870Y205000D02*
X-38130D01*
X-40000Y203130D02*
Y206870D01*
X-41870Y195000D02*
X-38130D01*
X-40000Y193130D02*
Y196870D01*
X-41870Y185000D02*
X-38130D01*
X-40000Y183130D02*
Y186870D01*
X-41870Y175000D02*
X-38130D01*
X-40000Y173130D02*
Y176870D01*
X-41870Y165000D02*
X-38130D01*
X-40000Y163130D02*
Y166870D01*
X-41870Y155000D02*
X-38130D01*
X-40000Y153130D02*
Y156870D01*
X-41870Y145000D02*
X-38130D01*
X-40000Y143130D02*
Y146870D01*
X-41870Y135000D02*
X-38130D01*
X-40000Y133130D02*
Y136870D01*
X-41870Y125000D02*
X-38130D01*
X-40000Y123130D02*
Y126870D01*
X-41870Y115000D02*
X-38130D01*
X-40000Y113130D02*
Y116870D01*
X-41870Y105000D02*
X-38130D01*
X-40000Y103130D02*
Y106870D01*
X-41870Y95000D02*
X-38130D01*
X-40000Y93130D02*
Y96870D01*
X-41870Y85000D02*
X-38130D01*
X-40000Y83130D02*
Y86870D01*
X-41870Y75000D02*
X-38130D01*
X-40000Y73130D02*
Y76870D01*
X-41870Y65000D02*
X-38130D01*
X-40000Y63130D02*
Y66870D01*
X-41870Y55000D02*
X-38130D01*
X-40000Y53130D02*
Y56870D01*
X-41870Y45000D02*
X-38130D01*
X-40000Y43130D02*
Y46870D01*
X-41870Y35000D02*
X-38130D01*
X-40000Y33130D02*
Y36870D01*
X-41870Y25000D02*
X-38130D01*
X-40000Y23130D02*
Y26870D01*
X-51870Y335000D02*
X-48130D01*
X-50000Y333130D02*
Y336870D01*
X-51870Y325000D02*
X-48130D01*
X-50000Y323130D02*
Y326870D01*
X-51870Y315000D02*
X-48130D01*
X-50000Y313130D02*
Y316870D01*
X-51870Y305000D02*
X-48130D01*
X-50000Y303130D02*
Y306870D01*
X-51870Y295000D02*
X-48130D01*
X-50000Y293130D02*
Y296870D01*
X-51870Y285000D02*
X-48130D01*
X-50000Y283130D02*
Y286870D01*
X-51870Y275000D02*
X-48130D01*
X-50000Y273130D02*
Y276870D01*
X-51870Y265000D02*
X-48130D01*
X-50000Y263130D02*
Y266870D01*
X-51870Y255000D02*
X-48130D01*
X-50000Y253130D02*
Y256870D01*
X-51870Y245000D02*
X-48130D01*
X-50000Y243130D02*
Y246870D01*
X-51870Y235000D02*
X-48130D01*
X-50000Y233130D02*
Y236870D01*
X-51870Y225000D02*
X-48130D01*
X-50000Y223130D02*
Y226870D01*
X-51870Y215000D02*
X-48130D01*
X-50000Y213130D02*
Y216870D01*
X-51870Y205000D02*
X-48130D01*
X-50000Y203130D02*
Y206870D01*
X-51870Y195000D02*
X-48130D01*
X-50000Y193130D02*
Y196870D01*
X-51870Y185000D02*
X-48130D01*
X-50000Y183130D02*
Y186870D01*
X-51870Y175000D02*
X-48130D01*
X-50000Y173130D02*
Y176870D01*
X-51870Y165000D02*
X-48130D01*
X-50000Y163130D02*
Y166870D01*
X-51870Y155000D02*
X-48130D01*
X-50000Y153130D02*
Y156870D01*
X-51870Y145000D02*
X-48130D01*
X-50000Y143130D02*
Y146870D01*
X-51870Y135000D02*
X-48130D01*
X-50000Y133130D02*
Y136870D01*
X-51870Y125000D02*
X-48130D01*
X-50000Y123130D02*
Y126870D01*
X-51870Y115000D02*
X-48130D01*
X-50000Y113130D02*
Y116870D01*
X-51870Y105000D02*
X-48130D01*
X-50000Y103130D02*
Y106870D01*
X-51870Y95000D02*
X-48130D01*
X-50000Y93130D02*
Y96870D01*
X-51870Y85000D02*
X-48130D01*
X-50000Y83130D02*
Y86870D01*
X-51870Y75000D02*
X-48130D01*
X-50000Y73130D02*
Y76870D01*
X-51870Y65000D02*
X-48130D01*
X-50000Y63130D02*
Y66870D01*
X-51870Y55000D02*
X-48130D01*
X-50000Y53130D02*
Y56870D01*
X-51870Y45000D02*
X-48130D01*
X-50000Y43130D02*
Y46870D01*
X-51870Y35000D02*
X-48130D01*
X-50000Y33130D02*
Y36870D01*
X-51870Y25000D02*
X-48130D01*
X-50000Y23130D02*
Y26870D01*
X-354823Y67087D02*
X-349902D01*
X-352362Y64626D02*
Y69547D01*
X-354823Y57087D02*
X-349902D01*
X-352362Y54626D02*
Y59547D01*
X-354823Y82677D02*
X-349902D01*
X-352362Y80216D02*
Y85138D01*
X-354823Y92677D02*
X-349902D01*
X-352362Y90216D02*
Y95138D01*
X-76850Y49213D02*
X-72756D01*
X-74803Y47165D02*
Y51260D01*
X-86850Y49213D02*
X-82756D01*
X-84803Y47165D02*
Y51260D01*
X-76850Y59213D02*
X-72756D01*
X-74803Y57165D02*
Y61260D01*
X-86850Y59213D02*
X-82756D01*
X-84803Y57165D02*
Y61260D01*
X-76850Y69213D02*
X-72756D01*
X-74803Y67165D02*
Y71260D01*
X-86850Y69213D02*
X-82756D01*
X-84803Y67165D02*
Y71260D01*
X-76850Y79213D02*
X-72756D01*
X-74803Y77165D02*
Y81260D01*
X-86850Y79213D02*
X-82756D01*
X-84803Y77165D02*
Y81260D01*
X-76850Y89213D02*
X-72756D01*
X-74803Y87165D02*
Y91260D01*
X-86850Y89213D02*
X-82756D01*
X-84803Y87165D02*
Y91260D01*
X-76850Y99213D02*
X-72756D01*
X-74803Y97165D02*
Y101260D01*
X-86850Y99213D02*
X-82756D01*
X-84803Y97165D02*
Y101260D01*
X-76850Y109213D02*
X-72756D01*
X-74803Y107165D02*
Y111260D01*
X-86850Y109213D02*
X-82756D01*
X-84803Y107165D02*
Y111260D01*
X-76850Y119213D02*
X-72756D01*
X-74803Y117165D02*
Y121260D01*
X-86850Y119213D02*
X-82756D01*
X-84803Y117165D02*
Y121260D01*
X-76850Y129213D02*
X-72756D01*
X-74803Y127165D02*
Y131260D01*
X-86850Y129213D02*
X-82756D01*
X-84803Y127165D02*
Y131260D01*
X-76850Y139213D02*
X-72756D01*
X-74803Y137165D02*
Y141260D01*
X-86850Y139213D02*
X-82756D01*
X-84803Y137165D02*
Y141260D01*
X-76850Y149213D02*
X-72756D01*
X-74803Y147165D02*
Y151260D01*
X-86850Y149213D02*
X-82756D01*
X-84803Y147165D02*
Y151260D01*
X-76850Y159213D02*
X-72756D01*
X-74803Y157165D02*
Y161260D01*
X-86850Y159213D02*
X-82756D01*
X-84803Y157165D02*
Y161260D01*
X-76850Y169213D02*
X-72756D01*
X-74803Y167165D02*
Y171260D01*
X-86850Y169213D02*
X-82756D01*
X-84803Y167165D02*
Y171260D01*
X-76850Y179213D02*
X-72756D01*
X-74803Y177165D02*
Y181260D01*
X-86850Y179213D02*
X-82756D01*
X-84803Y177165D02*
Y181260D01*
X-76850Y189213D02*
X-72756D01*
X-74803Y187165D02*
Y191260D01*
X-86850Y189213D02*
X-82756D01*
X-84803Y187165D02*
Y191260D01*
X-76850Y199213D02*
X-72756D01*
X-74803Y197165D02*
Y201260D01*
X-86850Y199213D02*
X-82756D01*
X-84803Y197165D02*
Y201260D01*
X-76850Y209213D02*
X-72756D01*
X-74803Y207165D02*
Y211260D01*
X-86850Y209213D02*
X-82756D01*
X-84803Y207165D02*
Y211260D01*
X-76850Y219213D02*
X-72756D01*
X-74803Y217165D02*
Y221260D01*
X-86850Y219213D02*
X-82756D01*
X-84803Y217165D02*
Y221260D01*
X-76850Y229213D02*
X-72756D01*
X-74803Y227165D02*
Y231260D01*
X-86850Y229213D02*
X-82756D01*
X-84803Y227165D02*
Y231260D01*
X-316850Y49213D02*
X-312756D01*
X-314803Y47165D02*
Y51260D01*
X-326850Y49213D02*
X-322756D01*
X-324803Y47165D02*
Y51260D01*
X-316850Y59213D02*
X-312756D01*
X-314803Y57165D02*
Y61260D01*
X-326850Y59213D02*
X-322756D01*
X-324803Y57165D02*
Y61260D01*
X-316850Y69213D02*
X-312756D01*
X-314803Y67165D02*
Y71260D01*
X-326850Y69213D02*
X-322756D01*
X-324803Y67165D02*
Y71260D01*
X-316850Y79213D02*
X-312756D01*
X-314803Y77165D02*
Y81260D01*
X-326850Y79213D02*
X-322756D01*
X-324803Y77165D02*
Y81260D01*
X-316850Y89213D02*
X-312756D01*
X-314803Y87165D02*
Y91260D01*
X-326850Y89213D02*
X-322756D01*
X-324803Y87165D02*
Y91260D01*
X-316850Y99213D02*
X-312756D01*
X-314803Y97165D02*
Y101260D01*
X-326850Y99213D02*
X-322756D01*
X-324803Y97165D02*
Y101260D01*
X-316850Y109213D02*
X-312756D01*
X-314803Y107165D02*
Y111260D01*
X-326850Y109213D02*
X-322756D01*
X-324803Y107165D02*
Y111260D01*
X-316850Y119213D02*
X-312756D01*
X-314803Y117165D02*
Y121260D01*
X-326850Y119213D02*
X-322756D01*
X-324803Y117165D02*
Y121260D01*
X-316850Y129213D02*
X-312756D01*
X-314803Y127165D02*
Y131260D01*
X-326850Y129213D02*
X-322756D01*
X-324803Y127165D02*
Y131260D01*
X-316850Y139213D02*
X-312756D01*
X-314803Y137165D02*
Y141260D01*
X-326850Y139213D02*
X-322756D01*
X-324803Y137165D02*
Y141260D01*
X-316850Y149213D02*
X-312756D01*
X-314803Y147165D02*
Y151260D01*
X-326850Y149213D02*
X-322756D01*
X-324803Y147165D02*
Y151260D01*
X-316850Y159213D02*
X-312756D01*
X-314803Y157165D02*
Y161260D01*
X-326850Y159213D02*
X-322756D01*
X-324803Y157165D02*
Y161260D01*
X-316850Y169213D02*
X-312756D01*
X-314803Y167165D02*
Y171260D01*
X-326850Y169213D02*
X-322756D01*
X-324803Y167165D02*
Y171260D01*
X-316850Y179213D02*
X-312756D01*
X-314803Y177165D02*
Y181260D01*
X-326850Y179213D02*
X-322756D01*
X-324803Y177165D02*
Y181260D01*
X-316850Y189213D02*
X-312756D01*
X-314803Y187165D02*
Y191260D01*
X-326850Y189213D02*
X-322756D01*
X-324803Y187165D02*
Y191260D01*
X-316850Y199213D02*
X-312756D01*
X-314803Y197165D02*
Y201260D01*
X-326850Y199213D02*
X-322756D01*
X-324803Y197165D02*
Y201260D01*
X-316850Y209213D02*
X-312756D01*
X-314803Y207165D02*
Y211260D01*
X-326850Y209213D02*
X-322756D01*
X-324803Y207165D02*
Y211260D01*
X-316850Y219213D02*
X-312756D01*
X-314803Y217165D02*
Y221260D01*
X-326850Y219213D02*
X-322756D01*
X-324803Y217165D02*
Y221260D01*
X-316850Y229213D02*
X-312756D01*
X-314803Y227165D02*
Y231260D01*
X-326850Y229213D02*
X-322756D01*
X-324803Y227165D02*
Y231260D01*
X-70433Y312992D02*
X-66417D01*
X-68425Y310984D02*
Y315000D01*
X-80433Y312992D02*
X-76417D01*
X-78425Y310984D02*
Y315000D01*
X-90433Y312992D02*
X-86417D01*
X-88425Y310984D02*
Y315000D01*
X-100433Y312992D02*
X-96417D01*
X-98425Y310984D02*
Y315000D01*
X-110433Y312992D02*
X-106417D01*
X-108425Y310984D02*
Y315000D01*
X-120433Y312992D02*
X-116417D01*
X-118425Y310984D02*
Y315000D01*
X-130433Y312992D02*
X-126417D01*
X-128425Y310984D02*
Y315000D01*
X-140433Y312992D02*
X-136417D01*
X-138425Y310984D02*
Y315000D01*
X-26260Y335000D02*
X-13740D01*
X-20000Y328740D02*
Y341260D01*
X-26260Y20000D02*
X-13740D01*
X-20000Y13740D02*
Y26260D01*
X-363779Y35000D02*
X-351260D01*
X-357520Y28740D02*
Y41260D01*
X-363779Y325000D02*
X-351260D01*
X-357520Y318740D02*
Y331260D01*
X-334440Y302140D02*
X-333259D01*
X-333849Y301550D02*
Y302731D01*
X-333716Y338195D02*
X-332535D01*
X-333125Y337604D02*
Y338785D01*
X-335286Y330209D02*
X-334105D01*
X-334696Y329618D02*
Y330800D01*
X-221586Y334296D02*
X-220405D01*
X-220995Y333705D02*
Y334886D01*
X-128590Y131628D02*
X-127409D01*
X-128000Y131038D02*
Y132219D01*
X-142323Y127953D02*
X-141142D01*
X-141732Y127362D02*
Y128543D01*
X-148228Y127953D02*
X-147047D01*
X-147638Y127362D02*
Y128543D01*
X-134449Y127953D02*
X-133268D01*
X-133858Y127362D02*
Y128543D01*
X-310724Y279613D02*
X-309543D01*
X-310134Y279022D02*
Y280203D01*
X-299198Y253689D02*
X-298017D01*
X-298608Y253099D02*
Y254280D01*
X-130512Y147638D02*
X-129331D01*
X-129921Y147047D02*
Y148228D01*
X-207283Y125984D02*
X-206102D01*
X-206693Y125394D02*
Y126575D01*
X-67520Y114173D02*
X-66339D01*
X-66929Y113583D02*
Y114764D01*
X-97047Y51181D02*
X-95866D01*
X-96457Y50591D02*
Y51772D01*
X-29770Y143966D02*
X-28589D01*
X-29179Y143376D02*
Y144557D01*
X-20276Y145669D02*
X-19094D01*
X-19685Y145079D02*
Y146260D01*
X-236823Y244094D02*
X-235641D01*
X-236232Y243504D02*
Y244685D01*
X-236811Y169291D02*
X-235630D01*
X-236221Y168701D02*
Y169882D01*
X-234022Y157754D02*
X-232841D01*
X-233431Y157163D02*
Y158344D01*
X-293898Y171260D02*
X-292717D01*
X-293307Y170669D02*
Y171850D01*
X-284055Y165354D02*
X-282874D01*
X-283465Y164764D02*
Y165945D01*
X-308587Y27559D02*
X-307405D01*
X-307996Y26969D02*
Y28150D01*
X-205315Y147638D02*
X-204134D01*
X-204724Y147047D02*
Y148228D01*
X-202034Y142933D02*
X-200853D01*
X-201444Y142343D02*
Y143524D01*
X-195472Y159449D02*
X-194291D01*
X-194882Y158858D02*
Y160039D01*
X-205315Y161417D02*
X-204134D01*
X-204724Y160827D02*
Y162008D01*
X-195005Y178796D02*
X-193824D01*
X-194414Y178205D02*
Y179386D01*
X-211221Y131890D02*
X-210039D01*
X-210630Y131299D02*
Y132480D01*
X-227763Y271433D02*
X-226582D01*
X-227172Y270843D02*
Y272024D01*
X-248130Y268071D02*
X-246949D01*
X-247540Y267481D02*
Y268662D01*
X-258064Y285501D02*
X-256883D01*
X-257473Y284911D02*
Y286092D01*
X-228000Y285501D02*
X-226819D01*
X-227409Y284911D02*
Y286092D01*
X-207283Y285433D02*
X-206102D01*
X-206693Y284842D02*
Y286024D01*
X-337205Y35433D02*
X-336024D01*
X-336614Y34843D02*
Y36024D01*
X-364764Y76772D02*
X-363583D01*
X-364173Y76181D02*
Y77362D01*
X-345079Y120079D02*
X-343898D01*
X-344488Y119488D02*
Y120669D01*
X-176617Y64581D02*
X-175436D01*
X-176027Y63990D02*
Y65171D01*
X-130503Y274531D02*
X-129322D01*
X-129912Y273941D02*
Y275122D01*
X-151417Y285433D02*
X-150236D01*
X-150827Y284842D02*
Y286024D01*
X-91417Y285433D02*
X-90236D01*
X-90827Y284842D02*
Y286024D01*
X-224091Y204724D02*
X-222909D01*
X-223500Y204134D02*
Y205315D01*
X-225066Y116075D02*
X-223885D01*
X-224476Y115485D02*
Y116666D01*
X-182588Y301181D02*
X-181407D01*
X-181997Y300590D02*
Y301772D01*
X-186723Y244094D02*
X-185542D01*
X-186133Y243504D02*
Y244685D01*
X-89173Y301181D02*
X-87992D01*
X-88583Y300590D02*
Y301772D01*
X-100984Y297244D02*
X-99803D01*
X-100394Y296654D02*
Y297835D01*
X-174832Y233297D02*
X-173651D01*
X-174241Y232706D02*
Y233887D01*
X-183661Y311024D02*
X-182480D01*
X-183071Y310433D02*
Y311614D01*
X-101528Y250302D02*
X-100347D01*
X-100937Y249711D02*
Y250892D01*
X-189567Y248031D02*
X-188386D01*
X-188976Y247441D02*
Y248622D01*
X-146260Y241216D02*
X-145079D01*
X-145669Y240626D02*
Y241807D01*
X-266339Y273622D02*
X-265158D01*
X-265748Y273031D02*
Y274213D01*
X-211221Y244094D02*
X-210039D01*
X-210630Y243504D02*
Y244685D01*
X-274244Y248016D02*
X-273063D01*
X-273654Y247425D02*
Y248606D01*
X-248622Y244094D02*
X-247441D01*
X-248031Y243504D02*
Y244685D01*
X-240748Y240158D02*
X-239567D01*
X-240158Y239567D02*
Y240748D01*
X-203346Y242126D02*
X-202165D01*
X-202756Y241535D02*
Y242717D01*
X-225000Y244094D02*
X-223819D01*
X-224410Y243504D02*
Y244685D01*
X-25535Y164366D02*
X-24354D01*
X-24945Y163776D02*
Y164957D01*
X-12203Y100728D02*
X-11022D01*
X-11613Y100138D02*
Y101319D01*
X-12402Y62992D02*
X-11220D01*
X-11811Y62402D02*
Y63583D01*
X-32087Y78740D02*
X-30906D01*
X-31496Y78150D02*
Y79331D01*
X-33936Y239930D02*
X-32755D01*
X-33346Y239340D02*
Y240521D01*
X-57677Y208661D02*
X-56496D01*
X-57087Y208071D02*
Y209252D01*
X-373250Y308926D02*
X-372069D01*
X-372659Y308335D02*
Y309517D01*
X-175787Y343547D02*
X-174606D01*
X-175197Y342957D02*
Y344138D01*
X-368671Y228346D02*
X-367490D01*
X-368081Y227756D02*
Y228937D01*
X-370669Y171260D02*
X-369488D01*
X-370079Y170669D02*
Y171850D01*
X-367791Y208661D02*
X-366610D01*
X-367201Y208071D02*
Y209252D01*
X-106890Y326772D02*
X-105709D01*
X-106299Y326181D02*
Y327362D01*
X-372638Y151575D02*
X-371457D01*
X-372047Y150984D02*
Y152165D01*
X-308954Y196850D02*
X-307773D01*
X-308364Y196260D02*
Y197441D01*
X-306954Y189340D02*
X-305773D01*
X-306364Y188750D02*
Y189931D01*
X-299803Y178796D02*
X-298622D01*
X-299213Y178205D02*
Y179386D01*
X-174013Y182084D02*
X-172832D01*
X-173422Y181494D02*
Y182675D01*
X-189249Y185584D02*
X-188068D01*
X-188658Y184994D02*
Y186175D01*
X-167913Y198819D02*
X-166732D01*
X-167323Y198228D02*
Y199409D01*
X-167913Y202756D02*
X-166732D01*
X-167323Y202165D02*
Y203346D01*
X-167913Y206693D02*
X-166732D01*
X-167323Y206102D02*
Y207283D01*
X-167913Y210630D02*
X-166732D01*
X-167323Y210039D02*
Y211221D01*
X-122638Y198819D02*
X-121457D01*
X-122047Y198228D02*
Y199409D01*
X-122638Y202756D02*
X-121457D01*
X-122047Y202165D02*
Y203346D01*
X-126575Y198819D02*
X-125394D01*
X-125984Y198228D02*
Y199409D01*
X-126575Y175197D02*
X-125394D01*
X-125984Y174606D02*
Y175787D01*
X-163067Y179134D02*
X-161886D01*
X-162476Y178543D02*
Y179724D01*
X-102953Y175197D02*
X-101772D01*
X-102362Y174606D02*
Y175787D01*
X-177756Y169291D02*
X-176575D01*
X-177165Y168701D02*
Y169882D01*
X-128543Y167323D02*
X-127362D01*
X-127953Y166732D02*
Y167913D01*
X-122638Y122047D02*
X-121457D01*
X-122047Y121457D02*
Y122638D01*
X-238779Y139764D02*
X-237598D01*
X-238189Y139173D02*
Y140354D01*
X-307677Y171260D02*
X-306496D01*
X-307087Y170669D02*
Y171850D01*
X-343110Y261811D02*
X-341929D01*
X-342520Y261221D02*
Y262402D01*
X-345079Y163386D02*
X-343898D01*
X-344488Y162795D02*
Y163976D01*
X-335236Y159449D02*
X-334055D01*
X-334646Y158858D02*
Y160039D01*
X-333268Y110236D02*
X-332087D01*
X-332677Y109646D02*
Y110827D01*
X-30118Y318898D02*
X-28937D01*
X-29528Y318307D02*
Y319488D01*
X-30118Y149606D02*
X-28937D01*
X-29528Y149016D02*
Y150197D01*
X-57677Y133858D02*
X-56496D01*
X-57087Y133268D02*
Y134449D01*
X-173819Y114173D02*
X-172638D01*
X-173228Y113583D02*
Y114764D01*
X-122638Y98425D02*
X-121457D01*
X-122047Y97835D02*
Y99016D01*
X-130512Y98425D02*
X-129331D01*
X-129921Y97835D02*
Y99016D01*
X-181693Y143701D02*
X-180512D01*
X-181102Y143110D02*
Y144291D01*
X-165067Y167323D02*
X-163886D01*
X-164476Y166732D02*
Y167913D01*
X-278150Y165354D02*
X-276969D01*
X-277559Y164764D02*
Y165945D01*
X-301772Y259839D02*
X-300590D01*
X-301181Y259248D02*
Y260429D01*
X-343110Y269685D02*
X-341929D01*
X-342520Y269094D02*
Y270276D01*
X-258465Y177165D02*
X-257283D01*
X-257874Y176575D02*
Y177756D01*
X-264370Y135827D02*
X-263189D01*
X-263779Y135236D02*
Y136417D01*
X-278150Y110236D02*
X-276969D01*
X-277559Y109646D02*
Y110827D01*
X-284055Y45276D02*
X-282874D01*
X-283465Y44685D02*
Y45866D01*
X-287706Y59374D02*
X-286525D01*
X-287116Y58783D02*
Y59964D01*
X-291069Y69054D02*
X-289887D01*
X-290478Y68463D02*
Y69644D01*
X-294048Y118164D02*
X-292867D01*
X-293457Y117574D02*
Y118755D01*
X-300968Y109130D02*
X-299786D01*
X-300377Y108540D02*
Y109721D01*
X-303845Y23622D02*
X-302664D01*
X-303255Y23031D02*
Y24213D01*
X-297835Y114173D02*
X-296654D01*
X-297244Y113583D02*
Y114764D01*
X-297835Y29528D02*
X-296654D01*
X-297244Y28937D02*
Y30118D01*
X-241721Y208661D02*
X-240539D01*
X-241130Y208071D02*
Y209252D01*
X-239721Y212598D02*
X-238539D01*
X-239130Y212008D02*
Y213189D01*
X-214933Y115995D02*
X-213752D01*
X-214343Y115404D02*
Y116586D01*
X-228937Y110236D02*
X-227756D01*
X-228346Y109646D02*
Y110827D01*
X-90794Y39252D02*
X-89613D01*
X-90204Y38661D02*
Y39843D01*
X-99016Y161417D02*
X-97835D01*
X-98425Y160827D02*
Y162008D01*
X-146260Y157480D02*
X-145079D01*
X-145669Y156890D02*
Y158071D01*
X-234776Y125918D02*
X-233595D01*
X-234186Y125327D02*
Y126508D01*
X-278392Y32555D02*
X-277211D01*
X-277801Y31965D02*
Y33146D01*
X-248116Y32585D02*
X-246935D01*
X-247525Y31995D02*
Y33176D01*
X-261963Y38265D02*
X-260782D01*
X-261372Y37675D02*
Y38856D01*
X-282087Y35433D02*
X-280906D01*
X-281496Y34843D02*
Y36024D01*
X-264370Y68898D02*
X-263189D01*
X-263779Y68307D02*
Y69488D01*
X-228937Y41339D02*
X-227756D01*
X-228346Y40748D02*
Y41929D01*
X-225000Y45276D02*
X-223819D01*
X-224410Y44685D02*
Y45866D01*
X-230973Y196916D02*
X-229792D01*
X-230382Y196325D02*
Y197506D01*
X-189567Y84646D02*
X-188386D01*
X-188976Y84055D02*
Y85236D01*
X-337205Y139764D02*
X-336024D01*
X-336614Y139173D02*
Y140354D01*
X-339047Y145669D02*
X-337866D01*
X-338457Y145079D02*
Y146260D01*
X-345079Y92520D02*
X-343898D01*
X-344488Y91929D02*
Y93110D01*
X-197441Y248031D02*
X-196260D01*
X-196850Y247441D02*
Y248622D01*
X-207283Y187008D02*
X-206102D01*
X-206693Y186417D02*
Y187598D01*
X-189567Y318898D02*
X-188386D01*
X-188976Y318307D02*
Y319488D01*
X-163424Y192446D02*
X-162243D01*
X-162833Y191856D02*
Y193037D01*
X-244685Y340551D02*
X-243504D01*
X-244094Y339961D02*
Y341142D01*
X-142323Y202756D02*
X-141142D01*
X-141732Y202165D02*
Y203346D01*
X-142323Y198819D02*
X-141142D01*
X-141732Y198228D02*
Y199409D01*
X-146260Y206693D02*
X-145079D01*
X-145669Y206102D02*
Y207283D01*
X-146260Y202756D02*
X-145079D01*
X-145669Y202165D02*
Y203346D01*
X-146260Y198819D02*
X-145079D01*
X-145669Y198228D02*
Y199409D01*
X-142323Y210630D02*
X-141142D01*
X-141732Y210039D02*
Y211221D01*
X-146260Y210630D02*
X-145079D01*
X-145669Y210039D02*
Y211221D01*
X-142323Y206693D02*
X-141142D01*
X-141732Y206102D02*
Y207283D01*
X-211221Y208661D02*
X-210039D01*
X-210630Y208071D02*
Y209252D01*
X-343110Y251969D02*
X-341929D01*
X-342520Y251378D02*
Y252559D01*
X-341110Y224410D02*
X-339929D01*
X-340520Y223819D02*
Y225000D01*
X-341110Y216535D02*
X-339929D01*
X-340520Y215945D02*
Y217126D01*
X-337205Y76772D02*
X-336024D01*
X-336614Y76181D02*
Y77362D01*
X-181693Y114173D02*
X-180512D01*
X-181102Y113583D02*
Y114764D01*
X-181693Y61024D02*
X-180512D01*
X-181102Y60433D02*
Y61614D01*
X-268307Y68898D02*
X-267126D01*
X-267717Y68307D02*
Y69488D01*
X-228937Y68898D02*
X-227756D01*
X-228346Y68307D02*
Y69488D01*
X-106890Y197000D02*
X-105709D01*
X-106299Y196409D02*
Y197590D01*
X-103218Y197000D02*
X-102037D01*
X-102628Y196409D02*
Y197590D01*
X-106890Y202756D02*
X-105709D01*
X-106299Y202165D02*
Y203346D01*
X-102953Y202756D02*
X-101772D01*
X-102362Y202165D02*
Y203346D01*
X-240748Y216535D02*
X-239567D01*
X-240158Y215945D02*
Y217126D01*
X-242717Y177165D02*
X-241535D01*
X-242126Y176575D02*
Y177756D01*
X-97047Y173228D02*
X-95866D01*
X-96457Y172638D02*
Y173819D01*
X-65551Y305118D02*
X-64370D01*
X-64961Y304528D02*
Y305709D01*
X-63583Y216535D02*
X-62402D01*
X-62992Y215945D02*
Y217126D01*
X-67520Y196850D02*
X-66339D01*
X-66929Y196260D02*
Y197441D01*
X-144291Y305118D02*
X-143110D01*
X-143701Y304528D02*
Y305709D01*
X-333268Y165354D02*
X-332087D01*
X-332677Y164764D02*
Y165945D01*
X-104985Y234153D02*
X-103804D01*
X-104395Y233562D02*
Y234743D01*
X-102953Y237311D02*
X-101772D01*
X-102362Y236720D02*
Y237902D01*
X-93110Y244429D02*
X-91929D01*
X-92520Y243839D02*
Y245020D01*
X-91142Y250078D02*
X-89961D01*
X-90551Y249488D02*
Y250669D01*
X-120669Y238189D02*
X-119488D01*
X-120079Y237598D02*
Y238779D01*
X-167913Y238189D02*
X-166732D01*
X-167323Y237598D02*
Y238779D01*
X-79331Y250000D02*
X-78150D01*
X-78740Y249410D02*
Y250590D01*
X-71457Y246063D02*
X-70276D01*
X-70866Y245472D02*
Y246654D01*
X-93110Y167323D02*
X-91929D01*
X-92520Y166732D02*
Y167913D01*
X-122638Y167323D02*
X-121457D01*
X-122047Y166732D02*
Y167913D01*
X-97047Y230315D02*
X-95866D01*
X-96457Y229724D02*
Y230906D01*
X-142323Y171260D02*
X-141142D01*
X-141732Y170669D02*
Y171850D01*
X-112795Y11024D02*
X-111614D01*
X-112205Y10433D02*
Y11614D01*
X-63583Y94488D02*
X-62402D01*
X-62992Y93898D02*
Y95079D01*
X-114764Y96457D02*
X-113583D01*
X-114173Y95866D02*
Y97047D01*
X-154134Y108268D02*
X-152953D01*
X-153543Y107677D02*
Y108858D01*
X-154035Y39370D02*
X-152854D01*
X-153445Y38780D02*
Y39961D01*
X-158071Y31496D02*
X-156890D01*
X-157480Y30906D02*
Y32087D01*
X-144291Y9843D02*
X-143110D01*
X-143701Y9252D02*
Y10433D01*
X-193504Y51181D02*
X-192323D01*
X-192913Y50591D02*
Y51772D01*
X-207283Y88583D02*
X-206102D01*
X-206693Y87992D02*
Y89173D01*
X-197441Y55118D02*
X-196260D01*
X-196850Y54528D02*
Y55709D01*
X-270276Y104331D02*
X-269094D01*
X-269685Y103740D02*
Y104921D01*
X-244685Y106299D02*
X-243504D01*
X-244094Y105709D02*
Y106890D01*
X-246654Y143701D02*
X-245472D01*
X-246063Y143110D02*
Y144291D01*
X-242717Y36342D02*
X-241535D01*
X-242126Y35752D02*
Y36933D01*
X-271185Y192913D02*
X-270004D01*
X-270595Y192323D02*
Y193504D01*
X-270276Y185039D02*
X-269094D01*
X-269685Y184449D02*
Y185630D01*
X-246654Y200787D02*
X-245472D01*
X-246063Y200197D02*
Y201378D01*
X-268307Y167323D02*
X-267126D01*
X-267717Y166732D02*
Y167913D01*
X-305709Y242126D02*
X-304528D01*
X-305118Y241535D02*
Y242717D01*
X-242717Y228346D02*
X-241535D01*
X-242126Y227756D02*
Y228937D01*
X-295866Y198819D02*
X-294685D01*
X-295276Y198228D02*
Y199409D01*
X-284055Y141732D02*
X-282874D01*
X-283465Y141142D02*
Y142323D01*
X-205315Y42323D02*
X-204134D01*
X-204724Y41732D02*
Y42913D01*
X-104836Y217087D02*
X-103655D01*
X-104245Y216496D02*
Y217677D01*
X-102953Y210630D02*
X-101772D01*
X-102362Y210039D02*
Y211221D01*
X-102953Y206693D02*
X-101772D01*
X-102362Y206102D02*
Y207283D01*
X-106890Y206693D02*
X-105709D01*
X-106299Y206102D02*
Y207283D01*
X-106890Y210630D02*
X-105709D01*
X-106299Y210039D02*
Y211221D01*
X-126575Y210630D02*
X-125394D01*
X-125984Y210039D02*
Y211221D01*
X-126575Y206693D02*
X-125394D01*
X-125984Y206102D02*
Y207283D01*
X-126575Y202756D02*
X-125394D01*
X-125984Y202165D02*
Y203346D01*
X-122638Y206693D02*
X-121457D01*
X-122047Y206102D02*
Y207283D01*
X-122638Y210630D02*
X-121457D01*
X-122047Y210039D02*
Y211221D01*
X-163976Y198819D02*
X-162795D01*
X-163386Y198228D02*
Y199409D01*
X-163976Y202756D02*
X-162795D01*
X-163386Y202165D02*
Y203346D01*
X-163976Y206693D02*
X-162795D01*
X-163386Y206102D02*
Y207283D01*
X-163976Y210630D02*
X-162795D01*
X-163386Y210039D02*
Y211221D01*
X-268307Y72835D02*
X-267126D01*
X-267717Y72244D02*
Y73425D01*
X-268307Y76772D02*
X-267126D01*
X-267717Y76181D02*
Y77362D01*
X-268307Y80709D02*
X-267126D01*
X-267717Y80118D02*
Y81299D01*
X-264370Y80709D02*
X-263189D01*
X-263779Y80118D02*
Y81299D01*
X-264370Y76772D02*
X-263189D01*
X-263779Y76181D02*
Y77362D01*
X-264370Y72835D02*
X-263189D01*
X-263779Y72244D02*
Y73425D01*
X-244685Y68898D02*
X-243504D01*
X-244094Y68307D02*
Y69488D01*
X-244685Y72835D02*
X-243504D01*
X-244094Y72244D02*
Y73425D01*
X-244685Y76772D02*
X-243504D01*
X-244094Y76181D02*
Y77362D01*
X-244685Y80709D02*
X-243504D01*
X-244094Y80118D02*
Y81299D01*
X-248622Y80709D02*
X-247441D01*
X-248031Y80118D02*
Y81299D01*
X-248622Y76772D02*
X-247441D01*
X-248031Y76181D02*
Y77362D01*
X-248622Y72835D02*
X-247441D01*
X-248031Y72244D02*
Y73425D01*
X-248622Y68898D02*
X-247441D01*
X-248031Y68307D02*
Y69488D01*
X-228937Y80709D02*
X-227756D01*
X-228346Y80118D02*
Y81299D01*
X-228937Y76772D02*
X-227756D01*
X-228346Y76181D02*
Y77362D01*
X-228937Y72835D02*
X-227756D01*
X-228346Y72244D02*
Y73425D01*
X-225000Y80709D02*
X-223819D01*
X-224410Y80118D02*
Y81299D01*
X-225000Y76772D02*
X-223819D01*
X-224410Y76181D02*
Y77362D01*
X-225000Y72835D02*
X-223819D01*
X-224410Y72244D02*
Y73425D01*
X-225000Y68898D02*
X-223819D01*
X-224410Y68307D02*
Y69488D01*
X-209252Y80709D02*
X-208071D01*
X-208661Y80118D02*
Y81299D01*
X-205315Y80709D02*
X-204134D01*
X-204724Y80118D02*
Y81299D01*
X-209252Y76772D02*
X-208071D01*
X-208661Y76181D02*
Y77362D01*
X-205315Y76772D02*
X-204134D01*
X-204724Y76181D02*
Y77362D01*
X-209252Y72835D02*
X-208071D01*
X-208661Y72244D02*
Y73425D01*
X-205315Y72835D02*
X-204134D01*
X-204724Y72244D02*
Y73425D01*
X-209252Y68898D02*
X-208071D01*
X-208661Y68307D02*
Y69488D01*
X-205315Y68898D02*
X-204134D01*
X-204724Y68307D02*
Y69488D01*
X-165945Y64961D02*
X-164764D01*
X-165354Y64370D02*
Y65551D01*
X-130512Y48228D02*
X-129331D01*
X-129921Y47638D02*
Y48819D01*
X-104921Y74803D02*
X-103740D01*
X-104331Y74213D02*
Y75394D01*
M02*
