%TF.GenerationSoftware,Altium Limited,Altium Designer,23.1.1 (15)*%
G04 Layer_Color=8421504*
%FSLAX25Y25*%
%MOIN*%
%TF.SameCoordinates,FA324DF6-1FC1-44E6-B842-7DB02DEBFDBB*%
%TF.FilePolarity,Positive*%
%TF.FileFunction,Paste,Top*%
%TF.Part,Single*%
G01*
G75*
%TA.AperFunction,SMDPad,CuDef*%
%ADD10R,0.03504X0.18898*%
D10*
X-85827Y285433D02*
D03*
Y259842D02*
D03*
X-95827Y285433D02*
D03*
Y259842D02*
D03*
X-105827Y285433D02*
D03*
Y259842D02*
D03*
X-115827Y285433D02*
D03*
Y259842D02*
D03*
X-125827Y285433D02*
D03*
Y259842D02*
D03*
X-135827Y285433D02*
D03*
Y259842D02*
D03*
X-145827Y285433D02*
D03*
Y259842D02*
D03*
X-155827Y285433D02*
D03*
Y259842D02*
D03*
X-202284Y285433D02*
D03*
Y259842D02*
D03*
X-212283Y285433D02*
D03*
Y259842D02*
D03*
X-222284Y285433D02*
D03*
Y259842D02*
D03*
X-232283Y285433D02*
D03*
Y259842D02*
D03*
X-242284Y285433D02*
D03*
Y259842D02*
D03*
X-252284Y285433D02*
D03*
Y259842D02*
D03*
X-262283Y285433D02*
D03*
Y259842D02*
D03*
X-272284Y285433D02*
D03*
Y259842D02*
D03*
%TF.MD5,039b5c1f437879d3f813ddba4b725d17*%
M02*
