%TF.GenerationSoftware,Altium Limited,Altium Designer,23.1.1 (15)*%
G04 Layer_Physical_Order=4*
G04 Layer_Color=16711680*
%FSLAX45Y45*%
%MOMM*%
%TF.SameCoordinates,94CA0F20-7CEF-4758-9589-D945348769B5*%
%TF.FilePolarity,Positive*%
%TF.FileFunction,Copper,L4,Bot,Signal*%
%TF.Part,Single*%
G01*
G75*
%TA.AperFunction,Conductor*%
%ADD11C,0.25400*%
%ADD12C,0.50000*%
%ADD14C,0.60000*%
%ADD16C,0.70000*%
%TA.AperFunction,ComponentPad*%
%ADD17R,1.57500X1.57500*%
%ADD18C,1.57500*%
%ADD19C,1.60000*%
%ADD20R,1.60000X1.60000*%
%ADD21C,3.68000*%
%ADD22R,1.55000X1.55000*%
%ADD23C,1.55000*%
%ADD24R,2.02500X2.02500*%
%ADD25C,2.02500*%
%ADD26C,1.65000*%
%ADD27R,1.65000X1.65000*%
%ADD28R,1.57500X1.57500*%
%ADD29R,1.84000X1.84000*%
%ADD30C,1.84000*%
%ADD31R,1.57000X1.57000*%
%ADD32C,1.57000*%
%ADD33C,1.42500*%
%ADD34R,1.42500X1.42500*%
%ADD35R,1.87500X1.87500*%
%ADD36C,1.87500*%
%ADD37R,1.57000X1.57000*%
%TA.AperFunction,WasherPad*%
%ADD38C,6.35000*%
%TA.AperFunction,ViaPad*%
%ADD39C,0.70000*%
%TA.AperFunction,SMDPad,CuDef*%
%ADD61R,0.90000X0.80000*%
G04:AMPARAMS|DCode=62|XSize=0.55mm|YSize=1.25mm|CornerRadius=0.0495mm|HoleSize=0mm|Usage=FLASHONLY|Rotation=270.000|XOffset=0mm|YOffset=0mm|HoleType=Round|Shape=RoundedRectangle|*
%AMROUNDEDRECTD62*
21,1,0.55000,1.15100,0,0,270.0*
21,1,0.45100,1.25000,0,0,270.0*
1,1,0.09900,-0.57550,-0.22550*
1,1,0.09900,-0.57550,0.22550*
1,1,0.09900,0.57550,0.22550*
1,1,0.09900,0.57550,-0.22550*
%
%ADD62ROUNDEDRECTD62*%
%ADD63R,0.70000X0.70000*%
%ADD64R,0.80000X0.90000*%
%ADD65R,0.95000X0.80000*%
%ADD66R,0.80000X0.90000*%
%ADD67R,0.90000X1.05000*%
G04:AMPARAMS|DCode=68|XSize=0.45mm|YSize=1.6mm|CornerRadius=0.0495mm|HoleSize=0mm|Usage=FLASHONLY|Rotation=270.000|XOffset=0mm|YOffset=0mm|HoleType=Round|Shape=RoundedRectangle|*
%AMROUNDEDRECTD68*
21,1,0.45000,1.50100,0,0,270.0*
21,1,0.35100,1.60000,0,0,270.0*
1,1,0.09900,-0.75050,-0.17550*
1,1,0.09900,-0.75050,0.17550*
1,1,0.09900,0.75050,0.17550*
1,1,0.09900,0.75050,-0.17550*
%
%ADD68ROUNDEDRECTD68*%
%ADD69R,1.20000X1.20000*%
%ADD70R,1.50000X1.60000*%
%ADD71O,2.10000X0.65000*%
%ADD72R,1.30000X0.60000*%
%ADD73R,0.86213X0.66370*%
%ADD74R,1.60000X1.40000*%
%ADD75R,1.00000X0.90000*%
%ADD76R,0.80000X0.80000*%
%ADD77R,0.80000X0.95000*%
%ADD78R,1.13504X1.06213*%
%ADD79R,1.25776X1.01213*%
%ADD80R,1.20000X1.20000*%
%ADD81R,1.60000X1.50000*%
%ADD82R,1.00000X0.75000*%
%ADD83R,1.05000X0.90000*%
%ADD84R,0.90000X0.75000*%
%ADD85R,1.40000X1.60000*%
%ADD86R,1.15814X1.01213*%
%ADD87R,0.66370X0.86213*%
%ADD88R,0.90000X0.80000*%
%ADD89R,0.80000X0.80000*%
%ADD90R,1.40000X0.60000*%
%ADD91R,0.90000X1.00000*%
%ADD92R,1.06213X1.13504*%
%ADD93R,0.95620X1.20620*%
G36*
X-6650000Y2150000D02*
X-5150000D01*
X-5100000Y2100000D01*
Y1400001D01*
X-5300000D01*
Y1600000D01*
X-5350000Y1650001D01*
X-6900000D01*
X-7000000Y1750000D01*
Y2150000D01*
Y2300000D01*
X-6957143Y2342857D01*
X-6714286D01*
X-6650000Y2150000D01*
D02*
G37*
G36*
X-4150000Y5500000D02*
X-4100000Y5450000D01*
X-2550000D01*
X-2450000Y5350000D01*
Y4800000D01*
X-2500000Y4750000D01*
X-2700000D01*
X-2750000Y4800000D01*
Y4900000D01*
X-2800000Y4950000D01*
X-4300000D01*
X-4350000Y5000000D01*
Y5650000D01*
X-4150000D01*
Y5500000D01*
D02*
G37*
D11*
X-7970820Y3929717D02*
X-7702674Y3661572D01*
X-7996000Y4044000D02*
X-7970820Y4018820D01*
Y3929717D02*
Y4018820D01*
X-7702674Y600000D02*
Y3661572D01*
X-7823100Y700000D02*
Y3617100D01*
X-7996000Y3790000D02*
X-7823100Y3617100D01*
X-8523100Y2544065D02*
Y3110313D01*
X-8499036Y2520000D02*
X-8250000D01*
X-8523101Y2544065D02*
X-8499036Y2520000D01*
X-8400000Y6315514D02*
Y7730279D01*
X-8133400Y5197400D02*
Y6048914D01*
X-8400000Y6315514D02*
X-8133400Y6048914D01*
X-8349200Y6339124D02*
Y7751321D01*
X-8169415Y6159339D02*
X-8168442D01*
X-8349200Y6339124D02*
X-8169415Y6159339D01*
X-8168442D02*
X-7759336Y5750233D01*
Y4969721D02*
Y5750233D01*
X-7873428Y5936167D02*
Y7098202D01*
X-7708536Y4546562D02*
Y5771275D01*
X-7873428Y5936167D02*
X-7708536Y5771275D01*
X-7877391Y7102164D02*
X-7873428Y7098202D01*
X-5658012Y3158011D02*
X-5446275Y2946275D01*
X-5708812Y3058812D02*
X-4900000Y2250000D01*
X-5800000Y3878260D02*
X-5759612Y3918648D01*
X-5658012Y5052866D02*
X-5603800Y5107078D01*
X-5708812Y5073908D02*
X-5676900Y5105820D01*
X-5607212Y5031824D02*
X-5550800Y5088236D01*
X-5607212Y3785425D02*
X-5500000Y3678213D01*
X-5708812Y3058812D02*
Y5073908D01*
X-5658012Y3158011D02*
Y5052866D01*
X-5759612Y3918648D02*
Y5755764D01*
X-5700000Y5815376D01*
X-5607212Y3785425D02*
Y5031824D01*
X-5500000Y3600000D02*
Y3678213D01*
X-7196888Y6214879D02*
X-7182009Y6200000D01*
X-7196888Y6364410D02*
X-7162513Y6398785D01*
X-7196888Y6214879D02*
Y6364410D01*
X-7182009Y6200000D02*
X-7068000D01*
X-7162513Y6398785D02*
Y6409593D01*
X-7122106Y6450000D02*
X-7118461D01*
X-7162513Y6409593D02*
X-7122106Y6450000D01*
X-7068000Y6200000D02*
X-7062500Y6194500D01*
X-7195689Y6527890D02*
Y8184811D01*
Y6527890D02*
X-7186687Y6518888D01*
X-7162513Y6490407D02*
X-7122106Y6450000D01*
X-7186687Y6518226D02*
X-7162513Y6494052D01*
X-7195689Y8184811D02*
X-7188500Y8192000D01*
X-7186687Y6518226D02*
Y6518888D01*
X-7122106Y6450000D02*
X-7118461D01*
X-7162513Y6490407D02*
Y6494052D01*
X-7657736Y4607736D02*
Y6592164D01*
X-7650000Y6599900D01*
X-885121Y1055391D02*
X-710392D01*
X-7375000Y6150000D02*
X-7373099Y6148099D01*
Y6014879D02*
Y6148099D01*
X-7358220Y6000000D02*
X-7250000D01*
X-7373099Y6014879D02*
X-7358220Y6000000D01*
X-7325000Y5850000D02*
X-7233676D01*
X-7065247Y5816247D02*
X-7062500Y5813500D01*
X-7233676Y5850000D02*
X-7199923Y5816247D01*
X-7065247D01*
X-7260500Y5559500D02*
X-7062500D01*
X-7295000Y5525000D02*
X-7260500Y5559500D01*
X-7300000Y5525000D02*
X-7295000D01*
X-7109173Y5200000D02*
X-6967279D01*
X-7124052Y5185121D02*
X-7109173Y5200000D01*
X-7124052Y5050948D02*
Y5185121D01*
X-2600000Y4450000D02*
Y4628646D01*
Y4650000D01*
X-4770515Y3923895D02*
Y4680371D01*
Y3923895D02*
X-4481900Y3635279D01*
X-4791919Y4701774D02*
Y4713843D01*
Y4701774D02*
X-4770515Y4680371D01*
X-3422395Y3052605D02*
Y3215536D01*
X-3400000Y3237931D02*
Y3250000D01*
X-3422395Y3215536D02*
X-3400000Y3237931D01*
X-3365709Y3433233D02*
X-3350830Y3418354D01*
X-3762937Y3150000D02*
X-3748058Y3164879D01*
X-3750000Y3250000D02*
X-3748058Y3248058D01*
X-3579432Y3054432D02*
X-3575000Y3050000D01*
X-3748058Y3164879D02*
Y3248058D01*
X-3600000Y3237931D02*
X-3579432Y3217363D01*
X-3350830Y3333233D02*
Y3418354D01*
X-3600000Y3237931D02*
Y3250000D01*
X-3579432Y3054432D02*
Y3217363D01*
X-3990000Y3150000D02*
X-3762937D01*
X-3425000Y3050000D02*
X-3422395Y3052605D01*
X-3600000Y3050000D02*
X-3575000D01*
X-3822581D02*
X-3600000D01*
X-3990000Y3085000D02*
X-3857581D01*
X-3822581Y3050000D01*
X-5200000Y1075000D02*
Y1325000D01*
X-1872503Y1895400D02*
X-1783400Y1806297D01*
X-1733100Y1750000D02*
X-1650000D01*
X-1783400Y1800300D02*
X-1733100Y1750000D01*
X-1783400Y1800300D02*
Y1806297D01*
X-2037400Y1895400D02*
X-1872503D01*
X-2154000Y2012000D02*
X-2037400Y1895400D01*
X-1900000Y5060000D02*
X-1700000Y4860000D01*
X-1600000Y2400000D02*
Y5278135D01*
X-1469138Y5408997D01*
X-1700000Y2900000D02*
Y4860000D01*
X-1841944Y1620600D02*
X-1821345Y1600000D01*
X-1650000D01*
X-2154000Y1758000D02*
X-2016600Y1620600D01*
X-1841944D01*
X-2450000Y1300000D02*
Y4046621D01*
X-2500000Y4096621D02*
Y4100000D01*
Y4096621D02*
X-2450000Y4046621D01*
X-601275Y3800266D02*
Y3875708D01*
X-741148Y3656747D02*
Y3660393D01*
X-601275Y3800266D01*
X-500000Y3700000D02*
X-257978Y3457978D01*
Y3307978D02*
Y3457978D01*
X-250000Y3300000D02*
X-200000Y3350000D01*
X-257978Y3307978D02*
X-250000Y3300000D01*
X-6535620Y5557620D02*
X-6442899D01*
X-6375518Y5625000D01*
X-6075860D01*
X-6537500Y5559500D02*
X-6535620Y5557620D01*
X-6100000Y6100000D02*
X-6060981Y6060981D01*
X-6075860Y5625000D02*
X-6060981Y5639879D01*
Y6060981D01*
X-6000000Y4474779D02*
Y6199707D01*
X-6073100Y4401679D02*
X-6000000Y4474779D01*
X-6000293Y6200000D02*
X-6000000Y6199707D01*
X-6000800Y4052579D02*
Y4299200D01*
X-5927193Y4330572D02*
X-5926900Y4330279D01*
X-5927193Y4269428D02*
X-5926900Y4269721D01*
X-5927193Y4008915D02*
Y4269428D01*
X-5929159Y4006949D02*
X-5927193Y4008915D01*
X-5926900Y4269721D02*
Y4330279D01*
X-5927193Y4330572D02*
Y6723814D01*
X-6000800Y4299200D02*
X-6000000Y4300000D01*
X-6012389Y6809009D02*
X-5927193Y6723814D01*
X-5929159Y3320842D02*
Y4006949D01*
X-6300000Y2950000D02*
X-5929159Y3320842D01*
X-6047600Y3552400D02*
Y4005779D01*
X-6000800Y4052579D01*
X-5850800Y3299200D02*
Y5000746D01*
X-5800000Y2800000D02*
Y3878260D01*
X-8419331Y4181400D02*
X-7946368D01*
X-7808534Y4319234D01*
Y4341466D01*
X-7800000Y4350000D01*
X-7735000Y4050000D02*
X-7400000D01*
X-7729193Y3894072D02*
X-7453452D01*
X-7750000Y3914879D02*
Y4065000D01*
Y3914879D02*
X-7729193Y3894072D01*
X-7750000Y4065000D02*
X-7735000Y4050000D01*
X-7350000Y4100000D02*
Y4400000D01*
X-7400000Y4050000D02*
X-7350000Y4100000D01*
Y4400000D02*
X-7285000Y4465000D01*
X-7200000D01*
X-7902415Y4668600D02*
X-7543632Y4309817D01*
Y4234064D02*
Y4309817D01*
X-7520507Y4358534D02*
X-7458534D01*
X-7708536Y4546562D02*
X-7520507Y4358534D01*
X-7458534D02*
X-7450000Y4350000D01*
X-7453452Y3894072D02*
X-7452464D01*
X-7174211Y4476267D02*
X-7166712Y4483767D01*
X-5050000Y2500000D02*
Y2699105D01*
X-5057252D02*
X-5032788Y2723569D01*
X-4841261D01*
X-4720044Y2709955D02*
Y2835121D01*
X-4730000Y2700000D02*
X-4720044Y2709955D01*
X-4885121Y2850000D02*
X-4734923D01*
X-4720044Y2835121D01*
X-5201778Y3451778D02*
Y3748222D01*
X-5200000Y3450000D02*
X-5196571Y3446570D01*
X-4851255Y3247828D02*
Y3455067D01*
X-4884083Y3215000D02*
X-4851255Y3247828D01*
X-4884083Y3215000D02*
X-4600000D01*
X-5196571Y3446570D02*
X-4993429D01*
X-4990000Y3450000D01*
X-4868461Y3900000D02*
Y4081539D01*
X-4950000Y4050000D02*
Y4449907D01*
X-4868461Y3800000D02*
Y3900000D01*
Y4081539D02*
X-4865019Y4084981D01*
X-4868461Y3647179D02*
Y3800000D01*
X-4865019Y4084981D02*
Y4943177D01*
X-5200000Y4100000D02*
Y4696621D01*
X-5150000Y4746620D02*
Y6150000D01*
X-5200000Y4696621D02*
X-5150000Y4746620D01*
X-4950000Y4956316D02*
X-4938119Y4944436D01*
Y4541406D02*
Y4944436D01*
X-5073100Y4573007D02*
Y6851220D01*
Y4573007D02*
X-4950000Y4449907D01*
Y4956316D02*
Y6250000D01*
X-4997100Y6489079D02*
X-4899200Y6391179D01*
X-5000000Y6300000D02*
X-4950000Y6250000D01*
X-4899200Y4977358D02*
X-4865019Y4943177D01*
X-4899200Y4977358D02*
Y6391179D01*
X-5674010Y6849952D02*
X-5650000Y6825942D01*
X-5713651Y6849952D02*
X-5674010D01*
X-5770174Y6894406D02*
X-5758106D01*
X-5713651Y6849952D01*
X-5650000Y6403379D02*
Y6825942D01*
X-6287506Y6809009D02*
X-6012389D01*
X-9167301Y1260338D02*
X-8874798D01*
X-9323100Y1416137D02*
X-9167301Y1260338D01*
X-8874798D02*
X-8650000Y1035540D01*
X-9085121Y1311801D02*
X-8811801D01*
X-9100000Y1326680D02*
Y1950000D01*
Y1326680D02*
X-9085121Y1311801D01*
X-8811801D02*
X-8550000Y1050000D01*
X-8650000Y503618D02*
Y1035540D01*
Y503618D02*
X-8407031Y260650D01*
X-9100000Y1950000D02*
X-8950000Y2100000D01*
X-8550000Y900000D02*
Y1050000D01*
X-4239350Y260650D02*
X-3837061Y662939D01*
X-8407031Y260650D02*
X-4239350D01*
X-9323100Y1416137D02*
Y2280531D01*
X-9236711Y2366920D01*
Y2763476D01*
X-9250000Y1950000D02*
Y2250000D01*
X-8669900Y2830100D01*
X-9061600Y3607600D02*
X-8750000Y3296000D01*
Y3050000D02*
Y3296000D01*
X-4000000Y1509502D02*
X-3907941Y1601561D01*
Y1648764D02*
X-3886252Y1670453D01*
X-3907941Y1601561D02*
Y1648764D01*
X-4473194Y2826900D02*
Y3113840D01*
Y2826900D02*
X-4473194Y2826900D01*
X-4473194Y1642465D02*
Y2826900D01*
X-4473194Y2826900D02*
X-4369721D01*
X-4326900Y2869721D01*
Y3623963D01*
X-4473194Y1642465D02*
X-4471080Y1640351D01*
X-4507118Y3145600D02*
X-4475734Y3114216D01*
X-4600000Y3150000D02*
X-4595600Y3154400D01*
X-6950800Y6374421D02*
Y7092623D01*
X-7050000Y7191823D02*
X-6950800Y7092623D01*
X-3300000Y5532379D02*
Y6972865D01*
X-3299769Y6973096D01*
X-5676900Y5105820D02*
Y5200000D01*
X-5650000Y6403379D02*
X-5603800Y6357179D01*
Y5107078D02*
Y6357179D01*
X-5550800Y7913542D02*
X-5500000Y7964342D01*
X-5550800Y5088236D02*
Y7913542D01*
X-5948311Y3201689D02*
X-5850800Y3299200D01*
X-5851710Y5001656D02*
X-5850800Y5000746D01*
X-5700000Y2364879D02*
X-5679621Y2344501D01*
X-5700000Y2364879D02*
Y2946621D01*
X-5701690Y2948310D02*
X-5700000Y2946621D01*
X-4498835Y4924056D02*
Y8084895D01*
X-4450000Y8133730D01*
X-4603873Y4844703D02*
Y6252195D01*
X-4622735Y6271056D02*
X-4603873Y6252195D01*
X-4695835Y7842456D02*
X-4650000Y7888291D01*
Y7900000D01*
X-4695835Y6272315D02*
X-4654673Y6231153D01*
X-4622735Y6271056D02*
Y7650000D01*
X-4700000Y8800000D02*
X-4549635Y8649635D01*
X-4695835Y6272315D02*
Y7842456D01*
X-4549635Y4903014D02*
Y8649635D01*
X-4800874Y4826177D02*
X-4718819Y4744122D01*
X-4800874Y4826177D02*
Y6299126D01*
X-4507118Y3280000D02*
X-4420000D01*
X-4654673Y4823661D02*
X-4500000Y4668987D01*
X-4600000Y3280000D02*
X-4507118D01*
X-4800874Y6299126D02*
X-4800000Y6300000D01*
X-4727774Y4824919D02*
Y6200000D01*
Y4824919D02*
X-4630552Y4727698D01*
X-4654673Y4823661D02*
Y6231153D01*
X-4603873Y4844703D02*
X-4449200Y4690029D01*
X-3300000Y5532379D02*
X-3285121Y5517500D01*
X-2722001Y7650000D02*
X-2250000D01*
X-2754000Y7681999D02*
X-2722001Y7650000D01*
X-4434618Y5888555D02*
X-4434268Y5888905D01*
Y5917201D01*
X-4498835Y4924056D02*
X-4200000Y4625221D01*
X-4549635Y4903014D02*
X-4276100Y4629479D01*
X-4434268Y5917201D02*
X-4425735Y5925734D01*
X-2350000Y6208500D02*
Y6300000D01*
Y6150000D02*
Y6208500D01*
X-2600000Y6027700D02*
Y6309395D01*
X-2563805Y6345590D01*
Y6357659D01*
X-3700000Y5659379D02*
Y6126900D01*
X-6656326Y6950000D02*
X-6600000Y6893674D01*
X-6750000Y6950000D02*
X-6656326D01*
X-6600000Y6367092D02*
Y6893674D01*
X-5250000Y4750000D02*
Y6100000D01*
X-5350000Y6200000D02*
X-5250000Y6100000D01*
X-5450000Y4150000D02*
Y7942500D01*
X-5500000Y4100000D02*
X-5450000Y4150000D01*
Y7942500D02*
X-5042500Y8350000D01*
X-6950800Y6299600D02*
X-6949600Y6300800D01*
X-6950800Y6374421D02*
X-6949600Y6373221D01*
Y6300800D02*
Y6373221D01*
X-5068044Y7903798D02*
X-5042500Y7929342D01*
X-5068044Y6856276D02*
Y7903798D01*
X-5073100Y6851220D02*
X-5068044Y6856276D01*
X-4997100Y7902900D02*
X-4800000Y8100000D01*
X-4997100Y6489079D02*
Y7902900D01*
X-6300000Y5963079D02*
Y6400000D01*
X-5700000Y5815376D02*
Y6200000D01*
X-601275Y3875708D02*
X-596275Y3880708D01*
X-550000Y2960991D02*
Y3300000D01*
Y2960991D02*
X-547769Y2958760D01*
X-553790Y1055843D02*
X-550776Y1052829D01*
X-601360Y1163208D02*
X-553790Y1115638D01*
Y1055843D02*
Y1115638D01*
X-601360Y1163208D02*
Y1348639D01*
X-300000Y2300000D02*
X-294968Y2305032D01*
Y2558500D01*
X-540674Y2003612D02*
X-537061Y2000000D01*
X-540674Y2003612D02*
Y2066328D01*
X-600000Y2125654D02*
X-540674Y2066328D01*
X-600000Y2125654D02*
Y2300000D01*
X-800000Y2000000D02*
X-662939D01*
X-300000Y2300000D02*
X-250000Y2250000D01*
X-1469138Y5408997D02*
Y8173138D01*
X-750000Y3800000D02*
Y8100000D01*
X-4900000Y2146621D02*
Y2250000D01*
X-9349253Y5800000D02*
X-9337184D01*
X-9313584Y5823600D01*
X-9152117D01*
X-9061600Y5733083D01*
Y5660117D02*
Y5733083D01*
Y5660117D02*
X-8970798Y5569315D01*
Y5478798D02*
Y5569315D01*
Y5478798D02*
X-8946000Y5454000D01*
X-8632394Y7962673D02*
X-8400000Y7730279D01*
X-8632394Y7962673D02*
Y8398586D01*
X-9473153Y4319774D02*
Y7839110D01*
X-9465540Y7846722D01*
X-9473153Y4319774D02*
X-9450000Y4296621D01*
X-4450000Y8133730D02*
Y8726100D01*
X-9450000Y3850000D02*
Y4296621D01*
X-9422353Y4384422D02*
Y6677647D01*
X-9200000Y6900000D01*
X-9422353Y4384422D02*
X-9400000Y4362069D01*
Y4350000D02*
Y4362069D01*
X-9315600Y4485883D02*
X-9225083Y4576400D01*
X-9315600Y3607600D02*
Y4485883D01*
Y3607600D02*
X-9308000Y3600000D01*
X-9326900Y5062172D02*
Y5300000D01*
X-9330313Y4793626D02*
X-9228687Y4692000D01*
X-9330313Y4793626D02*
Y5058759D01*
X-9326900Y5062172D01*
X-2700000Y8300000D02*
Y8480000D01*
X-8550000Y7952121D02*
Y8300000D01*
X-9228687Y4692000D02*
X-9200000D01*
X-8133400Y5197400D02*
X-7996000Y5060000D01*
X-8550000Y7952121D02*
X-8349200Y7751321D01*
X-8473100Y4981379D02*
Y7700000D01*
Y4981379D02*
X-8435121Y4943400D01*
X-7899637Y4991466D02*
X-7840970D01*
X-7947703Y4943400D02*
X-7899637Y4991466D01*
X-7657736Y4607736D02*
X-7600000Y4550000D01*
X-7840970Y4991466D02*
X-7832436Y5000000D01*
X-7781636Y4947421D02*
X-7759336Y4969721D01*
X-7781636Y4809237D02*
Y4947421D01*
X-7600000Y4541406D02*
Y4550000D01*
X-7500000Y5701379D02*
X-7485121Y5686500D01*
X-7062500D01*
X-7500000Y5701379D02*
Y5850000D01*
X-8561221Y4668600D02*
X-7902415D01*
X-4449200Y4681287D02*
Y4690029D01*
X-4404925Y4624943D02*
Y4637012D01*
X-4449200Y4681287D02*
X-4404925Y4637012D01*
X-4718819Y3944040D02*
X-4431100Y3656321D01*
X-4718819Y3944040D02*
Y4744122D01*
X-4630552Y3927615D02*
Y4727698D01*
X-4500000Y4300000D02*
Y4668987D01*
X-4434618Y4934618D02*
X-4128500Y4628500D01*
X-4434618Y4934618D02*
Y5888555D01*
X-4200000Y4519721D02*
Y4625221D01*
X-4128500Y4628500D02*
X-3885000D01*
X-4276100Y3304258D02*
Y4629479D01*
X-3200000Y4450000D02*
Y4850000D01*
X-4126900Y4550000D02*
X-4052350Y4475450D01*
X-4186842Y3215000D02*
X-3990000D01*
X-4276100Y3304258D02*
X-4186842Y3215000D01*
X-3250000Y4250000D02*
X-3100000Y4100000D01*
Y3100000D02*
Y4100000D01*
X-6050000Y3550000D02*
X-6047600Y3552400D01*
X-6073100Y4105579D02*
Y4401679D01*
X-6098400Y4080279D02*
X-6073100Y4105579D01*
X-8548679Y4435400D02*
X-7782021D01*
X-7726900Y4316590D02*
Y4380279D01*
X-7782021Y4435400D02*
X-7726900Y4380279D01*
X-7750000Y4293490D02*
X-7726900Y4316590D01*
X-7750000Y4207500D02*
Y4293490D01*
X-8823900Y6526100D02*
X-8700000Y6650000D01*
X-8823900Y4223900D02*
Y6526100D01*
Y4223900D02*
X-8750000Y4150000D01*
X-8946000Y6900000D02*
X-8822900Y6776900D01*
X-8723521D02*
X-8626900Y6680279D01*
X-8773100Y6430279D02*
X-8626900Y6576479D01*
X-8822900Y6776900D02*
X-8723521D01*
X-8626900Y6576479D02*
Y6680279D01*
X-8773100Y4451537D02*
Y6430279D01*
X-8649200Y4535921D02*
Y5500000D01*
X-8722300Y6365631D02*
X-8700000Y6387931D01*
X-8773100Y4451537D02*
X-8669900Y4348337D01*
X-8722300Y4537179D02*
Y6365631D01*
Y4537179D02*
X-8596800Y4411679D01*
X-8649200Y4535921D02*
X-8548679Y4435400D01*
X-8700000Y6387931D02*
Y6400000D01*
X-8596800Y3700000D02*
Y4411679D01*
X-8669900Y2830100D02*
Y4348337D01*
X-8573900Y2353629D02*
X-8364607Y2144336D01*
X-8476900Y3156513D02*
Y3767276D01*
X-8500000Y3790376D02*
Y4050000D01*
Y3790376D02*
X-8476900Y3767276D01*
X-8573900Y3131355D02*
X-8550000Y3155255D01*
X-8573900Y2353629D02*
Y3131355D01*
X-8550000Y3155255D02*
Y3550000D01*
X-8523100Y3110313D02*
X-8476900Y3156513D01*
X-8576100Y4683479D02*
X-8561221Y4668600D01*
X-8576100Y4683479D02*
Y5626900D01*
X-8450000Y2800000D02*
X-8307400Y2657400D01*
X-8133400D01*
X-1160650Y1506350D02*
X-914879D01*
X-900000Y1070270D02*
Y1491471D01*
X-914879Y1506350D02*
X-900000Y1491471D01*
Y1070270D02*
X-885121Y1055391D01*
X-4630552Y3927615D02*
X-4326900Y3623963D01*
X-4595600Y3145600D02*
X-4507118D01*
X-4600000Y3150000D02*
X-4595600Y3145600D01*
X-4420000Y2920000D02*
X-4400000Y2900000D01*
X-4420000Y2920000D02*
Y3280000D01*
X-4507118Y3284400D02*
X-4431100Y3360418D01*
Y3656321D01*
X-4595600Y3414400D02*
X-4507118D01*
X-4481900Y3439618D02*
Y3635279D01*
X-4507118Y3414400D02*
X-4481900Y3439618D01*
X-4052350Y3484800D02*
X-4042550Y3475000D01*
X-4177700Y3893342D02*
Y4250000D01*
X-4042550Y3475000D02*
X-3990000D01*
X-4149200Y3359879D02*
X-4134321Y3345000D01*
X-4052350Y3484800D02*
Y4475450D01*
X-4149200Y3850000D02*
X-4104600Y3894601D01*
Y4424321D01*
X-4134321Y3345000D02*
X-3990000D01*
X-4200000Y3871042D02*
X-4177700Y3893342D01*
X-4200000Y3300000D02*
Y3871042D01*
X-4180000Y3280000D02*
X-3990000D01*
X-4149200Y3359879D02*
Y3850000D01*
X-4200000Y3300000D02*
X-4180000Y3280000D01*
X-4200000Y4519721D02*
X-4104600Y4424321D01*
X-8435121Y4943400D02*
X-7947703D01*
X-8450000Y4200000D02*
X-8437931D01*
X-8419331Y4181400D01*
X-8242612Y8107388D02*
X-7802612D01*
X-8300000Y8050000D02*
X-8242612Y8107388D01*
X-7802612D02*
X-7800000Y8110000D01*
X-7374056Y8310100D02*
X-6862581D01*
X-7465500Y8192000D02*
Y8218655D01*
X-7374056Y8310100D01*
X-7604000Y8053500D02*
X-7465500Y8192000D01*
X-6901600Y5049518D02*
Y6065492D01*
X-6877700Y6172300D02*
Y7144361D01*
X-6911500Y7178161D02*
X-6877700Y7144361D01*
X-7050000Y4901118D02*
X-6901600Y5049518D01*
Y6065492D02*
X-6600000Y6367092D01*
X-7050000Y4200000D02*
Y4901118D01*
X-6967500Y5432500D02*
X-6952400Y5417399D01*
Y5214879D02*
Y5417399D01*
X-6911500Y7178161D02*
Y8192000D01*
X-6967279Y5200000D02*
X-6952400Y5214879D01*
X-6977409Y6072591D02*
X-6877700Y6172300D01*
X-7062500Y6067500D02*
X-7057409Y6072591D01*
X-6977409D01*
X-6800000Y6000000D02*
X-6732500Y6067500D01*
X-6850800Y4900000D02*
Y6030801D01*
X-6850800Y6041322D02*
X-6724675Y6170575D01*
X-6800000Y4900000D02*
Y6000000D01*
X-6850800Y6030801D02*
X-6850800Y6041322D01*
X-6732500Y6067500D02*
X-6537500D01*
X-8700000Y6850000D02*
Y6985000D01*
X-6550000Y3496621D02*
Y4500000D01*
X-6706571Y3340050D02*
X-6550000Y3496621D01*
X-7200000Y2875221D02*
X-6735171Y3340050D01*
X-6706571D01*
X-7200000Y1150000D02*
Y2875221D01*
X-7292742Y1508096D02*
Y3007258D01*
X-6800000Y3500000D01*
Y4035121D01*
X-6695852Y3454148D02*
Y4879429D01*
X-6700000Y3450000D02*
X-6695852Y3454148D01*
X-7123124Y976876D02*
Y2880255D01*
X-6714129Y3289250D02*
X-6507371D01*
X-7123124Y2880255D02*
X-6714129Y3289250D01*
X-7378141Y3065497D02*
X-7083079Y3360558D01*
Y3654121D01*
X-7378141Y1753971D02*
Y3065497D01*
X-7053076Y829975D02*
Y2796924D01*
X-7056151Y826900D02*
X-7053076Y829975D01*
Y2796924D02*
X-7050000Y2800000D01*
X-7453815Y767614D02*
X-7336201Y650000D01*
X-7453815Y767614D02*
Y3001373D01*
X-7629574Y508444D02*
X-7528000Y406870D01*
X-7629574Y508444D02*
Y2771910D01*
X-7528000Y400000D02*
Y406870D01*
X-7550000Y750000D02*
Y2900000D01*
X-7996779Y696779D02*
Y791779D01*
X-8005000Y800000D02*
X-7996779Y791779D01*
Y696779D02*
X-7900000Y600000D01*
X-7900000D01*
X-7814135Y432135D02*
X-7782000Y400000D01*
X-7814135Y432135D02*
Y514135D01*
X-7900000Y600000D02*
X-7814135Y514135D01*
X-6065367Y5344045D02*
X-6051600Y5330279D01*
Y4495020D02*
Y5330279D01*
X-6146621Y4400000D02*
X-6051600Y4495020D01*
X-6065367Y5344045D02*
Y5391466D01*
X-6073900Y5400000D02*
X-6065367Y5391466D01*
X-6149200Y3811679D02*
Y4400000D01*
X-6146621D01*
X-6098400Y3698221D02*
Y4080279D01*
X-5446275Y2946275D02*
X-5444311D01*
X-7148710Y951289D02*
X-7123124Y976876D01*
X-5679621Y2344501D02*
X-5515000D01*
X-4800000Y664879D02*
Y2046621D01*
X-2351272Y1125758D02*
Y1560728D01*
X-2418047Y1058984D02*
X-2351272Y1125758D01*
Y1560728D02*
X-2154000Y1758000D01*
X-2291181Y997000D02*
X-2287886Y1000295D01*
Y1281011D02*
X-2179180Y1389717D01*
X-2287886Y1000295D02*
Y1281011D01*
X-2691016Y1058984D02*
X-2418047D01*
X-2179180Y1478820D02*
X-2154000Y1504000D01*
X-2179180Y1389717D02*
Y1478820D01*
X-3672286Y3652715D02*
Y3960217D01*
X-3700000Y3987931D02*
X-3672286Y3960217D01*
X-3700000Y3987931D02*
Y4000000D01*
X-3087061Y662939D02*
X-2691016Y1058984D01*
X-3650000Y662939D02*
X-3087061D01*
X-5948311Y3198310D02*
Y3201689D01*
X-7150000Y900000D02*
X-7148710Y901290D01*
Y951289D01*
X-6287138Y827669D02*
X-6282152Y832655D01*
Y1275505D01*
X-6335147Y1328501D02*
X-6282152Y1275505D01*
X-6650000Y1242573D02*
X-6638860Y1231433D01*
Y971936D02*
Y1231433D01*
X-6650000Y1242573D02*
Y1490000D01*
X-6557500Y1582501D01*
X-6507371Y3289250D02*
X-6098400Y3698221D01*
X-6300000Y2359380D02*
Y2950000D01*
X-6314879Y2344501D02*
X-6300000Y2359380D01*
X-6420000Y3796000D02*
X-6164879D01*
X-6149200Y3811679D01*
X-6485000Y2344501D02*
X-6314879D01*
X-5800000Y1547353D02*
X-5764853Y1582501D01*
X-5800000Y1050000D02*
Y1547353D01*
X-5702603Y1152603D02*
Y1416793D01*
Y1152603D02*
X-5700000Y1150000D01*
X-5702603Y1416793D02*
X-5664853Y1454544D01*
X-4900000Y2146621D02*
X-4800000Y2046621D01*
X-5500000Y3870000D02*
Y4100000D01*
X-5520000Y3850000D02*
X-5500000Y3870000D01*
X-4814879Y650000D02*
X-4800000Y664879D01*
X-5001600Y1811902D02*
Y2201600D01*
X-4950800Y1832944D02*
X-4900000Y1782144D01*
X-5199659Y2471501D02*
X-4950800Y2222642D01*
X-5144501Y2344501D02*
X-5001600Y2201600D01*
X-5227121Y650000D02*
X-4814879D01*
X-4900000Y1300000D02*
Y1782144D01*
X-5000000Y1400000D02*
Y1810301D01*
X-4950800Y1832944D02*
Y2222642D01*
X-5001600Y1811902D02*
X-5000000Y1810301D01*
X-5050000Y2500000D02*
X-4800000Y2250000D01*
Y2150000D02*
Y2250000D01*
X-5242000Y400000D02*
Y635121D01*
X-5227121Y650000D01*
X-7336201D02*
X-7050000D01*
X-8364607Y2144336D02*
X-8128336D01*
X-7996000Y2012000D01*
X-8133400Y2657400D02*
X-7996000Y2520000D01*
X-7020000Y400000D02*
Y620000D01*
X-7050000Y650000D02*
X-7020000Y620000D01*
X-8865304Y2394832D02*
X-8855168D01*
X-8950000Y1704000D02*
X-8750000Y1904000D01*
Y2350000D01*
X-6557500Y1582501D02*
X-6485000D01*
X-5042500Y7929342D02*
Y8096000D01*
X-5500000Y7964342D02*
Y8500000D01*
X-7785121Y8800000D02*
X-4700000D01*
X-7800000Y8785121D02*
X-7785121Y8800000D01*
X-7800000Y8625000D02*
Y8785121D01*
X-3891157Y4888657D02*
X-3885000Y4882500D01*
X-4135447Y4888657D02*
X-3891157D01*
X-4600000Y3410000D02*
X-4595600Y3414400D01*
X-6350000Y8650000D02*
X-6350000Y8650000D01*
X-6200000D01*
X-4825000Y3595000D02*
X-4748276Y3518276D01*
X-4825000Y3595000D02*
Y3605000D01*
X-4868461Y3647179D02*
X-4853582Y3632300D01*
X-4852300D02*
X-4825000Y3605000D01*
X-4853582Y3632300D02*
X-4852300D01*
X-3600000Y5550000D02*
Y7696621D01*
X-3650000Y7746621D02*
Y7750000D01*
X-3632500Y5517500D02*
X-3600000Y5550000D01*
X-3650000Y7746621D02*
X-3600000Y7696621D01*
X-3714879Y5644500D02*
X-3700000Y5659379D01*
X-3885000Y5517500D02*
X-3632500D01*
X-3885000Y5644500D02*
X-3714879D01*
X-3681540Y3643461D02*
X-3672286Y3652715D01*
X-8649200Y5700000D02*
X-8576100Y5626900D01*
X-8950000Y2354000D02*
X-8906136D01*
X-4600000Y1550000D02*
Y2900000D01*
X-4748276Y3364879D02*
Y3518276D01*
X-7800008Y8624992D02*
X-7800000Y8625000D01*
X-3990000Y3150000D02*
X-3990000Y3150000D01*
X-2349200Y4250800D02*
Y5283697D01*
X-2350000Y4250000D02*
X-2349200Y4250800D01*
X-2400000Y4450000D02*
Y5800000D01*
X-2016600Y5705400D02*
X-1800000Y5922000D01*
X-2450000Y5850000D02*
X-2400000Y5800000D01*
X-2450000Y4400000D02*
X-2400000Y4450000D01*
X-2349200Y5283697D02*
X-2181497Y5451400D01*
X-6200000Y3950000D02*
Y4446621D01*
X-6150000Y4496621D02*
Y4500000D01*
X-6200000Y4446621D02*
X-6150000Y4496621D01*
X-6250800Y4064879D02*
Y5099200D01*
X-6420000Y4050000D02*
X-6265679D01*
X-6250800Y4064879D01*
Y5099200D02*
X-6250000Y5100000D01*
X-6680972Y5813500D02*
X-6537500D01*
X-6695852Y4879429D02*
X-6695852Y5798620D01*
X-6680972Y5813500D01*
X-1700000Y6017119D02*
X-1570900Y6146219D01*
Y7670900D01*
X-1650000Y7750000D02*
X-1570900Y7670900D01*
X-1600000Y5500000D02*
X-1520100Y5579900D01*
X-1738000Y7950000D02*
X-1520100Y7732100D01*
Y5579900D02*
Y7732100D01*
X-1700000Y5000000D02*
Y6017119D01*
X-1669000Y8373000D02*
X-1469138Y8173138D01*
X-710392Y1055391D02*
X-705000Y1050000D01*
X-1800000Y5922000D02*
Y6250000D01*
X-8946000Y7154000D02*
X-8746500D01*
X-8707500Y7115000D01*
X-8700000D01*
X-2651625Y5781625D02*
Y5947475D01*
X-2300000Y6350000D02*
Y6351990D01*
X-2651625Y5781625D02*
X-2650000Y5780000D01*
X-2350000Y6300000D02*
X-2300000Y6350000D01*
X-3058100Y6041900D02*
X-3050000Y6050000D01*
X-3058100Y5715100D02*
Y6041900D01*
X-2700000Y8620000D02*
X-2270000D01*
X-2200000Y8550000D01*
Y8396000D02*
X-2177000Y8373000D01*
X-2200000Y8396000D02*
Y8550000D01*
X-2154000Y6196000D02*
X-2000000Y6350000D01*
X-2154000Y5822000D02*
Y6196000D01*
X-2181497Y5451400D02*
X-2105703D01*
X-2016600Y5540503D02*
Y5705400D01*
X-2105703Y5451400D02*
X-2016600Y5540503D01*
X-3100000Y4250000D02*
Y4350000D01*
X-3100000Y4350000D02*
X-3100000Y4350000D01*
X-2349200Y5564879D02*
X-2334321Y5550000D01*
X-2349200Y5564879D02*
Y6149200D01*
X-2350000Y6150000D02*
X-2349200Y6149200D01*
X-2334321Y5550000D02*
X-2172000D01*
X-2154000Y5568000D01*
X-3285121Y5517500D02*
X-2915000D01*
X-3058100Y5715100D02*
X-2987500Y5644500D01*
X-2915000D01*
X-2754000Y7681999D02*
Y7950000D01*
X-3008000Y7683000D02*
X-3000000Y7675000D01*
X-3008000Y7683000D02*
Y7950000D01*
X-3262000Y7687000D02*
Y7950000D01*
Y7687000D02*
X-3250000Y7675000D01*
X-3516000Y7950000D02*
X-3500000Y7934000D01*
Y7675000D02*
Y7934000D01*
X-2817700Y607700D02*
X-2757700D01*
X-2600000Y450000D02*
X-2037879D01*
X-2757700Y607700D02*
X-2600000Y450000D01*
X-2037879D02*
X-2023000Y464879D01*
Y677000D01*
X-2850000Y640000D02*
X-2817700Y607700D01*
X-2850000Y280000D02*
Y480000D01*
X-1270000Y1397000D02*
X-1160650Y1506350D01*
X-3650000Y537061D02*
X-3362939D01*
X-3350000Y550000D01*
X-3837061Y662939D02*
X-3650000D01*
X-398969Y3900057D02*
Y4035057D01*
X-413977Y4050065D02*
X-398969Y4035057D01*
X-9225083Y4576400D02*
X-9061600D01*
X-8946000Y4692000D01*
X-9061600Y3607600D02*
Y4322400D01*
X-8946000Y4438000D01*
X-8800000Y3600000D02*
Y4038000D01*
X-8946000Y4184000D02*
X-8800000Y4038000D01*
X-5515000Y2471501D02*
X-5199659D01*
X-5262069Y2250000D02*
X-5250000D01*
X-5515000Y2344501D02*
X-5144501D01*
X-5294568Y2217501D02*
X-5262069Y2250000D01*
X-5515000Y2217501D02*
X-5294568D01*
X-6200000Y2250000D02*
Y2700000D01*
X-6227000Y3923000D02*
X-6200000Y3950000D01*
X-6420000Y3923000D02*
X-6227000D01*
X-6200000Y976479D02*
Y1400001D01*
Y976479D02*
X-6150000Y926479D01*
Y923100D02*
Y926479D01*
X-6850000Y4700000D02*
Y4703379D01*
X-6800000Y4250000D02*
X-6746652Y4303348D01*
X-6850000Y4703379D02*
X-6800000Y4753379D01*
X-6746652Y5925620D02*
X-6731773Y5940499D01*
X-6800000Y4753379D02*
Y4900000D01*
X-6800000Y4900000D01*
X-6746652Y4303348D02*
Y5925620D01*
X-6950000Y4050000D02*
X-6814879D01*
X-6800000Y4035121D01*
X-6731773Y5940499D02*
X-6537500D01*
X-3519291Y3433233D02*
X-3365709D01*
X-3853637Y3414400D02*
X-3818037Y3450000D01*
X-3985600Y3414400D02*
X-3853637D01*
X-3990000Y3410000D02*
X-3985600Y3414400D01*
X-3818037Y3450000D02*
X-3681540D01*
Y3643461D01*
X-4657500Y3085000D02*
X-4600000D01*
X-4900000Y2950000D02*
X-4792500D01*
X-4900000Y2864879D02*
Y2950000D01*
Y2864879D02*
X-4885121Y2850000D01*
X-4792500Y2950000D02*
X-4657500Y3085000D01*
X-4728397Y3345000D02*
X-4600000D01*
X-4748276Y3364879D02*
X-4728397Y3345000D01*
X-6350000Y8500000D02*
Y8524984D01*
Y8300000D02*
Y8500000D01*
X-7800008Y8474992D02*
X-7800000Y8474984D01*
Y8290000D02*
Y8474984D01*
X-7050000Y7191823D02*
Y7908000D01*
X-6724675Y6170575D02*
X-6709955Y6185295D01*
X-6700750Y6194500D01*
X-6537500D01*
X-6400000Y5948200D02*
X-6385121Y5963079D01*
X-6400000Y5701379D02*
Y5948200D01*
X-6385121Y5963079D02*
X-6300000D01*
X-7750000Y6150000D02*
Y7485000D01*
X-7327000Y7908000D01*
X-6414879Y5686500D02*
X-6400000Y5701379D01*
X-6537500Y5686500D02*
X-6414879D01*
X-7062500Y5432500D02*
X-6967500D01*
X-7255500Y5305500D02*
X-7062500D01*
X-7300000Y5350000D02*
X-7255500Y5305500D01*
X-7250000Y6000000D02*
X-7190500Y5940500D01*
X-7062500D01*
X-7200000Y3800000D02*
X-7200000Y3800000D01*
X-7068200Y3669000D02*
X-6950000D01*
X-7083079Y3654121D02*
X-7068200Y3669000D01*
X-2650000Y5650000D02*
X-2647834Y5647834D01*
Y5514003D02*
Y5647834D01*
X-3600000Y4350000D02*
Y4740621D01*
X-3885000Y4755500D02*
X-3614879D01*
X-3600000Y4740621D01*
X-3200000Y4850000D02*
X-3167500Y4882500D01*
X-2915000D01*
X-3100000Y4350000D02*
Y4740621D01*
X-3085121Y4755500D01*
X-2915000D01*
Y5771500D02*
X-2658500D01*
X-2650000Y5780000D01*
X-6232500Y2217501D02*
X-6200000Y2250000D01*
X-6485000Y2217501D02*
X-6232500D01*
X-6255500Y1455501D02*
X-6200000Y1400001D01*
X-6485000Y1455501D02*
X-6255500D01*
X-6485000Y1328501D02*
X-6335147D01*
X-5764853Y1582501D02*
X-5515000D01*
X-5664853Y1454544D02*
X-5515956D01*
X-5515000Y1455501D01*
X-3650000Y2005000D02*
X-3587700Y1942700D01*
X-3561658D02*
X-3546779Y1927821D01*
X-3561658Y1536500D02*
X-3546779Y1551379D01*
Y1927821D01*
X-3665000Y1536500D02*
X-3561658D01*
X-3587700Y1942700D02*
X-3561658D01*
X-4000000Y800000D02*
Y1509502D01*
X-2900000Y1915000D02*
Y2450000D01*
X-2915000Y1900000D02*
X-2900000Y1915000D01*
X-2915000Y1805379D02*
Y1900000D01*
X-3135000Y1790500D02*
X-2929879D01*
X-2915000Y1805379D01*
X-3900000Y2214879D02*
Y2750000D01*
Y2214879D02*
X-3885121Y2200000D01*
X-3636118D01*
X-3349200Y1913082D01*
Y1710700D02*
Y1913082D01*
Y1710700D02*
X-3175000Y1536500D01*
X-3135000D01*
X-3150000Y1955000D02*
Y1990259D01*
X-3243100Y1678379D02*
X-3228221Y1663500D01*
X-3243100Y1678379D02*
Y1897159D01*
X-3167630Y1972630D02*
X-3150000Y1955000D01*
X-3167630Y1972630D02*
X-3150000Y1990259D01*
X-3228221Y1663500D02*
X-3135000D01*
X-3243100Y1897159D02*
X-3167630Y1972630D01*
X-3200000Y2005000D02*
X-3167630Y1972630D01*
X-3135000Y1663500D02*
X-2863500D01*
X-3897500Y1000000D02*
Y1200000D01*
X-3792074Y1670453D02*
X-3785121Y1663500D01*
X-3886252Y1670453D02*
X-3792074D01*
X-3785121Y1663500D02*
X-3665000D01*
X-3649992Y1075008D02*
X-3525008D01*
X-3665000Y1409500D02*
X-3649992Y1394492D01*
Y1225008D02*
Y1394492D01*
X-2800000Y1450000D02*
X-2772700Y1422700D01*
X-2764879D02*
X-2750000Y1407821D01*
X-2772700Y1422700D02*
X-2764879D01*
X-2750000Y1190498D02*
Y1407821D01*
X-2865498Y1075000D02*
X-2750000Y1190498D01*
X-2950000Y1264879D02*
Y1521621D01*
X-2964879Y1536500D02*
X-2950000Y1521621D01*
X-3135000Y1536500D02*
X-2964879D01*
X-2950000Y1264879D02*
X-2935121Y1250000D01*
X-2852500D01*
X-3897500Y1535121D02*
X-3882621Y1550000D01*
X-3897500Y1450000D02*
Y1535121D01*
X-3678500Y1550000D02*
X-3665000Y1536500D01*
X-3882621Y1550000D02*
X-3678500D01*
X-3826469Y1223531D02*
X-3800000Y1250000D01*
Y1394621D01*
X-3785121Y1409500D01*
X-3665000D01*
X-3873969Y1223531D02*
X-3826469D01*
X-3897500Y1200000D02*
X-3873969Y1223531D01*
X-3525000Y1075000D02*
X-3500000D01*
X-3525008Y1075008D02*
X-3525000Y1075000D01*
X-8330000Y440000D02*
X-8290000Y400000D01*
X-8330000Y440000D02*
Y700000D01*
X-8135121Y600000D02*
X-8050879D01*
X-8036000Y400000D02*
Y585121D01*
X-8050879Y600000D02*
X-8036000Y585121D01*
X-8150000Y614879D02*
Y850000D01*
Y614879D02*
X-8135121Y600000D01*
X-8200000Y900000D02*
X-8150000Y850000D01*
X-8330000Y900000D02*
X-8200000D01*
X-3100000Y1075000D02*
X-2865498D01*
X-6773000Y7908000D02*
Y8220519D01*
X-6862581Y8310100D02*
X-6773000Y8220519D01*
X-7604000Y7908000D02*
Y8053500D01*
X-6350008Y8524992D02*
X-6350000Y8524984D01*
X-6382300Y8087700D02*
X-6350000Y8120000D01*
X-6382300Y8021700D02*
Y8087700D01*
X-6496000Y7908000D02*
X-6382300Y8021700D01*
X-2863500Y1663500D02*
X-2850000Y1650000D01*
D12*
X-7584636Y6443702D02*
X-7580917Y6447420D01*
X-7284119D01*
X-7525000Y6150000D02*
Y6155000D01*
X-7545000Y6170000D02*
X-7540000D01*
X-7584636Y6209635D02*
Y6443702D01*
X-7540000Y6170000D02*
X-7525000Y6155000D01*
X-7584636Y6209635D02*
X-7545000Y6170000D01*
X-6347501Y5432500D02*
X-6305000Y5475000D01*
X-6130412D01*
X-6537500Y5432500D02*
X-6347501D01*
X-6130412Y5475000D02*
X-6105412Y5500000D01*
X-6100000D01*
X-5350000Y3880000D02*
X-5337411Y3892589D01*
X-5380000Y3850000D02*
X-5350000Y3880000D01*
Y3350000D02*
Y3600000D01*
X-3305412Y3750000D02*
X-3300000D01*
X-3525000Y3700000D02*
X-3355412D01*
X-3305412Y3750000D01*
X-5250000Y3200000D02*
X-5244588D01*
X-5223611Y3220977D01*
X-5045824D01*
X-5350000Y2800000D02*
X-5264962Y2714962D01*
X-5202252D01*
X-5187252Y2699961D01*
Y2699105D02*
Y2699961D01*
X-5075136Y3672039D02*
X-4973441D01*
X-5116666Y3630509D02*
X-5075136Y3672039D01*
X-5337411Y3892589D02*
X-5038951D01*
X-5031539Y3900000D01*
X-5350000Y2800000D02*
Y3350000D01*
X-2750000Y7550000D02*
X-2747001D01*
X-3000000D02*
X-2750000D01*
X-2747001D02*
X-2550000D01*
X-633964Y4120051D02*
Y4174538D01*
Y4120051D02*
X-563978Y4050065D01*
X-633964Y4174538D02*
X-633596Y4174906D01*
X-846978Y2955448D02*
X-711479D01*
X-708168Y2958760D02*
X-708063Y2958750D01*
X-300000Y1350000D02*
Y1600000D01*
X-1450000Y3400000D02*
Y5300000D01*
Y1577000D02*
Y3400000D01*
X-3100000Y2330000D02*
Y2500000D01*
Y2214879D02*
Y2330000D01*
X-4600000Y3644588D02*
Y3650000D01*
Y3644588D02*
X-4545000Y3589588D01*
X-3114879Y2200000D02*
X-3100000Y2214879D01*
X-3535121Y2200000D02*
X-3114879D01*
X-5350000Y3880000D02*
Y5300000D01*
X-5380000Y3620000D02*
Y3850000D01*
Y3620000D02*
X-5360000Y3600000D01*
X-4545000Y3477500D02*
Y3589588D01*
X-3250000Y7550000D02*
X-3000000D01*
X-3500000D02*
X-3250000D01*
X-2747001D02*
X-2747001Y7550000D01*
X-1450000Y1577000D02*
X-1270000Y1397000D01*
X-3650000Y250000D02*
X-3350000D01*
X-5050630Y2954807D02*
Y3216171D01*
X-5055437Y2950000D02*
X-5050630Y2954807D01*
Y3216171D02*
X-5045824Y3220977D01*
X-7500000Y5050000D02*
X-7300000D01*
X-3300000Y1225000D02*
X-3100000D01*
X-3500000D02*
X-3300000D01*
X-4102500Y1450000D02*
Y1462500D01*
Y1200000D02*
Y1450000D01*
X-4125311Y1485310D02*
X-4102500Y1462500D01*
X-4196173Y1543673D02*
Y1646173D01*
X-4137810Y1485310D02*
X-4125311D01*
X-4196173Y1543673D02*
X-4137810Y1485310D01*
X-4194588Y1650000D02*
X-4174135Y1670453D01*
X-4016252D01*
X-4200000Y1650000D02*
X-4194588D01*
X-4200000D02*
X-4196173Y1646173D01*
X-4015000Y1700000D02*
Y1775621D01*
X-3550000Y2214879D02*
Y2330000D01*
Y2214879D02*
X-3535121Y2200000D01*
X-3700000Y2500000D02*
X-3300000D01*
X-3750000Y2450000D02*
X-3700000Y2500000D01*
X-3750000Y2330000D02*
Y2450000D01*
X-3300000Y2330000D02*
Y2500000D01*
X-2785000Y1900000D02*
X-2650000D01*
X-2647500Y1250000D02*
Y1647500D01*
X-2645000Y1650000D02*
Y1745000D01*
X-2647500Y1647500D02*
X-2645000Y1650000D01*
X-2770121Y1800000D02*
X-2700000D01*
X-2785000Y1814879D02*
Y1900000D01*
Y1814879D02*
X-2770121Y1800000D01*
X-2700000D02*
X-2645000Y1745000D01*
X-4015000Y1775621D02*
X-4000121Y1790500D01*
X-3665000D01*
X-3135000Y1335000D02*
X-3100000Y1300000D01*
X-3135000Y1335000D02*
Y1409500D01*
X-3100000Y1225000D02*
Y1300000D01*
D14*
X-6424845Y5305500D02*
X-6405345Y5325000D01*
X-6300000D01*
X-6537500Y5305500D02*
X-6424845D01*
X-7200000Y3959510D02*
X-7196123Y3955633D01*
X-7200000Y3959510D02*
Y4200000D01*
X-7196123Y3955633D02*
X-7191123D01*
X-7158490Y3923000D02*
X-6950000D01*
X-7191123Y3955633D02*
X-7158490Y3923000D01*
X-2841147Y4628500D02*
X-2822777Y4646870D01*
X-2603130D01*
X-2600000Y4650000D01*
X-2915000Y4628500D02*
X-2841147D01*
X-7647964Y3772036D02*
X-7455489D01*
X-7453452Y3774073D01*
X-7650000Y3770000D02*
X-7647964Y3772036D01*
X-7200000Y4200000D02*
X-7200000Y4200000D01*
X-7200000Y4200000D02*
Y4335000D01*
X-846978Y2955448D02*
Y6094225D01*
Y2910912D02*
Y2955448D01*
X-4250000Y6047294D02*
Y6050000D01*
Y6047294D02*
X-4236500Y6033794D01*
Y5888289D02*
Y6033794D01*
X-4250000Y5742578D02*
Y5874789D01*
X-4236500Y5888289D01*
X-1270000Y2667000D02*
X-1143182Y2793818D01*
X-964072D02*
X-846978Y2910912D01*
X-1143182Y2793818D02*
X-964072D01*
X-6850000Y2471501D02*
X-6485000D01*
X-6850000D02*
Y2650000D01*
Y2450000D02*
Y2471501D01*
X-6271706Y3669000D02*
X-6252706Y3650000D01*
X-6250000D01*
X-6420000Y3669000D02*
X-6271706D01*
X-7200000Y3600000D02*
Y3800000D01*
X-7196000Y3796000D02*
X-6950000D01*
X-7420025Y3800000D02*
X-7200000D01*
X-3885957Y5770543D02*
X-3885000Y5771500D01*
X-4222035Y5770543D02*
X-3885957D01*
X-4250000Y5742578D02*
X-4222035Y5770543D01*
X-5515000Y1328501D02*
X-5228500D01*
D16*
X-6300000Y5325000D02*
X-6149700D01*
X-6124700Y5300000D01*
X-6150000Y5800000D02*
X-6150000Y5800000D01*
X-6300000Y5800000D02*
X-6150000D01*
D17*
X-8100000Y7354000D02*
D03*
D18*
Y7100000D02*
D03*
Y6846000D02*
D03*
Y6592000D02*
D03*
X-9236711Y2763476D02*
D03*
D19*
X-7465500Y8192000D02*
D03*
X-7188500D02*
D03*
X-6911500D02*
D03*
X-6634500D02*
D03*
X-7327000Y7908000D02*
D03*
X-7050000D02*
D03*
X-6773000D02*
D03*
X-6496000D02*
D03*
D20*
X-7604000D02*
D03*
D21*
X-5800000Y8050000D02*
D03*
X-8300000D02*
D03*
D22*
X-8946000Y6138000D02*
D03*
Y4184000D02*
D03*
D23*
Y6392000D02*
D03*
Y6646000D02*
D03*
Y6900000D02*
D03*
Y7154000D02*
D03*
Y7408000D02*
D03*
Y7662000D02*
D03*
X-9200000Y6138000D02*
D03*
Y6392000D02*
D03*
Y6646000D02*
D03*
Y6900000D02*
D03*
Y7154000D02*
D03*
Y7408000D02*
D03*
Y7662000D02*
D03*
X-8946000Y4438000D02*
D03*
Y4692000D02*
D03*
Y4946000D02*
D03*
Y5200000D02*
D03*
Y5454000D02*
D03*
Y5708000D02*
D03*
X-9200000Y4184000D02*
D03*
Y4438000D02*
D03*
Y4692000D02*
D03*
Y4946000D02*
D03*
Y5200000D02*
D03*
Y5454000D02*
D03*
Y5708000D02*
D03*
D24*
X-8290000Y400000D02*
D03*
D25*
X-8036000D02*
D03*
X-7782000D02*
D03*
X-7528000D02*
D03*
X-7274000D02*
D03*
X-7020000D02*
D03*
X-6766000D02*
D03*
X-6512000D02*
D03*
X-6258000D02*
D03*
X-6004000D02*
D03*
X-5750000D02*
D03*
X-5496000D02*
D03*
X-5242000D02*
D03*
X-4988000D02*
D03*
X-4734000D02*
D03*
X-4480000D02*
D03*
D26*
X-1669000Y8373000D02*
D03*
X-1923000D02*
D03*
X-2177000D02*
D03*
X-2023000Y677000D02*
D03*
X-2277000D02*
D03*
X-2531000D02*
D03*
D27*
X-2431000Y8373000D02*
D03*
X-1769000Y677000D02*
D03*
D28*
X-8982711Y2763476D02*
D03*
D29*
X-8800000Y3600000D02*
D03*
D30*
X-9054000D02*
D03*
X-9308000D02*
D03*
D31*
X-4200000Y8604000D02*
D03*
X-5042500D02*
D03*
D32*
X-4200000Y8350000D02*
D03*
Y8096000D02*
D03*
X-5042500Y8350000D02*
D03*
Y8096000D02*
D03*
X-1900000Y1250000D02*
D03*
X-2154000D02*
D03*
X-1900000Y1504000D02*
D03*
X-2154000D02*
D03*
X-1900000Y1758000D02*
D03*
X-2154000D02*
D03*
X-1900000Y2012000D02*
D03*
X-2154000D02*
D03*
X-1900000Y2266000D02*
D03*
X-2154000D02*
D03*
X-1900000Y2520000D02*
D03*
X-2154000D02*
D03*
X-1900000Y2774000D02*
D03*
X-2154000D02*
D03*
X-1900000Y3028000D02*
D03*
X-2154000D02*
D03*
X-1900000Y3282000D02*
D03*
X-2154000D02*
D03*
X-1900000Y3536000D02*
D03*
X-2154000D02*
D03*
X-1900000Y3790000D02*
D03*
X-2154000D02*
D03*
X-1900000Y4044000D02*
D03*
X-2154000D02*
D03*
X-1900000Y4298000D02*
D03*
X-2154000D02*
D03*
X-1900000Y4552000D02*
D03*
X-2154000D02*
D03*
X-1900000Y4806000D02*
D03*
X-2154000D02*
D03*
X-1900000Y5060000D02*
D03*
X-2154000D02*
D03*
X-1900000Y5314000D02*
D03*
X-2154000D02*
D03*
X-1900000Y5568000D02*
D03*
X-2154000D02*
D03*
X-1900000Y5822000D02*
D03*
X-2154000D02*
D03*
X-7996000Y1250000D02*
D03*
X-8250000D02*
D03*
X-7996000Y1504000D02*
D03*
X-8250000D02*
D03*
X-7996000Y1758000D02*
D03*
X-8250000D02*
D03*
X-7996000Y2012000D02*
D03*
X-8250000D02*
D03*
X-7996000Y2266000D02*
D03*
X-8250000D02*
D03*
X-7996000Y2520000D02*
D03*
X-8250000D02*
D03*
X-7996000Y2774000D02*
D03*
X-8250000D02*
D03*
X-7996000Y3028000D02*
D03*
X-8250000D02*
D03*
X-7996000Y3282000D02*
D03*
X-8250000D02*
D03*
X-7996000Y3536000D02*
D03*
X-8250000D02*
D03*
X-7996000Y3790000D02*
D03*
X-8250000D02*
D03*
X-7996000Y4044000D02*
D03*
X-8250000D02*
D03*
X-7996000Y4298000D02*
D03*
X-8250000D02*
D03*
X-7996000Y4552000D02*
D03*
X-8250000D02*
D03*
X-7996000Y4806000D02*
D03*
X-8250000D02*
D03*
X-7996000Y5060000D02*
D03*
X-8250000D02*
D03*
X-7996000Y5314000D02*
D03*
X-8250000D02*
D03*
X-7996000Y5568000D02*
D03*
X-8250000D02*
D03*
X-7996000Y5822000D02*
D03*
X-8250000D02*
D03*
X-1738000Y7950000D02*
D03*
X-1992000D02*
D03*
X-2246000D02*
D03*
X-2500000D02*
D03*
X-2754000D02*
D03*
X-3008000D02*
D03*
X-3262000D02*
D03*
D33*
X-1016000Y8509000D02*
D03*
Y8255000D02*
D03*
Y8001000D02*
D03*
Y7747000D02*
D03*
Y7493000D02*
D03*
Y7239000D02*
D03*
Y6985000D02*
D03*
Y6731000D02*
D03*
Y6477000D02*
D03*
Y6223000D02*
D03*
Y5969000D02*
D03*
Y5715000D02*
D03*
Y5461000D02*
D03*
Y5207000D02*
D03*
Y4953000D02*
D03*
Y4699000D02*
D03*
Y4445000D02*
D03*
Y4191000D02*
D03*
Y3937000D02*
D03*
Y3683000D02*
D03*
Y3429000D02*
D03*
Y3175000D02*
D03*
Y2921000D02*
D03*
Y2667000D02*
D03*
Y2413000D02*
D03*
Y2159000D02*
D03*
Y1905000D02*
D03*
Y1651000D02*
D03*
Y1397000D02*
D03*
Y1143000D02*
D03*
Y889000D02*
D03*
Y635000D02*
D03*
X-1270000Y8509000D02*
D03*
Y8255000D02*
D03*
Y8001000D02*
D03*
Y7747000D02*
D03*
Y7493000D02*
D03*
Y7239000D02*
D03*
Y6985000D02*
D03*
Y6731000D02*
D03*
Y6477000D02*
D03*
Y6223000D02*
D03*
Y5969000D02*
D03*
Y5715000D02*
D03*
Y5461000D02*
D03*
Y5207000D02*
D03*
Y4953000D02*
D03*
Y4699000D02*
D03*
Y4445000D02*
D03*
Y4191000D02*
D03*
Y3937000D02*
D03*
Y3683000D02*
D03*
Y3429000D02*
D03*
Y3175000D02*
D03*
Y2921000D02*
D03*
Y2667000D02*
D03*
Y2413000D02*
D03*
Y2159000D02*
D03*
Y1905000D02*
D03*
Y1651000D02*
D03*
Y1397000D02*
D03*
Y1143000D02*
D03*
Y889000D02*
D03*
D34*
Y635000D02*
D03*
D35*
X-8950000Y1704000D02*
D03*
Y2100000D02*
D03*
D36*
Y1450000D02*
D03*
Y2354000D02*
D03*
D37*
X-3516000Y7950000D02*
D03*
D38*
X-508000Y8509000D02*
D03*
Y508000D02*
D03*
X-9081000Y889000D02*
D03*
Y8255000D02*
D03*
D39*
X-7877391Y7102164D02*
D03*
X-7584636Y6443702D02*
D03*
X-3300000Y3750000D02*
D03*
X-3750000Y3250000D02*
D03*
X-3400000D02*
D03*
X-5250000Y3200000D02*
D03*
X-3350830Y3333233D02*
D03*
X-3600000Y3250000D02*
D03*
X-1700000Y2900000D02*
D03*
X-2450000Y1300000D02*
D03*
X-741148Y3656747D02*
D03*
X-500000Y3700000D02*
D03*
X-6000293Y6200000D02*
D03*
X-6000000Y4300000D02*
D03*
X-5929159Y4006949D02*
D03*
X-7450000Y4350000D02*
D03*
X-7200000Y4200000D02*
D03*
X-7823100Y700000D02*
D03*
X-5200000Y3750000D02*
D03*
X-5116666Y3630509D02*
D03*
X-4950000Y4050000D02*
D03*
X-5200000Y4100000D02*
D03*
X-4938119Y4541406D02*
D03*
X-5350000Y3350000D02*
D03*
X-5770174Y6894406D02*
D03*
X-6287506Y6809009D02*
D03*
X-6539823Y7251735D02*
D03*
X-5776195D02*
D03*
X-5250000Y7250000D02*
D03*
X-8550000Y900000D02*
D03*
X-9250000Y1950000D02*
D03*
X-8750000Y3050000D02*
D03*
X-4471080Y1640351D02*
D03*
X-3299769Y6973096D02*
D03*
X-3831000Y7250000D02*
D03*
X-2307000D02*
D03*
X-5676900Y5200000D02*
D03*
X-5701690Y2948310D02*
D03*
X-4622735Y7650000D02*
D03*
X-4727774Y6200000D02*
D03*
X-2250000Y7650000D02*
D03*
X-2550000Y7550000D02*
D03*
X-4425735Y5925734D02*
D03*
X-4650000Y7900000D02*
D03*
X-2563805Y6357659D02*
D03*
X-4800000Y6300000D02*
D03*
X-3700000Y6126900D02*
D03*
X-6750000Y6950000D02*
D03*
X-5350000Y6200000D02*
D03*
X-6950800Y6299600D02*
D03*
X-6300000Y6200000D02*
D03*
X-6100000Y6100000D02*
D03*
X-5150000Y6150000D02*
D03*
X-5700000Y6200000D02*
D03*
X-633596Y4174906D02*
D03*
X-294968Y2558500D02*
D03*
X-300000Y1600000D02*
D03*
X-800000Y2000000D02*
D03*
X-846978Y6094225D02*
D03*
X-1450000Y5300000D02*
D03*
X-8633808Y8400000D02*
D03*
X-9465540Y7846722D02*
D03*
X-4450000Y8726100D02*
D03*
X-9349253Y5800000D02*
D03*
X-9400000Y4350000D02*
D03*
X-9326900Y5300000D02*
D03*
X-2700000Y8300000D02*
D03*
X-8550000D02*
D03*
X-9450000Y3850000D02*
D03*
X-8473100Y7700000D02*
D03*
X-7832436Y5000000D02*
D03*
X-7781636Y4809237D02*
D03*
X-7600000Y4541406D02*
D03*
X-4404925Y4624943D02*
D03*
X-4791919Y4713843D02*
D03*
X-4250000Y5050000D02*
D03*
Y5150000D02*
D03*
Y5250000D02*
D03*
Y5350000D02*
D03*
X-3100000Y5050000D02*
D03*
Y5150000D02*
D03*
X-3200000Y5050000D02*
D03*
Y4450000D02*
D03*
X-4126900Y4550000D02*
D03*
X-2600000Y4450000D02*
D03*
X-4500000Y4300000D02*
D03*
X-3250000Y4250000D02*
D03*
X-3100000Y3100000D02*
D03*
X-6050000Y3550000D02*
D03*
X-7800000Y4350000D02*
D03*
X-8700000Y6650000D02*
D03*
X-8750000Y4150000D02*
D03*
X-8500000Y4050000D02*
D03*
X-8450000Y2800000D02*
D03*
X-750000Y8100000D02*
D03*
Y3800000D02*
D03*
X-1450000Y3400000D02*
D03*
X-4400000Y2900000D02*
D03*
X-3100000Y2500000D02*
D03*
X-3300000D02*
D03*
X-4600000Y3650000D02*
D03*
X-4177700Y4250000D02*
D03*
X-7050000Y4200000D02*
D03*
X-7650000Y6599900D02*
D03*
X-8700000Y6850000D02*
D03*
X-6550000Y4500000D02*
D03*
X-6700000Y3450000D02*
D03*
X-7050000Y2800000D02*
D03*
X-7200000Y1150000D02*
D03*
X-7292742Y1508096D02*
D03*
X-7378141Y1753971D02*
D03*
X-7453815Y3001373D02*
D03*
X-7629574Y2771910D02*
D03*
X-7702674Y600000D02*
D03*
X-7550000Y2900000D02*
D03*
Y750000D02*
D03*
X-6124700Y5300000D02*
D03*
X-6073900Y5400000D02*
D03*
X-5444311Y2946275D02*
D03*
X-5800000Y2800000D02*
D03*
X-2291181Y997000D02*
D03*
X-2500000Y4100000D02*
D03*
X-3700000Y4000000D02*
D03*
X-5948311Y3198310D02*
D03*
X-7056151Y826900D02*
D03*
X-6287138Y827669D02*
D03*
X-6638860Y971936D02*
D03*
X-7150000Y900000D02*
D03*
X-6700000Y1750000D02*
D03*
X-5800000Y1050000D02*
D03*
X-5700000Y1150000D02*
D03*
X-5851710Y5001656D02*
D03*
X-4800000Y2150000D02*
D03*
X-8550000Y3550000D02*
D03*
X-8596800Y3700000D02*
D03*
X-8750000Y2350000D02*
D03*
X-5000000Y6300000D02*
D03*
X-5250000Y4750000D02*
D03*
X-5500000Y8500000D02*
D03*
X-4800000Y8100000D02*
D03*
X-4135968Y4888136D02*
D03*
X-6200000Y8650000D02*
D03*
X-3600000Y5150000D02*
D03*
Y5050000D02*
D03*
X-3700000Y5250000D02*
D03*
Y5150000D02*
D03*
Y5050000D02*
D03*
X-3600000Y5350000D02*
D03*
X-3700000D02*
D03*
X-3600000Y5250000D02*
D03*
X-5350000Y5300000D02*
D03*
X-8700000Y6400000D02*
D03*
X-8649200Y5700000D02*
D03*
Y5500000D02*
D03*
X-8550000Y1950000D02*
D03*
X-4600000Y2900000D02*
D03*
Y1550000D02*
D03*
X-6800000Y1750000D02*
D03*
X-5800000D02*
D03*
X-2700000Y5003800D02*
D03*
X-2606746D02*
D03*
X-2700000Y5150000D02*
D03*
X-2600000D02*
D03*
X-6100000Y5500000D02*
D03*
X-6150000Y4500000D02*
D03*
X-2450000Y4400000D02*
D03*
X-1650000Y7750000D02*
D03*
X-1600000Y5500000D02*
D03*
X-1700000Y5000000D02*
D03*
X-3650000Y7750000D02*
D03*
X-8450000Y4200000D02*
D03*
X-2651625Y5947475D02*
D03*
X-2600000Y6027700D02*
D03*
X-2350000Y6208500D02*
D03*
X-2300000Y6351990D02*
D03*
X-3050000Y6050000D02*
D03*
X-4250000D02*
D03*
X-2000000Y6350000D02*
D03*
X-1800000Y6250000D02*
D03*
X-2350000Y4250000D02*
D03*
X-3100000D02*
D03*
X-2450000Y5850000D02*
D03*
X-3600000Y4350000D02*
D03*
X-2850000Y280000D02*
D03*
X-1600000Y2400000D02*
D03*
X-2900000Y2450000D02*
D03*
X-3900000Y2750000D02*
D03*
X-3897500Y1000000D02*
D03*
X-4000000Y800000D02*
D03*
X-3650000Y250000D02*
D03*
X-4900000Y1300000D02*
D03*
X-5250000Y2250000D02*
D03*
X-5000000Y1400000D02*
D03*
X-6850000Y2650000D02*
D03*
X-6200000Y2700000D02*
D03*
X-6250000Y3650000D02*
D03*
X-6150000Y923100D02*
D03*
X-6873100Y4900000D02*
D03*
X-6850000Y4700000D02*
D03*
X-6250000Y5100000D02*
D03*
X-6800000Y4250000D02*
D03*
X-7750000Y6150000D02*
D03*
X-6150000Y5800000D02*
D03*
X-7500000Y5050000D02*
D03*
X-7200000Y3600000D02*
D03*
X-5200000Y1075000D02*
D03*
X-2647834Y5514003D02*
D03*
X-2600000Y5350000D02*
D03*
Y5250000D02*
D03*
X-2700000D02*
D03*
Y5350000D02*
D03*
X-3200000D02*
D03*
Y5250000D02*
D03*
Y5150000D02*
D03*
X-3100000Y5250000D02*
D03*
Y5350000D02*
D03*
X-4150000Y5050000D02*
D03*
Y5150000D02*
D03*
Y5250000D02*
D03*
Y5350000D02*
D03*
X-6800000Y1850000D02*
D03*
Y1950000D02*
D03*
Y2050000D02*
D03*
X-6700000D02*
D03*
Y1950000D02*
D03*
Y1850000D02*
D03*
X-6200000Y1750000D02*
D03*
Y1850000D02*
D03*
Y1950000D02*
D03*
Y2050000D02*
D03*
X-6300000D02*
D03*
Y1950000D02*
D03*
Y1850000D02*
D03*
Y1750000D02*
D03*
X-5800000Y2050000D02*
D03*
Y1950000D02*
D03*
Y1850000D02*
D03*
X-5700000Y2050000D02*
D03*
Y1950000D02*
D03*
Y1850000D02*
D03*
Y1750000D02*
D03*
X-5300000Y2050000D02*
D03*
X-5200000D02*
D03*
X-5300000Y1950000D02*
D03*
X-5200000D02*
D03*
X-5300000Y1850000D02*
D03*
X-5200000D02*
D03*
X-5300000Y1750000D02*
D03*
X-5200000D02*
D03*
X-4200000Y1650000D02*
D03*
X-3300000Y1225000D02*
D03*
X-2650000Y1900000D02*
D03*
D61*
X-7300000Y5525000D02*
D03*
Y5375000D02*
D03*
X-1650000Y1750000D02*
D03*
Y1600000D02*
D03*
X-7196123Y3805633D02*
D03*
Y3955633D02*
D03*
X-6300000Y5475000D02*
D03*
Y5325000D02*
D03*
X-2600000Y4800000D02*
D03*
Y4650000D02*
D03*
X-5200000Y1475000D02*
D03*
Y1325000D02*
D03*
D62*
X-7062500Y5305500D02*
D03*
Y5432500D02*
D03*
Y5559500D02*
D03*
Y5686500D02*
D03*
Y5813500D02*
D03*
Y5940500D02*
D03*
Y6067500D02*
D03*
Y6194500D02*
D03*
X-6537500Y5305500D02*
D03*
Y5432500D02*
D03*
Y5559500D02*
D03*
Y5686500D02*
D03*
Y5813500D02*
D03*
Y5940500D02*
D03*
Y6067500D02*
D03*
Y6194500D02*
D03*
D63*
X-4250000Y5580000D02*
D03*
Y5720000D02*
D03*
X-6850000Y2287422D02*
D03*
Y2427422D02*
D03*
D64*
X-7325000Y5850000D02*
D03*
X-7475000D02*
D03*
X-7525000Y6150000D02*
D03*
X-7375000D02*
D03*
X-7275000Y5050000D02*
D03*
X-7125000D02*
D03*
X-3425000Y3050000D02*
D03*
X-3575000D02*
D03*
X-3675000Y3700000D02*
D03*
X-3525000D02*
D03*
X-4823441Y3672039D02*
D03*
X-4973441D02*
D03*
D65*
X-2750000Y7550000D02*
D03*
Y7675000D02*
D03*
X-3000000Y7550000D02*
D03*
Y7675000D02*
D03*
X-3250000Y7550000D02*
D03*
Y7675000D02*
D03*
X-3500000Y7550000D02*
D03*
Y7675000D02*
D03*
X-8700000Y7115000D02*
D03*
Y6985000D02*
D03*
X-2650000Y5650000D02*
D03*
Y5780000D02*
D03*
X-7650000Y3770000D02*
D03*
Y3900000D02*
D03*
X-7200000Y4465000D02*
D03*
Y4335000D02*
D03*
D66*
X-7750000Y4235000D02*
D03*
Y4065000D02*
D03*
X-7543632Y4064064D02*
D03*
Y4234064D02*
D03*
D67*
X-4990000Y3450000D02*
D03*
X-4850000D02*
D03*
X-4870000Y2700000D02*
D03*
X-4730000D02*
D03*
X-5380000Y3850000D02*
D03*
X-5520000D02*
D03*
X-5360000Y3600000D02*
D03*
X-5500000D02*
D03*
D68*
X-3990000Y3085000D02*
D03*
Y3475000D02*
D03*
Y3410000D02*
D03*
Y3345000D02*
D03*
Y3280000D02*
D03*
Y3215000D02*
D03*
Y3150000D02*
D03*
X-4600000Y3475000D02*
D03*
Y3410000D02*
D03*
Y3345000D02*
D03*
Y3280000D02*
D03*
Y3215000D02*
D03*
Y3150000D02*
D03*
Y3085000D02*
D03*
D69*
X-8330000Y900000D02*
D03*
Y700000D02*
D03*
D70*
X-8005000Y800000D02*
D03*
D71*
X-5515000Y2471501D02*
D03*
Y2344501D02*
D03*
Y2217501D02*
D03*
Y2090501D02*
D03*
Y1963501D02*
D03*
Y1836501D02*
D03*
Y1709501D02*
D03*
Y1582501D02*
D03*
Y1455501D02*
D03*
Y1328501D02*
D03*
X-6485000Y2471501D02*
D03*
Y2344501D02*
D03*
Y2217501D02*
D03*
Y2090501D02*
D03*
Y1963501D02*
D03*
Y1836501D02*
D03*
Y1709501D02*
D03*
Y1582501D02*
D03*
Y1455501D02*
D03*
Y1328501D02*
D03*
X-2915000Y5771500D02*
D03*
Y5644500D02*
D03*
Y5517500D02*
D03*
Y5390500D02*
D03*
Y5263500D02*
D03*
Y5136500D02*
D03*
Y5009500D02*
D03*
Y4882500D02*
D03*
Y4755500D02*
D03*
Y4628500D02*
D03*
X-3885000Y5771500D02*
D03*
Y5644500D02*
D03*
Y5517500D02*
D03*
Y5390500D02*
D03*
Y5263500D02*
D03*
Y5136500D02*
D03*
Y5009500D02*
D03*
Y4882500D02*
D03*
Y4755500D02*
D03*
Y4628500D02*
D03*
D72*
X-6950000Y3669000D02*
D03*
Y3796000D02*
D03*
Y3923000D02*
D03*
Y4050000D02*
D03*
X-6420000D02*
D03*
Y3923000D02*
D03*
Y3796000D02*
D03*
Y3669000D02*
D03*
D73*
X-3650000Y662939D02*
D03*
Y537061D02*
D03*
D74*
X-3350000Y550000D02*
D03*
Y250000D02*
D03*
D75*
X-596275Y3880708D02*
D03*
X-416275D02*
D03*
D76*
X-563978Y4050065D02*
D03*
X-413977D02*
D03*
X-2800000Y1450000D02*
D03*
X-2950000D02*
D03*
D77*
X-5330000Y3450000D02*
D03*
X-5200000D02*
D03*
X-5187252Y2699105D02*
D03*
X-5057252D02*
D03*
X-2915000Y1900000D02*
D03*
X-2785000D02*
D03*
X-4016252Y1670453D02*
D03*
X-3886252D02*
D03*
D78*
X-3519291Y3433233D02*
D03*
X-3682369D02*
D03*
X-5031539Y3900000D02*
D03*
X-4868461D02*
D03*
X-7281539Y6450000D02*
D03*
X-7118461D02*
D03*
D79*
X-4900000Y2950000D02*
D03*
X-5055437D02*
D03*
X-4890387Y3220977D02*
D03*
X-5045824D02*
D03*
D80*
X-3750000Y2330000D02*
D03*
X-3550000D02*
D03*
X-3300000D02*
D03*
X-3100000D02*
D03*
D81*
X-3650000Y2005000D02*
D03*
X-3200000D02*
D03*
D82*
X-3500000Y1225000D02*
D03*
Y1075000D02*
D03*
X-3100000Y1225000D02*
D03*
Y1075000D02*
D03*
D83*
X-2700000Y8480000D02*
D03*
Y8620000D02*
D03*
X-2850000Y480000D02*
D03*
Y620000D02*
D03*
D84*
X-7453452Y3774073D02*
D03*
Y3894072D02*
D03*
D85*
X-600000Y1350000D02*
D03*
X-300000D02*
D03*
X-600000Y2300000D02*
D03*
X-300000D02*
D03*
X-550000Y3300000D02*
D03*
X-250000D02*
D03*
D86*
X-547769Y2958760D02*
D03*
X-708168D02*
D03*
D87*
X-537061Y2000000D02*
D03*
X-662939D02*
D03*
D88*
X-550364Y1052417D02*
D03*
X-720364D02*
D03*
D89*
X-3649992Y1075008D02*
D03*
Y1225008D02*
D03*
X-7800008Y8624992D02*
D03*
Y8474992D02*
D03*
X-6350000Y8650000D02*
D03*
Y8500000D02*
D03*
D90*
X-3135000Y1409500D02*
D03*
Y1536500D02*
D03*
Y1663500D02*
D03*
Y1790500D02*
D03*
X-3665000D02*
D03*
Y1663500D02*
D03*
Y1536500D02*
D03*
Y1409500D02*
D03*
D91*
X-6350000Y8120000D02*
D03*
Y8300000D02*
D03*
X-7800000Y8110000D02*
D03*
Y8290000D02*
D03*
D92*
X-6300000Y5800000D02*
D03*
Y5963079D02*
D03*
D93*
X-2645000Y1650000D02*
D03*
X-2850000D02*
D03*
X-2647500Y1250000D02*
D03*
X-2852500D02*
D03*
X-4102500Y1200000D02*
D03*
X-3897500D02*
D03*
X-4102500Y1450000D02*
D03*
X-3897500D02*
D03*
%TF.MD5,bd34937ea4b421f1b9ad038db0cbe8cd*%
M02*
