%TF.GenerationSoftware,Altium Limited,Altium Designer,23.1.1 (15)*%
G04 Layer_Color=8388736*
%FSLAX45Y45*%
%MOMM*%
%TF.SameCoordinates,94CA0F20-7CEF-4758-9589-D945348769B5*%
%TF.FilePolarity,Negative*%
%TF.FileFunction,Soldermask,Top*%
%TF.Part,Single*%
G01*
G75*
%TA.AperFunction,ComponentPad*%
%ADD29R,1.84000X1.84000*%
%ADD30C,1.84000*%
%ADD31R,1.57000X1.57000*%
%ADD32C,1.57000*%
%ADD37R,1.57000X1.57000*%
%TA.AperFunction,SMDPad,CuDef*%
%ADD102R,1.03000X4.94000*%
%TA.AperFunction,ComponentPad*%
%ADD103R,1.71500X1.71500*%
%ADD104C,1.71500*%
%ADD105C,1.74000*%
%ADD106R,1.74000X1.74000*%
%ADD107C,3.82000*%
%ADD108R,1.69000X1.69000*%
%ADD109C,1.69000*%
%ADD110R,2.16500X2.16500*%
%ADD111C,2.16500*%
%ADD112C,1.79000*%
%ADD113R,1.79000X1.79000*%
%ADD114R,1.71500X1.71500*%
%ADD115C,1.56500*%
%ADD116R,1.56500X1.56500*%
%ADD117R,2.01500X2.01500*%
%ADD118C,2.01500*%
%ADD119C,1.71000*%
%TA.AperFunction,WasherPad*%
%ADD120C,6.49000*%
%TA.AperFunction,ViaPad*%
%ADD121C,0.84000*%
D29*
X-8800000Y3600000D02*
D03*
D30*
X-9054000D02*
D03*
X-9308000D02*
D03*
D31*
X-4200000Y8604000D02*
D03*
X-5042500D02*
D03*
D32*
X-4200000Y8350000D02*
D03*
Y8096000D02*
D03*
X-5042500Y8350000D02*
D03*
Y8096000D02*
D03*
X-1738000Y7950000D02*
D03*
X-1992000D02*
D03*
X-2246000D02*
D03*
X-2500000D02*
D03*
X-2754000D02*
D03*
X-3008000D02*
D03*
X-3262000D02*
D03*
D37*
X-3516000D02*
D03*
D102*
X-2180000Y7250000D02*
D03*
Y6600000D02*
D03*
X-2434000Y7250000D02*
D03*
Y6600000D02*
D03*
X-2688000Y7250000D02*
D03*
Y6600000D02*
D03*
X-2942000Y7250000D02*
D03*
Y6600000D02*
D03*
X-3196000Y7250000D02*
D03*
Y6600000D02*
D03*
X-3450000Y7250000D02*
D03*
Y6600000D02*
D03*
X-3704000Y7250000D02*
D03*
Y6600000D02*
D03*
X-3958000Y7250000D02*
D03*
Y6600000D02*
D03*
X-5138000Y7250000D02*
D03*
Y6600000D02*
D03*
X-5392000Y7250000D02*
D03*
Y6600000D02*
D03*
X-5646000Y7250000D02*
D03*
Y6600000D02*
D03*
X-5900000Y7250000D02*
D03*
Y6600000D02*
D03*
X-6154000Y7250000D02*
D03*
Y6600000D02*
D03*
X-6408000Y7250000D02*
D03*
Y6600000D02*
D03*
X-6662000Y7250000D02*
D03*
Y6600000D02*
D03*
X-6916000Y7250000D02*
D03*
Y6600000D02*
D03*
D103*
X-8100000Y7354000D02*
D03*
D104*
Y7100000D02*
D03*
Y6846000D02*
D03*
Y6592000D02*
D03*
X-9236711Y2763476D02*
D03*
D105*
X-7465500Y8192000D02*
D03*
X-7188500D02*
D03*
X-6911500D02*
D03*
X-6634500D02*
D03*
X-7327000Y7908000D02*
D03*
X-7050000D02*
D03*
X-6773000D02*
D03*
X-6496000D02*
D03*
D106*
X-7604000D02*
D03*
D107*
X-5800000Y8050000D02*
D03*
X-8300000D02*
D03*
D108*
X-8946000Y6138000D02*
D03*
Y4184000D02*
D03*
D109*
Y6392000D02*
D03*
Y6646000D02*
D03*
Y6900000D02*
D03*
Y7154000D02*
D03*
Y7408000D02*
D03*
Y7662000D02*
D03*
X-9200000Y6138000D02*
D03*
Y6392000D02*
D03*
Y6646000D02*
D03*
Y6900000D02*
D03*
Y7154000D02*
D03*
Y7408000D02*
D03*
Y7662000D02*
D03*
X-8946000Y4438000D02*
D03*
Y4692000D02*
D03*
Y4946000D02*
D03*
Y5200000D02*
D03*
Y5454000D02*
D03*
Y5708000D02*
D03*
X-9200000Y4184000D02*
D03*
Y4438000D02*
D03*
Y4692000D02*
D03*
Y4946000D02*
D03*
Y5200000D02*
D03*
Y5454000D02*
D03*
Y5708000D02*
D03*
D110*
X-8290000Y400000D02*
D03*
D111*
X-8036000D02*
D03*
X-7782000D02*
D03*
X-7528000D02*
D03*
X-7274000D02*
D03*
X-7020000D02*
D03*
X-6766000D02*
D03*
X-6512000D02*
D03*
X-6258000D02*
D03*
X-6004000D02*
D03*
X-5750000D02*
D03*
X-5496000D02*
D03*
X-5242000D02*
D03*
X-4988000D02*
D03*
X-4734000D02*
D03*
X-4480000D02*
D03*
D112*
X-1669000Y8373000D02*
D03*
X-1923000D02*
D03*
X-2177000D02*
D03*
X-2023000Y677000D02*
D03*
X-2277000D02*
D03*
X-2531000D02*
D03*
D113*
X-2431000Y8373000D02*
D03*
X-1769000Y677000D02*
D03*
D114*
X-8982711Y2763476D02*
D03*
D115*
X-1016000Y8509000D02*
D03*
Y8255000D02*
D03*
Y8001000D02*
D03*
Y7747000D02*
D03*
Y7493000D02*
D03*
Y7239000D02*
D03*
Y6985000D02*
D03*
Y6731000D02*
D03*
Y6477000D02*
D03*
Y6223000D02*
D03*
Y5969000D02*
D03*
Y5715000D02*
D03*
Y5461000D02*
D03*
Y5207000D02*
D03*
Y4953000D02*
D03*
Y4699000D02*
D03*
Y4445000D02*
D03*
Y4191000D02*
D03*
Y3937000D02*
D03*
Y3683000D02*
D03*
Y3429000D02*
D03*
Y3175000D02*
D03*
Y2921000D02*
D03*
Y2667000D02*
D03*
Y2413000D02*
D03*
Y2159000D02*
D03*
Y1905000D02*
D03*
Y1651000D02*
D03*
Y1397000D02*
D03*
Y1143000D02*
D03*
Y889000D02*
D03*
Y635000D02*
D03*
X-1270000Y8509000D02*
D03*
Y8255000D02*
D03*
Y8001000D02*
D03*
Y7747000D02*
D03*
Y7493000D02*
D03*
Y7239000D02*
D03*
Y6985000D02*
D03*
Y6731000D02*
D03*
Y6477000D02*
D03*
Y6223000D02*
D03*
Y5969000D02*
D03*
Y5715000D02*
D03*
Y5461000D02*
D03*
Y5207000D02*
D03*
Y4953000D02*
D03*
Y4699000D02*
D03*
Y4445000D02*
D03*
Y4191000D02*
D03*
Y3937000D02*
D03*
Y3683000D02*
D03*
Y3429000D02*
D03*
Y3175000D02*
D03*
Y2921000D02*
D03*
Y2667000D02*
D03*
Y2413000D02*
D03*
Y2159000D02*
D03*
Y1905000D02*
D03*
Y1651000D02*
D03*
Y1397000D02*
D03*
Y1143000D02*
D03*
Y889000D02*
D03*
D116*
Y635000D02*
D03*
D117*
X-8950000Y1704000D02*
D03*
Y2100000D02*
D03*
D118*
Y1450000D02*
D03*
Y2354000D02*
D03*
D119*
X-1900000Y1250000D02*
D03*
X-2154000D02*
D03*
X-1900000Y1504000D02*
D03*
X-2154000D02*
D03*
X-1900000Y1758000D02*
D03*
X-2154000D02*
D03*
X-1900000Y2012000D02*
D03*
X-2154000D02*
D03*
X-1900000Y2266000D02*
D03*
X-2154000D02*
D03*
X-1900000Y2520000D02*
D03*
X-2154000D02*
D03*
X-1900000Y2774000D02*
D03*
X-2154000D02*
D03*
X-1900000Y3028000D02*
D03*
X-2154000D02*
D03*
X-1900000Y3282000D02*
D03*
X-2154000D02*
D03*
X-1900000Y3536000D02*
D03*
X-2154000D02*
D03*
X-1900000Y3790000D02*
D03*
X-2154000D02*
D03*
X-1900000Y4044000D02*
D03*
X-2154000D02*
D03*
X-1900000Y4298000D02*
D03*
X-2154000D02*
D03*
X-1900000Y4552000D02*
D03*
X-2154000D02*
D03*
X-1900000Y4806000D02*
D03*
X-2154000D02*
D03*
X-1900000Y5060000D02*
D03*
X-2154000D02*
D03*
X-1900000Y5314000D02*
D03*
X-2154000D02*
D03*
X-1900000Y5568000D02*
D03*
X-2154000D02*
D03*
X-1900000Y5822000D02*
D03*
X-2154000D02*
D03*
X-7996000Y1250000D02*
D03*
X-8250000D02*
D03*
X-7996000Y1504000D02*
D03*
X-8250000D02*
D03*
X-7996000Y1758000D02*
D03*
X-8250000D02*
D03*
X-7996000Y2012000D02*
D03*
X-8250000D02*
D03*
X-7996000Y2266000D02*
D03*
X-8250000D02*
D03*
X-7996000Y2520000D02*
D03*
X-8250000D02*
D03*
X-7996000Y2774000D02*
D03*
X-8250000D02*
D03*
X-7996000Y3028000D02*
D03*
X-8250000D02*
D03*
X-7996000Y3282000D02*
D03*
X-8250000D02*
D03*
X-7996000Y3536000D02*
D03*
X-8250000D02*
D03*
X-7996000Y3790000D02*
D03*
X-8250000D02*
D03*
X-7996000Y4044000D02*
D03*
X-8250000D02*
D03*
X-7996000Y4298000D02*
D03*
X-8250000D02*
D03*
X-7996000Y4552000D02*
D03*
X-8250000D02*
D03*
X-7996000Y4806000D02*
D03*
X-8250000D02*
D03*
X-7996000Y5060000D02*
D03*
X-8250000D02*
D03*
X-7996000Y5314000D02*
D03*
X-8250000D02*
D03*
X-7996000Y5568000D02*
D03*
X-8250000D02*
D03*
X-7996000Y5822000D02*
D03*
X-8250000D02*
D03*
D120*
X-508000Y8509000D02*
D03*
Y508000D02*
D03*
X-9081000Y889000D02*
D03*
Y8255000D02*
D03*
D121*
X-7877391Y7102164D02*
D03*
X-7584636Y6443702D02*
D03*
X-3300000Y3750000D02*
D03*
X-3750000Y3250000D02*
D03*
X-3400000D02*
D03*
X-5250000Y3200000D02*
D03*
X-3350830Y3333233D02*
D03*
X-3600000Y3250000D02*
D03*
X-1700000Y2900000D02*
D03*
X-2450000Y1300000D02*
D03*
X-741148Y3656747D02*
D03*
X-500000Y3700000D02*
D03*
X-6000293Y6200000D02*
D03*
X-6000000Y4300000D02*
D03*
X-5929159Y4006949D02*
D03*
X-7450000Y4350000D02*
D03*
X-7200000Y4200000D02*
D03*
X-7823100Y700000D02*
D03*
X-5200000Y3750000D02*
D03*
X-5116666Y3630509D02*
D03*
X-4950000Y4050000D02*
D03*
X-5200000Y4100000D02*
D03*
X-4938119Y4541406D02*
D03*
X-5350000Y3350000D02*
D03*
X-5770174Y6894406D02*
D03*
X-6287506Y6809009D02*
D03*
X-6539823Y7251735D02*
D03*
X-5776195D02*
D03*
X-5250000Y7250000D02*
D03*
X-8550000Y900000D02*
D03*
X-9250000Y1950000D02*
D03*
X-8750000Y3050000D02*
D03*
X-4471080Y1640351D02*
D03*
X-3299769Y6973096D02*
D03*
X-3831000Y7250000D02*
D03*
X-2307000D02*
D03*
X-5676900Y5200000D02*
D03*
X-5701690Y2948310D02*
D03*
X-4622735Y7650000D02*
D03*
X-4727774Y6200000D02*
D03*
X-2250000Y7650000D02*
D03*
X-2550000Y7550000D02*
D03*
X-4425735Y5925734D02*
D03*
X-4650000Y7900000D02*
D03*
X-2563805Y6357659D02*
D03*
X-4800000Y6300000D02*
D03*
X-3700000Y6126900D02*
D03*
X-6750000Y6950000D02*
D03*
X-5350000Y6200000D02*
D03*
X-6950800Y6299600D02*
D03*
X-6300000Y6200000D02*
D03*
X-6100000Y6100000D02*
D03*
X-5150000Y6150000D02*
D03*
X-5700000Y6200000D02*
D03*
X-633596Y4174906D02*
D03*
X-294968Y2558500D02*
D03*
X-300000Y1600000D02*
D03*
X-800000Y2000000D02*
D03*
X-846978Y6094225D02*
D03*
X-1450000Y5300000D02*
D03*
X-8633808Y8400000D02*
D03*
X-9465540Y7846722D02*
D03*
X-4450000Y8726100D02*
D03*
X-9349253Y5800000D02*
D03*
X-9400000Y4350000D02*
D03*
X-9326900Y5300000D02*
D03*
X-2700000Y8300000D02*
D03*
X-8550000D02*
D03*
X-9450000Y3850000D02*
D03*
X-8473100Y7700000D02*
D03*
X-7832436Y5000000D02*
D03*
X-7781636Y4809237D02*
D03*
X-7600000Y4541406D02*
D03*
X-4404925Y4624943D02*
D03*
X-4791919Y4713843D02*
D03*
X-4250000Y5050000D02*
D03*
Y5150000D02*
D03*
Y5250000D02*
D03*
Y5350000D02*
D03*
X-3100000Y5050000D02*
D03*
Y5150000D02*
D03*
X-3200000Y5050000D02*
D03*
Y4450000D02*
D03*
X-4126900Y4550000D02*
D03*
X-2600000Y4450000D02*
D03*
X-4500000Y4300000D02*
D03*
X-3250000Y4250000D02*
D03*
X-3100000Y3100000D02*
D03*
X-6050000Y3550000D02*
D03*
X-7800000Y4350000D02*
D03*
X-8700000Y6650000D02*
D03*
X-8750000Y4150000D02*
D03*
X-8500000Y4050000D02*
D03*
X-8450000Y2800000D02*
D03*
X-750000Y8100000D02*
D03*
Y3800000D02*
D03*
X-1450000Y3400000D02*
D03*
X-4400000Y2900000D02*
D03*
X-3100000Y2500000D02*
D03*
X-3300000D02*
D03*
X-4600000Y3650000D02*
D03*
X-4177700Y4250000D02*
D03*
X-7050000Y4200000D02*
D03*
X-7650000Y6599900D02*
D03*
X-8700000Y6850000D02*
D03*
X-6550000Y4500000D02*
D03*
X-6700000Y3450000D02*
D03*
X-7050000Y2800000D02*
D03*
X-7200000Y1150000D02*
D03*
X-7292742Y1508096D02*
D03*
X-7378141Y1753971D02*
D03*
X-7453815Y3001373D02*
D03*
X-7629574Y2771910D02*
D03*
X-7702674Y600000D02*
D03*
X-7550000Y2900000D02*
D03*
Y750000D02*
D03*
X-6124700Y5300000D02*
D03*
X-6073900Y5400000D02*
D03*
X-5444311Y2946275D02*
D03*
X-5800000Y2800000D02*
D03*
X-2291181Y997000D02*
D03*
X-2500000Y4100000D02*
D03*
X-3700000Y4000000D02*
D03*
X-5948311Y3198310D02*
D03*
X-7056151Y826900D02*
D03*
X-6287138Y827669D02*
D03*
X-6638860Y971936D02*
D03*
X-7150000Y900000D02*
D03*
X-6700000Y1750000D02*
D03*
X-5800000Y1050000D02*
D03*
X-5700000Y1150000D02*
D03*
X-5851710Y5001656D02*
D03*
X-4800000Y2150000D02*
D03*
X-8550000Y3550000D02*
D03*
X-8596800Y3700000D02*
D03*
X-8750000Y2350000D02*
D03*
X-5000000Y6300000D02*
D03*
X-5250000Y4750000D02*
D03*
X-5500000Y8500000D02*
D03*
X-4800000Y8100000D02*
D03*
X-4135968Y4888136D02*
D03*
X-6200000Y8650000D02*
D03*
X-3600000Y5150000D02*
D03*
Y5050000D02*
D03*
X-3700000Y5250000D02*
D03*
Y5150000D02*
D03*
Y5050000D02*
D03*
X-3600000Y5350000D02*
D03*
X-3700000D02*
D03*
X-3600000Y5250000D02*
D03*
X-5350000Y5300000D02*
D03*
X-8700000Y6400000D02*
D03*
X-8649200Y5700000D02*
D03*
Y5500000D02*
D03*
X-8550000Y1950000D02*
D03*
X-4600000Y2900000D02*
D03*
Y1550000D02*
D03*
X-6800000Y1750000D02*
D03*
X-5800000D02*
D03*
X-2700000Y5003800D02*
D03*
X-2606746D02*
D03*
X-2700000Y5150000D02*
D03*
X-2600000D02*
D03*
X-6100000Y5500000D02*
D03*
X-6150000Y4500000D02*
D03*
X-2450000Y4400000D02*
D03*
X-1650000Y7750000D02*
D03*
X-1600000Y5500000D02*
D03*
X-1700000Y5000000D02*
D03*
X-3650000Y7750000D02*
D03*
X-8450000Y4200000D02*
D03*
X-2651625Y5947475D02*
D03*
X-2600000Y6027700D02*
D03*
X-2350000Y6208500D02*
D03*
X-2300000Y6351990D02*
D03*
X-3050000Y6050000D02*
D03*
X-4250000D02*
D03*
X-2000000Y6350000D02*
D03*
X-1800000Y6250000D02*
D03*
X-2350000Y4250000D02*
D03*
X-3100000D02*
D03*
X-2450000Y5850000D02*
D03*
X-3600000Y4350000D02*
D03*
X-2850000Y280000D02*
D03*
X-1600000Y2400000D02*
D03*
X-2900000Y2450000D02*
D03*
X-3900000Y2750000D02*
D03*
X-3897500Y1000000D02*
D03*
X-4000000Y800000D02*
D03*
X-3650000Y250000D02*
D03*
X-4900000Y1300000D02*
D03*
X-5250000Y2250000D02*
D03*
X-5000000Y1400000D02*
D03*
X-6850000Y2650000D02*
D03*
X-6200000Y2700000D02*
D03*
X-6250000Y3650000D02*
D03*
X-6150000Y923100D02*
D03*
X-6873100Y4900000D02*
D03*
X-6850000Y4700000D02*
D03*
X-6250000Y5100000D02*
D03*
X-6800000Y4250000D02*
D03*
X-7750000Y6150000D02*
D03*
X-6150000Y5800000D02*
D03*
X-7500000Y5050000D02*
D03*
X-7200000Y3600000D02*
D03*
X-5200000Y1075000D02*
D03*
X-2647834Y5514003D02*
D03*
X-2600000Y5350000D02*
D03*
Y5250000D02*
D03*
X-2700000D02*
D03*
Y5350000D02*
D03*
X-3200000D02*
D03*
Y5250000D02*
D03*
Y5150000D02*
D03*
X-3100000Y5250000D02*
D03*
Y5350000D02*
D03*
X-4150000Y5050000D02*
D03*
Y5150000D02*
D03*
Y5250000D02*
D03*
Y5350000D02*
D03*
X-6800000Y1850000D02*
D03*
Y1950000D02*
D03*
Y2050000D02*
D03*
X-6700000D02*
D03*
Y1950000D02*
D03*
Y1850000D02*
D03*
X-6200000Y1750000D02*
D03*
Y1850000D02*
D03*
Y1950000D02*
D03*
Y2050000D02*
D03*
X-6300000D02*
D03*
Y1950000D02*
D03*
Y1850000D02*
D03*
Y1750000D02*
D03*
X-5800000Y2050000D02*
D03*
Y1950000D02*
D03*
Y1850000D02*
D03*
X-5700000Y2050000D02*
D03*
Y1950000D02*
D03*
Y1850000D02*
D03*
Y1750000D02*
D03*
X-5300000Y2050000D02*
D03*
X-5200000D02*
D03*
X-5300000Y1950000D02*
D03*
X-5200000D02*
D03*
X-5300000Y1850000D02*
D03*
X-5200000D02*
D03*
X-5300000Y1750000D02*
D03*
X-5200000D02*
D03*
X-4200000Y1650000D02*
D03*
X-3300000Y1225000D02*
D03*
X-2650000Y1900000D02*
D03*
%TF.MD5,ca16b4ee01872742b7116f908343ad8e*%
M02*
