%TF.GenerationSoftware,Altium Limited,Altium Designer,23.1.1 (15)*%
G04 Layer_Color=255*
%FSLAX45Y45*%
%MOMM*%
%TF.SameCoordinates,94CA0F20-7CEF-4758-9589-D945348769B5*%
%TF.FilePolarity,Positive*%
%TF.FileFunction,Pads,Bot*%
%TF.Part,Single*%
G01*
G75*
%TA.AperFunction,ComponentPad*%
%ADD17R,1.57500X1.57500*%
%ADD18C,1.57500*%
%ADD19C,1.60000*%
%ADD20R,1.60000X1.60000*%
%ADD21C,3.68000*%
%ADD22R,1.55000X1.55000*%
%ADD23C,1.55000*%
%ADD24R,2.02500X2.02500*%
%ADD25C,2.02500*%
%ADD26C,1.65000*%
%ADD27R,1.65000X1.65000*%
%ADD28R,1.57500X1.57500*%
%ADD29R,1.84000X1.84000*%
%ADD30C,1.84000*%
%ADD31R,1.57000X1.57000*%
%ADD32C,1.57000*%
%ADD33C,1.42500*%
%ADD34R,1.42500X1.42500*%
%ADD35R,1.87500X1.87500*%
%ADD36C,1.87500*%
%ADD37R,1.57000X1.57000*%
%TA.AperFunction,WasherPad*%
%ADD38C,6.35000*%
%TA.AperFunction,SMDPad,CuDef*%
%ADD61R,0.90000X0.80000*%
G04:AMPARAMS|DCode=62|XSize=0.55mm|YSize=1.25mm|CornerRadius=0.0495mm|HoleSize=0mm|Usage=FLASHONLY|Rotation=270.000|XOffset=0mm|YOffset=0mm|HoleType=Round|Shape=RoundedRectangle|*
%AMROUNDEDRECTD62*
21,1,0.55000,1.15100,0,0,270.0*
21,1,0.45100,1.25000,0,0,270.0*
1,1,0.09900,-0.57550,-0.22550*
1,1,0.09900,-0.57550,0.22550*
1,1,0.09900,0.57550,0.22550*
1,1,0.09900,0.57550,-0.22550*
%
%ADD62ROUNDEDRECTD62*%
%ADD63R,0.70000X0.70000*%
%ADD64R,0.80000X0.90000*%
%ADD65R,0.95000X0.80000*%
%ADD66R,0.80000X0.90000*%
%ADD67R,0.90000X1.05000*%
G04:AMPARAMS|DCode=68|XSize=0.45mm|YSize=1.6mm|CornerRadius=0.0495mm|HoleSize=0mm|Usage=FLASHONLY|Rotation=270.000|XOffset=0mm|YOffset=0mm|HoleType=Round|Shape=RoundedRectangle|*
%AMROUNDEDRECTD68*
21,1,0.45000,1.50100,0,0,270.0*
21,1,0.35100,1.60000,0,0,270.0*
1,1,0.09900,-0.75050,-0.17550*
1,1,0.09900,-0.75050,0.17550*
1,1,0.09900,0.75050,0.17550*
1,1,0.09900,0.75050,-0.17550*
%
%ADD68ROUNDEDRECTD68*%
%ADD69R,1.20000X1.20000*%
%ADD70R,1.50000X1.60000*%
%ADD71O,2.10000X0.65000*%
%ADD72R,1.30000X0.60000*%
%ADD73R,0.86213X0.66370*%
%ADD74R,1.60000X1.40000*%
%ADD75R,1.00000X0.90000*%
%ADD76R,0.80000X0.80000*%
%ADD77R,0.80000X0.95000*%
%ADD78R,1.13504X1.06213*%
%ADD79R,1.25776X1.01213*%
%ADD80R,1.20000X1.20000*%
%ADD81R,1.60000X1.50000*%
%ADD82R,1.00000X0.75000*%
%ADD83R,1.05000X0.90000*%
%ADD84R,0.90000X0.75000*%
%ADD85R,1.40000X1.60000*%
%ADD86R,1.15814X1.01213*%
%ADD87R,0.66370X0.86213*%
%ADD88R,0.90000X0.80000*%
%ADD89R,0.80000X0.80000*%
%ADD90R,1.40000X0.60000*%
%ADD91R,0.90000X1.00000*%
%ADD92R,1.06213X1.13504*%
%ADD93R,0.95620X1.20620*%
D17*
X-8100000Y7354000D02*
D03*
D18*
Y7100000D02*
D03*
Y6846000D02*
D03*
Y6592000D02*
D03*
X-9236711Y2763476D02*
D03*
D19*
X-7465500Y8192000D02*
D03*
X-7188500D02*
D03*
X-6911500D02*
D03*
X-6634500D02*
D03*
X-7327000Y7908000D02*
D03*
X-7050000D02*
D03*
X-6773000D02*
D03*
X-6496000D02*
D03*
D20*
X-7604000D02*
D03*
D21*
X-5800000Y8050000D02*
D03*
X-8300000D02*
D03*
D22*
X-8946000Y6138000D02*
D03*
Y4184000D02*
D03*
D23*
Y6392000D02*
D03*
Y6646000D02*
D03*
Y6900000D02*
D03*
Y7154000D02*
D03*
Y7408000D02*
D03*
Y7662000D02*
D03*
X-9200000Y6138000D02*
D03*
Y6392000D02*
D03*
Y6646000D02*
D03*
Y6900000D02*
D03*
Y7154000D02*
D03*
Y7408000D02*
D03*
Y7662000D02*
D03*
X-8946000Y4438000D02*
D03*
Y4692000D02*
D03*
Y4946000D02*
D03*
Y5200000D02*
D03*
Y5454000D02*
D03*
Y5708000D02*
D03*
X-9200000Y4184000D02*
D03*
Y4438000D02*
D03*
Y4692000D02*
D03*
Y4946000D02*
D03*
Y5200000D02*
D03*
Y5454000D02*
D03*
Y5708000D02*
D03*
D24*
X-8290000Y400000D02*
D03*
D25*
X-8036000D02*
D03*
X-7782000D02*
D03*
X-7528000D02*
D03*
X-7274000D02*
D03*
X-7020000D02*
D03*
X-6766000D02*
D03*
X-6512000D02*
D03*
X-6258000D02*
D03*
X-6004000D02*
D03*
X-5750000D02*
D03*
X-5496000D02*
D03*
X-5242000D02*
D03*
X-4988000D02*
D03*
X-4734000D02*
D03*
X-4480000D02*
D03*
D26*
X-1669000Y8373000D02*
D03*
X-1923000D02*
D03*
X-2177000D02*
D03*
X-2023000Y677000D02*
D03*
X-2277000D02*
D03*
X-2531000D02*
D03*
D27*
X-2431000Y8373000D02*
D03*
X-1769000Y677000D02*
D03*
D28*
X-8982711Y2763476D02*
D03*
D29*
X-8800000Y3600000D02*
D03*
D30*
X-9054000D02*
D03*
X-9308000D02*
D03*
D31*
X-4200000Y8604000D02*
D03*
X-5042500D02*
D03*
D32*
X-4200000Y8350000D02*
D03*
Y8096000D02*
D03*
X-5042500Y8350000D02*
D03*
Y8096000D02*
D03*
X-1900000Y1250000D02*
D03*
X-2154000D02*
D03*
X-1900000Y1504000D02*
D03*
X-2154000D02*
D03*
X-1900000Y1758000D02*
D03*
X-2154000D02*
D03*
X-1900000Y2012000D02*
D03*
X-2154000D02*
D03*
X-1900000Y2266000D02*
D03*
X-2154000D02*
D03*
X-1900000Y2520000D02*
D03*
X-2154000D02*
D03*
X-1900000Y2774000D02*
D03*
X-2154000D02*
D03*
X-1900000Y3028000D02*
D03*
X-2154000D02*
D03*
X-1900000Y3282000D02*
D03*
X-2154000D02*
D03*
X-1900000Y3536000D02*
D03*
X-2154000D02*
D03*
X-1900000Y3790000D02*
D03*
X-2154000D02*
D03*
X-1900000Y4044000D02*
D03*
X-2154000D02*
D03*
X-1900000Y4298000D02*
D03*
X-2154000D02*
D03*
X-1900000Y4552000D02*
D03*
X-2154000D02*
D03*
X-1900000Y4806000D02*
D03*
X-2154000D02*
D03*
X-1900000Y5060000D02*
D03*
X-2154000D02*
D03*
X-1900000Y5314000D02*
D03*
X-2154000D02*
D03*
X-1900000Y5568000D02*
D03*
X-2154000D02*
D03*
X-1900000Y5822000D02*
D03*
X-2154000D02*
D03*
X-7996000Y1250000D02*
D03*
X-8250000D02*
D03*
X-7996000Y1504000D02*
D03*
X-8250000D02*
D03*
X-7996000Y1758000D02*
D03*
X-8250000D02*
D03*
X-7996000Y2012000D02*
D03*
X-8250000D02*
D03*
X-7996000Y2266000D02*
D03*
X-8250000D02*
D03*
X-7996000Y2520000D02*
D03*
X-8250000D02*
D03*
X-7996000Y2774000D02*
D03*
X-8250000D02*
D03*
X-7996000Y3028000D02*
D03*
X-8250000D02*
D03*
X-7996000Y3282000D02*
D03*
X-8250000D02*
D03*
X-7996000Y3536000D02*
D03*
X-8250000D02*
D03*
X-7996000Y3790000D02*
D03*
X-8250000D02*
D03*
X-7996000Y4044000D02*
D03*
X-8250000D02*
D03*
X-7996000Y4298000D02*
D03*
X-8250000D02*
D03*
X-7996000Y4552000D02*
D03*
X-8250000D02*
D03*
X-7996000Y4806000D02*
D03*
X-8250000D02*
D03*
X-7996000Y5060000D02*
D03*
X-8250000D02*
D03*
X-7996000Y5314000D02*
D03*
X-8250000D02*
D03*
X-7996000Y5568000D02*
D03*
X-8250000D02*
D03*
X-7996000Y5822000D02*
D03*
X-8250000D02*
D03*
X-1738000Y7950000D02*
D03*
X-1992000D02*
D03*
X-2246000D02*
D03*
X-2500000D02*
D03*
X-2754000D02*
D03*
X-3008000D02*
D03*
X-3262000D02*
D03*
D33*
X-1016000Y8509000D02*
D03*
Y8255000D02*
D03*
Y8001000D02*
D03*
Y7747000D02*
D03*
Y7493000D02*
D03*
Y7239000D02*
D03*
Y6985000D02*
D03*
Y6731000D02*
D03*
Y6477000D02*
D03*
Y6223000D02*
D03*
Y5969000D02*
D03*
Y5715000D02*
D03*
Y5461000D02*
D03*
Y5207000D02*
D03*
Y4953000D02*
D03*
Y4699000D02*
D03*
Y4445000D02*
D03*
Y4191000D02*
D03*
Y3937000D02*
D03*
Y3683000D02*
D03*
Y3429000D02*
D03*
Y3175000D02*
D03*
Y2921000D02*
D03*
Y2667000D02*
D03*
Y2413000D02*
D03*
Y2159000D02*
D03*
Y1905000D02*
D03*
Y1651000D02*
D03*
Y1397000D02*
D03*
Y1143000D02*
D03*
Y889000D02*
D03*
Y635000D02*
D03*
X-1270000Y8509000D02*
D03*
Y8255000D02*
D03*
Y8001000D02*
D03*
Y7747000D02*
D03*
Y7493000D02*
D03*
Y7239000D02*
D03*
Y6985000D02*
D03*
Y6731000D02*
D03*
Y6477000D02*
D03*
Y6223000D02*
D03*
Y5969000D02*
D03*
Y5715000D02*
D03*
Y5461000D02*
D03*
Y5207000D02*
D03*
Y4953000D02*
D03*
Y4699000D02*
D03*
Y4445000D02*
D03*
Y4191000D02*
D03*
Y3937000D02*
D03*
Y3683000D02*
D03*
Y3429000D02*
D03*
Y3175000D02*
D03*
Y2921000D02*
D03*
Y2667000D02*
D03*
Y2413000D02*
D03*
Y2159000D02*
D03*
Y1905000D02*
D03*
Y1651000D02*
D03*
Y1397000D02*
D03*
Y1143000D02*
D03*
Y889000D02*
D03*
D34*
Y635000D02*
D03*
D35*
X-8950000Y1704000D02*
D03*
Y2100000D02*
D03*
D36*
Y1450000D02*
D03*
Y2354000D02*
D03*
D37*
X-3516000Y7950000D02*
D03*
D38*
X-508000Y8509000D02*
D03*
Y508000D02*
D03*
X-9081000Y889000D02*
D03*
Y8255000D02*
D03*
D61*
X-7300000Y5525000D02*
D03*
Y5375000D02*
D03*
X-1650000Y1750000D02*
D03*
Y1600000D02*
D03*
X-7196123Y3805633D02*
D03*
Y3955633D02*
D03*
X-6300000Y5475000D02*
D03*
Y5325000D02*
D03*
X-2600000Y4800000D02*
D03*
Y4650000D02*
D03*
X-5200000Y1475000D02*
D03*
Y1325000D02*
D03*
D62*
X-7062500Y5305500D02*
D03*
Y5432500D02*
D03*
Y5559500D02*
D03*
Y5686500D02*
D03*
Y5813500D02*
D03*
Y5940500D02*
D03*
Y6067500D02*
D03*
Y6194500D02*
D03*
X-6537500Y5305500D02*
D03*
Y5432500D02*
D03*
Y5559500D02*
D03*
Y5686500D02*
D03*
Y5813500D02*
D03*
Y5940500D02*
D03*
Y6067500D02*
D03*
Y6194500D02*
D03*
D63*
X-4250000Y5580000D02*
D03*
Y5720000D02*
D03*
X-6850000Y2287422D02*
D03*
Y2427422D02*
D03*
D64*
X-7325000Y5850000D02*
D03*
X-7475000D02*
D03*
X-7525000Y6150000D02*
D03*
X-7375000D02*
D03*
X-7275000Y5050000D02*
D03*
X-7125000D02*
D03*
X-3425000Y3050000D02*
D03*
X-3575000D02*
D03*
X-3675000Y3700000D02*
D03*
X-3525000D02*
D03*
X-4823441Y3672039D02*
D03*
X-4973441D02*
D03*
D65*
X-2750000Y7550000D02*
D03*
Y7675000D02*
D03*
X-3000000Y7550000D02*
D03*
Y7675000D02*
D03*
X-3250000Y7550000D02*
D03*
Y7675000D02*
D03*
X-3500000Y7550000D02*
D03*
Y7675000D02*
D03*
X-8700000Y7115000D02*
D03*
Y6985000D02*
D03*
X-2650000Y5650000D02*
D03*
Y5780000D02*
D03*
X-7650000Y3770000D02*
D03*
Y3900000D02*
D03*
X-7200000Y4465000D02*
D03*
Y4335000D02*
D03*
D66*
X-7750000Y4235000D02*
D03*
Y4065000D02*
D03*
X-7543632Y4064064D02*
D03*
Y4234064D02*
D03*
D67*
X-4990000Y3450000D02*
D03*
X-4850000D02*
D03*
X-4870000Y2700000D02*
D03*
X-4730000D02*
D03*
X-5380000Y3850000D02*
D03*
X-5520000D02*
D03*
X-5360000Y3600000D02*
D03*
X-5500000D02*
D03*
D68*
X-3990000Y3085000D02*
D03*
Y3475000D02*
D03*
Y3410000D02*
D03*
Y3345000D02*
D03*
Y3280000D02*
D03*
Y3215000D02*
D03*
Y3150000D02*
D03*
X-4600000Y3475000D02*
D03*
Y3410000D02*
D03*
Y3345000D02*
D03*
Y3280000D02*
D03*
Y3215000D02*
D03*
Y3150000D02*
D03*
Y3085000D02*
D03*
D69*
X-8330000Y900000D02*
D03*
Y700000D02*
D03*
D70*
X-8005000Y800000D02*
D03*
D71*
X-5515000Y2471501D02*
D03*
Y2344501D02*
D03*
Y2217501D02*
D03*
Y2090501D02*
D03*
Y1963501D02*
D03*
Y1836501D02*
D03*
Y1709501D02*
D03*
Y1582501D02*
D03*
Y1455501D02*
D03*
Y1328501D02*
D03*
X-6485000Y2471501D02*
D03*
Y2344501D02*
D03*
Y2217501D02*
D03*
Y2090501D02*
D03*
Y1963501D02*
D03*
Y1836501D02*
D03*
Y1709501D02*
D03*
Y1582501D02*
D03*
Y1455501D02*
D03*
Y1328501D02*
D03*
X-2915000Y5771500D02*
D03*
Y5644500D02*
D03*
Y5517500D02*
D03*
Y5390500D02*
D03*
Y5263500D02*
D03*
Y5136500D02*
D03*
Y5009500D02*
D03*
Y4882500D02*
D03*
Y4755500D02*
D03*
Y4628500D02*
D03*
X-3885000Y5771500D02*
D03*
Y5644500D02*
D03*
Y5517500D02*
D03*
Y5390500D02*
D03*
Y5263500D02*
D03*
Y5136500D02*
D03*
Y5009500D02*
D03*
Y4882500D02*
D03*
Y4755500D02*
D03*
Y4628500D02*
D03*
D72*
X-6950000Y3669000D02*
D03*
Y3796000D02*
D03*
Y3923000D02*
D03*
Y4050000D02*
D03*
X-6420000D02*
D03*
Y3923000D02*
D03*
Y3796000D02*
D03*
Y3669000D02*
D03*
D73*
X-3650000Y662939D02*
D03*
Y537061D02*
D03*
D74*
X-3350000Y550000D02*
D03*
Y250000D02*
D03*
D75*
X-596275Y3880708D02*
D03*
X-416275D02*
D03*
D76*
X-563978Y4050065D02*
D03*
X-413977D02*
D03*
X-2800000Y1450000D02*
D03*
X-2950000D02*
D03*
D77*
X-5330000Y3450000D02*
D03*
X-5200000D02*
D03*
X-5187252Y2699105D02*
D03*
X-5057252D02*
D03*
X-2915000Y1900000D02*
D03*
X-2785000D02*
D03*
X-4016252Y1670453D02*
D03*
X-3886252D02*
D03*
D78*
X-3519291Y3433233D02*
D03*
X-3682369D02*
D03*
X-5031539Y3900000D02*
D03*
X-4868461D02*
D03*
X-7281539Y6450000D02*
D03*
X-7118461D02*
D03*
D79*
X-4900000Y2950000D02*
D03*
X-5055437D02*
D03*
X-4890387Y3220977D02*
D03*
X-5045824D02*
D03*
D80*
X-3750000Y2330000D02*
D03*
X-3550000D02*
D03*
X-3300000D02*
D03*
X-3100000D02*
D03*
D81*
X-3650000Y2005000D02*
D03*
X-3200000D02*
D03*
D82*
X-3500000Y1225000D02*
D03*
Y1075000D02*
D03*
X-3100000Y1225000D02*
D03*
Y1075000D02*
D03*
D83*
X-2700000Y8480000D02*
D03*
Y8620000D02*
D03*
X-2850000Y480000D02*
D03*
Y620000D02*
D03*
D84*
X-7453452Y3774073D02*
D03*
Y3894072D02*
D03*
D85*
X-600000Y1350000D02*
D03*
X-300000D02*
D03*
X-600000Y2300000D02*
D03*
X-300000D02*
D03*
X-550000Y3300000D02*
D03*
X-250000D02*
D03*
D86*
X-547769Y2958760D02*
D03*
X-708168D02*
D03*
D87*
X-537061Y2000000D02*
D03*
X-662939D02*
D03*
D88*
X-550364Y1052417D02*
D03*
X-720364D02*
D03*
D89*
X-3649992Y1075008D02*
D03*
Y1225008D02*
D03*
X-7800008Y8624992D02*
D03*
Y8474992D02*
D03*
X-6350000Y8650000D02*
D03*
Y8500000D02*
D03*
D90*
X-3135000Y1409500D02*
D03*
Y1536500D02*
D03*
Y1663500D02*
D03*
Y1790500D02*
D03*
X-3665000D02*
D03*
Y1663500D02*
D03*
Y1536500D02*
D03*
Y1409500D02*
D03*
D91*
X-6350000Y8120000D02*
D03*
Y8300000D02*
D03*
X-7800000Y8110000D02*
D03*
Y8290000D02*
D03*
D92*
X-6300000Y5800000D02*
D03*
Y5963079D02*
D03*
D93*
X-2645000Y1650000D02*
D03*
X-2850000D02*
D03*
X-2647500Y1250000D02*
D03*
X-2852500D02*
D03*
X-4102500Y1200000D02*
D03*
X-3897500D02*
D03*
X-4102500Y1450000D02*
D03*
X-3897500D02*
D03*
%TF.MD5,e3c9bbea84cf57a93ead47504f56a0ca*%
M02*
