%TF.GenerationSoftware,Altium Limited,Altium Designer,23.1.1 (15)*%
G04 Layer_Color=8388736*
%FSLAX25Y25*%
%MOIN*%
%TF.SameCoordinates,209943D4-F1A4-4043-803A-0C530BE15E34*%
%TF.FilePolarity,Negative*%
%TF.FileFunction,Soldermask,Top*%
%TF.Part,Single*%
G01*
G75*
%TA.AperFunction,SMDPad,CuDef*%
%ADD12R,0.04560X0.03985*%
%ADD13R,0.03543X0.03150*%
%ADD17R,0.02613X0.03394*%
%ADD25R,0.10261X0.06704*%
%ADD26R,0.06704X0.10261*%
%ADD27R,0.03150X0.03543*%
%ADD29R,0.05756X0.05530*%
%ADD30R,0.05151X0.04352*%
%ADD32R,0.13780X0.06299*%
%ADD33R,0.03543X0.03150*%
%ADD35R,0.02977X0.05733*%
%ADD37R,0.03937X0.05151*%
%ADD67R,0.04343X0.04737*%
%ADD68R,0.13398X0.20091*%
%ADD69R,0.17217X0.14855*%
%ADD70R,0.07099X0.06312*%
%ADD71R,0.06312X0.07099*%
%ADD72R,0.09855X0.22847*%
%ADD73R,0.06312X0.14186*%
%ADD74R,0.27769X0.42139*%
%ADD75R,0.11824X0.04343*%
%ADD76R,0.20091X0.13595*%
%ADD77R,0.11824X0.21666*%
%ADD78R,0.14580X0.15761*%
%ADD79R,0.05721X0.03162*%
%ADD80R,0.05013X0.07965*%
%ADD81R,0.09265X0.16548*%
%ADD82R,0.12020X0.13398*%
%ADD83R,0.03162X0.05721*%
%ADD84R,0.07965X0.05013*%
%TA.AperFunction,ComponentPad*%
%ADD85R,0.07001X0.07001*%
%ADD86C,0.07001*%
%ADD87R,0.06410X0.06410*%
%ADD88C,0.06410*%
%ADD89C,0.08772*%
%ADD90C,0.06434*%
%ADD91R,0.06434X0.06434*%
%ADD92R,0.07001X0.07001*%
%TA.AperFunction,WasherPad*%
%ADD93C,0.25800*%
%TA.AperFunction,ViaPad*%
%ADD94C,0.03556*%
%ADD95C,0.05800*%
D12*
X-168218Y37795D02*
D03*
X-174533D02*
D03*
D13*
X-90748Y178740D02*
D03*
X-84055D02*
D03*
X-127756Y185433D02*
D03*
X-121063D02*
D03*
D17*
X-183627Y338189D02*
D03*
X-188583D02*
D03*
D25*
X-76378Y226184D02*
D03*
Y217911D02*
D03*
D26*
X-241008Y122441D02*
D03*
X-232735D02*
D03*
D27*
X-211675Y87795D02*
D03*
X-205769D02*
D03*
X-223683Y48819D02*
D03*
X-217777D02*
D03*
D29*
X-199864Y70672D02*
D03*
Y63186D02*
D03*
D30*
X-188053Y76679D02*
D03*
Y71353D02*
D03*
D32*
X-210236Y300787D02*
D03*
X-232283D02*
D03*
D33*
X-251575Y235039D02*
D03*
Y229134D02*
D03*
X-112205Y196653D02*
D03*
Y190748D02*
D03*
X-140157Y212008D02*
D03*
Y206102D02*
D03*
D35*
X-217815Y239764D02*
D03*
X-226279D02*
D03*
D37*
X-123021Y174016D02*
D03*
X-128347D02*
D03*
D67*
X-321772Y83268D02*
D03*
X-329410D02*
D03*
D68*
X-325590Y100394D02*
D03*
D69*
X-322441Y153937D02*
D03*
Y130709D02*
D03*
D70*
X-100787Y172835D02*
D03*
Y161024D02*
D03*
D71*
X-175591Y24803D02*
D03*
X-187402D02*
D03*
X-168110Y338189D02*
D03*
X-156299D02*
D03*
D72*
X-296654Y30512D02*
D03*
X-327362D02*
D03*
D73*
X-307087Y56496D02*
D03*
X-316929D02*
D03*
D74*
X-191929Y212992D02*
D03*
D75*
X-232677Y197992D02*
D03*
Y202992D02*
D03*
Y207992D02*
D03*
Y212992D02*
D03*
Y217992D02*
D03*
Y222992D02*
D03*
Y227992D02*
D03*
D76*
X-276378Y260236D02*
D03*
Y305118D02*
D03*
D77*
X-233328Y89764D02*
D03*
X-273486D02*
D03*
D78*
X-109055Y251772D02*
D03*
Y221457D02*
D03*
D79*
X-211084Y78543D02*
D03*
Y74803D02*
D03*
Y71063D02*
D03*
X-220927D02*
D03*
Y74803D02*
D03*
Y78543D02*
D03*
D80*
X-223643Y59352D02*
D03*
X-212777D02*
D03*
D81*
X-279921Y202165D02*
D03*
Y235630D02*
D03*
D82*
X-207677Y259055D02*
D03*
X-230906D02*
D03*
D83*
X-120669Y195866D02*
D03*
X-124409D02*
D03*
X-128150D02*
D03*
Y205709D02*
D03*
X-124409D02*
D03*
X-120669D02*
D03*
D84*
X-147835Y218032D02*
D03*
Y207165D02*
D03*
D85*
X-251181Y35669D02*
D03*
X-147638Y245827D02*
D03*
X-324803Y221496D02*
D03*
D86*
X-251181Y45669D02*
D03*
X-147638Y235827D02*
D03*
X-324803Y231496D02*
D03*
X-164173Y69291D02*
D03*
X-242913Y329921D02*
D03*
X-200000Y330315D02*
D03*
X-74252Y190945D02*
D03*
D87*
X-50000Y25000D02*
D03*
D88*
Y35000D02*
D03*
Y45000D02*
D03*
Y55000D02*
D03*
Y65000D02*
D03*
Y75000D02*
D03*
Y85000D02*
D03*
Y95000D02*
D03*
Y105000D02*
D03*
Y115000D02*
D03*
Y125000D02*
D03*
Y135000D02*
D03*
Y145000D02*
D03*
Y155000D02*
D03*
Y165000D02*
D03*
Y175000D02*
D03*
Y185000D02*
D03*
Y195000D02*
D03*
Y205000D02*
D03*
Y215000D02*
D03*
Y225000D02*
D03*
Y235000D02*
D03*
Y245000D02*
D03*
Y255000D02*
D03*
Y265000D02*
D03*
Y275000D02*
D03*
Y285000D02*
D03*
Y295000D02*
D03*
Y305000D02*
D03*
Y315000D02*
D03*
Y325000D02*
D03*
Y335000D02*
D03*
X-40000Y25000D02*
D03*
Y35000D02*
D03*
Y45000D02*
D03*
Y55000D02*
D03*
Y65000D02*
D03*
Y75000D02*
D03*
Y85000D02*
D03*
Y95000D02*
D03*
Y105000D02*
D03*
Y115000D02*
D03*
Y125000D02*
D03*
Y135000D02*
D03*
Y145000D02*
D03*
Y155000D02*
D03*
Y165000D02*
D03*
Y175000D02*
D03*
Y185000D02*
D03*
Y195000D02*
D03*
Y205000D02*
D03*
Y215000D02*
D03*
Y225000D02*
D03*
Y235000D02*
D03*
Y245000D02*
D03*
Y255000D02*
D03*
Y265000D02*
D03*
Y275000D02*
D03*
Y285000D02*
D03*
Y295000D02*
D03*
Y305000D02*
D03*
Y315000D02*
D03*
Y325000D02*
D03*
Y335000D02*
D03*
D89*
X-313228Y303150D02*
D03*
Y275590D02*
D03*
X-334646D02*
D03*
Y303150D02*
D03*
D90*
X-323937Y276654D02*
D03*
Y284528D02*
D03*
Y292402D02*
D03*
D91*
Y300276D02*
D03*
D92*
X-174173Y69291D02*
D03*
X-232913Y329921D02*
D03*
X-210000Y330315D02*
D03*
X-84252Y190945D02*
D03*
D93*
X-357520Y35000D02*
D03*
Y325000D02*
D03*
X-20000Y335000D02*
D03*
Y20000D02*
D03*
D94*
X-124133Y217164D02*
D03*
X-105905Y196457D02*
D03*
X-133071Y207087D02*
D03*
X-124409Y190157D02*
D03*
X-202117Y76814D02*
D03*
X-232283Y70866D02*
D03*
X-234646Y103150D02*
D03*
X-211417Y98819D02*
D03*
X-251575Y223228D02*
D03*
X-145669Y338189D02*
D03*
X-116535Y174016D02*
D03*
X-100787Y150787D02*
D03*
X-187402Y35039D02*
D03*
D95*
X-224667Y105512D02*
D03*
X-187795Y83858D02*
D03*
X-60236Y82284D02*
D03*
X-75197Y93701D02*
D03*
X-298819Y70866D02*
D03*
X-306299D02*
D03*
X-302756Y76772D02*
D03*
X-223879Y125984D02*
D03*
X-267323Y205118D02*
D03*
X-263386Y210236D02*
D03*
X-203937Y279134D02*
D03*
X-183465Y255906D02*
D03*
X-183858Y264173D02*
D03*
X-193307Y283858D02*
D03*
Y292126D02*
D03*
X-148819Y199213D02*
D03*
X-87795Y207480D02*
D03*
X-94882Y209055D02*
D03*
X-89370Y214961D02*
D03*
X-79528Y207480D02*
D03*
X-72835D02*
D03*
X-224667Y112205D02*
D03*
X-218761Y108661D02*
D03*
X-223879Y119291D02*
D03*
X-210494Y51181D02*
D03*
%TF.MD5,226fe080ce9a6e3c9619672391dc1c12*%
M02*
