%TF.GenerationSoftware,Altium Limited,Altium Designer,23.1.1 (15)*%
G04 Layer_Physical_Order=2*
G04 Layer_Color=16711680*
%FSLAX25Y25*%
%MOIN*%
%TF.SameCoordinates,209943D4-F1A4-4043-803A-0C530BE15E34*%
%TF.FilePolarity,Positive*%
%TF.FileFunction,Copper,L2,Bot,Signal*%
%TF.Part,Single*%
G01*
G75*
%TA.AperFunction,Conductor*%
%ADD40C,0.05000*%
%ADD43C,0.03000*%
%TA.AperFunction,ComponentPad*%
%ADD49R,0.06201X0.06201*%
%ADD50C,0.06201*%
%ADD51R,0.05610X0.05610*%
%ADD52C,0.05610*%
%ADD53C,0.07972*%
%ADD54C,0.05634*%
%ADD55R,0.05634X0.05634*%
%ADD56R,0.06201X0.06201*%
%TA.AperFunction,WasherPad*%
%ADD57C,0.25000*%
%TA.AperFunction,ViaPad*%
%ADD58C,0.02756*%
%ADD59C,0.05000*%
G36*
X-11020Y350009D02*
X-9200Y349256D01*
X-7562Y348161D01*
X-6169Y346768D01*
X-5075Y345130D01*
X-4321Y343311D01*
X-3937Y341379D01*
Y340394D01*
Y13937D01*
Y12952D01*
X-4321Y11020D01*
X-5075Y9200D01*
X-6169Y7562D01*
X-7562Y6169D01*
X-9200Y5075D01*
X-11020Y4321D01*
X-12952Y3937D01*
X-365001D01*
X-366933Y4321D01*
X-368753Y5075D01*
X-370390Y6169D01*
X-371783Y7562D01*
X-372878Y9200D01*
X-373632Y11020D01*
X-374016Y12952D01*
X-374016Y13937D01*
Y340394D01*
Y341379D01*
X-373632Y343311D01*
X-372878Y345130D01*
X-371783Y346768D01*
X-370390Y348161D01*
X-368753Y349256D01*
X-366933Y350009D01*
X-365001Y350394D01*
X-12952D01*
X-11020Y350009D01*
D02*
G37*
%LPC*%
G36*
X-199460Y334415D02*
X-200540D01*
X-201583Y334136D01*
X-202518Y333596D01*
X-203281Y332833D01*
X-203821Y331898D01*
X-204100Y330855D01*
Y329775D01*
X-203821Y328732D01*
X-203281Y327797D01*
X-202518Y327034D01*
X-201583Y326494D01*
X-200540Y326215D01*
X-199460D01*
X-198417Y326494D01*
X-197482Y327034D01*
X-196719Y327797D01*
X-196179Y328732D01*
X-195900Y329775D01*
Y330855D01*
X-196179Y331898D01*
X-196719Y332833D01*
X-197482Y333596D01*
X-198417Y334136D01*
X-199460Y334415D01*
D02*
G37*
G36*
X-205900D02*
X-214100D01*
Y326215D01*
X-205900D01*
Y334415D01*
D02*
G37*
G36*
X-228813Y334022D02*
X-237014D01*
Y325821D01*
X-228813D01*
Y334022D01*
D02*
G37*
G36*
X-242373D02*
X-243453D01*
X-244496Y333742D01*
X-245431Y333202D01*
X-246195Y332439D01*
X-246734Y331504D01*
X-247014Y330461D01*
Y329381D01*
X-246734Y328339D01*
X-246195Y327403D01*
X-245431Y326640D01*
X-244496Y326100D01*
X-243453Y325821D01*
X-242373D01*
X-241331Y326100D01*
X-240396Y326640D01*
X-239632Y327403D01*
X-239092Y328339D01*
X-238813Y329381D01*
Y330461D01*
X-239092Y331504D01*
X-239632Y332439D01*
X-240396Y333202D01*
X-241331Y333742D01*
X-242373Y334022D01*
D02*
G37*
G36*
X-18937Y348500D02*
X-21062D01*
X-23161Y348168D01*
X-25182Y347511D01*
X-27075Y346546D01*
X-28795Y345297D01*
X-30297Y343795D01*
X-31546Y342075D01*
X-32511Y340182D01*
X-33168Y338161D01*
X-33500Y336063D01*
Y333938D01*
X-33168Y331839D01*
X-32511Y329818D01*
X-31546Y327924D01*
X-30297Y326205D01*
X-28795Y324703D01*
X-27075Y323454D01*
X-25182Y322489D01*
X-23161Y321832D01*
X-21062Y321500D01*
X-18937D01*
X-16839Y321832D01*
X-14818Y322489D01*
X-12924Y323454D01*
X-11205Y324703D01*
X-9703Y326205D01*
X-8454Y327924D01*
X-7489Y329818D01*
X-6832Y331839D01*
X-6500Y333938D01*
Y336063D01*
X-6832Y338161D01*
X-7489Y340182D01*
X-8454Y342075D01*
X-9703Y343795D01*
X-11205Y345297D01*
X-12924Y346546D01*
X-14818Y347511D01*
X-16839Y348168D01*
X-18937Y348500D01*
D02*
G37*
G36*
X-39499Y328805D02*
X-40501D01*
X-41469Y328546D01*
X-42336Y328045D01*
X-43045Y327336D01*
X-43546Y326469D01*
X-43805Y325501D01*
Y324499D01*
X-43546Y323531D01*
X-43045Y322664D01*
X-42336Y321955D01*
X-41469Y321454D01*
X-40501Y321195D01*
X-39499D01*
X-38531Y321454D01*
X-37664Y321955D01*
X-36955Y322664D01*
X-36454Y323531D01*
X-36195Y324499D01*
Y325501D01*
X-36454Y326469D01*
X-36955Y327336D01*
X-37664Y328045D01*
X-38531Y328546D01*
X-39499Y328805D01*
D02*
G37*
G36*
X-356457Y338500D02*
X-358582D01*
X-360681Y338168D01*
X-362702Y337511D01*
X-364595Y336546D01*
X-366314Y335297D01*
X-367817Y333795D01*
X-369066Y332076D01*
X-370031Y330182D01*
X-370687Y328161D01*
X-371020Y326062D01*
Y323938D01*
X-370687Y321839D01*
X-370031Y319818D01*
X-369066Y317924D01*
X-367817Y316205D01*
X-366314Y314703D01*
X-364595Y313454D01*
X-362702Y312489D01*
X-360681Y311832D01*
X-358582Y311500D01*
X-356457D01*
X-354358Y311832D01*
X-352338Y312489D01*
X-350444Y313454D01*
X-348725Y314703D01*
X-347222Y316205D01*
X-345973Y317924D01*
X-345009Y319818D01*
X-344352Y321839D01*
X-344020Y323938D01*
Y326062D01*
X-344352Y328161D01*
X-345009Y330182D01*
X-345973Y332076D01*
X-347222Y333795D01*
X-348725Y335297D01*
X-350444Y336546D01*
X-352338Y337511D01*
X-354358Y338168D01*
X-356457Y338500D01*
D02*
G37*
G36*
X-39499Y318805D02*
X-40501D01*
X-41469Y318546D01*
X-42336Y318045D01*
X-43045Y317336D01*
X-43546Y316469D01*
X-43805Y315501D01*
Y314499D01*
X-43546Y313531D01*
X-43045Y312664D01*
X-42336Y311955D01*
X-41469Y311454D01*
X-40501Y311195D01*
X-39499D01*
X-38531Y311454D01*
X-37664Y311955D01*
X-36955Y312664D01*
X-36454Y313531D01*
X-36195Y314499D01*
Y315501D01*
X-36454Y316469D01*
X-36955Y317336D01*
X-37664Y318045D01*
X-38531Y318546D01*
X-39499Y318805D01*
D02*
G37*
G36*
X-49499D02*
X-50501D01*
X-51469Y318546D01*
X-52336Y318045D01*
X-53045Y317336D01*
X-53546Y316469D01*
X-53805Y315501D01*
Y314499D01*
X-53546Y313531D01*
X-53045Y312664D01*
X-52336Y311955D01*
X-51469Y311454D01*
X-50501Y311195D01*
X-49499D01*
X-48531Y311454D01*
X-47664Y311955D01*
X-46955Y312664D01*
X-46454Y313531D01*
X-46195Y314499D01*
Y315501D01*
X-46454Y316469D01*
X-46955Y317336D01*
X-47664Y318045D01*
X-48531Y318546D01*
X-49499Y318805D01*
D02*
G37*
G36*
X-39499Y308805D02*
X-40501D01*
X-41469Y308546D01*
X-42336Y308045D01*
X-43045Y307336D01*
X-43546Y306469D01*
X-43805Y305501D01*
Y304499D01*
X-43546Y303531D01*
X-43045Y302664D01*
X-42336Y301955D01*
X-41469Y301454D01*
X-40501Y301195D01*
X-39499D01*
X-38531Y301454D01*
X-37664Y301955D01*
X-36955Y302664D01*
X-36454Y303531D01*
X-36195Y304499D01*
Y305501D01*
X-36454Y306469D01*
X-36955Y307336D01*
X-37664Y308045D01*
X-38531Y308546D01*
X-39499Y308805D01*
D02*
G37*
G36*
Y298805D02*
X-40501D01*
X-41469Y298546D01*
X-42336Y298045D01*
X-43045Y297336D01*
X-43546Y296469D01*
X-43805Y295501D01*
Y294499D01*
X-43546Y293531D01*
X-43045Y292664D01*
X-42336Y291955D01*
X-41469Y291454D01*
X-40501Y291195D01*
X-39499D01*
X-38531Y291454D01*
X-37664Y291955D01*
X-36955Y292664D01*
X-36454Y293531D01*
X-36195Y294499D01*
Y295501D01*
X-36454Y296469D01*
X-36955Y297336D01*
X-37664Y298045D01*
X-38531Y298546D01*
X-39499Y298805D01*
D02*
G37*
G36*
X-49499Y308805D02*
X-50501D01*
X-51469Y308546D01*
X-52336Y308045D01*
X-53045Y307336D01*
X-53546Y306469D01*
X-53554Y306439D01*
X-62732Y297260D01*
X-63293Y296529D01*
X-63646Y295677D01*
X-63766Y294764D01*
Y82284D01*
X-63736Y82054D01*
Y81823D01*
X-63676Y81599D01*
X-63646Y81370D01*
X-63558Y81156D01*
X-63498Y80932D01*
X-63382Y80732D01*
X-63293Y80518D01*
X-63153Y80335D01*
X-63037Y80134D01*
X-62873Y79971D01*
X-62732Y79787D01*
X-62549Y79646D01*
X-62385Y79483D01*
X-62185Y79367D01*
X-62001Y79226D01*
X-61788Y79138D01*
X-61587Y79022D01*
X-61364Y78962D01*
X-61150Y78874D01*
X-60921Y78843D01*
X-60697Y78784D01*
X-60466D01*
X-60236Y78753D01*
X-60007Y78784D01*
X-59775D01*
X-59552Y78843D01*
X-59323Y78874D01*
X-59109Y78962D01*
X-58885Y79022D01*
X-58685Y79138D01*
X-58471Y79226D01*
X-58288Y79367D01*
X-58087Y79483D01*
X-57924Y79646D01*
X-57740Y79787D01*
X-57599Y79971D01*
X-57436Y80134D01*
X-57320Y80335D01*
X-57179Y80518D01*
X-57090Y80732D01*
X-56975Y80932D01*
X-56915Y81156D01*
X-56826Y81370D01*
X-56796Y81599D01*
X-56736Y81823D01*
Y82054D01*
X-56706Y82284D01*
Y293302D01*
X-54231Y295776D01*
X-53892Y295580D01*
X-53805Y295495D01*
Y294499D01*
X-53546Y293531D01*
X-53045Y292664D01*
X-52336Y291955D01*
X-51469Y291454D01*
X-50501Y291195D01*
X-49499D01*
X-48531Y291454D01*
X-47664Y291955D01*
X-46955Y292664D01*
X-46454Y293531D01*
X-46195Y294499D01*
Y295501D01*
X-46454Y296469D01*
X-46955Y297336D01*
X-47664Y298045D01*
X-48531Y298546D01*
X-49499Y298805D01*
X-50495D01*
X-50580Y298892D01*
X-50776Y299231D01*
X-48561Y301446D01*
X-48531Y301454D01*
X-47664Y301955D01*
X-46955Y302664D01*
X-46454Y303531D01*
X-46195Y304499D01*
Y305501D01*
X-46454Y306469D01*
X-46955Y307336D01*
X-47664Y308045D01*
X-48531Y308546D01*
X-49499Y308805D01*
D02*
G37*
G36*
X-39499Y288805D02*
X-40501D01*
X-41469Y288546D01*
X-42336Y288045D01*
X-43045Y287336D01*
X-43546Y286469D01*
X-43805Y285501D01*
Y284499D01*
X-43546Y283531D01*
X-43045Y282664D01*
X-42336Y281955D01*
X-41469Y281454D01*
X-40501Y281195D01*
X-39499D01*
X-38531Y281454D01*
X-37664Y281955D01*
X-36955Y282664D01*
X-36454Y283531D01*
X-36195Y284499D01*
Y285501D01*
X-36454Y286469D01*
X-36955Y287336D01*
X-37664Y288045D01*
X-38531Y288546D01*
X-39499Y288805D01*
D02*
G37*
G36*
X-49499D02*
X-50501D01*
X-51469Y288546D01*
X-52336Y288045D01*
X-53045Y287336D01*
X-53546Y286469D01*
X-53805Y285501D01*
Y284499D01*
X-53546Y283531D01*
X-53045Y282664D01*
X-52336Y281955D01*
X-51469Y281454D01*
X-50501Y281195D01*
X-49499D01*
X-48531Y281454D01*
X-47664Y281955D01*
X-46955Y282664D01*
X-46454Y283531D01*
X-46195Y284499D01*
Y285501D01*
X-46454Y286469D01*
X-46955Y287336D01*
X-47664Y288045D01*
X-48531Y288546D01*
X-49499Y288805D01*
D02*
G37*
G36*
X-320120Y304093D02*
X-327754D01*
Y296459D01*
X-325475D01*
X-325409Y295959D01*
X-325410Y295958D01*
X-326281Y295456D01*
X-326991Y294745D01*
X-327494Y293875D01*
X-327754Y292904D01*
Y291899D01*
X-327494Y290928D01*
X-326991Y290058D01*
X-326281Y289347D01*
X-325410Y288845D01*
X-324957Y288723D01*
Y288206D01*
X-325410Y288084D01*
X-326281Y287582D01*
X-326991Y286871D01*
X-327494Y286001D01*
X-327754Y285030D01*
Y284025D01*
X-327494Y283054D01*
X-326991Y282184D01*
X-326281Y281473D01*
X-325410Y280971D01*
X-324440Y280711D01*
X-323434D01*
X-322464Y280971D01*
X-321593Y281473D01*
X-320883Y282184D01*
X-320380Y283054D01*
X-320120Y284025D01*
Y285030D01*
X-320380Y286001D01*
X-320883Y286871D01*
X-321593Y287582D01*
X-322464Y288084D01*
X-322917Y288206D01*
Y288723D01*
X-322464Y288845D01*
X-321593Y289347D01*
X-320883Y290058D01*
X-320380Y290928D01*
X-320120Y291899D01*
Y292904D01*
X-320380Y293875D01*
X-320883Y294745D01*
X-321593Y295456D01*
X-322464Y295958D01*
X-322465Y295959D01*
X-322399Y296459D01*
X-320120D01*
Y304093D01*
D02*
G37*
G36*
X-39499Y278805D02*
X-40501D01*
X-41469Y278546D01*
X-42336Y278045D01*
X-43045Y277336D01*
X-43546Y276469D01*
X-43805Y275501D01*
Y274499D01*
X-43546Y273531D01*
X-43045Y272664D01*
X-42336Y271955D01*
X-41469Y271454D01*
X-40501Y271195D01*
X-39499D01*
X-38531Y271454D01*
X-37664Y271955D01*
X-36955Y272664D01*
X-36454Y273531D01*
X-36195Y274499D01*
Y275501D01*
X-36454Y276469D01*
X-36955Y277336D01*
X-37664Y278045D01*
X-38531Y278546D01*
X-39499Y278805D01*
D02*
G37*
G36*
X-49499D02*
X-50501D01*
X-51469Y278546D01*
X-52336Y278045D01*
X-53045Y277336D01*
X-53546Y276469D01*
X-53805Y275501D01*
Y274499D01*
X-53546Y273531D01*
X-53045Y272664D01*
X-52336Y271955D01*
X-51469Y271454D01*
X-50501Y271195D01*
X-49499D01*
X-48531Y271454D01*
X-47664Y271955D01*
X-46955Y272664D01*
X-46454Y273531D01*
X-46195Y274499D01*
Y275501D01*
X-46454Y276469D01*
X-46955Y277336D01*
X-47664Y278045D01*
X-48531Y278546D01*
X-49499Y278805D01*
D02*
G37*
G36*
X-39499Y268805D02*
X-40501D01*
X-41469Y268546D01*
X-42336Y268045D01*
X-43045Y267336D01*
X-43546Y266469D01*
X-43805Y265501D01*
Y264499D01*
X-43546Y263531D01*
X-43045Y262664D01*
X-42336Y261955D01*
X-41469Y261454D01*
X-40501Y261195D01*
X-39499D01*
X-38531Y261454D01*
X-37664Y261955D01*
X-36955Y262664D01*
X-36454Y263531D01*
X-36195Y264499D01*
Y265501D01*
X-36454Y266469D01*
X-36955Y267336D01*
X-37664Y268045D01*
X-38531Y268546D01*
X-39499Y268805D01*
D02*
G37*
G36*
X-49499D02*
X-50501D01*
X-51469Y268546D01*
X-52336Y268045D01*
X-53045Y267336D01*
X-53546Y266469D01*
X-53805Y265501D01*
Y264499D01*
X-53546Y263531D01*
X-53045Y262664D01*
X-52336Y261955D01*
X-51469Y261454D01*
X-50501Y261195D01*
X-49499D01*
X-48531Y261454D01*
X-47664Y261955D01*
X-46955Y262664D01*
X-46454Y263531D01*
X-46195Y264499D01*
Y265501D01*
X-46454Y266469D01*
X-46955Y267336D01*
X-47664Y268045D01*
X-48531Y268546D01*
X-49499Y268805D01*
D02*
G37*
G36*
X-39499Y258805D02*
X-40501D01*
X-41469Y258546D01*
X-42336Y258045D01*
X-43045Y257336D01*
X-43546Y256469D01*
X-43805Y255501D01*
Y254499D01*
X-43546Y253531D01*
X-43045Y252664D01*
X-42336Y251955D01*
X-41469Y251454D01*
X-40501Y251195D01*
X-39499D01*
X-38531Y251454D01*
X-37664Y251955D01*
X-36955Y252664D01*
X-36454Y253531D01*
X-36195Y254499D01*
Y255501D01*
X-36454Y256469D01*
X-36955Y257336D01*
X-37664Y258045D01*
X-38531Y258546D01*
X-39499Y258805D01*
D02*
G37*
G36*
X-49499D02*
X-50501D01*
X-51469Y258546D01*
X-52336Y258045D01*
X-53045Y257336D01*
X-53546Y256469D01*
X-53805Y255501D01*
Y254499D01*
X-53546Y253531D01*
X-53045Y252664D01*
X-52336Y251955D01*
X-51469Y251454D01*
X-50501Y251195D01*
X-49499D01*
X-48531Y251454D01*
X-47664Y251955D01*
X-46955Y252664D01*
X-46454Y253531D01*
X-46195Y254499D01*
Y255501D01*
X-46454Y256469D01*
X-46955Y257336D01*
X-47664Y258045D01*
X-48531Y258546D01*
X-49499Y258805D01*
D02*
G37*
G36*
X-143537Y249927D02*
X-151738D01*
Y241726D01*
X-143537D01*
Y249927D01*
D02*
G37*
G36*
X-39499Y248805D02*
X-40501D01*
X-41469Y248546D01*
X-42336Y248045D01*
X-43045Y247336D01*
X-43546Y246469D01*
X-43805Y245501D01*
Y244499D01*
X-43546Y243531D01*
X-43045Y242664D01*
X-42336Y241955D01*
X-41469Y241454D01*
X-40501Y241195D01*
X-39499D01*
X-38531Y241454D01*
X-37664Y241955D01*
X-36955Y242664D01*
X-36454Y243531D01*
X-36195Y244499D01*
Y245501D01*
X-36454Y246469D01*
X-36955Y247336D01*
X-37664Y248045D01*
X-38531Y248546D01*
X-39499Y248805D01*
D02*
G37*
G36*
X-49499D02*
X-50501D01*
X-51469Y248546D01*
X-52336Y248045D01*
X-53045Y247336D01*
X-53546Y246469D01*
X-53805Y245501D01*
Y244499D01*
X-53546Y243531D01*
X-53045Y242664D01*
X-52336Y241955D01*
X-51469Y241454D01*
X-50501Y241195D01*
X-49499D01*
X-48531Y241454D01*
X-47664Y241955D01*
X-46955Y242664D01*
X-46454Y243531D01*
X-46195Y244499D01*
Y245501D01*
X-46454Y246469D01*
X-46955Y247336D01*
X-47664Y248045D01*
X-48531Y248546D01*
X-49499Y248805D01*
D02*
G37*
G36*
X-147098Y239927D02*
X-148178D01*
X-149221Y239648D01*
X-150155Y239108D01*
X-150919Y238345D01*
X-151459Y237409D01*
X-151738Y236367D01*
Y235287D01*
X-151459Y234244D01*
X-150919Y233309D01*
X-150155Y232546D01*
X-149221Y232006D01*
X-148178Y231726D01*
X-147098D01*
X-146055Y232006D01*
X-145120Y232546D01*
X-144357Y233309D01*
X-143817Y234244D01*
X-143537Y235287D01*
Y236367D01*
X-143817Y237409D01*
X-144357Y238345D01*
X-145120Y239108D01*
X-146055Y239648D01*
X-147098Y239927D01*
D02*
G37*
G36*
X-39499Y238805D02*
X-40501D01*
X-41469Y238546D01*
X-42336Y238045D01*
X-43045Y237336D01*
X-43546Y236469D01*
X-43805Y235501D01*
Y234499D01*
X-43546Y233531D01*
X-43045Y232664D01*
X-42336Y231955D01*
X-41469Y231454D01*
X-40501Y231195D01*
X-39499D01*
X-38531Y231454D01*
X-37664Y231955D01*
X-36955Y232664D01*
X-36454Y233531D01*
X-36195Y234499D01*
Y235501D01*
X-36454Y236469D01*
X-36955Y237336D01*
X-37664Y238045D01*
X-38531Y238546D01*
X-39499Y238805D01*
D02*
G37*
G36*
X-49499D02*
X-50501D01*
X-51469Y238546D01*
X-52336Y238045D01*
X-53045Y237336D01*
X-53546Y236469D01*
X-53805Y235501D01*
Y234499D01*
X-53546Y233531D01*
X-53045Y232664D01*
X-52336Y231955D01*
X-51469Y231454D01*
X-50501Y231195D01*
X-49499D01*
X-48531Y231454D01*
X-47664Y231955D01*
X-46955Y232664D01*
X-46454Y233531D01*
X-46195Y234499D01*
Y235501D01*
X-46454Y236469D01*
X-46955Y237336D01*
X-47664Y238045D01*
X-48531Y238546D01*
X-49499Y238805D01*
D02*
G37*
G36*
X-324263Y235596D02*
X-325343D01*
X-326386Y235317D01*
X-327321Y234777D01*
X-328084Y234014D01*
X-328624Y233079D01*
X-328904Y232036D01*
Y230956D01*
X-328624Y229913D01*
X-328084Y228978D01*
X-327321Y228215D01*
X-326386Y227675D01*
X-325343Y227396D01*
X-324263D01*
X-323220Y227675D01*
X-322285Y228215D01*
X-321522Y228978D01*
X-320982Y229913D01*
X-320703Y230956D01*
Y232036D01*
X-320982Y233079D01*
X-321522Y234014D01*
X-322285Y234777D01*
X-323220Y235317D01*
X-324263Y235596D01*
D02*
G37*
G36*
X-39499Y228805D02*
X-40501D01*
X-41469Y228546D01*
X-42336Y228045D01*
X-43045Y227336D01*
X-43546Y226469D01*
X-43805Y225501D01*
Y224499D01*
X-43546Y223531D01*
X-43045Y222664D01*
X-42336Y221955D01*
X-41469Y221454D01*
X-40501Y221195D01*
X-39499D01*
X-38531Y221454D01*
X-37664Y221955D01*
X-36955Y222664D01*
X-36454Y223531D01*
X-36195Y224499D01*
Y225501D01*
X-36454Y226469D01*
X-36955Y227336D01*
X-37664Y228045D01*
X-38531Y228546D01*
X-39499Y228805D01*
D02*
G37*
G36*
X-49499D02*
X-50501D01*
X-51469Y228546D01*
X-52336Y228045D01*
X-53045Y227336D01*
X-53546Y226469D01*
X-53805Y225501D01*
Y224499D01*
X-53546Y223531D01*
X-53045Y222664D01*
X-52336Y221955D01*
X-51469Y221454D01*
X-50501Y221195D01*
X-49499D01*
X-48531Y221454D01*
X-47664Y221955D01*
X-46955Y222664D01*
X-46454Y223531D01*
X-46195Y224499D01*
Y225501D01*
X-46454Y226469D01*
X-46955Y227336D01*
X-47664Y228045D01*
X-48531Y228546D01*
X-49499Y228805D01*
D02*
G37*
G36*
X-320703Y225596D02*
X-328904D01*
Y217396D01*
X-320703D01*
Y225596D01*
D02*
G37*
G36*
X-39499Y218805D02*
X-40501D01*
X-41469Y218546D01*
X-42336Y218045D01*
X-43045Y217336D01*
X-43546Y216469D01*
X-43805Y215501D01*
Y214499D01*
X-43546Y213531D01*
X-43045Y212664D01*
X-42336Y211955D01*
X-41469Y211454D01*
X-40501Y211195D01*
X-39499D01*
X-38531Y211454D01*
X-37664Y211955D01*
X-36955Y212664D01*
X-36454Y213531D01*
X-36195Y214499D01*
Y215501D01*
X-36454Y216469D01*
X-36955Y217336D01*
X-37664Y218045D01*
X-38531Y218546D01*
X-39499Y218805D01*
D02*
G37*
G36*
X-49499D02*
X-50501D01*
X-51469Y218546D01*
X-52336Y218045D01*
X-53045Y217336D01*
X-53546Y216469D01*
X-53805Y215501D01*
Y214499D01*
X-53546Y213531D01*
X-53045Y212664D01*
X-52336Y211955D01*
X-51469Y211454D01*
X-50501Y211195D01*
X-49499D01*
X-48531Y211454D01*
X-47664Y211955D01*
X-46955Y212664D01*
X-46454Y213531D01*
X-46195Y214499D01*
Y215501D01*
X-46454Y216469D01*
X-46955Y217336D01*
X-47664Y218045D01*
X-48531Y218546D01*
X-49499Y218805D01*
D02*
G37*
G36*
X-39499Y208805D02*
X-40501D01*
X-41469Y208546D01*
X-42336Y208045D01*
X-43045Y207336D01*
X-43546Y206469D01*
X-43805Y205501D01*
Y204499D01*
X-43546Y203531D01*
X-43045Y202664D01*
X-42336Y201955D01*
X-41469Y201454D01*
X-40501Y201195D01*
X-39499D01*
X-38531Y201454D01*
X-37664Y201955D01*
X-36955Y202664D01*
X-36454Y203531D01*
X-36195Y204499D01*
Y205501D01*
X-36454Y206469D01*
X-36955Y207336D01*
X-37664Y208045D01*
X-38531Y208546D01*
X-39499Y208805D01*
D02*
G37*
G36*
X-49499D02*
X-50501D01*
X-51469Y208546D01*
X-52336Y208045D01*
X-53045Y207336D01*
X-53546Y206469D01*
X-53805Y205501D01*
Y204499D01*
X-53546Y203531D01*
X-53045Y202664D01*
X-52336Y201955D01*
X-51469Y201454D01*
X-50501Y201195D01*
X-49499D01*
X-48531Y201454D01*
X-47664Y201955D01*
X-46955Y202664D01*
X-46454Y203531D01*
X-46195Y204499D01*
Y205501D01*
X-46454Y206469D01*
X-46955Y207336D01*
X-47664Y208045D01*
X-48531Y208546D01*
X-49499Y208805D01*
D02*
G37*
G36*
X-124133Y219713D02*
X-125109Y219519D01*
X-125936Y218967D01*
X-126488Y218140D01*
X-126682Y217164D01*
X-126488Y216189D01*
X-125936Y215362D01*
X-108455Y197881D01*
Y196457D01*
X-108261Y195481D01*
X-107708Y194654D01*
X-106881Y194102D01*
X-105905Y193908D01*
X-104930Y194102D01*
X-104103Y194654D01*
X-103551Y195481D01*
X-103357Y196457D01*
Y198936D01*
X-103551Y199912D01*
X-104103Y200739D01*
X-122331Y218967D01*
X-123158Y219519D01*
X-124133Y219713D01*
D02*
G37*
G36*
X-39499Y198805D02*
X-40501D01*
X-41469Y198546D01*
X-42336Y198045D01*
X-43045Y197336D01*
X-43546Y196469D01*
X-43805Y195501D01*
Y194499D01*
X-43546Y193531D01*
X-43045Y192664D01*
X-42336Y191955D01*
X-41469Y191454D01*
X-40501Y191195D01*
X-39499D01*
X-38531Y191454D01*
X-37664Y191955D01*
X-36955Y192664D01*
X-36454Y193531D01*
X-36195Y194499D01*
Y195501D01*
X-36454Y196469D01*
X-36955Y197336D01*
X-37664Y198045D01*
X-38531Y198546D01*
X-39499Y198805D01*
D02*
G37*
G36*
X-49499D02*
X-50501D01*
X-51469Y198546D01*
X-52336Y198045D01*
X-53045Y197336D01*
X-53546Y196469D01*
X-53805Y195501D01*
Y194499D01*
X-53546Y193531D01*
X-53045Y192664D01*
X-52336Y191955D01*
X-51469Y191454D01*
X-50501Y191195D01*
X-49499D01*
X-48531Y191454D01*
X-47664Y191955D01*
X-46955Y192664D01*
X-46454Y193531D01*
X-46195Y194499D01*
Y195501D01*
X-46454Y196469D01*
X-46955Y197336D01*
X-47664Y198045D01*
X-48531Y198546D01*
X-49499Y198805D01*
D02*
G37*
G36*
X-133071Y209636D02*
X-134046Y209442D01*
X-134873Y208889D01*
X-135267Y208495D01*
X-135819Y207668D01*
X-136014Y206693D01*
Y199213D01*
X-135819Y198237D01*
X-135267Y197410D01*
X-126212Y188355D01*
X-125385Y187803D01*
X-124409Y187609D01*
X-123434Y187803D01*
X-122607Y188355D01*
X-122055Y189182D01*
X-121861Y190157D01*
X-122055Y191133D01*
X-122607Y191960D01*
X-130916Y200268D01*
Y205812D01*
X-130716Y206111D01*
X-130522Y207087D01*
X-130716Y208062D01*
X-131269Y208889D01*
X-132095Y209442D01*
X-133071Y209636D01*
D02*
G37*
G36*
X-73712Y195045D02*
X-74792D01*
X-75835Y194766D01*
X-76770Y194226D01*
X-77533Y193463D01*
X-78073Y192528D01*
X-78352Y191485D01*
Y190405D01*
X-78073Y189362D01*
X-77533Y188427D01*
X-76770Y187664D01*
X-75835Y187124D01*
X-74792Y186845D01*
X-73712D01*
X-72669Y187124D01*
X-71734Y187664D01*
X-70971Y188427D01*
X-70431Y189362D01*
X-70152Y190405D01*
Y191485D01*
X-70431Y192528D01*
X-70971Y193463D01*
X-71734Y194226D01*
X-72669Y194766D01*
X-73712Y195045D01*
D02*
G37*
G36*
X-80152D02*
X-88352D01*
Y186845D01*
X-80152D01*
Y195045D01*
D02*
G37*
G36*
X-39499Y188805D02*
X-40501D01*
X-41469Y188546D01*
X-42336Y188045D01*
X-43045Y187336D01*
X-43546Y186469D01*
X-43805Y185501D01*
Y184499D01*
X-43546Y183531D01*
X-43045Y182664D01*
X-42336Y181955D01*
X-41469Y181454D01*
X-40501Y181195D01*
X-39499D01*
X-38531Y181454D01*
X-37664Y181955D01*
X-36955Y182664D01*
X-36454Y183531D01*
X-36195Y184499D01*
Y185501D01*
X-36454Y186469D01*
X-36955Y187336D01*
X-37664Y188045D01*
X-38531Y188546D01*
X-39499Y188805D01*
D02*
G37*
G36*
X-49499D02*
X-50501D01*
X-51469Y188546D01*
X-52336Y188045D01*
X-53045Y187336D01*
X-53546Y186469D01*
X-53805Y185501D01*
Y184499D01*
X-53546Y183531D01*
X-53045Y182664D01*
X-52336Y181955D01*
X-51469Y181454D01*
X-50501Y181195D01*
X-49499D01*
X-48531Y181454D01*
X-47664Y181955D01*
X-46955Y182664D01*
X-46454Y183531D01*
X-46195Y184499D01*
Y185501D01*
X-46454Y186469D01*
X-46955Y187336D01*
X-47664Y188045D01*
X-48531Y188546D01*
X-49499Y188805D01*
D02*
G37*
G36*
X-39499Y178805D02*
X-40501D01*
X-41469Y178546D01*
X-42336Y178045D01*
X-43045Y177336D01*
X-43546Y176469D01*
X-43805Y175501D01*
Y174499D01*
X-43546Y173531D01*
X-43045Y172664D01*
X-42336Y171955D01*
X-41469Y171454D01*
X-40501Y171195D01*
X-39499D01*
X-38531Y171454D01*
X-37664Y171955D01*
X-36955Y172664D01*
X-36454Y173531D01*
X-36195Y174499D01*
Y175501D01*
X-36454Y176469D01*
X-36955Y177336D01*
X-37664Y178045D01*
X-38531Y178546D01*
X-39499Y178805D01*
D02*
G37*
G36*
X-49499D02*
X-50501D01*
X-51469Y178546D01*
X-52336Y178045D01*
X-53045Y177336D01*
X-53546Y176469D01*
X-53805Y175501D01*
Y174499D01*
X-53546Y173531D01*
X-53045Y172664D01*
X-52336Y171955D01*
X-51469Y171454D01*
X-50501Y171195D01*
X-49499D01*
X-48531Y171454D01*
X-47664Y171955D01*
X-46955Y172664D01*
X-46454Y173531D01*
X-46195Y174499D01*
Y175501D01*
X-46454Y176469D01*
X-46955Y177336D01*
X-47664Y178045D01*
X-48531Y178546D01*
X-49499Y178805D01*
D02*
G37*
G36*
X-39499Y168805D02*
X-40501D01*
X-41469Y168546D01*
X-42336Y168045D01*
X-43045Y167336D01*
X-43546Y166469D01*
X-43805Y165501D01*
Y164499D01*
X-43546Y163531D01*
X-43045Y162664D01*
X-42336Y161955D01*
X-41469Y161454D01*
X-40501Y161195D01*
X-39499D01*
X-38531Y161454D01*
X-37664Y161955D01*
X-36955Y162664D01*
X-36454Y163531D01*
X-36195Y164499D01*
Y165501D01*
X-36454Y166469D01*
X-36955Y167336D01*
X-37664Y168045D01*
X-38531Y168546D01*
X-39499Y168805D01*
D02*
G37*
G36*
X-49499D02*
X-50501D01*
X-51469Y168546D01*
X-52336Y168045D01*
X-53045Y167336D01*
X-53546Y166469D01*
X-53805Y165501D01*
Y164499D01*
X-53546Y163531D01*
X-53045Y162664D01*
X-52336Y161955D01*
X-51469Y161454D01*
X-50501Y161195D01*
X-49499D01*
X-48531Y161454D01*
X-47664Y161955D01*
X-46955Y162664D01*
X-46454Y163531D01*
X-46195Y164499D01*
Y165501D01*
X-46454Y166469D01*
X-46955Y167336D01*
X-47664Y168045D01*
X-48531Y168546D01*
X-49499Y168805D01*
D02*
G37*
G36*
X-39499Y158805D02*
X-40501D01*
X-41469Y158546D01*
X-42336Y158045D01*
X-43045Y157336D01*
X-43546Y156469D01*
X-43805Y155501D01*
Y154499D01*
X-43546Y153531D01*
X-43045Y152664D01*
X-42336Y151955D01*
X-41469Y151454D01*
X-40501Y151195D01*
X-39499D01*
X-38531Y151454D01*
X-37664Y151955D01*
X-36955Y152664D01*
X-36454Y153531D01*
X-36195Y154499D01*
Y155501D01*
X-36454Y156469D01*
X-36955Y157336D01*
X-37664Y158045D01*
X-38531Y158546D01*
X-39499Y158805D01*
D02*
G37*
G36*
X-49499D02*
X-50501D01*
X-51469Y158546D01*
X-52336Y158045D01*
X-53045Y157336D01*
X-53546Y156469D01*
X-53805Y155501D01*
Y154499D01*
X-53546Y153531D01*
X-53045Y152664D01*
X-52336Y151955D01*
X-51469Y151454D01*
X-50501Y151195D01*
X-49499D01*
X-48531Y151454D01*
X-47664Y151955D01*
X-46955Y152664D01*
X-46454Y153531D01*
X-46195Y154499D01*
Y155501D01*
X-46454Y156469D01*
X-46955Y157336D01*
X-47664Y158045D01*
X-48531Y158546D01*
X-49499Y158805D01*
D02*
G37*
G36*
X-39499Y148805D02*
X-40501D01*
X-41469Y148546D01*
X-42336Y148045D01*
X-43045Y147336D01*
X-43546Y146469D01*
X-43805Y145501D01*
Y144499D01*
X-43546Y143531D01*
X-43045Y142664D01*
X-42336Y141955D01*
X-41469Y141454D01*
X-40501Y141195D01*
X-39499D01*
X-38531Y141454D01*
X-37664Y141955D01*
X-36955Y142664D01*
X-36454Y143531D01*
X-36195Y144499D01*
Y145501D01*
X-36454Y146469D01*
X-36955Y147336D01*
X-37664Y148045D01*
X-38531Y148546D01*
X-39499Y148805D01*
D02*
G37*
G36*
X-49499D02*
X-50501D01*
X-51469Y148546D01*
X-52336Y148045D01*
X-53045Y147336D01*
X-53546Y146469D01*
X-53805Y145501D01*
Y144499D01*
X-53546Y143531D01*
X-53045Y142664D01*
X-52336Y141955D01*
X-51469Y141454D01*
X-50501Y141195D01*
X-49499D01*
X-48531Y141454D01*
X-47664Y141955D01*
X-46955Y142664D01*
X-46454Y143531D01*
X-46195Y144499D01*
Y145501D01*
X-46454Y146469D01*
X-46955Y147336D01*
X-47664Y148045D01*
X-48531Y148546D01*
X-49499Y148805D01*
D02*
G37*
G36*
X-39499Y138805D02*
X-40501D01*
X-41469Y138546D01*
X-42336Y138045D01*
X-43045Y137336D01*
X-43546Y136469D01*
X-43805Y135501D01*
Y134499D01*
X-43546Y133531D01*
X-43045Y132664D01*
X-42336Y131955D01*
X-41469Y131454D01*
X-40501Y131195D01*
X-39499D01*
X-38531Y131454D01*
X-37664Y131955D01*
X-36955Y132664D01*
X-36454Y133531D01*
X-36195Y134499D01*
Y135501D01*
X-36454Y136469D01*
X-36955Y137336D01*
X-37664Y138045D01*
X-38531Y138546D01*
X-39499Y138805D01*
D02*
G37*
G36*
X-49499D02*
X-50501D01*
X-51469Y138546D01*
X-52336Y138045D01*
X-53045Y137336D01*
X-53546Y136469D01*
X-53805Y135501D01*
Y134499D01*
X-53546Y133531D01*
X-53045Y132664D01*
X-52336Y131955D01*
X-51469Y131454D01*
X-50501Y131195D01*
X-49499D01*
X-48531Y131454D01*
X-47664Y131955D01*
X-46955Y132664D01*
X-46454Y133531D01*
X-46195Y134499D01*
Y135501D01*
X-46454Y136469D01*
X-46955Y137336D01*
X-47664Y138045D01*
X-48531Y138546D01*
X-49499Y138805D01*
D02*
G37*
G36*
X-39499Y128805D02*
X-40501D01*
X-41469Y128546D01*
X-42336Y128045D01*
X-43045Y127336D01*
X-43546Y126469D01*
X-43805Y125501D01*
Y124499D01*
X-43546Y123531D01*
X-43045Y122664D01*
X-42336Y121955D01*
X-41469Y121454D01*
X-40501Y121195D01*
X-39499D01*
X-38531Y121454D01*
X-37664Y121955D01*
X-36955Y122664D01*
X-36454Y123531D01*
X-36195Y124499D01*
Y125501D01*
X-36454Y126469D01*
X-36955Y127336D01*
X-37664Y128045D01*
X-38531Y128546D01*
X-39499Y128805D01*
D02*
G37*
G36*
X-49499D02*
X-50501D01*
X-51469Y128546D01*
X-52336Y128045D01*
X-53045Y127336D01*
X-53546Y126469D01*
X-53805Y125501D01*
Y124499D01*
X-53546Y123531D01*
X-53045Y122664D01*
X-52336Y121955D01*
X-51469Y121454D01*
X-50501Y121195D01*
X-49499D01*
X-48531Y121454D01*
X-47664Y121955D01*
X-46955Y122664D01*
X-46454Y123531D01*
X-46195Y124499D01*
Y125501D01*
X-46454Y126469D01*
X-46955Y127336D01*
X-47664Y128045D01*
X-48531Y128546D01*
X-49499Y128805D01*
D02*
G37*
G36*
X-39499Y118805D02*
X-40501D01*
X-41469Y118546D01*
X-42336Y118045D01*
X-43045Y117336D01*
X-43546Y116469D01*
X-43805Y115501D01*
Y114499D01*
X-43546Y113531D01*
X-43045Y112664D01*
X-42336Y111955D01*
X-41469Y111454D01*
X-40501Y111195D01*
X-39499D01*
X-38531Y111454D01*
X-37664Y111955D01*
X-36955Y112664D01*
X-36454Y113531D01*
X-36195Y114499D01*
Y115501D01*
X-36454Y116469D01*
X-36955Y117336D01*
X-37664Y118045D01*
X-38531Y118546D01*
X-39499Y118805D01*
D02*
G37*
G36*
X-49499D02*
X-50501D01*
X-51469Y118546D01*
X-52336Y118045D01*
X-53045Y117336D01*
X-53546Y116469D01*
X-53805Y115501D01*
Y114499D01*
X-53546Y113531D01*
X-53045Y112664D01*
X-52336Y111955D01*
X-51469Y111454D01*
X-50501Y111195D01*
X-49499D01*
X-48531Y111454D01*
X-47664Y111955D01*
X-46955Y112664D01*
X-46454Y113531D01*
X-46195Y114499D01*
Y115501D01*
X-46454Y116469D01*
X-46955Y117336D01*
X-47664Y118045D01*
X-48531Y118546D01*
X-49499Y118805D01*
D02*
G37*
G36*
X-39499Y108805D02*
X-40501D01*
X-41469Y108546D01*
X-42336Y108045D01*
X-43045Y107336D01*
X-43546Y106469D01*
X-43805Y105501D01*
Y104499D01*
X-43546Y103531D01*
X-43045Y102664D01*
X-42336Y101955D01*
X-41469Y101454D01*
X-40501Y101195D01*
X-39499D01*
X-38531Y101454D01*
X-37664Y101955D01*
X-36955Y102664D01*
X-36454Y103531D01*
X-36195Y104499D01*
Y105501D01*
X-36454Y106469D01*
X-36955Y107336D01*
X-37664Y108045D01*
X-38531Y108546D01*
X-39499Y108805D01*
D02*
G37*
G36*
X-49499D02*
X-50501D01*
X-51469Y108546D01*
X-52336Y108045D01*
X-53045Y107336D01*
X-53546Y106469D01*
X-53805Y105501D01*
Y104499D01*
X-53546Y103531D01*
X-53045Y102664D01*
X-52336Y101955D01*
X-51469Y101454D01*
X-50501Y101195D01*
X-49499D01*
X-48531Y101454D01*
X-47664Y101955D01*
X-46955Y102664D01*
X-46454Y103531D01*
X-46195Y104499D01*
Y105501D01*
X-46454Y106469D01*
X-46955Y107336D01*
X-47664Y108045D01*
X-48531Y108546D01*
X-49499Y108805D01*
D02*
G37*
G36*
X-230163Y106486D02*
X-233858D01*
X-234834Y106292D01*
X-235661Y105739D01*
X-236448Y104952D01*
X-237001Y104125D01*
X-237195Y103150D01*
X-237001Y102174D01*
X-236448Y101347D01*
X-235621Y100795D01*
X-234646Y100601D01*
X-233670Y100795D01*
X-232843Y101347D01*
X-232802Y101388D01*
X-231219D01*
X-226847Y97017D01*
X-226020Y96464D01*
X-225045Y96270D01*
X-211417D01*
X-210442Y96464D01*
X-209615Y97017D01*
X-209062Y97843D01*
X-208868Y98819D01*
X-209062Y99794D01*
X-209615Y100621D01*
X-210442Y101174D01*
X-211417Y101368D01*
X-223989D01*
X-228361Y105739D01*
X-229188Y106292D01*
X-230163Y106486D01*
D02*
G37*
G36*
X-39499Y98805D02*
X-40501D01*
X-41469Y98546D01*
X-42336Y98045D01*
X-43045Y97336D01*
X-43546Y96469D01*
X-43805Y95501D01*
Y94499D01*
X-43546Y93531D01*
X-43045Y92664D01*
X-42336Y91955D01*
X-41469Y91454D01*
X-40501Y91195D01*
X-39499D01*
X-38531Y91454D01*
X-37664Y91955D01*
X-36955Y92664D01*
X-36454Y93531D01*
X-36195Y94499D01*
Y95501D01*
X-36454Y96469D01*
X-36955Y97336D01*
X-37664Y98045D01*
X-38531Y98546D01*
X-39499Y98805D01*
D02*
G37*
G36*
X-49499D02*
X-50501D01*
X-51469Y98546D01*
X-52336Y98045D01*
X-53045Y97336D01*
X-53546Y96469D01*
X-53805Y95501D01*
Y94499D01*
X-53546Y93531D01*
X-53045Y92664D01*
X-52336Y91955D01*
X-51469Y91454D01*
X-50501Y91195D01*
X-49499D01*
X-48531Y91454D01*
X-47664Y91955D01*
X-46955Y92664D01*
X-46454Y93531D01*
X-46195Y94499D01*
Y95501D01*
X-46454Y96469D01*
X-46955Y97336D01*
X-47664Y98045D01*
X-48531Y98546D01*
X-49499Y98805D01*
D02*
G37*
G36*
X-39499Y88805D02*
X-40501D01*
X-41469Y88546D01*
X-42336Y88045D01*
X-43045Y87336D01*
X-43546Y86469D01*
X-43805Y85501D01*
Y84499D01*
X-43546Y83531D01*
X-43045Y82664D01*
X-42336Y81955D01*
X-41469Y81454D01*
X-40501Y81195D01*
X-39499D01*
X-38531Y81454D01*
X-37664Y81955D01*
X-36955Y82664D01*
X-36454Y83531D01*
X-36195Y84499D01*
Y85501D01*
X-36454Y86469D01*
X-36955Y87336D01*
X-37664Y88045D01*
X-38531Y88546D01*
X-39499Y88805D01*
D02*
G37*
G36*
X-49499D02*
X-50501D01*
X-51469Y88546D01*
X-52336Y88045D01*
X-53045Y87336D01*
X-53546Y86469D01*
X-53805Y85501D01*
Y84499D01*
X-53546Y83531D01*
X-53045Y82664D01*
X-52336Y81955D01*
X-51469Y81454D01*
X-50501Y81195D01*
X-49499D01*
X-48531Y81454D01*
X-47664Y81955D01*
X-46955Y82664D01*
X-46454Y83531D01*
X-46195Y84499D01*
Y85501D01*
X-46454Y86469D01*
X-46955Y87336D01*
X-47664Y88045D01*
X-48531Y88546D01*
X-49499Y88805D01*
D02*
G37*
G36*
X-39499Y78805D02*
X-40501D01*
X-41469Y78546D01*
X-42336Y78045D01*
X-43045Y77336D01*
X-43546Y76469D01*
X-43805Y75501D01*
Y74499D01*
X-43546Y73531D01*
X-43045Y72664D01*
X-42336Y71955D01*
X-41469Y71454D01*
X-40501Y71195D01*
X-39499D01*
X-38531Y71454D01*
X-37664Y71955D01*
X-36955Y72664D01*
X-36454Y73531D01*
X-36195Y74499D01*
Y75501D01*
X-36454Y76469D01*
X-36955Y77336D01*
X-37664Y78045D01*
X-38531Y78546D01*
X-39499Y78805D01*
D02*
G37*
G36*
X-49499D02*
X-50501D01*
X-51469Y78546D01*
X-52336Y78045D01*
X-53045Y77336D01*
X-53546Y76469D01*
X-53805Y75501D01*
Y74499D01*
X-53546Y73531D01*
X-53045Y72664D01*
X-52336Y71955D01*
X-51469Y71454D01*
X-50501Y71195D01*
X-49499D01*
X-48531Y71454D01*
X-47664Y71955D01*
X-46955Y72664D01*
X-46454Y73531D01*
X-46195Y74499D01*
Y75501D01*
X-46454Y76469D01*
X-46955Y77336D01*
X-47664Y78045D01*
X-48531Y78546D01*
X-49499Y78805D01*
D02*
G37*
G36*
X-202117Y79363D02*
X-226335D01*
X-227311Y79169D01*
X-228138Y78617D01*
X-234086Y72668D01*
X-234638Y71842D01*
X-234832Y70866D01*
X-234638Y69891D01*
X-234086Y69064D01*
X-233259Y68511D01*
X-232283Y68317D01*
X-231308Y68511D01*
X-230481Y69064D01*
X-225280Y74265D01*
X-202117D01*
X-201142Y74459D01*
X-200315Y75012D01*
X-199762Y75839D01*
X-199568Y76814D01*
X-199762Y77790D01*
X-200315Y78617D01*
X-201142Y79169D01*
X-202117Y79363D01*
D02*
G37*
G36*
X-163633Y73392D02*
X-164713D01*
X-165756Y73112D01*
X-166691Y72572D01*
X-167454Y71809D01*
X-167994Y70874D01*
X-168274Y69831D01*
Y68752D01*
X-167994Y67709D01*
X-167454Y66774D01*
X-166691Y66010D01*
X-165756Y65470D01*
X-164713Y65191D01*
X-163633D01*
X-162591Y65470D01*
X-161655Y66010D01*
X-160892Y66774D01*
X-160352Y67709D01*
X-160073Y68752D01*
Y69831D01*
X-160352Y70874D01*
X-160892Y71809D01*
X-161655Y72572D01*
X-162591Y73112D01*
X-163633Y73392D01*
D02*
G37*
G36*
X-170073D02*
X-178274D01*
Y65191D01*
X-170073D01*
Y73392D01*
D02*
G37*
G36*
X-39499Y68805D02*
X-40501D01*
X-41469Y68546D01*
X-42336Y68045D01*
X-43045Y67336D01*
X-43546Y66469D01*
X-43805Y65501D01*
Y64499D01*
X-43546Y63531D01*
X-43045Y62664D01*
X-42336Y61955D01*
X-41469Y61454D01*
X-40501Y61195D01*
X-39499D01*
X-38531Y61454D01*
X-37664Y61955D01*
X-36955Y62664D01*
X-36454Y63531D01*
X-36195Y64499D01*
Y65501D01*
X-36454Y66469D01*
X-36955Y67336D01*
X-37664Y68045D01*
X-38531Y68546D01*
X-39499Y68805D01*
D02*
G37*
G36*
X-49499D02*
X-50501D01*
X-51469Y68546D01*
X-52336Y68045D01*
X-53045Y67336D01*
X-53546Y66469D01*
X-53805Y65501D01*
Y64499D01*
X-53546Y63531D01*
X-53045Y62664D01*
X-52336Y61955D01*
X-51469Y61454D01*
X-50501Y61195D01*
X-49499D01*
X-48531Y61454D01*
X-47664Y61955D01*
X-46955Y62664D01*
X-46454Y63531D01*
X-46195Y64499D01*
Y65501D01*
X-46454Y66469D01*
X-46955Y67336D01*
X-47664Y68045D01*
X-48531Y68546D01*
X-49499Y68805D01*
D02*
G37*
G36*
X-39499Y58805D02*
X-40501D01*
X-41469Y58546D01*
X-42336Y58045D01*
X-43045Y57336D01*
X-43546Y56469D01*
X-43805Y55501D01*
Y54499D01*
X-43546Y53531D01*
X-43045Y52664D01*
X-42336Y51955D01*
X-41469Y51454D01*
X-40501Y51195D01*
X-39499D01*
X-38531Y51454D01*
X-37664Y51955D01*
X-36955Y52664D01*
X-36454Y53531D01*
X-36195Y54499D01*
Y55501D01*
X-36454Y56469D01*
X-36955Y57336D01*
X-37664Y58045D01*
X-38531Y58546D01*
X-39499Y58805D01*
D02*
G37*
G36*
X-74736Y97201D02*
X-75658D01*
X-76548Y96962D01*
X-77346Y96501D01*
X-77998Y95850D01*
X-78458Y95052D01*
X-78697Y94162D01*
Y93240D01*
X-78458Y92350D01*
X-77998Y91552D01*
X-77746Y91300D01*
Y80197D01*
X-77552Y79221D01*
X-76999Y78394D01*
X-53805Y55200D01*
Y54499D01*
X-53546Y53531D01*
X-53045Y52664D01*
X-52336Y51955D01*
X-51469Y51454D01*
X-50501Y51195D01*
X-49499D01*
X-48531Y51454D01*
X-47664Y51955D01*
X-46955Y52664D01*
X-46454Y53531D01*
X-46195Y54499D01*
Y55501D01*
X-46454Y56469D01*
X-46955Y57336D01*
X-47664Y58045D01*
X-48531Y58546D01*
X-49499Y58805D01*
X-50200D01*
X-72648Y81253D01*
Y91300D01*
X-72396Y91552D01*
X-71935Y92350D01*
X-71697Y93240D01*
Y94162D01*
X-71935Y95052D01*
X-72396Y95850D01*
X-73048Y96501D01*
X-73846Y96962D01*
X-74736Y97201D01*
D02*
G37*
G36*
X-250641Y49770D02*
X-251721D01*
X-252764Y49490D01*
X-253699Y48950D01*
X-254462Y48187D01*
X-255002Y47252D01*
X-255281Y46209D01*
Y45129D01*
X-255002Y44087D01*
X-254462Y43152D01*
X-253699Y42388D01*
X-252764Y41848D01*
X-251721Y41569D01*
X-250641D01*
X-249598Y41848D01*
X-248663Y42388D01*
X-247900Y43152D01*
X-247360Y44087D01*
X-247081Y45129D01*
Y46209D01*
X-247360Y47252D01*
X-247900Y48187D01*
X-248663Y48950D01*
X-249598Y49490D01*
X-250641Y49770D01*
D02*
G37*
G36*
X-39499Y48805D02*
X-40501D01*
X-41469Y48546D01*
X-42336Y48045D01*
X-43045Y47336D01*
X-43546Y46469D01*
X-43805Y45501D01*
Y44499D01*
X-43546Y43531D01*
X-43045Y42664D01*
X-42336Y41955D01*
X-41469Y41454D01*
X-40501Y41195D01*
X-39499D01*
X-38531Y41454D01*
X-37664Y41955D01*
X-36955Y42664D01*
X-36454Y43531D01*
X-36195Y44499D01*
Y45501D01*
X-36454Y46469D01*
X-36955Y47336D01*
X-37664Y48045D01*
X-38531Y48546D01*
X-39499Y48805D01*
D02*
G37*
G36*
X-49499D02*
X-50501D01*
X-51469Y48546D01*
X-52336Y48045D01*
X-53045Y47336D01*
X-53546Y46469D01*
X-53805Y45501D01*
Y44499D01*
X-53546Y43531D01*
X-53045Y42664D01*
X-52336Y41955D01*
X-51469Y41454D01*
X-50501Y41195D01*
X-49499D01*
X-48531Y41454D01*
X-47664Y41955D01*
X-46955Y42664D01*
X-46454Y43531D01*
X-46195Y44499D01*
Y45501D01*
X-46454Y46469D01*
X-46955Y47336D01*
X-47664Y48045D01*
X-48531Y48546D01*
X-49499Y48805D01*
D02*
G37*
G36*
X-247081Y39770D02*
X-255281D01*
Y31569D01*
X-247081D01*
Y39770D01*
D02*
G37*
G36*
X-39499Y38805D02*
X-40501D01*
X-41469Y38546D01*
X-42336Y38045D01*
X-43045Y37336D01*
X-43546Y36469D01*
X-43805Y35501D01*
Y34499D01*
X-43546Y33531D01*
X-43045Y32664D01*
X-42336Y31955D01*
X-41469Y31454D01*
X-40501Y31195D01*
X-39499D01*
X-38531Y31454D01*
X-37664Y31955D01*
X-36955Y32664D01*
X-36454Y33531D01*
X-36195Y34499D01*
Y35501D01*
X-36454Y36469D01*
X-36955Y37336D01*
X-37664Y38045D01*
X-38531Y38546D01*
X-39499Y38805D01*
D02*
G37*
G36*
X-49499D02*
X-50501D01*
X-51469Y38546D01*
X-52336Y38045D01*
X-53045Y37336D01*
X-53546Y36469D01*
X-53805Y35501D01*
Y34499D01*
X-53546Y33531D01*
X-53045Y32664D01*
X-52336Y31955D01*
X-51469Y31454D01*
X-50501Y31195D01*
X-49499D01*
X-48531Y31454D01*
X-47664Y31955D01*
X-46955Y32664D01*
X-46454Y33531D01*
X-46195Y34499D01*
Y35501D01*
X-46454Y36469D01*
X-46955Y37336D01*
X-47664Y38045D01*
X-48531Y38546D01*
X-49499Y38805D01*
D02*
G37*
G36*
X-356457Y48500D02*
X-358582D01*
X-360681Y48168D01*
X-362702Y47511D01*
X-364595Y46546D01*
X-366314Y45297D01*
X-367817Y43795D01*
X-369066Y42075D01*
X-370031Y40182D01*
X-370687Y38161D01*
X-371020Y36062D01*
Y33937D01*
X-370687Y31839D01*
X-370031Y29818D01*
X-369066Y27924D01*
X-367817Y26205D01*
X-366314Y24703D01*
X-364595Y23454D01*
X-362702Y22489D01*
X-360681Y21832D01*
X-358582Y21500D01*
X-356457D01*
X-354358Y21832D01*
X-352338Y22489D01*
X-350444Y23454D01*
X-348725Y24703D01*
X-347222Y26205D01*
X-345973Y27924D01*
X-345009Y29818D01*
X-344352Y31839D01*
X-344020Y33937D01*
Y36062D01*
X-344352Y38161D01*
X-345009Y40182D01*
X-345973Y42075D01*
X-347222Y43795D01*
X-348725Y45297D01*
X-350444Y46546D01*
X-352338Y47511D01*
X-354358Y48168D01*
X-356457Y48500D01*
D02*
G37*
G36*
X-39499Y28805D02*
X-40501D01*
X-41469Y28546D01*
X-42336Y28045D01*
X-43045Y27336D01*
X-43546Y26469D01*
X-43805Y25501D01*
Y24499D01*
X-43546Y23531D01*
X-43045Y22664D01*
X-42336Y21955D01*
X-41469Y21454D01*
X-40501Y21195D01*
X-39499D01*
X-38531Y21454D01*
X-37664Y21955D01*
X-36955Y22664D01*
X-36454Y23531D01*
X-36195Y24499D01*
Y25501D01*
X-36454Y26469D01*
X-36955Y27336D01*
X-37664Y28045D01*
X-38531Y28546D01*
X-39499Y28805D01*
D02*
G37*
G36*
X-18937Y33500D02*
X-21062D01*
X-23161Y33168D01*
X-25182Y32511D01*
X-27075Y31546D01*
X-28795Y30297D01*
X-30297Y28795D01*
X-31546Y27075D01*
X-32511Y25182D01*
X-33168Y23161D01*
X-33500Y21062D01*
Y18937D01*
X-33168Y16839D01*
X-32511Y14818D01*
X-31546Y12924D01*
X-30297Y11205D01*
X-28795Y9703D01*
X-27075Y8454D01*
X-25182Y7489D01*
X-23161Y6832D01*
X-21062Y6500D01*
X-18937D01*
X-16839Y6832D01*
X-14818Y7489D01*
X-12924Y8454D01*
X-11205Y9703D01*
X-9703Y11205D01*
X-8454Y12924D01*
X-7489Y14818D01*
X-6832Y16839D01*
X-6500Y18937D01*
Y21062D01*
X-6832Y23161D01*
X-7489Y25182D01*
X-8454Y27075D01*
X-9703Y28795D01*
X-11205Y30297D01*
X-12924Y31546D01*
X-14818Y32511D01*
X-16839Y33168D01*
X-18937Y33500D01*
D02*
G37*
%LPD*%
D40*
X-60236Y82284D02*
Y294764D01*
X-50000Y305000D01*
D43*
X-105905Y196457D02*
Y198936D01*
X-124133Y217164D02*
X-105905Y198936D01*
X-133465Y206693D02*
X-133071Y207087D01*
X-133465Y199213D02*
Y206693D01*
Y199213D02*
X-124409Y190157D01*
X-226335Y76814D02*
X-202117D01*
X-232283Y70866D02*
X-226335Y76814D01*
X-234646Y103150D02*
X-233858Y103937D01*
X-230163D01*
X-225045Y98819D02*
X-211417D01*
X-230163Y103937D02*
X-225045Y98819D01*
X-75197Y80197D02*
Y93701D01*
Y80197D02*
X-50000Y55000D01*
D49*
X-251181Y35669D02*
D03*
X-147638Y245827D02*
D03*
X-324803Y221496D02*
D03*
D50*
X-251181Y45669D02*
D03*
X-147638Y235827D02*
D03*
X-324803Y231496D02*
D03*
X-164173Y69291D02*
D03*
X-242913Y329921D02*
D03*
X-200000Y330315D02*
D03*
X-74252Y190945D02*
D03*
D51*
X-50000Y25000D02*
D03*
D52*
Y35000D02*
D03*
Y45000D02*
D03*
Y55000D02*
D03*
Y65000D02*
D03*
Y75000D02*
D03*
Y85000D02*
D03*
Y95000D02*
D03*
Y105000D02*
D03*
Y115000D02*
D03*
Y125000D02*
D03*
Y135000D02*
D03*
Y145000D02*
D03*
Y155000D02*
D03*
Y165000D02*
D03*
Y175000D02*
D03*
Y185000D02*
D03*
Y195000D02*
D03*
Y205000D02*
D03*
Y215000D02*
D03*
Y225000D02*
D03*
Y235000D02*
D03*
Y245000D02*
D03*
Y255000D02*
D03*
Y265000D02*
D03*
Y275000D02*
D03*
Y285000D02*
D03*
Y295000D02*
D03*
Y305000D02*
D03*
Y315000D02*
D03*
Y325000D02*
D03*
Y335000D02*
D03*
X-40000Y25000D02*
D03*
Y35000D02*
D03*
Y45000D02*
D03*
Y55000D02*
D03*
Y65000D02*
D03*
Y75000D02*
D03*
Y85000D02*
D03*
Y95000D02*
D03*
Y105000D02*
D03*
Y115000D02*
D03*
Y125000D02*
D03*
Y135000D02*
D03*
Y145000D02*
D03*
Y155000D02*
D03*
Y165000D02*
D03*
Y175000D02*
D03*
Y185000D02*
D03*
Y195000D02*
D03*
Y205000D02*
D03*
Y215000D02*
D03*
Y225000D02*
D03*
Y235000D02*
D03*
Y245000D02*
D03*
Y255000D02*
D03*
Y265000D02*
D03*
Y275000D02*
D03*
Y285000D02*
D03*
Y295000D02*
D03*
Y305000D02*
D03*
Y315000D02*
D03*
Y325000D02*
D03*
Y335000D02*
D03*
D53*
X-313228Y303150D02*
D03*
Y275590D02*
D03*
X-334646D02*
D03*
Y303150D02*
D03*
D54*
X-323937Y276654D02*
D03*
Y284528D02*
D03*
Y292402D02*
D03*
D55*
Y300276D02*
D03*
D56*
X-174173Y69291D02*
D03*
X-232913Y329921D02*
D03*
X-210000Y330315D02*
D03*
X-84252Y190945D02*
D03*
D57*
X-357520Y35000D02*
D03*
Y325000D02*
D03*
X-20000Y335000D02*
D03*
Y20000D02*
D03*
D58*
X-124133Y217164D02*
D03*
X-105905Y196457D02*
D03*
X-133071Y207087D02*
D03*
X-124409Y190157D02*
D03*
X-202117Y76814D02*
D03*
X-232283Y70866D02*
D03*
X-234646Y103150D02*
D03*
X-211417Y98819D02*
D03*
X-251575Y223228D02*
D03*
X-145669Y338189D02*
D03*
X-116535Y174016D02*
D03*
X-100787Y150787D02*
D03*
X-187402Y35039D02*
D03*
D59*
X-224667Y105512D02*
D03*
X-187795Y83858D02*
D03*
X-60236Y82284D02*
D03*
X-75197Y93701D02*
D03*
X-298819Y70866D02*
D03*
X-306299D02*
D03*
X-302756Y76772D02*
D03*
X-223879Y125984D02*
D03*
X-267323Y205118D02*
D03*
X-263386Y210236D02*
D03*
X-203937Y279134D02*
D03*
X-183465Y255906D02*
D03*
X-183858Y264173D02*
D03*
X-193307Y283858D02*
D03*
Y292126D02*
D03*
X-148819Y199213D02*
D03*
X-87795Y207480D02*
D03*
X-94882Y209055D02*
D03*
X-89370Y214961D02*
D03*
X-79528Y207480D02*
D03*
X-72835D02*
D03*
X-224667Y112205D02*
D03*
X-218761Y108661D02*
D03*
X-223879Y119291D02*
D03*
X-210494Y51181D02*
D03*
%TF.MD5,d523ea8f0090b467920be17f355f5d2b*%
M02*
