%TF.GenerationSoftware,Altium Limited,Altium Designer,23.1.1 (15)*%
G04 Layer_Color=255*
%FSLAX25Y25*%
%MOIN*%
%TF.SameCoordinates,209943D4-F1A4-4043-803A-0C530BE15E34*%
%TF.FilePolarity,Positive*%
%TF.FileFunction,Pads,Top*%
%TF.Part,Single*%
G01*
G75*
%TA.AperFunction,SMDPad,CuDef*%
%ADD10R,0.03543X0.03937*%
%ADD11R,0.12598X0.19291*%
%ADD12R,0.04560X0.03985*%
%ADD13R,0.03543X0.03150*%
%ADD14R,0.16417X0.14055*%
%ADD15R,0.06299X0.05512*%
%ADD16R,0.05512X0.06299*%
%ADD17R,0.02613X0.03394*%
%ADD18R,0.09055X0.22047*%
%ADD19R,0.05512X0.13386*%
%ADD20R,0.26969X0.41339*%
%ADD21R,0.11024X0.03543*%
%ADD22R,0.19291X0.12795*%
%ADD23R,0.11024X0.20866*%
%ADD24R,0.13780X0.14961*%
%ADD25R,0.10261X0.06704*%
%ADD26R,0.06704X0.10261*%
%ADD27R,0.03150X0.03543*%
%ADD28R,0.04921X0.02362*%
%ADD29R,0.05756X0.05530*%
%ADD30R,0.05151X0.04352*%
%ADD31R,0.04213X0.07165*%
%ADD32R,0.13780X0.06299*%
%ADD33R,0.03543X0.03150*%
%ADD34R,0.08465X0.15748*%
%ADD35R,0.02977X0.05733*%
%ADD36R,0.11221X0.12598*%
%ADD37R,0.03937X0.05151*%
%ADD38R,0.02362X0.04921*%
%ADD39R,0.07165X0.04213*%
%TA.AperFunction,ComponentPad*%
%ADD49R,0.06201X0.06201*%
%ADD50C,0.06201*%
%ADD51R,0.05610X0.05610*%
%ADD52C,0.05610*%
%ADD53C,0.07972*%
%ADD54C,0.05634*%
%ADD55R,0.05634X0.05634*%
%ADD56R,0.06201X0.06201*%
%TA.AperFunction,WasherPad*%
%ADD57C,0.25000*%
D10*
X-321772Y83268D02*
D03*
X-329410D02*
D03*
D11*
X-325590Y100394D02*
D03*
D12*
X-168218Y37795D02*
D03*
X-174533D02*
D03*
D13*
X-90748Y178740D02*
D03*
X-84055D02*
D03*
X-127756Y185433D02*
D03*
X-121063D02*
D03*
D14*
X-322441Y153937D02*
D03*
Y130709D02*
D03*
D15*
X-100787Y172835D02*
D03*
Y161024D02*
D03*
D16*
X-175591Y24803D02*
D03*
X-187402D02*
D03*
X-168110Y338189D02*
D03*
X-156299D02*
D03*
D17*
X-183627D02*
D03*
X-188583D02*
D03*
D18*
X-296654Y30512D02*
D03*
X-327362D02*
D03*
D19*
X-307087Y56496D02*
D03*
X-316929D02*
D03*
D20*
X-191929Y212992D02*
D03*
D21*
X-232677Y197992D02*
D03*
Y202992D02*
D03*
Y207992D02*
D03*
Y212992D02*
D03*
Y217992D02*
D03*
Y222992D02*
D03*
Y227992D02*
D03*
D22*
X-276378Y260236D02*
D03*
Y305118D02*
D03*
D23*
X-233328Y89764D02*
D03*
X-273486D02*
D03*
D24*
X-109055Y251772D02*
D03*
Y221457D02*
D03*
D25*
X-76378Y226184D02*
D03*
Y217911D02*
D03*
D26*
X-241008Y122441D02*
D03*
X-232735D02*
D03*
D27*
X-211675Y87795D02*
D03*
X-205769D02*
D03*
X-223683Y48819D02*
D03*
X-217777D02*
D03*
D28*
X-211084Y78543D02*
D03*
Y74803D02*
D03*
Y71063D02*
D03*
X-220927D02*
D03*
Y74803D02*
D03*
Y78543D02*
D03*
D29*
X-199864Y70672D02*
D03*
Y63186D02*
D03*
D30*
X-188053Y76679D02*
D03*
Y71353D02*
D03*
D31*
X-223643Y59352D02*
D03*
X-212777D02*
D03*
D32*
X-210236Y300787D02*
D03*
X-232283D02*
D03*
D33*
X-251575Y235039D02*
D03*
Y229134D02*
D03*
X-112205Y196653D02*
D03*
Y190748D02*
D03*
X-140157Y212008D02*
D03*
Y206102D02*
D03*
D34*
X-279921Y202165D02*
D03*
Y235630D02*
D03*
D35*
X-217815Y239764D02*
D03*
X-226279D02*
D03*
D36*
X-207677Y259055D02*
D03*
X-230906D02*
D03*
D37*
X-123021Y174016D02*
D03*
X-128347D02*
D03*
D38*
X-120669Y195866D02*
D03*
X-124409D02*
D03*
X-128150D02*
D03*
Y205709D02*
D03*
X-124409D02*
D03*
X-120669D02*
D03*
D39*
X-147835Y218032D02*
D03*
Y207165D02*
D03*
D49*
X-251181Y35669D02*
D03*
X-147638Y245827D02*
D03*
X-324803Y221496D02*
D03*
D50*
X-251181Y45669D02*
D03*
X-147638Y235827D02*
D03*
X-324803Y231496D02*
D03*
X-164173Y69291D02*
D03*
X-242913Y329921D02*
D03*
X-200000Y330315D02*
D03*
X-74252Y190945D02*
D03*
D51*
X-50000Y25000D02*
D03*
D52*
Y35000D02*
D03*
Y45000D02*
D03*
Y55000D02*
D03*
Y65000D02*
D03*
Y75000D02*
D03*
Y85000D02*
D03*
Y95000D02*
D03*
Y105000D02*
D03*
Y115000D02*
D03*
Y125000D02*
D03*
Y135000D02*
D03*
Y145000D02*
D03*
Y155000D02*
D03*
Y165000D02*
D03*
Y175000D02*
D03*
Y185000D02*
D03*
Y195000D02*
D03*
Y205000D02*
D03*
Y215000D02*
D03*
Y225000D02*
D03*
Y235000D02*
D03*
Y245000D02*
D03*
Y255000D02*
D03*
Y265000D02*
D03*
Y275000D02*
D03*
Y285000D02*
D03*
Y295000D02*
D03*
Y305000D02*
D03*
Y315000D02*
D03*
Y325000D02*
D03*
Y335000D02*
D03*
X-40000Y25000D02*
D03*
Y35000D02*
D03*
Y45000D02*
D03*
Y55000D02*
D03*
Y65000D02*
D03*
Y75000D02*
D03*
Y85000D02*
D03*
Y95000D02*
D03*
Y105000D02*
D03*
Y115000D02*
D03*
Y125000D02*
D03*
Y135000D02*
D03*
Y145000D02*
D03*
Y155000D02*
D03*
Y165000D02*
D03*
Y175000D02*
D03*
Y185000D02*
D03*
Y195000D02*
D03*
Y205000D02*
D03*
Y215000D02*
D03*
Y225000D02*
D03*
Y235000D02*
D03*
Y245000D02*
D03*
Y255000D02*
D03*
Y265000D02*
D03*
Y275000D02*
D03*
Y285000D02*
D03*
Y295000D02*
D03*
Y305000D02*
D03*
Y315000D02*
D03*
Y325000D02*
D03*
Y335000D02*
D03*
D53*
X-313228Y303150D02*
D03*
Y275590D02*
D03*
X-334646D02*
D03*
Y303150D02*
D03*
D54*
X-323937Y276654D02*
D03*
Y284528D02*
D03*
Y292402D02*
D03*
D55*
Y300276D02*
D03*
D56*
X-174173Y69291D02*
D03*
X-232913Y329921D02*
D03*
X-210000Y330315D02*
D03*
X-84252Y190945D02*
D03*
D57*
X-357520Y35000D02*
D03*
Y325000D02*
D03*
X-20000Y335000D02*
D03*
Y20000D02*
D03*
%TF.MD5,5907da72ae47b0620fdf44053569bfc3*%
M02*
