%TF.GenerationSoftware,Altium Limited,Altium Designer,23.1.1 (15)*%
G04 Layer_Color=0*
%FSLAX25Y25*%
%MOIN*%
%TF.SameCoordinates,209943D4-F1A4-4043-803A-0C530BE15E34*%
%TF.FilePolarity,Positive*%
%TF.FileFunction,Plated,1,2,PTH,Drill*%
%TF.Part,Single*%
G01*
G75*
%TA.AperFunction,ComponentDrill*%
%ADD101C,0.04134*%
%ADD102C,0.03740*%
%ADD103C,0.05315*%
%ADD104C,0.03622*%
%ADD105C,0.04134*%
%TA.AperFunction,ViaDrill,NotFilled*%
%ADD106C,0.01181*%
%ADD107C,0.02800*%
%ADD108C,0.02362*%
D101*
X-251181Y35669D02*
D03*
Y45669D02*
D03*
X-147638Y245827D02*
D03*
Y235827D02*
D03*
X-324803Y231496D02*
D03*
Y221496D02*
D03*
D102*
X-50000Y25000D02*
D03*
Y35000D02*
D03*
Y45000D02*
D03*
Y55000D02*
D03*
Y65000D02*
D03*
Y75000D02*
D03*
Y85000D02*
D03*
Y95000D02*
D03*
Y105000D02*
D03*
Y115000D02*
D03*
Y125000D02*
D03*
Y135000D02*
D03*
Y145000D02*
D03*
Y155000D02*
D03*
Y165000D02*
D03*
Y175000D02*
D03*
Y185000D02*
D03*
Y195000D02*
D03*
Y205000D02*
D03*
Y215000D02*
D03*
Y225000D02*
D03*
Y235000D02*
D03*
Y245000D02*
D03*
Y255000D02*
D03*
Y265000D02*
D03*
Y275000D02*
D03*
Y285000D02*
D03*
Y295000D02*
D03*
Y305000D02*
D03*
Y315000D02*
D03*
Y325000D02*
D03*
Y335000D02*
D03*
X-40000Y25000D02*
D03*
Y35000D02*
D03*
Y45000D02*
D03*
Y55000D02*
D03*
Y65000D02*
D03*
Y75000D02*
D03*
Y85000D02*
D03*
Y95000D02*
D03*
Y105000D02*
D03*
Y115000D02*
D03*
Y125000D02*
D03*
Y135000D02*
D03*
Y145000D02*
D03*
Y155000D02*
D03*
Y165000D02*
D03*
Y175000D02*
D03*
Y185000D02*
D03*
Y195000D02*
D03*
Y205000D02*
D03*
Y215000D02*
D03*
Y225000D02*
D03*
Y235000D02*
D03*
Y245000D02*
D03*
Y255000D02*
D03*
Y265000D02*
D03*
Y275000D02*
D03*
Y285000D02*
D03*
Y295000D02*
D03*
Y305000D02*
D03*
Y315000D02*
D03*
Y325000D02*
D03*
Y335000D02*
D03*
D103*
X-313228Y303150D02*
D03*
Y275590D02*
D03*
X-334646D02*
D03*
Y303150D02*
D03*
D104*
X-323937Y276654D02*
D03*
Y284528D02*
D03*
Y292402D02*
D03*
Y300276D02*
D03*
D105*
X-164173Y69291D02*
D03*
X-174173D02*
D03*
X-242913Y329921D02*
D03*
X-232913D02*
D03*
X-200000Y330315D02*
D03*
X-210000D02*
D03*
X-74252Y190945D02*
D03*
X-84252D02*
D03*
D106*
X-124133Y217164D02*
D03*
X-105905Y196457D02*
D03*
X-133071Y207087D02*
D03*
X-124409Y190157D02*
D03*
X-202117Y76814D02*
D03*
X-232283Y70866D02*
D03*
X-234646Y103150D02*
D03*
X-211417Y98819D02*
D03*
X-251575Y223228D02*
D03*
X-145669Y338189D02*
D03*
X-116535Y174016D02*
D03*
X-100787Y150787D02*
D03*
X-187402Y35039D02*
D03*
D107*
X-224667Y105512D02*
D03*
X-298819Y70866D02*
D03*
X-306299D02*
D03*
X-302756Y76772D02*
D03*
X-223879Y125984D02*
D03*
X-267323Y205118D02*
D03*
X-263386Y210236D02*
D03*
X-203937Y279134D02*
D03*
X-183465Y255906D02*
D03*
X-183858Y264173D02*
D03*
X-193307Y283858D02*
D03*
Y292126D02*
D03*
X-148819Y199213D02*
D03*
X-87795Y207480D02*
D03*
X-94882Y209055D02*
D03*
X-89370Y214961D02*
D03*
X-79528Y207480D02*
D03*
X-72835D02*
D03*
X-224667Y112205D02*
D03*
X-218761Y108661D02*
D03*
X-223879Y119291D02*
D03*
X-210494Y51181D02*
D03*
D108*
X-187795Y83858D02*
D03*
X-60236Y82284D02*
D03*
X-75197Y93701D02*
D03*
%TF.MD5,0fd8f89675f2c3cc006a5373895520b8*%
M02*
