%TF.GenerationSoftware,Altium Limited,Altium Designer,23.1.1 (15)*%
G04 Layer_Physical_Order=1*
G04 Layer_Color=255*
%FSLAX25Y25*%
%MOIN*%
%TF.SameCoordinates,209943D4-F1A4-4043-803A-0C530BE15E34*%
%TF.FilePolarity,Positive*%
%TF.FileFunction,Copper,L1,Top,Signal*%
%TF.Part,Single*%
G01*
G75*
%TA.AperFunction,SMDPad,CuDef*%
%ADD10R,0.03543X0.03937*%
%ADD11R,0.12598X0.19291*%
%ADD12R,0.04560X0.03985*%
%ADD13R,0.03543X0.03150*%
%ADD14R,0.16417X0.14055*%
%ADD15R,0.06299X0.05512*%
%ADD16R,0.05512X0.06299*%
%ADD17R,0.02613X0.03394*%
%ADD18R,0.09055X0.22047*%
%ADD19R,0.05512X0.13386*%
%ADD20R,0.26969X0.41339*%
%ADD21R,0.11024X0.03543*%
%ADD22R,0.19291X0.12795*%
%ADD23R,0.11024X0.20866*%
%ADD24R,0.13780X0.14961*%
%ADD25R,0.10261X0.06704*%
%ADD26R,0.06704X0.10261*%
%ADD27R,0.03150X0.03543*%
%ADD28R,0.04921X0.02362*%
%ADD29R,0.05756X0.05530*%
%ADD30R,0.05151X0.04352*%
%ADD31R,0.04213X0.07165*%
%ADD32R,0.13780X0.06299*%
%ADD33R,0.03543X0.03150*%
%ADD34R,0.08465X0.15748*%
%ADD35R,0.02977X0.05733*%
%ADD36R,0.11221X0.12598*%
%ADD37R,0.03937X0.05151*%
%ADD38R,0.02362X0.04921*%
%ADD39R,0.07165X0.04213*%
%TA.AperFunction,Conductor*%
%ADD40C,0.05000*%
%ADD41C,0.01968*%
%ADD42C,0.02362*%
%ADD43C,0.03000*%
%ADD44C,0.02756*%
%ADD45C,0.01181*%
%ADD46C,0.03150*%
%ADD47C,0.03937*%
%ADD48C,0.01000*%
%TA.AperFunction,ComponentPad*%
%ADD49R,0.06201X0.06201*%
%ADD50C,0.06201*%
%ADD51R,0.05610X0.05610*%
%ADD52C,0.05610*%
%ADD53C,0.07972*%
%ADD54C,0.05634*%
%ADD55R,0.05634X0.05634*%
%ADD56R,0.06201X0.06201*%
%TA.AperFunction,WasherPad*%
%ADD57C,0.25000*%
%TA.AperFunction,ViaPad*%
%ADD58C,0.02756*%
%ADD59C,0.05000*%
G36*
X-204724Y333465D02*
Y326772D01*
X-209449Y321260D01*
X-216142D01*
X-222835Y314567D01*
Y300000D01*
X-225197Y297638D01*
X-285827D01*
X-287402Y299213D01*
Y312598D01*
X-285433Y314567D01*
X-242520D01*
X-237795Y319291D01*
Y334252D01*
X-237008Y335039D01*
X-206299D01*
X-204724Y333465D01*
D02*
G37*
G36*
X-223622Y265354D02*
Y237008D01*
X-226378Y234252D01*
Y226772D01*
X-227165Y225984D01*
X-238976D01*
X-239764Y226772D01*
Y252362D01*
X-286221D01*
X-287402Y253543D01*
Y266929D01*
X-286614Y267717D01*
X-225984D01*
X-223622Y265354D01*
D02*
G37*
G36*
X-68898Y252306D02*
Y227559D01*
X-71260Y222835D01*
X-81890D01*
X-82677Y223622D01*
Y231890D01*
X-89764Y238976D01*
X-112598D01*
X-118504Y244882D01*
Y259449D01*
X-114567Y262992D01*
X-78248D01*
X-68898Y252306D01*
D02*
G37*
G36*
X-69291Y220472D02*
Y205512D01*
X-72047Y202756D01*
X-122047D01*
X-122228Y202937D01*
Y205513D01*
X-122186Y205728D01*
Y210098D01*
X-120472Y211811D01*
X-99606D01*
X-91732Y219685D01*
X-83465D01*
X-81496Y221654D01*
X-70472D01*
X-69291Y220472D01*
D02*
G37*
G36*
X-136221Y238189D02*
Y217717D01*
X-126772Y208268D01*
Y202687D01*
X-127096Y202362D01*
X-131890D01*
X-135433Y205906D01*
Y209842D01*
X-135827Y210236D01*
X-142520D01*
X-146850Y214567D01*
X-150787D01*
X-151969Y215748D01*
Y238583D01*
X-150394Y240158D01*
X-138189D01*
X-136221Y238189D01*
D02*
G37*
G36*
X-142520Y207874D02*
X-138189D01*
X-137402Y207087D01*
Y204331D01*
X-138189Y203543D01*
X-144095D01*
Y203543D01*
X-145276Y202362D01*
Y197638D01*
X-147244Y195669D01*
X-151575D01*
X-151969Y196063D01*
Y209449D01*
X-151575Y209842D01*
X-144488D01*
X-142520Y207874D01*
D02*
G37*
G36*
X-258268Y213386D02*
Y196063D01*
X-261417Y192913D01*
X-284646D01*
X-286221Y194488D01*
Y213779D01*
X-283465Y216535D01*
X-261417D01*
X-258268Y213386D01*
D02*
G37*
G36*
X-176378Y301575D02*
Y192126D01*
X-177559Y190945D01*
X-205906D01*
Y190945D01*
X-213386Y198425D01*
Y292913D01*
X-218504Y298031D01*
Y303543D01*
X-216535Y305512D01*
X-180315D01*
X-176378Y301575D01*
D02*
G37*
G36*
X-309055Y137795D02*
Y104331D01*
X-317717Y95669D01*
Y90945D01*
X-319291Y89370D01*
X-332677D01*
X-334646Y91339D01*
Y138189D01*
X-331890Y140945D01*
X-312205D01*
X-309055Y137795D01*
D02*
G37*
G36*
X-237104Y127655D02*
Y117573D01*
X-237795Y116535D01*
X-259449D01*
X-265354Y110630D01*
Y79921D01*
X-267717Y77559D01*
X-278740D01*
X-280709Y79528D01*
Y126378D01*
X-278346Y128740D01*
X-238189D01*
X-237104Y127655D01*
D02*
G37*
G36*
X-214431Y121456D02*
Y90551D01*
X-218368Y86614D01*
Y77165D01*
X-225454D01*
X-225848Y77559D01*
Y101181D01*
X-236084Y111417D01*
Y127953D01*
X-233722Y130315D01*
X-223290D01*
X-214431Y121456D01*
D02*
G37*
G36*
X-293701Y79134D02*
Y69291D01*
X-296457Y66535D01*
X-301575D01*
X-303150Y64961D01*
Y50000D01*
X-304331Y48819D01*
X-309842D01*
X-311417Y50394D01*
Y77953D01*
X-307874Y81496D01*
X-296063D01*
X-293701Y79134D01*
D02*
G37*
G36*
X-313110Y84763D02*
Y49489D01*
X-313779Y48819D01*
X-320079D01*
X-320866Y49606D01*
X-320866Y77165D01*
X-324410Y80709D01*
Y85433D01*
X-323622Y86221D01*
X-314567D01*
X-313110Y84763D01*
D02*
G37*
G36*
X-206950Y63386D02*
Y49606D01*
X-207344Y49213D01*
X-210100Y46457D01*
X-219942D01*
X-220336Y46850D01*
Y50787D01*
X-215612Y55512D01*
Y64173D01*
X-214431Y65354D01*
X-208919D01*
X-206950Y63386D01*
D02*
G37*
D10*
X-321772Y83268D02*
D03*
X-329410D02*
D03*
D11*
X-325590Y100394D02*
D03*
D12*
X-168218Y37795D02*
D03*
X-174533D02*
D03*
D13*
X-90748Y178740D02*
D03*
X-84055D02*
D03*
X-127756Y185433D02*
D03*
X-121063D02*
D03*
D14*
X-322441Y153937D02*
D03*
Y130709D02*
D03*
D15*
X-100787Y172835D02*
D03*
Y161024D02*
D03*
D16*
X-175591Y24803D02*
D03*
X-187402D02*
D03*
X-168110Y338189D02*
D03*
X-156299D02*
D03*
D17*
X-183627D02*
D03*
X-188583D02*
D03*
D18*
X-296654Y30512D02*
D03*
X-327362D02*
D03*
D19*
X-307087Y56496D02*
D03*
X-316929D02*
D03*
D20*
X-191929Y212992D02*
D03*
D21*
X-232677Y197992D02*
D03*
Y202992D02*
D03*
Y207992D02*
D03*
Y212992D02*
D03*
Y217992D02*
D03*
Y222992D02*
D03*
Y227992D02*
D03*
D22*
X-276378Y260236D02*
D03*
Y305118D02*
D03*
D23*
X-233328Y89764D02*
D03*
X-273486D02*
D03*
D24*
X-109055Y251772D02*
D03*
Y221457D02*
D03*
D25*
X-76378Y226184D02*
D03*
Y217911D02*
D03*
D26*
X-241008Y122441D02*
D03*
X-232735D02*
D03*
D27*
X-211675Y87795D02*
D03*
X-205769D02*
D03*
X-223683Y48819D02*
D03*
X-217777D02*
D03*
D28*
X-211084Y78543D02*
D03*
Y74803D02*
D03*
Y71063D02*
D03*
X-220927D02*
D03*
Y74803D02*
D03*
Y78543D02*
D03*
D29*
X-199864Y70672D02*
D03*
Y63186D02*
D03*
D30*
X-188053Y76679D02*
D03*
Y71353D02*
D03*
D31*
X-223643Y59352D02*
D03*
X-212777D02*
D03*
D32*
X-210236Y300787D02*
D03*
X-232283D02*
D03*
D33*
X-251575Y235039D02*
D03*
Y229134D02*
D03*
X-112205Y196653D02*
D03*
Y190748D02*
D03*
X-140157Y212008D02*
D03*
Y206102D02*
D03*
D34*
X-279921Y202165D02*
D03*
Y235630D02*
D03*
D35*
X-217815Y239764D02*
D03*
X-226279D02*
D03*
D36*
X-207677Y259055D02*
D03*
X-230906D02*
D03*
D37*
X-123021Y174016D02*
D03*
X-128347D02*
D03*
D38*
X-120669Y195866D02*
D03*
X-124409D02*
D03*
X-128150D02*
D03*
Y205709D02*
D03*
X-124409D02*
D03*
X-120669D02*
D03*
D39*
X-147835Y218032D02*
D03*
Y207165D02*
D03*
D40*
X-321260Y153937D02*
X-300000Y175197D01*
X-166315D01*
X-322441Y153937D02*
X-321260D01*
X-322441D02*
X-319331Y150827D01*
X-306732D01*
X-287008Y131102D01*
X-323228Y154724D02*
X-322441Y153937D01*
X-324803Y221496D02*
X-323228Y219921D01*
Y154724D02*
Y219921D01*
X-287008Y38496D02*
X-284079Y35567D01*
X-287008Y38496D02*
Y131102D01*
X-284079Y35567D02*
X-251283D01*
X-210000Y330315D02*
X-207208Y327523D01*
Y321798D02*
X-204280Y318869D01*
X-179851D01*
X-207208Y321798D02*
Y327523D01*
X-170472Y187181D02*
Y309491D01*
X-179851Y318869D02*
X-170472Y309491D01*
X-60236Y55236D02*
Y82284D01*
Y55236D02*
X-50000Y45000D01*
X-166315Y175197D02*
X-163386Y178126D01*
Y242520D01*
X-160079Y245827D02*
X-147638D01*
X-163386Y242520D02*
X-160079Y245827D01*
X-173401Y184252D02*
X-170472Y187181D01*
X-206704Y184252D02*
X-173401D01*
X-324803Y232283D02*
X-281653D01*
X-322473Y130677D02*
X-322441Y130709D01*
X-323937Y320927D02*
X-315730Y329134D01*
X-323937Y300276D02*
Y320927D01*
X-315730Y329134D02*
X-315103D01*
X-225444Y202992D02*
X-206704Y184252D01*
X-281653Y232283D02*
X-279921Y234016D01*
Y235630D01*
X-315416Y329921D02*
X-242913Y329921D01*
D41*
X-126147Y200311D02*
X-121458D01*
X-120305Y201464D01*
Y203095D01*
X-120472Y203262D02*
X-120305Y203095D01*
X-120472Y203262D02*
Y205512D01*
X-120669Y205709D02*
X-120472Y205512D01*
X-139370Y204526D02*
X-135154Y200310D01*
X-130154D02*
X-130153Y200311D01*
X-126147D01*
X-135154Y200310D02*
X-130154D01*
X-126147Y200311D02*
X-126147Y200311D01*
X-140157Y206102D02*
X-139961D01*
X-139370Y204526D02*
Y205512D01*
X-139961Y206102D02*
X-139370Y205512D01*
X-204305Y74839D02*
X-202481Y76664D01*
X-211048Y74839D02*
X-204305D01*
X-202481Y76664D02*
X-202268Y76450D01*
D42*
X-124133Y217058D02*
Y217164D01*
X-124409Y205728D02*
Y216781D01*
X-124133Y217058D01*
Y217164D02*
X-112757D01*
X-111909Y218012D01*
X-124409Y190157D02*
Y195866D01*
X-119390Y194587D02*
X-115694Y190891D01*
X-120669Y194587D02*
X-119390D01*
X-115694Y190891D02*
X-112348D01*
X-112205Y190748D01*
X-211084Y78543D02*
X-207153D01*
X-205769Y79927D01*
Y87795D01*
X-223879Y125984D02*
X-223375Y125479D01*
X-221543D01*
X-75197Y217911D02*
X-73026Y215740D01*
X-76378Y217911D02*
X-75197D01*
X-120669Y194587D02*
Y195866D01*
X-128248Y174114D02*
Y185335D01*
X-128150Y185433D01*
X-128347Y174016D02*
X-128248Y174114D01*
X-128150Y186024D02*
Y195866D01*
X-211084Y71063D02*
X-200254D01*
X-233328Y76772D02*
Y89764D01*
Y76772D02*
X-231360Y74803D01*
X-220927D01*
D43*
X-112205Y218307D02*
X-109055Y221457D01*
X-112205Y196653D02*
X-106102D01*
X-105905Y196457D01*
X-112402Y196653D02*
X-112205D01*
X-223724Y71063D02*
X-220927D01*
X-232087D02*
X-223724D01*
X-232283Y70866D02*
X-232087Y71063D01*
X-234646Y91081D02*
Y103150D01*
X-211675Y87795D02*
Y98562D01*
X-211417Y98819D01*
X-234646Y91081D02*
X-233328Y89764D01*
X-232677Y222992D02*
X-232677Y222992D01*
X-251575Y223228D02*
Y229134D01*
X-224201Y59910D02*
X-223643Y59352D01*
X-224201Y59910D02*
Y64847D01*
X-225482Y66128D02*
X-224201Y64847D01*
X-225482Y66128D02*
Y69306D01*
X-223724Y71063D01*
X-188053Y76679D02*
X-187924Y76807D01*
Y83730D02*
X-187795Y83858D01*
X-187924Y76807D02*
Y83730D01*
X-217815Y219749D02*
Y239764D01*
X-232677Y217992D02*
X-219572D01*
X-217815Y219749D01*
X-200000Y330315D02*
X-199763Y330552D01*
X-93151D02*
X-67598Y305000D01*
X-199763Y330552D02*
X-93151D01*
X-84252Y199213D02*
X-69685D01*
X-93125D02*
X-84252D01*
Y190945D02*
Y199213D01*
X-67598Y305000D02*
X-50000D01*
X-86614Y69291D02*
X-52211Y103695D01*
X-52012D02*
X-50706Y105000D01*
X-50000D01*
X-52211Y103695D02*
X-52012D01*
X-164173Y69291D02*
X-86614D01*
X-74252Y94646D02*
Y190945D01*
X-75197Y93701D02*
X-74252Y94646D01*
X-94882Y197455D02*
X-93125Y199213D01*
X-69685D02*
X-66142Y202756D01*
X-94882Y185827D02*
Y197455D01*
X-66142Y202756D02*
Y223228D01*
X-60630Y284370D02*
X-50000Y295000D01*
X-60630Y201969D02*
Y284370D01*
X-71041Y191557D02*
X-60630Y201969D01*
X-74252Y190945D02*
X-73640Y191557D01*
X-71041D01*
X-100787Y150787D02*
Y161024D01*
X-68505Y225592D02*
X-66142Y223228D01*
X-121063Y185433D02*
X-95276D01*
X-94882Y185827D01*
X-123021Y174016D02*
X-116535D01*
X-239250Y135039D02*
X-224409D01*
X-174173Y72935D02*
Y84803D01*
X-224409Y135039D02*
X-174173Y84803D01*
X-199864Y63186D02*
X-180279D01*
X-174173Y69291D01*
X-75786Y225592D02*
X-68505D01*
X-76378Y226184D02*
X-75786Y225592D01*
X-241689Y222992D02*
X-241689Y222992D01*
X-232949Y213264D02*
X-232677Y212992D01*
X-241008Y133282D02*
X-239250Y135039D01*
X-241008Y122441D02*
Y133282D01*
X-232677Y202992D02*
X-232677Y202992D01*
X-225444D01*
X-199864Y70672D02*
X-199523Y71013D01*
X-188393D01*
X-200254Y71063D02*
X-199864Y70672D01*
D44*
X-216088Y64999D02*
Y76969D01*
X-220927Y78543D02*
X-217662D01*
X-216088Y64999D02*
X-214081Y62992D01*
X-217662Y78543D02*
X-216088Y76969D01*
X-220927Y78543D02*
X-220927Y78543D01*
D45*
X-202117Y76519D02*
Y76814D01*
X-202553Y76083D02*
X-202117Y76519D01*
X-220927Y71063D02*
X-220336Y71653D01*
D46*
X-251575Y235630D02*
X-248401D01*
X-244488Y225791D02*
Y231717D01*
Y225791D02*
X-241689Y222992D01*
X-279921Y235630D02*
X-251575D01*
X-225528Y45141D02*
X-223683Y46986D01*
X-250653Y45141D02*
X-225528D01*
X-223683Y46986D02*
Y48819D01*
X-251181Y45669D02*
X-250653Y45141D01*
X-223683Y48858D02*
Y49938D01*
X-223643Y49978D02*
Y59269D01*
X-223683Y49938D02*
X-223643Y49978D01*
X-241689Y222992D02*
X-232677D01*
X-248401Y235630D02*
X-244488Y231717D01*
D47*
X-232677Y212992D02*
X-191929D01*
D48*
X-156299Y338189D02*
X-145669D01*
X-100787Y172835D02*
Y177953D01*
X-100000Y178740D02*
X-89880D01*
X-100787Y177953D02*
X-100000Y178740D01*
X-85057Y178874D02*
X-84924Y178740D01*
X-85057Y190139D02*
X-84252Y190945D01*
X-85057Y178874D02*
Y190139D01*
X-174173Y69291D02*
X-173853Y68972D01*
Y37795D02*
Y68972D01*
X-175591Y25197D02*
X-168898Y31890D01*
Y37795D01*
X-175591Y24803D02*
Y25197D01*
X-187402Y24803D02*
Y35039D01*
X-210000Y336063D02*
X-207874Y338189D01*
X-210000Y330315D02*
Y336063D01*
X-183627Y338189D02*
X-168110D01*
X-207874D02*
X-188583D01*
X-125091Y196547D02*
X-124409Y195866D01*
D49*
X-251181Y35669D02*
D03*
X-147638Y245827D02*
D03*
X-324803Y221496D02*
D03*
D50*
X-251181Y45669D02*
D03*
X-147638Y235827D02*
D03*
X-324803Y231496D02*
D03*
X-164173Y69291D02*
D03*
X-242913Y329921D02*
D03*
X-200000Y330315D02*
D03*
X-74252Y190945D02*
D03*
D51*
X-50000Y25000D02*
D03*
D52*
Y35000D02*
D03*
Y45000D02*
D03*
Y55000D02*
D03*
Y65000D02*
D03*
Y75000D02*
D03*
Y85000D02*
D03*
Y95000D02*
D03*
Y105000D02*
D03*
Y115000D02*
D03*
Y125000D02*
D03*
Y135000D02*
D03*
Y145000D02*
D03*
Y155000D02*
D03*
Y165000D02*
D03*
Y175000D02*
D03*
Y185000D02*
D03*
Y195000D02*
D03*
Y205000D02*
D03*
Y215000D02*
D03*
Y225000D02*
D03*
Y235000D02*
D03*
Y245000D02*
D03*
Y255000D02*
D03*
Y265000D02*
D03*
Y275000D02*
D03*
Y285000D02*
D03*
Y295000D02*
D03*
Y305000D02*
D03*
Y315000D02*
D03*
Y325000D02*
D03*
Y335000D02*
D03*
X-40000Y25000D02*
D03*
Y35000D02*
D03*
Y45000D02*
D03*
Y55000D02*
D03*
Y65000D02*
D03*
Y75000D02*
D03*
Y85000D02*
D03*
Y95000D02*
D03*
Y105000D02*
D03*
Y115000D02*
D03*
Y125000D02*
D03*
Y135000D02*
D03*
Y145000D02*
D03*
Y155000D02*
D03*
Y165000D02*
D03*
Y175000D02*
D03*
Y185000D02*
D03*
Y195000D02*
D03*
Y205000D02*
D03*
Y215000D02*
D03*
Y225000D02*
D03*
Y235000D02*
D03*
Y245000D02*
D03*
Y255000D02*
D03*
Y265000D02*
D03*
Y275000D02*
D03*
Y285000D02*
D03*
Y295000D02*
D03*
Y305000D02*
D03*
Y315000D02*
D03*
Y325000D02*
D03*
Y335000D02*
D03*
D53*
X-313228Y303150D02*
D03*
Y275590D02*
D03*
X-334646D02*
D03*
Y303150D02*
D03*
D54*
X-323937Y276654D02*
D03*
Y284528D02*
D03*
Y292402D02*
D03*
D55*
Y300276D02*
D03*
D56*
X-174173Y69291D02*
D03*
X-232913Y329921D02*
D03*
X-210000Y330315D02*
D03*
X-84252Y190945D02*
D03*
D57*
X-357520Y35000D02*
D03*
Y325000D02*
D03*
X-20000Y335000D02*
D03*
Y20000D02*
D03*
D58*
X-124133Y217164D02*
D03*
X-105905Y196457D02*
D03*
X-133071Y207087D02*
D03*
X-124409Y190157D02*
D03*
X-202117Y76814D02*
D03*
X-232283Y70866D02*
D03*
X-234646Y103150D02*
D03*
X-211417Y98819D02*
D03*
X-251575Y223228D02*
D03*
X-145669Y338189D02*
D03*
X-116535Y174016D02*
D03*
X-100787Y150787D02*
D03*
X-187402Y35039D02*
D03*
D59*
X-224667Y105512D02*
D03*
X-187795Y83858D02*
D03*
X-60236Y82284D02*
D03*
X-75197Y93701D02*
D03*
X-298819Y70866D02*
D03*
X-306299D02*
D03*
X-302756Y76772D02*
D03*
X-223879Y125984D02*
D03*
X-267323Y205118D02*
D03*
X-263386Y210236D02*
D03*
X-203937Y279134D02*
D03*
X-183465Y255906D02*
D03*
X-183858Y264173D02*
D03*
X-193307Y283858D02*
D03*
Y292126D02*
D03*
X-148819Y199213D02*
D03*
X-87795Y207480D02*
D03*
X-94882Y209055D02*
D03*
X-89370Y214961D02*
D03*
X-79528Y207480D02*
D03*
X-72835D02*
D03*
X-224667Y112205D02*
D03*
X-218761Y108661D02*
D03*
X-223879Y119291D02*
D03*
X-210494Y51181D02*
D03*
%TF.MD5,e9729dd1dceabbfe4bbd30a0f2bb5b29*%
M02*
